M48
; DRILL file {KiCad (5.1.5-0-10_14)} date 2019 December 30, Monday 20:40:18
; FORMAT={-:-/ absolute / inch / decimal}
; #@! TF.CreationDate,2019-12-30T20:40:18+01:00
; #@! TF.GenerationSoftware,Kicad,Pcbnew,(5.1.5-0-10_14)
; #@! TF.FileFunction,Plated,1,2,PTH
FMAT,2
INCH
T1C0.0157
T2C0.0236
T3C0.0394
T4C0.0579
%
G90
G05
T1
X2.4606Y-3.5827
X3.4547Y-3.5827
X3.5723Y-3.5428
X3.5728Y-3.5827
X5.9252Y-3.7106
X5.9252Y-3.8583
X6.4272Y-1.3681
X6.7087Y-1.0118
X6.7111Y-2.3026
X6.7598Y-1.1378
X6.9193Y-3.7697
X6.9685Y-1.1496
X7.0549Y-3.0118
X7.0549Y-3.7992
X7.0669Y-2.2638
X7.1681Y-3.9244
X7.2835Y-3.0118
X7.3031Y-3.8091
X7.4114Y-1.3681
X7.5492Y-4.2224
X7.6275Y-4.188
X7.6673Y-3.7697
X7.7696Y-3.4914
X7.7853Y-3.5275
X7.7953Y-3.9173
X7.7953Y-4.0354
X7.8133Y-3.5552
X7.8222Y-3.5935
X7.8346Y-2.2638
X7.8543Y-3.622
X7.8868Y-4.1771
X7.9724Y-4.0157
X8.0413Y-4.3012
X8.1195Y-4.1093
X8.1299Y-4.1761
X8.1496Y-4.3504
X8.2584Y-4.3401
X8.2874Y-3.9567
X8.2874Y-3.9567
X8.2972Y-4.4701
X8.3169Y-4.3701
X8.3661Y-4.3209
X8.4744Y-4.4291
X8.7106Y-4.4667
X8.7106Y-4.4667
X8.7303Y-3.8287
X8.7856Y-3.7768
X8.8157Y-3.8069
X8.8473Y-3.8376
X8.8846Y-3.866
X8.9173Y-3.8976
X8.9469Y-4.2305
X8.9469Y-4.2305
X8.9469Y-4.2305
X8.9469Y-4.2305
X9.0453Y-4.4695
X9.0574Y-4.432
X9.2126Y-4.1929
X9.225Y-4.1556
X9.3307Y-3.6811
X9.3307Y-3.8484
T3
X5.3823Y-4.1375
X5.3823Y-4.2375
X5.4823Y-4.1375
X5.4823Y-4.2375
X5.5823Y-4.1375
X5.5823Y-4.2375
T4
X5.4016Y-2.53
X5.5984Y-2.5103
X9.1516Y-2.53
X9.3484Y-2.5103
X8.2141Y-1.78
X8.4109Y-1.7603
X12.3391Y-1.03
X12.5359Y-1.0103
X11.2141Y-1.03
X11.4109Y-1.0103
X9.3391Y-1.03
X9.5359Y-1.0103
X1.5578Y-3.28
X1.7547Y-3.2603
X2.4016Y-2.53
X2.5984Y-2.5103
X3.3391Y-4.03
X3.5359Y-4.0103
X4.2766Y-3.28
X4.4734Y-3.2603
X5.7766Y-3.28
X5.9734Y-3.2603
X6.1516Y-2.53
X6.3484Y-2.5103
X6.9016Y-2.53
X7.0984Y-2.5103
X8.4016Y-2.53
X8.5984Y-2.5103
X12.3391Y-1.78
X12.5359Y-1.7603
X7.4641Y-1.78
X7.6609Y-1.7603
X9.7141Y-1.78
X9.9109Y-1.7603
X10.4641Y-1.78
X10.6609Y-1.7603
X2.9641Y-1.78
X3.1609Y-1.7603
X3.3391Y-1.03
X3.5359Y-1.0103
X4.0891Y-1.03
X4.2859Y-1.0103
X6.3391Y-4.03
X6.5359Y-4.0103
X6.5266Y-3.28
X6.7234Y-3.2603
X5.0266Y-3.28
X5.2234Y-3.2603
X8.7766Y-3.28
X8.9734Y-3.2603
X12.3391Y-2.53
X12.5359Y-2.5103
X7.6516Y-2.53
X7.8484Y-2.5103
X11.1203Y-2.53
X11.3172Y-2.5103
X1.0891Y-1.03
X1.2859Y-1.0103
X1.2766Y-4.03
X1.4734Y-4.0103
X2.7766Y-3.28
X2.9734Y-3.2603
X5.5891Y-1.03
X5.7859Y-1.0103
X6.3391Y-1.03
X6.5359Y-1.0103
X4.8391Y-1.03
X5.0359Y-1.0103
X12.3391Y-3.28
X12.5359Y-3.2603
X8.0266Y-3.28
X8.2234Y-3.2603
X10.5578Y-3.28
X10.7547Y-3.2603
X9.5266Y-3.28
X9.7234Y-3.2603
X9.9016Y-2.53
X10.0984Y-2.5103
X1.2766Y-1.78
X1.4734Y-1.7603
X1.8391Y-1.03
X2.0359Y-1.0103
X2.3078Y-4.03
X2.5047Y-4.0103
X3.1516Y-2.53
X3.3484Y-2.5103
X3.7141Y-1.78
X3.9109Y-1.7603
X4.4641Y-1.78
X4.6609Y-1.7603
X12.3391Y-4.03
X12.5359Y-4.0103
X7.8391Y-1.03
X8.0359Y-1.0103
X8.5891Y-1.03
X8.7859Y-1.0103
X7.2766Y-3.28
X7.4734Y-3.2603
X11.4016Y-1.78
X11.5984Y-1.7603
X9.2453Y-4.03
X9.4422Y-4.0103
X11.5891Y-3.28
X11.7859Y-3.2603
X10.0891Y-4.03
X10.2859Y-4.0103
X2.5891Y-1.03
X2.7859Y-1.0103
X3.5266Y-3.28
X3.7234Y-3.2603
X4.6516Y-2.53
X4.8484Y-2.5103
X5.9641Y-1.78
X6.1609Y-1.7603
X6.7141Y-1.78
X6.9109Y-1.7603
X5.2141Y-1.78
X5.4109Y-1.7603
X8.9641Y-1.78
X9.1609Y-1.7603
X7.0891Y-1.03
X7.2859Y-1.0103
X11.5891Y-4.03
X11.7859Y-4.0103
X10.0891Y-1.03
X10.2859Y-1.0103
X10.8391Y-4.03
X11.0359Y-4.0103
X1.3703Y-2.53
X1.5672Y-2.5103
X2.2141Y-1.78
X2.4109Y-1.7603
X3.9016Y-2.53
X4.0984Y-2.5103
T2
G00X6.637Y-0.685
M15
G01X6.637Y-0.7087
M16
G05
G00X6.637Y-0.8398
M15
G01X6.637Y-0.8831
M16
G05
G00X6.9772Y-0.685
M15
G01X6.9772Y-0.7087
M16
G05
G00X6.9772Y-0.8398
M15
G01X6.9772Y-0.8831
M16
G05
T0
M30
