G04 #@! TF.GenerationSoftware,KiCad,Pcbnew,(5.1.5-0-10_14)*
G04 #@! TF.CreationDate,2019-12-31T13:28:22+01:00*
G04 #@! TF.ProjectId,aek67,61656b36-372e-46b6-9963-61645f706362,rev?*
G04 #@! TF.SameCoordinates,Original*
G04 #@! TF.FileFunction,Soldermask,Top*
G04 #@! TF.FilePolarity,Negative*
%FSLAX46Y46*%
G04 Gerber Fmt 4.6, Leading zero omitted, Abs format (unit mm)*
G04 Created by KiCad (PCBNEW (5.1.5-0-10_14)) date 2019-12-31 13:28:22*
%MOMM*%
%LPD*%
G04 APERTURE LIST*
%ADD10C,0.100000*%
G04 APERTURE END LIST*
D10*
G36*
X141903512Y-106736427D02*
G01*
X142052812Y-106766124D01*
X142216784Y-106834044D01*
X142364354Y-106932647D01*
X142489853Y-107058146D01*
X142588456Y-107205716D01*
X142656376Y-107369688D01*
X142691000Y-107543759D01*
X142691000Y-107721241D01*
X142656376Y-107895312D01*
X142588456Y-108059284D01*
X142489853Y-108206854D01*
X142364354Y-108332353D01*
X142216784Y-108430956D01*
X142052812Y-108498876D01*
X141903512Y-108528573D01*
X141878742Y-108533500D01*
X141701258Y-108533500D01*
X141676488Y-108528573D01*
X141527188Y-108498876D01*
X141363216Y-108430956D01*
X141215646Y-108332353D01*
X141090147Y-108206854D01*
X140991544Y-108059284D01*
X140923624Y-107895312D01*
X140889000Y-107721241D01*
X140889000Y-107543759D01*
X140923624Y-107369688D01*
X140991544Y-107205716D01*
X141090147Y-107058146D01*
X141215646Y-106932647D01*
X141363216Y-106834044D01*
X141527188Y-106766124D01*
X141676488Y-106736427D01*
X141701258Y-106731500D01*
X141878742Y-106731500D01*
X141903512Y-106736427D01*
G37*
G36*
X139363512Y-106736427D02*
G01*
X139512812Y-106766124D01*
X139676784Y-106834044D01*
X139824354Y-106932647D01*
X139949853Y-107058146D01*
X140048456Y-107205716D01*
X140116376Y-107369688D01*
X140151000Y-107543759D01*
X140151000Y-107721241D01*
X140116376Y-107895312D01*
X140048456Y-108059284D01*
X139949853Y-108206854D01*
X139824354Y-108332353D01*
X139676784Y-108430956D01*
X139512812Y-108498876D01*
X139363512Y-108528573D01*
X139338742Y-108533500D01*
X139161258Y-108533500D01*
X139136488Y-108528573D01*
X138987188Y-108498876D01*
X138823216Y-108430956D01*
X138675646Y-108332353D01*
X138550147Y-108206854D01*
X138451544Y-108059284D01*
X138383624Y-107895312D01*
X138349000Y-107721241D01*
X138349000Y-107543759D01*
X138383624Y-107369688D01*
X138451544Y-107205716D01*
X138550147Y-107058146D01*
X138675646Y-106932647D01*
X138823216Y-106834044D01*
X138987188Y-106766124D01*
X139136488Y-106736427D01*
X139161258Y-106731500D01*
X139338742Y-106731500D01*
X139363512Y-106736427D01*
G37*
G36*
X136823512Y-106736427D02*
G01*
X136972812Y-106766124D01*
X137136784Y-106834044D01*
X137284354Y-106932647D01*
X137409853Y-107058146D01*
X137508456Y-107205716D01*
X137576376Y-107369688D01*
X137611000Y-107543759D01*
X137611000Y-107721241D01*
X137576376Y-107895312D01*
X137508456Y-108059284D01*
X137409853Y-108206854D01*
X137284354Y-108332353D01*
X137136784Y-108430956D01*
X136972812Y-108498876D01*
X136823512Y-108528573D01*
X136798742Y-108533500D01*
X136621258Y-108533500D01*
X136596488Y-108528573D01*
X136447188Y-108498876D01*
X136283216Y-108430956D01*
X136135646Y-108332353D01*
X136010147Y-108206854D01*
X135911544Y-108059284D01*
X135843624Y-107895312D01*
X135809000Y-107721241D01*
X135809000Y-107543759D01*
X135843624Y-107369688D01*
X135911544Y-107205716D01*
X136010147Y-107058146D01*
X136135646Y-106932647D01*
X136283216Y-106834044D01*
X136447188Y-106766124D01*
X136596488Y-106736427D01*
X136621258Y-106731500D01*
X136798742Y-106731500D01*
X136823512Y-106736427D01*
G37*
G36*
X142691000Y-105993500D02*
G01*
X140889000Y-105993500D01*
X140889000Y-104191500D01*
X142691000Y-104191500D01*
X142691000Y-105993500D01*
G37*
G36*
X139363512Y-104196427D02*
G01*
X139512812Y-104226124D01*
X139676784Y-104294044D01*
X139824354Y-104392647D01*
X139949853Y-104518146D01*
X140048456Y-104665716D01*
X140116376Y-104829688D01*
X140151000Y-105003759D01*
X140151000Y-105181241D01*
X140116376Y-105355312D01*
X140048456Y-105519284D01*
X139949853Y-105666854D01*
X139824354Y-105792353D01*
X139676784Y-105890956D01*
X139512812Y-105958876D01*
X139363512Y-105988573D01*
X139338742Y-105993500D01*
X139161258Y-105993500D01*
X139136488Y-105988573D01*
X138987188Y-105958876D01*
X138823216Y-105890956D01*
X138675646Y-105792353D01*
X138550147Y-105666854D01*
X138451544Y-105519284D01*
X138383624Y-105355312D01*
X138349000Y-105181241D01*
X138349000Y-105003759D01*
X138383624Y-104829688D01*
X138451544Y-104665716D01*
X138550147Y-104518146D01*
X138675646Y-104392647D01*
X138823216Y-104294044D01*
X138987188Y-104226124D01*
X139136488Y-104196427D01*
X139161258Y-104191500D01*
X139338742Y-104191500D01*
X139363512Y-104196427D01*
G37*
G36*
X136823512Y-104196427D02*
G01*
X136972812Y-104226124D01*
X137136784Y-104294044D01*
X137284354Y-104392647D01*
X137409853Y-104518146D01*
X137508456Y-104665716D01*
X137576376Y-104829688D01*
X137611000Y-105003759D01*
X137611000Y-105181241D01*
X137576376Y-105355312D01*
X137508456Y-105519284D01*
X137409853Y-105666854D01*
X137284354Y-105792353D01*
X137136784Y-105890956D01*
X136972812Y-105958876D01*
X136823512Y-105988573D01*
X136798742Y-105993500D01*
X136621258Y-105993500D01*
X136596488Y-105988573D01*
X136447188Y-105958876D01*
X136283216Y-105890956D01*
X136135646Y-105792353D01*
X136010147Y-105666854D01*
X135911544Y-105519284D01*
X135843624Y-105355312D01*
X135809000Y-105181241D01*
X135809000Y-105003759D01*
X135843624Y-104829688D01*
X135911544Y-104665716D01*
X136010147Y-104518146D01*
X136135646Y-104392647D01*
X136283216Y-104294044D01*
X136447188Y-104226124D01*
X136596488Y-104196427D01*
X136621258Y-104191500D01*
X136798742Y-104191500D01*
X136823512Y-104196427D01*
G37*
G36*
X168688014Y-20786973D02*
G01*
X168791878Y-20818479D01*
X168835907Y-20842013D01*
X168887599Y-20869643D01*
X168887601Y-20869644D01*
X168887600Y-20869644D01*
X168971501Y-20938499D01*
X169040356Y-21022400D01*
X169091521Y-21118121D01*
X169123027Y-21221985D01*
X169131000Y-21302933D01*
X169131000Y-22457067D01*
X169123027Y-22538015D01*
X169091521Y-22641879D01*
X169091519Y-22641882D01*
X169040357Y-22737600D01*
X168971501Y-22821501D01*
X168887600Y-22890357D01*
X168819055Y-22926995D01*
X168791879Y-22941521D01*
X168688015Y-22973027D01*
X168580000Y-22983666D01*
X168471986Y-22973027D01*
X168368122Y-22941521D01*
X168340946Y-22926995D01*
X168272401Y-22890357D01*
X168188500Y-22821501D01*
X168119644Y-22737600D01*
X168068482Y-22641882D01*
X168068480Y-22641879D01*
X168036974Y-22538015D01*
X168029001Y-22457067D01*
X168029000Y-21302934D01*
X168036973Y-21221986D01*
X168068479Y-21118122D01*
X168119644Y-21022400D01*
X168188499Y-20938499D01*
X168272400Y-20869644D01*
X168272399Y-20869644D01*
X168272401Y-20869643D01*
X168324093Y-20842013D01*
X168368121Y-20818479D01*
X168471985Y-20786973D01*
X168580000Y-20776334D01*
X168688014Y-20786973D01*
G37*
G36*
X177328014Y-20786973D02*
G01*
X177431878Y-20818479D01*
X177475907Y-20842013D01*
X177527599Y-20869643D01*
X177527601Y-20869644D01*
X177527600Y-20869644D01*
X177611501Y-20938499D01*
X177680356Y-21022400D01*
X177731521Y-21118121D01*
X177763027Y-21221985D01*
X177771000Y-21302933D01*
X177771000Y-22457067D01*
X177763027Y-22538015D01*
X177731521Y-22641879D01*
X177731519Y-22641882D01*
X177680357Y-22737600D01*
X177611501Y-22821501D01*
X177527600Y-22890357D01*
X177459055Y-22926995D01*
X177431879Y-22941521D01*
X177328015Y-22973027D01*
X177220000Y-22983666D01*
X177111986Y-22973027D01*
X177008122Y-22941521D01*
X176980946Y-22926995D01*
X176912401Y-22890357D01*
X176828500Y-22821501D01*
X176759644Y-22737600D01*
X176708482Y-22641882D01*
X176708480Y-22641879D01*
X176676974Y-22538015D01*
X176669001Y-22457067D01*
X176669000Y-21302934D01*
X176676973Y-21221986D01*
X176708479Y-21118122D01*
X176759644Y-21022400D01*
X176828499Y-20938499D01*
X176912400Y-20869644D01*
X176912399Y-20869644D01*
X176912401Y-20869643D01*
X176964093Y-20842013D01*
X177008121Y-20818479D01*
X177111985Y-20786973D01*
X177220000Y-20776334D01*
X177328014Y-20786973D01*
G37*
G36*
X175899672Y-20988449D02*
G01*
X175899674Y-20988450D01*
X175899675Y-20988450D01*
X175968103Y-21016793D01*
X176029686Y-21057942D01*
X176082058Y-21110314D01*
X176123207Y-21171897D01*
X176151550Y-21240325D01*
X176151551Y-21240328D01*
X176166000Y-21312966D01*
X176166000Y-21387033D01*
X176151550Y-21459675D01*
X176123207Y-21528103D01*
X176082058Y-21589686D01*
X176029686Y-21642058D01*
X175968103Y-21683207D01*
X175899675Y-21711550D01*
X175899674Y-21711550D01*
X175899672Y-21711551D01*
X175827034Y-21726000D01*
X175752966Y-21726000D01*
X175680328Y-21711551D01*
X175680326Y-21711550D01*
X175680325Y-21711550D01*
X175611897Y-21683207D01*
X175550314Y-21642058D01*
X175497942Y-21589686D01*
X175456793Y-21528103D01*
X175428450Y-21459675D01*
X175414000Y-21387033D01*
X175414000Y-21312966D01*
X175428449Y-21240328D01*
X175428450Y-21240325D01*
X175456793Y-21171897D01*
X175497942Y-21110314D01*
X175550314Y-21057942D01*
X175611897Y-21016793D01*
X175680325Y-20988450D01*
X175680326Y-20988450D01*
X175680328Y-20988449D01*
X175752966Y-20974000D01*
X175827034Y-20974000D01*
X175899672Y-20988449D01*
G37*
G36*
X170119672Y-20988449D02*
G01*
X170119674Y-20988450D01*
X170119675Y-20988450D01*
X170188103Y-21016793D01*
X170249686Y-21057942D01*
X170302058Y-21110314D01*
X170343207Y-21171897D01*
X170371550Y-21240325D01*
X170371551Y-21240328D01*
X170386000Y-21312966D01*
X170386000Y-21387033D01*
X170371550Y-21459675D01*
X170343207Y-21528103D01*
X170302058Y-21589686D01*
X170249686Y-21642058D01*
X170188103Y-21683207D01*
X170119675Y-21711550D01*
X170119674Y-21711550D01*
X170119672Y-21711551D01*
X170047034Y-21726000D01*
X169972966Y-21726000D01*
X169900328Y-21711551D01*
X169900326Y-21711550D01*
X169900325Y-21711550D01*
X169831897Y-21683207D01*
X169770314Y-21642058D01*
X169717942Y-21589686D01*
X169676793Y-21528103D01*
X169648450Y-21459675D01*
X169634000Y-21387033D01*
X169634000Y-21312966D01*
X169648449Y-21240328D01*
X169648450Y-21240325D01*
X169676793Y-21171897D01*
X169717942Y-21110314D01*
X169770314Y-21057942D01*
X169831897Y-21016793D01*
X169900325Y-20988450D01*
X169900326Y-20988450D01*
X169900328Y-20988449D01*
X169972966Y-20974000D01*
X170047034Y-20974000D01*
X170119672Y-20988449D01*
G37*
G36*
X168688014Y-16856973D02*
G01*
X168791878Y-16888479D01*
X168835907Y-16912013D01*
X168887599Y-16939643D01*
X168887601Y-16939644D01*
X168887600Y-16939644D01*
X168971501Y-17008499D01*
X169040356Y-17092400D01*
X169091521Y-17188121D01*
X169123027Y-17291985D01*
X169131000Y-17372933D01*
X169131000Y-18027067D01*
X169123027Y-18108015D01*
X169091521Y-18211879D01*
X169091519Y-18211882D01*
X169040357Y-18307600D01*
X168971501Y-18391501D01*
X168887600Y-18460357D01*
X168819055Y-18496995D01*
X168791879Y-18511521D01*
X168688015Y-18543027D01*
X168580000Y-18553666D01*
X168471986Y-18543027D01*
X168368122Y-18511521D01*
X168340946Y-18496995D01*
X168272401Y-18460357D01*
X168188500Y-18391501D01*
X168119645Y-18307601D01*
X168068480Y-18211879D01*
X168036973Y-18108015D01*
X168029000Y-18027067D01*
X168029000Y-17372934D01*
X168036973Y-17291986D01*
X168068479Y-17188122D01*
X168119644Y-17092400D01*
X168188499Y-17008499D01*
X168272400Y-16939644D01*
X168272399Y-16939644D01*
X168272401Y-16939643D01*
X168324093Y-16912013D01*
X168368121Y-16888479D01*
X168471985Y-16856973D01*
X168580000Y-16846334D01*
X168688014Y-16856973D01*
G37*
G36*
X177328014Y-16856973D02*
G01*
X177431878Y-16888479D01*
X177475907Y-16912013D01*
X177527599Y-16939643D01*
X177527601Y-16939644D01*
X177527600Y-16939644D01*
X177611501Y-17008499D01*
X177680356Y-17092400D01*
X177731521Y-17188121D01*
X177763027Y-17291985D01*
X177771000Y-17372933D01*
X177771000Y-18027067D01*
X177763027Y-18108015D01*
X177731521Y-18211879D01*
X177731519Y-18211882D01*
X177680357Y-18307600D01*
X177611501Y-18391501D01*
X177527600Y-18460357D01*
X177459055Y-18496995D01*
X177431879Y-18511521D01*
X177328015Y-18543027D01*
X177220000Y-18553666D01*
X177111986Y-18543027D01*
X177008122Y-18511521D01*
X176980946Y-18496995D01*
X176912401Y-18460357D01*
X176828500Y-18391501D01*
X176759645Y-18307601D01*
X176708480Y-18211879D01*
X176676973Y-18108015D01*
X176669000Y-18027067D01*
X176669000Y-17372934D01*
X176676973Y-17291986D01*
X176708479Y-17188122D01*
X176759644Y-17092400D01*
X176828499Y-17008499D01*
X176912400Y-16939644D01*
X176912399Y-16939644D01*
X176912401Y-16939643D01*
X176964093Y-16912013D01*
X177008121Y-16888479D01*
X177111985Y-16856973D01*
X177220000Y-16846334D01*
X177328014Y-16856973D01*
G37*
M02*
