G04 #@! TF.GenerationSoftware,KiCad,Pcbnew,(5.1.5-0-10_14)*
G04 #@! TF.CreationDate,2019-12-31T13:28:22+01:00*
G04 #@! TF.ProjectId,aek67,61656b36-372e-46b6-9963-61645f706362,rev?*
G04 #@! TF.SameCoordinates,Original*
G04 #@! TF.FileFunction,Copper,L2,Bot*
G04 #@! TF.FilePolarity,Positive*
%FSLAX46Y46*%
G04 Gerber Fmt 4.6, Leading zero omitted, Abs format (unit mm)*
G04 Created by KiCad (PCBNEW (5.1.5-0-10_14)) date 2019-12-31 13:28:22*
%MOMM*%
%LPD*%
G04 APERTURE LIST*
%ADD10C,0.100000*%
%ADD11C,2.250000*%
%ADD12R,0.600000X2.450000*%
%ADD13R,0.300000X2.450000*%
%ADD14O,1.000000X2.100000*%
%ADD15O,1.000000X1.600000*%
%ADD16R,1.000000X0.900000*%
%ADD17R,1.000000X1.200000*%
%ADD18R,1.800000X1.100000*%
%ADD19R,1.700000X1.700000*%
%ADD20C,1.700000*%
%ADD21R,1.200000X0.900000*%
%ADD22C,0.800000*%
%ADD23C,0.381000*%
%ADD24C,0.250000*%
%ADD25C,0.254000*%
%ADD26C,0.127000*%
G04 APERTURE END LIST*
G04 #@! TA.AperFunction,SMDPad,CuDef*
D10*
G36*
X205724505Y-112701204D02*
G01*
X205748773Y-112704804D01*
X205772572Y-112710765D01*
X205795671Y-112719030D01*
X205817850Y-112729520D01*
X205838893Y-112742132D01*
X205858599Y-112756747D01*
X205876777Y-112773223D01*
X205893253Y-112791401D01*
X205907868Y-112811107D01*
X205920480Y-112832150D01*
X205930970Y-112854329D01*
X205939235Y-112877428D01*
X205945196Y-112901227D01*
X205948796Y-112925495D01*
X205950000Y-112949999D01*
X205950000Y-113600001D01*
X205948796Y-113624505D01*
X205945196Y-113648773D01*
X205939235Y-113672572D01*
X205930970Y-113695671D01*
X205920480Y-113717850D01*
X205907868Y-113738893D01*
X205893253Y-113758599D01*
X205876777Y-113776777D01*
X205858599Y-113793253D01*
X205838893Y-113807868D01*
X205817850Y-113820480D01*
X205795671Y-113830970D01*
X205772572Y-113839235D01*
X205748773Y-113845196D01*
X205724505Y-113848796D01*
X205700001Y-113850000D01*
X204799999Y-113850000D01*
X204775495Y-113848796D01*
X204751227Y-113845196D01*
X204727428Y-113839235D01*
X204704329Y-113830970D01*
X204682150Y-113820480D01*
X204661107Y-113807868D01*
X204641401Y-113793253D01*
X204623223Y-113776777D01*
X204606747Y-113758599D01*
X204592132Y-113738893D01*
X204579520Y-113717850D01*
X204569030Y-113695671D01*
X204560765Y-113672572D01*
X204554804Y-113648773D01*
X204551204Y-113624505D01*
X204550000Y-113600001D01*
X204550000Y-112949999D01*
X204551204Y-112925495D01*
X204554804Y-112901227D01*
X204560765Y-112877428D01*
X204569030Y-112854329D01*
X204579520Y-112832150D01*
X204592132Y-112811107D01*
X204606747Y-112791401D01*
X204623223Y-112773223D01*
X204641401Y-112756747D01*
X204661107Y-112742132D01*
X204682150Y-112729520D01*
X204704329Y-112719030D01*
X204727428Y-112710765D01*
X204751227Y-112704804D01*
X204775495Y-112701204D01*
X204799999Y-112700000D01*
X205700001Y-112700000D01*
X205724505Y-112701204D01*
G37*
G04 #@! TD.AperFunction*
G04 #@! TA.AperFunction,SMDPad,CuDef*
G36*
X205724505Y-110651204D02*
G01*
X205748773Y-110654804D01*
X205772572Y-110660765D01*
X205795671Y-110669030D01*
X205817850Y-110679520D01*
X205838893Y-110692132D01*
X205858599Y-110706747D01*
X205876777Y-110723223D01*
X205893253Y-110741401D01*
X205907868Y-110761107D01*
X205920480Y-110782150D01*
X205930970Y-110804329D01*
X205939235Y-110827428D01*
X205945196Y-110851227D01*
X205948796Y-110875495D01*
X205950000Y-110899999D01*
X205950000Y-111550001D01*
X205948796Y-111574505D01*
X205945196Y-111598773D01*
X205939235Y-111622572D01*
X205930970Y-111645671D01*
X205920480Y-111667850D01*
X205907868Y-111688893D01*
X205893253Y-111708599D01*
X205876777Y-111726777D01*
X205858599Y-111743253D01*
X205838893Y-111757868D01*
X205817850Y-111770480D01*
X205795671Y-111780970D01*
X205772572Y-111789235D01*
X205748773Y-111795196D01*
X205724505Y-111798796D01*
X205700001Y-111800000D01*
X204799999Y-111800000D01*
X204775495Y-111798796D01*
X204751227Y-111795196D01*
X204727428Y-111789235D01*
X204704329Y-111780970D01*
X204682150Y-111770480D01*
X204661107Y-111757868D01*
X204641401Y-111743253D01*
X204623223Y-111726777D01*
X204606747Y-111708599D01*
X204592132Y-111688893D01*
X204579520Y-111667850D01*
X204569030Y-111645671D01*
X204560765Y-111622572D01*
X204554804Y-111598773D01*
X204551204Y-111574505D01*
X204550000Y-111550001D01*
X204550000Y-110899999D01*
X204551204Y-110875495D01*
X204554804Y-110851227D01*
X204560765Y-110827428D01*
X204569030Y-110804329D01*
X204579520Y-110782150D01*
X204592132Y-110761107D01*
X204606747Y-110741401D01*
X204623223Y-110723223D01*
X204641401Y-110706747D01*
X204661107Y-110692132D01*
X204682150Y-110679520D01*
X204704329Y-110669030D01*
X204727428Y-110660765D01*
X204751227Y-110654804D01*
X204775495Y-110651204D01*
X204799999Y-110650000D01*
X205700001Y-110650000D01*
X205724505Y-110651204D01*
G37*
G04 #@! TD.AperFunction*
G04 #@! TA.AperFunction,SMDPad,CuDef*
G36*
X205337676Y-98927980D02*
G01*
X205361944Y-98931580D01*
X205385743Y-98937541D01*
X205408842Y-98945806D01*
X205431021Y-98956296D01*
X205452064Y-98968908D01*
X205471770Y-98983523D01*
X205489948Y-98999999D01*
X205949569Y-99459620D01*
X205966045Y-99477798D01*
X205980660Y-99497504D01*
X205993272Y-99518547D01*
X206003762Y-99540726D01*
X206012027Y-99563825D01*
X206017988Y-99587624D01*
X206021588Y-99611892D01*
X206022792Y-99636396D01*
X206021588Y-99660900D01*
X206017988Y-99685168D01*
X206012027Y-99708967D01*
X206003762Y-99732066D01*
X205993272Y-99754245D01*
X205980660Y-99775288D01*
X205966045Y-99794994D01*
X205949569Y-99813172D01*
X205313172Y-100449569D01*
X205294994Y-100466045D01*
X205275288Y-100480660D01*
X205254245Y-100493272D01*
X205232066Y-100503762D01*
X205208967Y-100512027D01*
X205185168Y-100517988D01*
X205160900Y-100521588D01*
X205136396Y-100522792D01*
X205111892Y-100521588D01*
X205087624Y-100517988D01*
X205063825Y-100512027D01*
X205040726Y-100503762D01*
X205018547Y-100493272D01*
X204997504Y-100480660D01*
X204977798Y-100466045D01*
X204959620Y-100449569D01*
X204499999Y-99989948D01*
X204483523Y-99971770D01*
X204468908Y-99952064D01*
X204456296Y-99931021D01*
X204445806Y-99908842D01*
X204437541Y-99885743D01*
X204431580Y-99861944D01*
X204427980Y-99837676D01*
X204426776Y-99813172D01*
X204427980Y-99788668D01*
X204431580Y-99764400D01*
X204437541Y-99740601D01*
X204445806Y-99717502D01*
X204456296Y-99695323D01*
X204468908Y-99674280D01*
X204483523Y-99654574D01*
X204499999Y-99636396D01*
X205136396Y-98999999D01*
X205154574Y-98983523D01*
X205174280Y-98968908D01*
X205195323Y-98956296D01*
X205217502Y-98945806D01*
X205240601Y-98937541D01*
X205264400Y-98931580D01*
X205288668Y-98927980D01*
X205313172Y-98926776D01*
X205337676Y-98927980D01*
G37*
G04 #@! TD.AperFunction*
G04 #@! TA.AperFunction,SMDPad,CuDef*
G36*
X203888108Y-97478412D02*
G01*
X203912376Y-97482012D01*
X203936175Y-97487973D01*
X203959274Y-97496238D01*
X203981453Y-97506728D01*
X204002496Y-97519340D01*
X204022202Y-97533955D01*
X204040380Y-97550431D01*
X204500001Y-98010052D01*
X204516477Y-98028230D01*
X204531092Y-98047936D01*
X204543704Y-98068979D01*
X204554194Y-98091158D01*
X204562459Y-98114257D01*
X204568420Y-98138056D01*
X204572020Y-98162324D01*
X204573224Y-98186828D01*
X204572020Y-98211332D01*
X204568420Y-98235600D01*
X204562459Y-98259399D01*
X204554194Y-98282498D01*
X204543704Y-98304677D01*
X204531092Y-98325720D01*
X204516477Y-98345426D01*
X204500001Y-98363604D01*
X203863604Y-99000001D01*
X203845426Y-99016477D01*
X203825720Y-99031092D01*
X203804677Y-99043704D01*
X203782498Y-99054194D01*
X203759399Y-99062459D01*
X203735600Y-99068420D01*
X203711332Y-99072020D01*
X203686828Y-99073224D01*
X203662324Y-99072020D01*
X203638056Y-99068420D01*
X203614257Y-99062459D01*
X203591158Y-99054194D01*
X203568979Y-99043704D01*
X203547936Y-99031092D01*
X203528230Y-99016477D01*
X203510052Y-99000001D01*
X203050431Y-98540380D01*
X203033955Y-98522202D01*
X203019340Y-98502496D01*
X203006728Y-98481453D01*
X202996238Y-98459274D01*
X202987973Y-98436175D01*
X202982012Y-98412376D01*
X202978412Y-98388108D01*
X202977208Y-98363604D01*
X202978412Y-98339100D01*
X202982012Y-98314832D01*
X202987973Y-98291033D01*
X202996238Y-98267934D01*
X203006728Y-98245755D01*
X203019340Y-98224712D01*
X203033955Y-98205006D01*
X203050431Y-98186828D01*
X203686828Y-97550431D01*
X203705006Y-97533955D01*
X203724712Y-97519340D01*
X203745755Y-97506728D01*
X203767934Y-97496238D01*
X203791033Y-97487973D01*
X203814832Y-97482012D01*
X203839100Y-97478412D01*
X203863604Y-97477208D01*
X203888108Y-97478412D01*
G37*
G04 #@! TD.AperFunction*
G04 #@! TA.AperFunction,SMDPad,CuDef*
G36*
X211388108Y-90228412D02*
G01*
X211412376Y-90232012D01*
X211436175Y-90237973D01*
X211459274Y-90246238D01*
X211481453Y-90256728D01*
X211502496Y-90269340D01*
X211522202Y-90283955D01*
X211540380Y-90300431D01*
X212000001Y-90760052D01*
X212016477Y-90778230D01*
X212031092Y-90797936D01*
X212043704Y-90818979D01*
X212054194Y-90841158D01*
X212062459Y-90864257D01*
X212068420Y-90888056D01*
X212072020Y-90912324D01*
X212073224Y-90936828D01*
X212072020Y-90961332D01*
X212068420Y-90985600D01*
X212062459Y-91009399D01*
X212054194Y-91032498D01*
X212043704Y-91054677D01*
X212031092Y-91075720D01*
X212016477Y-91095426D01*
X212000001Y-91113604D01*
X211363604Y-91750001D01*
X211345426Y-91766477D01*
X211325720Y-91781092D01*
X211304677Y-91793704D01*
X211282498Y-91804194D01*
X211259399Y-91812459D01*
X211235600Y-91818420D01*
X211211332Y-91822020D01*
X211186828Y-91823224D01*
X211162324Y-91822020D01*
X211138056Y-91818420D01*
X211114257Y-91812459D01*
X211091158Y-91804194D01*
X211068979Y-91793704D01*
X211047936Y-91781092D01*
X211028230Y-91766477D01*
X211010052Y-91750001D01*
X210550431Y-91290380D01*
X210533955Y-91272202D01*
X210519340Y-91252496D01*
X210506728Y-91231453D01*
X210496238Y-91209274D01*
X210487973Y-91186175D01*
X210482012Y-91162376D01*
X210478412Y-91138108D01*
X210477208Y-91113604D01*
X210478412Y-91089100D01*
X210482012Y-91064832D01*
X210487973Y-91041033D01*
X210496238Y-91017934D01*
X210506728Y-90995755D01*
X210519340Y-90974712D01*
X210533955Y-90955006D01*
X210550431Y-90936828D01*
X211186828Y-90300431D01*
X211205006Y-90283955D01*
X211224712Y-90269340D01*
X211245755Y-90256728D01*
X211267934Y-90246238D01*
X211291033Y-90237973D01*
X211314832Y-90232012D01*
X211339100Y-90228412D01*
X211363604Y-90227208D01*
X211388108Y-90228412D01*
G37*
G04 #@! TD.AperFunction*
G04 #@! TA.AperFunction,SMDPad,CuDef*
G36*
X212837676Y-91677980D02*
G01*
X212861944Y-91681580D01*
X212885743Y-91687541D01*
X212908842Y-91695806D01*
X212931021Y-91706296D01*
X212952064Y-91718908D01*
X212971770Y-91733523D01*
X212989948Y-91749999D01*
X213449569Y-92209620D01*
X213466045Y-92227798D01*
X213480660Y-92247504D01*
X213493272Y-92268547D01*
X213503762Y-92290726D01*
X213512027Y-92313825D01*
X213517988Y-92337624D01*
X213521588Y-92361892D01*
X213522792Y-92386396D01*
X213521588Y-92410900D01*
X213517988Y-92435168D01*
X213512027Y-92458967D01*
X213503762Y-92482066D01*
X213493272Y-92504245D01*
X213480660Y-92525288D01*
X213466045Y-92544994D01*
X213449569Y-92563172D01*
X212813172Y-93199569D01*
X212794994Y-93216045D01*
X212775288Y-93230660D01*
X212754245Y-93243272D01*
X212732066Y-93253762D01*
X212708967Y-93262027D01*
X212685168Y-93267988D01*
X212660900Y-93271588D01*
X212636396Y-93272792D01*
X212611892Y-93271588D01*
X212587624Y-93267988D01*
X212563825Y-93262027D01*
X212540726Y-93253762D01*
X212518547Y-93243272D01*
X212497504Y-93230660D01*
X212477798Y-93216045D01*
X212459620Y-93199569D01*
X211999999Y-92739948D01*
X211983523Y-92721770D01*
X211968908Y-92702064D01*
X211956296Y-92681021D01*
X211945806Y-92658842D01*
X211937541Y-92635743D01*
X211931580Y-92611944D01*
X211927980Y-92587676D01*
X211926776Y-92563172D01*
X211927980Y-92538668D01*
X211931580Y-92514400D01*
X211937541Y-92490601D01*
X211945806Y-92467502D01*
X211956296Y-92445323D01*
X211968908Y-92424280D01*
X211983523Y-92404574D01*
X211999999Y-92386396D01*
X212636396Y-91749999D01*
X212654574Y-91733523D01*
X212674280Y-91718908D01*
X212695323Y-91706296D01*
X212717502Y-91695806D01*
X212740601Y-91687541D01*
X212764400Y-91681580D01*
X212788668Y-91677980D01*
X212813172Y-91676776D01*
X212837676Y-91677980D01*
G37*
G04 #@! TD.AperFunction*
G04 #@! TA.AperFunction,SMDPad,CuDef*
G36*
X202224505Y-112701204D02*
G01*
X202248773Y-112704804D01*
X202272572Y-112710765D01*
X202295671Y-112719030D01*
X202317850Y-112729520D01*
X202338893Y-112742132D01*
X202358599Y-112756747D01*
X202376777Y-112773223D01*
X202393253Y-112791401D01*
X202407868Y-112811107D01*
X202420480Y-112832150D01*
X202430970Y-112854329D01*
X202439235Y-112877428D01*
X202445196Y-112901227D01*
X202448796Y-112925495D01*
X202450000Y-112949999D01*
X202450000Y-113600001D01*
X202448796Y-113624505D01*
X202445196Y-113648773D01*
X202439235Y-113672572D01*
X202430970Y-113695671D01*
X202420480Y-113717850D01*
X202407868Y-113738893D01*
X202393253Y-113758599D01*
X202376777Y-113776777D01*
X202358599Y-113793253D01*
X202338893Y-113807868D01*
X202317850Y-113820480D01*
X202295671Y-113830970D01*
X202272572Y-113839235D01*
X202248773Y-113845196D01*
X202224505Y-113848796D01*
X202200001Y-113850000D01*
X201299999Y-113850000D01*
X201275495Y-113848796D01*
X201251227Y-113845196D01*
X201227428Y-113839235D01*
X201204329Y-113830970D01*
X201182150Y-113820480D01*
X201161107Y-113807868D01*
X201141401Y-113793253D01*
X201123223Y-113776777D01*
X201106747Y-113758599D01*
X201092132Y-113738893D01*
X201079520Y-113717850D01*
X201069030Y-113695671D01*
X201060765Y-113672572D01*
X201054804Y-113648773D01*
X201051204Y-113624505D01*
X201050000Y-113600001D01*
X201050000Y-112949999D01*
X201051204Y-112925495D01*
X201054804Y-112901227D01*
X201060765Y-112877428D01*
X201069030Y-112854329D01*
X201079520Y-112832150D01*
X201092132Y-112811107D01*
X201106747Y-112791401D01*
X201123223Y-112773223D01*
X201141401Y-112756747D01*
X201161107Y-112742132D01*
X201182150Y-112729520D01*
X201204329Y-112719030D01*
X201227428Y-112710765D01*
X201251227Y-112704804D01*
X201275495Y-112701204D01*
X201299999Y-112700000D01*
X202200001Y-112700000D01*
X202224505Y-112701204D01*
G37*
G04 #@! TD.AperFunction*
G04 #@! TA.AperFunction,SMDPad,CuDef*
G36*
X202224505Y-110651204D02*
G01*
X202248773Y-110654804D01*
X202272572Y-110660765D01*
X202295671Y-110669030D01*
X202317850Y-110679520D01*
X202338893Y-110692132D01*
X202358599Y-110706747D01*
X202376777Y-110723223D01*
X202393253Y-110741401D01*
X202407868Y-110761107D01*
X202420480Y-110782150D01*
X202430970Y-110804329D01*
X202439235Y-110827428D01*
X202445196Y-110851227D01*
X202448796Y-110875495D01*
X202450000Y-110899999D01*
X202450000Y-111550001D01*
X202448796Y-111574505D01*
X202445196Y-111598773D01*
X202439235Y-111622572D01*
X202430970Y-111645671D01*
X202420480Y-111667850D01*
X202407868Y-111688893D01*
X202393253Y-111708599D01*
X202376777Y-111726777D01*
X202358599Y-111743253D01*
X202338893Y-111757868D01*
X202317850Y-111770480D01*
X202295671Y-111780970D01*
X202272572Y-111789235D01*
X202248773Y-111795196D01*
X202224505Y-111798796D01*
X202200001Y-111800000D01*
X201299999Y-111800000D01*
X201275495Y-111798796D01*
X201251227Y-111795196D01*
X201227428Y-111789235D01*
X201204329Y-111780970D01*
X201182150Y-111770480D01*
X201161107Y-111757868D01*
X201141401Y-111743253D01*
X201123223Y-111726777D01*
X201106747Y-111708599D01*
X201092132Y-111688893D01*
X201079520Y-111667850D01*
X201069030Y-111645671D01*
X201060765Y-111622572D01*
X201054804Y-111598773D01*
X201051204Y-111574505D01*
X201050000Y-111550001D01*
X201050000Y-110899999D01*
X201051204Y-110875495D01*
X201054804Y-110851227D01*
X201060765Y-110827428D01*
X201069030Y-110804329D01*
X201079520Y-110782150D01*
X201092132Y-110761107D01*
X201106747Y-110741401D01*
X201123223Y-110723223D01*
X201141401Y-110706747D01*
X201161107Y-110692132D01*
X201182150Y-110679520D01*
X201204329Y-110669030D01*
X201227428Y-110660765D01*
X201251227Y-110654804D01*
X201275495Y-110651204D01*
X201299999Y-110650000D01*
X202200001Y-110650000D01*
X202224505Y-110651204D01*
G37*
G04 #@! TD.AperFunction*
G04 #@! TA.AperFunction,SMDPad,CuDef*
G36*
X194474505Y-112701204D02*
G01*
X194498773Y-112704804D01*
X194522572Y-112710765D01*
X194545671Y-112719030D01*
X194567850Y-112729520D01*
X194588893Y-112742132D01*
X194608599Y-112756747D01*
X194626777Y-112773223D01*
X194643253Y-112791401D01*
X194657868Y-112811107D01*
X194670480Y-112832150D01*
X194680970Y-112854329D01*
X194689235Y-112877428D01*
X194695196Y-112901227D01*
X194698796Y-112925495D01*
X194700000Y-112949999D01*
X194700000Y-113600001D01*
X194698796Y-113624505D01*
X194695196Y-113648773D01*
X194689235Y-113672572D01*
X194680970Y-113695671D01*
X194670480Y-113717850D01*
X194657868Y-113738893D01*
X194643253Y-113758599D01*
X194626777Y-113776777D01*
X194608599Y-113793253D01*
X194588893Y-113807868D01*
X194567850Y-113820480D01*
X194545671Y-113830970D01*
X194522572Y-113839235D01*
X194498773Y-113845196D01*
X194474505Y-113848796D01*
X194450001Y-113850000D01*
X193549999Y-113850000D01*
X193525495Y-113848796D01*
X193501227Y-113845196D01*
X193477428Y-113839235D01*
X193454329Y-113830970D01*
X193432150Y-113820480D01*
X193411107Y-113807868D01*
X193391401Y-113793253D01*
X193373223Y-113776777D01*
X193356747Y-113758599D01*
X193342132Y-113738893D01*
X193329520Y-113717850D01*
X193319030Y-113695671D01*
X193310765Y-113672572D01*
X193304804Y-113648773D01*
X193301204Y-113624505D01*
X193300000Y-113600001D01*
X193300000Y-112949999D01*
X193301204Y-112925495D01*
X193304804Y-112901227D01*
X193310765Y-112877428D01*
X193319030Y-112854329D01*
X193329520Y-112832150D01*
X193342132Y-112811107D01*
X193356747Y-112791401D01*
X193373223Y-112773223D01*
X193391401Y-112756747D01*
X193411107Y-112742132D01*
X193432150Y-112729520D01*
X193454329Y-112719030D01*
X193477428Y-112710765D01*
X193501227Y-112704804D01*
X193525495Y-112701204D01*
X193549999Y-112700000D01*
X194450001Y-112700000D01*
X194474505Y-112701204D01*
G37*
G04 #@! TD.AperFunction*
G04 #@! TA.AperFunction,SMDPad,CuDef*
G36*
X194474505Y-110651204D02*
G01*
X194498773Y-110654804D01*
X194522572Y-110660765D01*
X194545671Y-110669030D01*
X194567850Y-110679520D01*
X194588893Y-110692132D01*
X194608599Y-110706747D01*
X194626777Y-110723223D01*
X194643253Y-110741401D01*
X194657868Y-110761107D01*
X194670480Y-110782150D01*
X194680970Y-110804329D01*
X194689235Y-110827428D01*
X194695196Y-110851227D01*
X194698796Y-110875495D01*
X194700000Y-110899999D01*
X194700000Y-111550001D01*
X194698796Y-111574505D01*
X194695196Y-111598773D01*
X194689235Y-111622572D01*
X194680970Y-111645671D01*
X194670480Y-111667850D01*
X194657868Y-111688893D01*
X194643253Y-111708599D01*
X194626777Y-111726777D01*
X194608599Y-111743253D01*
X194588893Y-111757868D01*
X194567850Y-111770480D01*
X194545671Y-111780970D01*
X194522572Y-111789235D01*
X194498773Y-111795196D01*
X194474505Y-111798796D01*
X194450001Y-111800000D01*
X193549999Y-111800000D01*
X193525495Y-111798796D01*
X193501227Y-111795196D01*
X193477428Y-111789235D01*
X193454329Y-111780970D01*
X193432150Y-111770480D01*
X193411107Y-111757868D01*
X193391401Y-111743253D01*
X193373223Y-111726777D01*
X193356747Y-111708599D01*
X193342132Y-111688893D01*
X193329520Y-111667850D01*
X193319030Y-111645671D01*
X193310765Y-111622572D01*
X193304804Y-111598773D01*
X193301204Y-111574505D01*
X193300000Y-111550001D01*
X193300000Y-110899999D01*
X193301204Y-110875495D01*
X193304804Y-110851227D01*
X193310765Y-110827428D01*
X193319030Y-110804329D01*
X193329520Y-110782150D01*
X193342132Y-110761107D01*
X193356747Y-110741401D01*
X193373223Y-110723223D01*
X193391401Y-110706747D01*
X193411107Y-110692132D01*
X193432150Y-110679520D01*
X193454329Y-110669030D01*
X193477428Y-110660765D01*
X193501227Y-110654804D01*
X193525495Y-110651204D01*
X193549999Y-110650000D01*
X194450001Y-110650000D01*
X194474505Y-110651204D01*
G37*
G04 #@! TD.AperFunction*
G04 #@! TA.AperFunction,SMDPad,CuDef*
G36*
X198224505Y-112701204D02*
G01*
X198248773Y-112704804D01*
X198272572Y-112710765D01*
X198295671Y-112719030D01*
X198317850Y-112729520D01*
X198338893Y-112742132D01*
X198358599Y-112756747D01*
X198376777Y-112773223D01*
X198393253Y-112791401D01*
X198407868Y-112811107D01*
X198420480Y-112832150D01*
X198430970Y-112854329D01*
X198439235Y-112877428D01*
X198445196Y-112901227D01*
X198448796Y-112925495D01*
X198450000Y-112949999D01*
X198450000Y-113600001D01*
X198448796Y-113624505D01*
X198445196Y-113648773D01*
X198439235Y-113672572D01*
X198430970Y-113695671D01*
X198420480Y-113717850D01*
X198407868Y-113738893D01*
X198393253Y-113758599D01*
X198376777Y-113776777D01*
X198358599Y-113793253D01*
X198338893Y-113807868D01*
X198317850Y-113820480D01*
X198295671Y-113830970D01*
X198272572Y-113839235D01*
X198248773Y-113845196D01*
X198224505Y-113848796D01*
X198200001Y-113850000D01*
X197299999Y-113850000D01*
X197275495Y-113848796D01*
X197251227Y-113845196D01*
X197227428Y-113839235D01*
X197204329Y-113830970D01*
X197182150Y-113820480D01*
X197161107Y-113807868D01*
X197141401Y-113793253D01*
X197123223Y-113776777D01*
X197106747Y-113758599D01*
X197092132Y-113738893D01*
X197079520Y-113717850D01*
X197069030Y-113695671D01*
X197060765Y-113672572D01*
X197054804Y-113648773D01*
X197051204Y-113624505D01*
X197050000Y-113600001D01*
X197050000Y-112949999D01*
X197051204Y-112925495D01*
X197054804Y-112901227D01*
X197060765Y-112877428D01*
X197069030Y-112854329D01*
X197079520Y-112832150D01*
X197092132Y-112811107D01*
X197106747Y-112791401D01*
X197123223Y-112773223D01*
X197141401Y-112756747D01*
X197161107Y-112742132D01*
X197182150Y-112729520D01*
X197204329Y-112719030D01*
X197227428Y-112710765D01*
X197251227Y-112704804D01*
X197275495Y-112701204D01*
X197299999Y-112700000D01*
X198200001Y-112700000D01*
X198224505Y-112701204D01*
G37*
G04 #@! TD.AperFunction*
G04 #@! TA.AperFunction,SMDPad,CuDef*
G36*
X198224505Y-110651204D02*
G01*
X198248773Y-110654804D01*
X198272572Y-110660765D01*
X198295671Y-110669030D01*
X198317850Y-110679520D01*
X198338893Y-110692132D01*
X198358599Y-110706747D01*
X198376777Y-110723223D01*
X198393253Y-110741401D01*
X198407868Y-110761107D01*
X198420480Y-110782150D01*
X198430970Y-110804329D01*
X198439235Y-110827428D01*
X198445196Y-110851227D01*
X198448796Y-110875495D01*
X198450000Y-110899999D01*
X198450000Y-111550001D01*
X198448796Y-111574505D01*
X198445196Y-111598773D01*
X198439235Y-111622572D01*
X198430970Y-111645671D01*
X198420480Y-111667850D01*
X198407868Y-111688893D01*
X198393253Y-111708599D01*
X198376777Y-111726777D01*
X198358599Y-111743253D01*
X198338893Y-111757868D01*
X198317850Y-111770480D01*
X198295671Y-111780970D01*
X198272572Y-111789235D01*
X198248773Y-111795196D01*
X198224505Y-111798796D01*
X198200001Y-111800000D01*
X197299999Y-111800000D01*
X197275495Y-111798796D01*
X197251227Y-111795196D01*
X197227428Y-111789235D01*
X197204329Y-111780970D01*
X197182150Y-111770480D01*
X197161107Y-111757868D01*
X197141401Y-111743253D01*
X197123223Y-111726777D01*
X197106747Y-111708599D01*
X197092132Y-111688893D01*
X197079520Y-111667850D01*
X197069030Y-111645671D01*
X197060765Y-111622572D01*
X197054804Y-111598773D01*
X197051204Y-111574505D01*
X197050000Y-111550001D01*
X197050000Y-110899999D01*
X197051204Y-110875495D01*
X197054804Y-110851227D01*
X197060765Y-110827428D01*
X197069030Y-110804329D01*
X197079520Y-110782150D01*
X197092132Y-110761107D01*
X197106747Y-110741401D01*
X197123223Y-110723223D01*
X197141401Y-110706747D01*
X197161107Y-110692132D01*
X197182150Y-110679520D01*
X197204329Y-110669030D01*
X197227428Y-110660765D01*
X197251227Y-110654804D01*
X197275495Y-110651204D01*
X197299999Y-110650000D01*
X198200001Y-110650000D01*
X198224505Y-110651204D01*
G37*
G04 #@! TD.AperFunction*
G04 #@! TA.AperFunction,SMDPad,CuDef*
G36*
X190474505Y-112701204D02*
G01*
X190498773Y-112704804D01*
X190522572Y-112710765D01*
X190545671Y-112719030D01*
X190567850Y-112729520D01*
X190588893Y-112742132D01*
X190608599Y-112756747D01*
X190626777Y-112773223D01*
X190643253Y-112791401D01*
X190657868Y-112811107D01*
X190670480Y-112832150D01*
X190680970Y-112854329D01*
X190689235Y-112877428D01*
X190695196Y-112901227D01*
X190698796Y-112925495D01*
X190700000Y-112949999D01*
X190700000Y-113600001D01*
X190698796Y-113624505D01*
X190695196Y-113648773D01*
X190689235Y-113672572D01*
X190680970Y-113695671D01*
X190670480Y-113717850D01*
X190657868Y-113738893D01*
X190643253Y-113758599D01*
X190626777Y-113776777D01*
X190608599Y-113793253D01*
X190588893Y-113807868D01*
X190567850Y-113820480D01*
X190545671Y-113830970D01*
X190522572Y-113839235D01*
X190498773Y-113845196D01*
X190474505Y-113848796D01*
X190450001Y-113850000D01*
X189549999Y-113850000D01*
X189525495Y-113848796D01*
X189501227Y-113845196D01*
X189477428Y-113839235D01*
X189454329Y-113830970D01*
X189432150Y-113820480D01*
X189411107Y-113807868D01*
X189391401Y-113793253D01*
X189373223Y-113776777D01*
X189356747Y-113758599D01*
X189342132Y-113738893D01*
X189329520Y-113717850D01*
X189319030Y-113695671D01*
X189310765Y-113672572D01*
X189304804Y-113648773D01*
X189301204Y-113624505D01*
X189300000Y-113600001D01*
X189300000Y-112949999D01*
X189301204Y-112925495D01*
X189304804Y-112901227D01*
X189310765Y-112877428D01*
X189319030Y-112854329D01*
X189329520Y-112832150D01*
X189342132Y-112811107D01*
X189356747Y-112791401D01*
X189373223Y-112773223D01*
X189391401Y-112756747D01*
X189411107Y-112742132D01*
X189432150Y-112729520D01*
X189454329Y-112719030D01*
X189477428Y-112710765D01*
X189501227Y-112704804D01*
X189525495Y-112701204D01*
X189549999Y-112700000D01*
X190450001Y-112700000D01*
X190474505Y-112701204D01*
G37*
G04 #@! TD.AperFunction*
G04 #@! TA.AperFunction,SMDPad,CuDef*
G36*
X190474505Y-110651204D02*
G01*
X190498773Y-110654804D01*
X190522572Y-110660765D01*
X190545671Y-110669030D01*
X190567850Y-110679520D01*
X190588893Y-110692132D01*
X190608599Y-110706747D01*
X190626777Y-110723223D01*
X190643253Y-110741401D01*
X190657868Y-110761107D01*
X190670480Y-110782150D01*
X190680970Y-110804329D01*
X190689235Y-110827428D01*
X190695196Y-110851227D01*
X190698796Y-110875495D01*
X190700000Y-110899999D01*
X190700000Y-111550001D01*
X190698796Y-111574505D01*
X190695196Y-111598773D01*
X190689235Y-111622572D01*
X190680970Y-111645671D01*
X190670480Y-111667850D01*
X190657868Y-111688893D01*
X190643253Y-111708599D01*
X190626777Y-111726777D01*
X190608599Y-111743253D01*
X190588893Y-111757868D01*
X190567850Y-111770480D01*
X190545671Y-111780970D01*
X190522572Y-111789235D01*
X190498773Y-111795196D01*
X190474505Y-111798796D01*
X190450001Y-111800000D01*
X189549999Y-111800000D01*
X189525495Y-111798796D01*
X189501227Y-111795196D01*
X189477428Y-111789235D01*
X189454329Y-111780970D01*
X189432150Y-111770480D01*
X189411107Y-111757868D01*
X189391401Y-111743253D01*
X189373223Y-111726777D01*
X189356747Y-111708599D01*
X189342132Y-111688893D01*
X189329520Y-111667850D01*
X189319030Y-111645671D01*
X189310765Y-111622572D01*
X189304804Y-111598773D01*
X189301204Y-111574505D01*
X189300000Y-111550001D01*
X189300000Y-110899999D01*
X189301204Y-110875495D01*
X189304804Y-110851227D01*
X189310765Y-110827428D01*
X189319030Y-110804329D01*
X189329520Y-110782150D01*
X189342132Y-110761107D01*
X189356747Y-110741401D01*
X189373223Y-110723223D01*
X189391401Y-110706747D01*
X189411107Y-110692132D01*
X189432150Y-110679520D01*
X189454329Y-110669030D01*
X189477428Y-110660765D01*
X189501227Y-110654804D01*
X189525495Y-110651204D01*
X189549999Y-110650000D01*
X190450001Y-110650000D01*
X190474505Y-110651204D01*
G37*
G04 #@! TD.AperFunction*
D11*
X161012500Y-102362500D03*
X166012500Y-101862500D03*
D12*
X176125000Y-23295000D03*
X169675000Y-23295000D03*
X175350000Y-23295000D03*
X170450000Y-23295000D03*
D13*
X171150000Y-23295000D03*
X174650000Y-23295000D03*
X171650000Y-23295000D03*
X174150000Y-23295000D03*
X172150000Y-23295000D03*
X173650000Y-23295000D03*
X173150000Y-23295000D03*
X172650000Y-23295000D03*
D14*
X168580000Y-21880000D03*
X177220000Y-21880000D03*
D15*
X168580000Y-17700000D03*
X177220000Y-17700000D03*
D11*
X289600000Y-45212500D03*
X294600000Y-44712500D03*
G04 #@! TA.AperFunction,SMDPad,CuDef*
D10*
G36*
X208568198Y-92032664D02*
G01*
X209840990Y-93305456D01*
X208356066Y-94790380D01*
X207083274Y-93517588D01*
X208568198Y-92032664D01*
G37*
G04 #@! TD.AperFunction*
G04 #@! TA.AperFunction,SMDPad,CuDef*
G36*
X206517588Y-94083274D02*
G01*
X207790380Y-95356066D01*
X206305456Y-96840990D01*
X205032664Y-95568198D01*
X206517588Y-94083274D01*
G37*
G04 #@! TD.AperFunction*
G04 #@! TA.AperFunction,SMDPad,CuDef*
G36*
X208143934Y-95709620D02*
G01*
X209416726Y-96982412D01*
X207931802Y-98467336D01*
X206659010Y-97194544D01*
X208143934Y-95709620D01*
G37*
G04 #@! TD.AperFunction*
G04 #@! TA.AperFunction,SMDPad,CuDef*
G36*
X210194544Y-93659010D02*
G01*
X211467336Y-94931802D01*
X209982412Y-96416726D01*
X208709620Y-95143934D01*
X210194544Y-93659010D01*
G37*
G04 #@! TD.AperFunction*
G04 #@! TA.AperFunction,SMDPad,CuDef*
G36*
X218977298Y-111273060D02*
G01*
X219366206Y-110884152D01*
X220426866Y-111944812D01*
X220037958Y-112333720D01*
X218977298Y-111273060D01*
G37*
G04 #@! TD.AperFunction*
G04 #@! TA.AperFunction,SMDPad,CuDef*
G36*
X219542983Y-110707374D02*
G01*
X219931891Y-110318466D01*
X220992551Y-111379126D01*
X220603643Y-111768034D01*
X219542983Y-110707374D01*
G37*
G04 #@! TD.AperFunction*
G04 #@! TA.AperFunction,SMDPad,CuDef*
G36*
X220108668Y-110141689D02*
G01*
X220497576Y-109752781D01*
X221558236Y-110813441D01*
X221169328Y-111202349D01*
X220108668Y-110141689D01*
G37*
G04 #@! TD.AperFunction*
G04 #@! TA.AperFunction,SMDPad,CuDef*
G36*
X220674354Y-109576004D02*
G01*
X221063262Y-109187096D01*
X222123922Y-110247756D01*
X221735014Y-110636664D01*
X220674354Y-109576004D01*
G37*
G04 #@! TD.AperFunction*
G04 #@! TA.AperFunction,SMDPad,CuDef*
G36*
X221240039Y-109010318D02*
G01*
X221628947Y-108621410D01*
X222689607Y-109682070D01*
X222300699Y-110070978D01*
X221240039Y-109010318D01*
G37*
G04 #@! TD.AperFunction*
G04 #@! TA.AperFunction,SMDPad,CuDef*
G36*
X221805725Y-108444633D02*
G01*
X222194633Y-108055725D01*
X223255293Y-109116385D01*
X222866385Y-109505293D01*
X221805725Y-108444633D01*
G37*
G04 #@! TD.AperFunction*
G04 #@! TA.AperFunction,SMDPad,CuDef*
G36*
X222371410Y-107878947D02*
G01*
X222760318Y-107490039D01*
X223820978Y-108550699D01*
X223432070Y-108939607D01*
X222371410Y-107878947D01*
G37*
G04 #@! TD.AperFunction*
G04 #@! TA.AperFunction,SMDPad,CuDef*
G36*
X222937096Y-107313262D02*
G01*
X223326004Y-106924354D01*
X224386664Y-107985014D01*
X223997756Y-108373922D01*
X222937096Y-107313262D01*
G37*
G04 #@! TD.AperFunction*
G04 #@! TA.AperFunction,SMDPad,CuDef*
G36*
X223502781Y-106747576D02*
G01*
X223891689Y-106358668D01*
X224952349Y-107419328D01*
X224563441Y-107808236D01*
X223502781Y-106747576D01*
G37*
G04 #@! TD.AperFunction*
G04 #@! TA.AperFunction,SMDPad,CuDef*
G36*
X224068466Y-106181891D02*
G01*
X224457374Y-105792983D01*
X225518034Y-106853643D01*
X225129126Y-107242551D01*
X224068466Y-106181891D01*
G37*
G04 #@! TD.AperFunction*
G04 #@! TA.AperFunction,SMDPad,CuDef*
G36*
X224634152Y-105616206D02*
G01*
X225023060Y-105227298D01*
X226083720Y-106287958D01*
X225694812Y-106676866D01*
X224634152Y-105616206D01*
G37*
G04 #@! TD.AperFunction*
G04 #@! TA.AperFunction,SMDPad,CuDef*
G36*
X225023060Y-104272702D02*
G01*
X224634152Y-103883794D01*
X225694812Y-102823134D01*
X226083720Y-103212042D01*
X225023060Y-104272702D01*
G37*
G04 #@! TD.AperFunction*
G04 #@! TA.AperFunction,SMDPad,CuDef*
G36*
X224457374Y-103707017D02*
G01*
X224068466Y-103318109D01*
X225129126Y-102257449D01*
X225518034Y-102646357D01*
X224457374Y-103707017D01*
G37*
G04 #@! TD.AperFunction*
G04 #@! TA.AperFunction,SMDPad,CuDef*
G36*
X223891689Y-103141332D02*
G01*
X223502781Y-102752424D01*
X224563441Y-101691764D01*
X224952349Y-102080672D01*
X223891689Y-103141332D01*
G37*
G04 #@! TD.AperFunction*
G04 #@! TA.AperFunction,SMDPad,CuDef*
G36*
X223326004Y-102575646D02*
G01*
X222937096Y-102186738D01*
X223997756Y-101126078D01*
X224386664Y-101514986D01*
X223326004Y-102575646D01*
G37*
G04 #@! TD.AperFunction*
G04 #@! TA.AperFunction,SMDPad,CuDef*
G36*
X222760318Y-102009961D02*
G01*
X222371410Y-101621053D01*
X223432070Y-100560393D01*
X223820978Y-100949301D01*
X222760318Y-102009961D01*
G37*
G04 #@! TD.AperFunction*
G04 #@! TA.AperFunction,SMDPad,CuDef*
G36*
X222194633Y-101444275D02*
G01*
X221805725Y-101055367D01*
X222866385Y-99994707D01*
X223255293Y-100383615D01*
X222194633Y-101444275D01*
G37*
G04 #@! TD.AperFunction*
G04 #@! TA.AperFunction,SMDPad,CuDef*
G36*
X221628947Y-100878590D02*
G01*
X221240039Y-100489682D01*
X222300699Y-99429022D01*
X222689607Y-99817930D01*
X221628947Y-100878590D01*
G37*
G04 #@! TD.AperFunction*
G04 #@! TA.AperFunction,SMDPad,CuDef*
G36*
X221063262Y-100312904D02*
G01*
X220674354Y-99923996D01*
X221735014Y-98863336D01*
X222123922Y-99252244D01*
X221063262Y-100312904D01*
G37*
G04 #@! TD.AperFunction*
G04 #@! TA.AperFunction,SMDPad,CuDef*
G36*
X220497576Y-99747219D02*
G01*
X220108668Y-99358311D01*
X221169328Y-98297651D01*
X221558236Y-98686559D01*
X220497576Y-99747219D01*
G37*
G04 #@! TD.AperFunction*
G04 #@! TA.AperFunction,SMDPad,CuDef*
G36*
X219931891Y-99181534D02*
G01*
X219542983Y-98792626D01*
X220603643Y-97731966D01*
X220992551Y-98120874D01*
X219931891Y-99181534D01*
G37*
G04 #@! TD.AperFunction*
G04 #@! TA.AperFunction,SMDPad,CuDef*
G36*
X219366206Y-98615848D02*
G01*
X218977298Y-98226940D01*
X220037958Y-97166280D01*
X220426866Y-97555188D01*
X219366206Y-98615848D01*
G37*
G04 #@! TD.AperFunction*
G04 #@! TA.AperFunction,SMDPad,CuDef*
G36*
X216573134Y-97555188D02*
G01*
X216962042Y-97166280D01*
X218022702Y-98226940D01*
X217633794Y-98615848D01*
X216573134Y-97555188D01*
G37*
G04 #@! TD.AperFunction*
G04 #@! TA.AperFunction,SMDPad,CuDef*
G36*
X216007449Y-98120874D02*
G01*
X216396357Y-97731966D01*
X217457017Y-98792626D01*
X217068109Y-99181534D01*
X216007449Y-98120874D01*
G37*
G04 #@! TD.AperFunction*
G04 #@! TA.AperFunction,SMDPad,CuDef*
G36*
X215441764Y-98686559D02*
G01*
X215830672Y-98297651D01*
X216891332Y-99358311D01*
X216502424Y-99747219D01*
X215441764Y-98686559D01*
G37*
G04 #@! TD.AperFunction*
G04 #@! TA.AperFunction,SMDPad,CuDef*
G36*
X214876078Y-99252244D02*
G01*
X215264986Y-98863336D01*
X216325646Y-99923996D01*
X215936738Y-100312904D01*
X214876078Y-99252244D01*
G37*
G04 #@! TD.AperFunction*
G04 #@! TA.AperFunction,SMDPad,CuDef*
G36*
X214310393Y-99817930D02*
G01*
X214699301Y-99429022D01*
X215759961Y-100489682D01*
X215371053Y-100878590D01*
X214310393Y-99817930D01*
G37*
G04 #@! TD.AperFunction*
G04 #@! TA.AperFunction,SMDPad,CuDef*
G36*
X213744707Y-100383615D02*
G01*
X214133615Y-99994707D01*
X215194275Y-101055367D01*
X214805367Y-101444275D01*
X213744707Y-100383615D01*
G37*
G04 #@! TD.AperFunction*
G04 #@! TA.AperFunction,SMDPad,CuDef*
G36*
X213179022Y-100949301D02*
G01*
X213567930Y-100560393D01*
X214628590Y-101621053D01*
X214239682Y-102009961D01*
X213179022Y-100949301D01*
G37*
G04 #@! TD.AperFunction*
G04 #@! TA.AperFunction,SMDPad,CuDef*
G36*
X212613336Y-101514986D02*
G01*
X213002244Y-101126078D01*
X214062904Y-102186738D01*
X213673996Y-102575646D01*
X212613336Y-101514986D01*
G37*
G04 #@! TD.AperFunction*
G04 #@! TA.AperFunction,SMDPad,CuDef*
G36*
X212047651Y-102080672D02*
G01*
X212436559Y-101691764D01*
X213497219Y-102752424D01*
X213108311Y-103141332D01*
X212047651Y-102080672D01*
G37*
G04 #@! TD.AperFunction*
G04 #@! TA.AperFunction,SMDPad,CuDef*
G36*
X211481966Y-102646357D02*
G01*
X211870874Y-102257449D01*
X212931534Y-103318109D01*
X212542626Y-103707017D01*
X211481966Y-102646357D01*
G37*
G04 #@! TD.AperFunction*
G04 #@! TA.AperFunction,SMDPad,CuDef*
G36*
X210916280Y-103212042D02*
G01*
X211305188Y-102823134D01*
X212365848Y-103883794D01*
X211976940Y-104272702D01*
X210916280Y-103212042D01*
G37*
G04 #@! TD.AperFunction*
G04 #@! TA.AperFunction,SMDPad,CuDef*
G36*
X211305188Y-106676866D02*
G01*
X210916280Y-106287958D01*
X211976940Y-105227298D01*
X212365848Y-105616206D01*
X211305188Y-106676866D01*
G37*
G04 #@! TD.AperFunction*
G04 #@! TA.AperFunction,SMDPad,CuDef*
G36*
X211870874Y-107242551D02*
G01*
X211481966Y-106853643D01*
X212542626Y-105792983D01*
X212931534Y-106181891D01*
X211870874Y-107242551D01*
G37*
G04 #@! TD.AperFunction*
G04 #@! TA.AperFunction,SMDPad,CuDef*
G36*
X212436559Y-107808236D02*
G01*
X212047651Y-107419328D01*
X213108311Y-106358668D01*
X213497219Y-106747576D01*
X212436559Y-107808236D01*
G37*
G04 #@! TD.AperFunction*
G04 #@! TA.AperFunction,SMDPad,CuDef*
G36*
X213002244Y-108373922D02*
G01*
X212613336Y-107985014D01*
X213673996Y-106924354D01*
X214062904Y-107313262D01*
X213002244Y-108373922D01*
G37*
G04 #@! TD.AperFunction*
G04 #@! TA.AperFunction,SMDPad,CuDef*
G36*
X213567930Y-108939607D02*
G01*
X213179022Y-108550699D01*
X214239682Y-107490039D01*
X214628590Y-107878947D01*
X213567930Y-108939607D01*
G37*
G04 #@! TD.AperFunction*
G04 #@! TA.AperFunction,SMDPad,CuDef*
G36*
X214133615Y-109505293D02*
G01*
X213744707Y-109116385D01*
X214805367Y-108055725D01*
X215194275Y-108444633D01*
X214133615Y-109505293D01*
G37*
G04 #@! TD.AperFunction*
G04 #@! TA.AperFunction,SMDPad,CuDef*
G36*
X214699301Y-110070978D02*
G01*
X214310393Y-109682070D01*
X215371053Y-108621410D01*
X215759961Y-109010318D01*
X214699301Y-110070978D01*
G37*
G04 #@! TD.AperFunction*
G04 #@! TA.AperFunction,SMDPad,CuDef*
G36*
X215264986Y-110636664D02*
G01*
X214876078Y-110247756D01*
X215936738Y-109187096D01*
X216325646Y-109576004D01*
X215264986Y-110636664D01*
G37*
G04 #@! TD.AperFunction*
G04 #@! TA.AperFunction,SMDPad,CuDef*
G36*
X215830672Y-111202349D02*
G01*
X215441764Y-110813441D01*
X216502424Y-109752781D01*
X216891332Y-110141689D01*
X215830672Y-111202349D01*
G37*
G04 #@! TD.AperFunction*
G04 #@! TA.AperFunction,SMDPad,CuDef*
G36*
X216396357Y-111768034D02*
G01*
X216007449Y-111379126D01*
X217068109Y-110318466D01*
X217457017Y-110707374D01*
X216396357Y-111768034D01*
G37*
G04 #@! TD.AperFunction*
G04 #@! TA.AperFunction,SMDPad,CuDef*
G36*
X216962042Y-112333720D02*
G01*
X216573134Y-111944812D01*
X217633794Y-110884152D01*
X218022702Y-111273060D01*
X216962042Y-112333720D01*
G37*
G04 #@! TD.AperFunction*
D16*
X171650000Y-32450000D03*
X173950000Y-32450000D03*
X171650000Y-30550000D03*
D17*
X173950000Y-30750000D03*
D18*
X185350000Y-108100000D03*
X179150000Y-104400000D03*
X185350000Y-104400000D03*
X179150000Y-108100000D03*
G04 #@! TA.AperFunction,SMDPad,CuDef*
D10*
G36*
X230474505Y-105651204D02*
G01*
X230498773Y-105654804D01*
X230522572Y-105660765D01*
X230545671Y-105669030D01*
X230567850Y-105679520D01*
X230588893Y-105692132D01*
X230608599Y-105706747D01*
X230626777Y-105723223D01*
X230643253Y-105741401D01*
X230657868Y-105761107D01*
X230670480Y-105782150D01*
X230680970Y-105804329D01*
X230689235Y-105827428D01*
X230695196Y-105851227D01*
X230698796Y-105875495D01*
X230700000Y-105899999D01*
X230700000Y-106550001D01*
X230698796Y-106574505D01*
X230695196Y-106598773D01*
X230689235Y-106622572D01*
X230680970Y-106645671D01*
X230670480Y-106667850D01*
X230657868Y-106688893D01*
X230643253Y-106708599D01*
X230626777Y-106726777D01*
X230608599Y-106743253D01*
X230588893Y-106757868D01*
X230567850Y-106770480D01*
X230545671Y-106780970D01*
X230522572Y-106789235D01*
X230498773Y-106795196D01*
X230474505Y-106798796D01*
X230450001Y-106800000D01*
X229549999Y-106800000D01*
X229525495Y-106798796D01*
X229501227Y-106795196D01*
X229477428Y-106789235D01*
X229454329Y-106780970D01*
X229432150Y-106770480D01*
X229411107Y-106757868D01*
X229391401Y-106743253D01*
X229373223Y-106726777D01*
X229356747Y-106708599D01*
X229342132Y-106688893D01*
X229329520Y-106667850D01*
X229319030Y-106645671D01*
X229310765Y-106622572D01*
X229304804Y-106598773D01*
X229301204Y-106574505D01*
X229300000Y-106550001D01*
X229300000Y-105899999D01*
X229301204Y-105875495D01*
X229304804Y-105851227D01*
X229310765Y-105827428D01*
X229319030Y-105804329D01*
X229329520Y-105782150D01*
X229342132Y-105761107D01*
X229356747Y-105741401D01*
X229373223Y-105723223D01*
X229391401Y-105706747D01*
X229411107Y-105692132D01*
X229432150Y-105679520D01*
X229454329Y-105669030D01*
X229477428Y-105660765D01*
X229501227Y-105654804D01*
X229525495Y-105651204D01*
X229549999Y-105650000D01*
X230450001Y-105650000D01*
X230474505Y-105651204D01*
G37*
G04 #@! TD.AperFunction*
G04 #@! TA.AperFunction,SMDPad,CuDef*
G36*
X230474505Y-107701204D02*
G01*
X230498773Y-107704804D01*
X230522572Y-107710765D01*
X230545671Y-107719030D01*
X230567850Y-107729520D01*
X230588893Y-107742132D01*
X230608599Y-107756747D01*
X230626777Y-107773223D01*
X230643253Y-107791401D01*
X230657868Y-107811107D01*
X230670480Y-107832150D01*
X230680970Y-107854329D01*
X230689235Y-107877428D01*
X230695196Y-107901227D01*
X230698796Y-107925495D01*
X230700000Y-107949999D01*
X230700000Y-108600001D01*
X230698796Y-108624505D01*
X230695196Y-108648773D01*
X230689235Y-108672572D01*
X230680970Y-108695671D01*
X230670480Y-108717850D01*
X230657868Y-108738893D01*
X230643253Y-108758599D01*
X230626777Y-108776777D01*
X230608599Y-108793253D01*
X230588893Y-108807868D01*
X230567850Y-108820480D01*
X230545671Y-108830970D01*
X230522572Y-108839235D01*
X230498773Y-108845196D01*
X230474505Y-108848796D01*
X230450001Y-108850000D01*
X229549999Y-108850000D01*
X229525495Y-108848796D01*
X229501227Y-108845196D01*
X229477428Y-108839235D01*
X229454329Y-108830970D01*
X229432150Y-108820480D01*
X229411107Y-108807868D01*
X229391401Y-108793253D01*
X229373223Y-108776777D01*
X229356747Y-108758599D01*
X229342132Y-108738893D01*
X229329520Y-108717850D01*
X229319030Y-108695671D01*
X229310765Y-108672572D01*
X229304804Y-108648773D01*
X229301204Y-108624505D01*
X229300000Y-108600001D01*
X229300000Y-107949999D01*
X229301204Y-107925495D01*
X229304804Y-107901227D01*
X229310765Y-107877428D01*
X229319030Y-107854329D01*
X229329520Y-107832150D01*
X229342132Y-107811107D01*
X229356747Y-107791401D01*
X229373223Y-107773223D01*
X229391401Y-107756747D01*
X229411107Y-107742132D01*
X229432150Y-107729520D01*
X229454329Y-107719030D01*
X229477428Y-107710765D01*
X229501227Y-107704804D01*
X229525495Y-107701204D01*
X229549999Y-107700000D01*
X230450001Y-107700000D01*
X230474505Y-107701204D01*
G37*
G04 #@! TD.AperFunction*
G04 #@! TA.AperFunction,SMDPad,CuDef*
G36*
X171974505Y-35801204D02*
G01*
X171998773Y-35804804D01*
X172022572Y-35810765D01*
X172045671Y-35819030D01*
X172067850Y-35829520D01*
X172088893Y-35842132D01*
X172108599Y-35856747D01*
X172126777Y-35873223D01*
X172143253Y-35891401D01*
X172157868Y-35911107D01*
X172170480Y-35932150D01*
X172180970Y-35954329D01*
X172189235Y-35977428D01*
X172195196Y-36001227D01*
X172198796Y-36025495D01*
X172200000Y-36049999D01*
X172200000Y-36700001D01*
X172198796Y-36724505D01*
X172195196Y-36748773D01*
X172189235Y-36772572D01*
X172180970Y-36795671D01*
X172170480Y-36817850D01*
X172157868Y-36838893D01*
X172143253Y-36858599D01*
X172126777Y-36876777D01*
X172108599Y-36893253D01*
X172088893Y-36907868D01*
X172067850Y-36920480D01*
X172045671Y-36930970D01*
X172022572Y-36939235D01*
X171998773Y-36945196D01*
X171974505Y-36948796D01*
X171950001Y-36950000D01*
X171049999Y-36950000D01*
X171025495Y-36948796D01*
X171001227Y-36945196D01*
X170977428Y-36939235D01*
X170954329Y-36930970D01*
X170932150Y-36920480D01*
X170911107Y-36907868D01*
X170891401Y-36893253D01*
X170873223Y-36876777D01*
X170856747Y-36858599D01*
X170842132Y-36838893D01*
X170829520Y-36817850D01*
X170819030Y-36795671D01*
X170810765Y-36772572D01*
X170804804Y-36748773D01*
X170801204Y-36724505D01*
X170800000Y-36700001D01*
X170800000Y-36049999D01*
X170801204Y-36025495D01*
X170804804Y-36001227D01*
X170810765Y-35977428D01*
X170819030Y-35954329D01*
X170829520Y-35932150D01*
X170842132Y-35911107D01*
X170856747Y-35891401D01*
X170873223Y-35873223D01*
X170891401Y-35856747D01*
X170911107Y-35842132D01*
X170932150Y-35829520D01*
X170954329Y-35819030D01*
X170977428Y-35810765D01*
X171001227Y-35804804D01*
X171025495Y-35801204D01*
X171049999Y-35800000D01*
X171950001Y-35800000D01*
X171974505Y-35801204D01*
G37*
G04 #@! TD.AperFunction*
G04 #@! TA.AperFunction,SMDPad,CuDef*
G36*
X171974505Y-37851204D02*
G01*
X171998773Y-37854804D01*
X172022572Y-37860765D01*
X172045671Y-37869030D01*
X172067850Y-37879520D01*
X172088893Y-37892132D01*
X172108599Y-37906747D01*
X172126777Y-37923223D01*
X172143253Y-37941401D01*
X172157868Y-37961107D01*
X172170480Y-37982150D01*
X172180970Y-38004329D01*
X172189235Y-38027428D01*
X172195196Y-38051227D01*
X172198796Y-38075495D01*
X172200000Y-38099999D01*
X172200000Y-38750001D01*
X172198796Y-38774505D01*
X172195196Y-38798773D01*
X172189235Y-38822572D01*
X172180970Y-38845671D01*
X172170480Y-38867850D01*
X172157868Y-38888893D01*
X172143253Y-38908599D01*
X172126777Y-38926777D01*
X172108599Y-38943253D01*
X172088893Y-38957868D01*
X172067850Y-38970480D01*
X172045671Y-38980970D01*
X172022572Y-38989235D01*
X171998773Y-38995196D01*
X171974505Y-38998796D01*
X171950001Y-39000000D01*
X171049999Y-39000000D01*
X171025495Y-38998796D01*
X171001227Y-38995196D01*
X170977428Y-38989235D01*
X170954329Y-38980970D01*
X170932150Y-38970480D01*
X170911107Y-38957868D01*
X170891401Y-38943253D01*
X170873223Y-38926777D01*
X170856747Y-38908599D01*
X170842132Y-38888893D01*
X170829520Y-38867850D01*
X170819030Y-38845671D01*
X170810765Y-38822572D01*
X170804804Y-38798773D01*
X170801204Y-38774505D01*
X170800000Y-38750001D01*
X170800000Y-38099999D01*
X170801204Y-38075495D01*
X170804804Y-38051227D01*
X170810765Y-38027428D01*
X170819030Y-38004329D01*
X170829520Y-37982150D01*
X170842132Y-37961107D01*
X170856747Y-37941401D01*
X170873223Y-37923223D01*
X170891401Y-37906747D01*
X170911107Y-37892132D01*
X170932150Y-37879520D01*
X170954329Y-37869030D01*
X170977428Y-37860765D01*
X171001227Y-37854804D01*
X171025495Y-37851204D01*
X171049999Y-37850000D01*
X171950001Y-37850000D01*
X171974505Y-37851204D01*
G37*
G04 #@! TD.AperFunction*
G04 #@! TA.AperFunction,SMDPad,CuDef*
G36*
X174874505Y-35801204D02*
G01*
X174898773Y-35804804D01*
X174922572Y-35810765D01*
X174945671Y-35819030D01*
X174967850Y-35829520D01*
X174988893Y-35842132D01*
X175008599Y-35856747D01*
X175026777Y-35873223D01*
X175043253Y-35891401D01*
X175057868Y-35911107D01*
X175070480Y-35932150D01*
X175080970Y-35954329D01*
X175089235Y-35977428D01*
X175095196Y-36001227D01*
X175098796Y-36025495D01*
X175100000Y-36049999D01*
X175100000Y-36700001D01*
X175098796Y-36724505D01*
X175095196Y-36748773D01*
X175089235Y-36772572D01*
X175080970Y-36795671D01*
X175070480Y-36817850D01*
X175057868Y-36838893D01*
X175043253Y-36858599D01*
X175026777Y-36876777D01*
X175008599Y-36893253D01*
X174988893Y-36907868D01*
X174967850Y-36920480D01*
X174945671Y-36930970D01*
X174922572Y-36939235D01*
X174898773Y-36945196D01*
X174874505Y-36948796D01*
X174850001Y-36950000D01*
X173949999Y-36950000D01*
X173925495Y-36948796D01*
X173901227Y-36945196D01*
X173877428Y-36939235D01*
X173854329Y-36930970D01*
X173832150Y-36920480D01*
X173811107Y-36907868D01*
X173791401Y-36893253D01*
X173773223Y-36876777D01*
X173756747Y-36858599D01*
X173742132Y-36838893D01*
X173729520Y-36817850D01*
X173719030Y-36795671D01*
X173710765Y-36772572D01*
X173704804Y-36748773D01*
X173701204Y-36724505D01*
X173700000Y-36700001D01*
X173700000Y-36049999D01*
X173701204Y-36025495D01*
X173704804Y-36001227D01*
X173710765Y-35977428D01*
X173719030Y-35954329D01*
X173729520Y-35932150D01*
X173742132Y-35911107D01*
X173756747Y-35891401D01*
X173773223Y-35873223D01*
X173791401Y-35856747D01*
X173811107Y-35842132D01*
X173832150Y-35829520D01*
X173854329Y-35819030D01*
X173877428Y-35810765D01*
X173901227Y-35804804D01*
X173925495Y-35801204D01*
X173949999Y-35800000D01*
X174850001Y-35800000D01*
X174874505Y-35801204D01*
G37*
G04 #@! TD.AperFunction*
G04 #@! TA.AperFunction,SMDPad,CuDef*
G36*
X174874505Y-37851204D02*
G01*
X174898773Y-37854804D01*
X174922572Y-37860765D01*
X174945671Y-37869030D01*
X174967850Y-37879520D01*
X174988893Y-37892132D01*
X175008599Y-37906747D01*
X175026777Y-37923223D01*
X175043253Y-37941401D01*
X175057868Y-37961107D01*
X175070480Y-37982150D01*
X175080970Y-38004329D01*
X175089235Y-38027428D01*
X175095196Y-38051227D01*
X175098796Y-38075495D01*
X175100000Y-38099999D01*
X175100000Y-38750001D01*
X175098796Y-38774505D01*
X175095196Y-38798773D01*
X175089235Y-38822572D01*
X175080970Y-38845671D01*
X175070480Y-38867850D01*
X175057868Y-38888893D01*
X175043253Y-38908599D01*
X175026777Y-38926777D01*
X175008599Y-38943253D01*
X174988893Y-38957868D01*
X174967850Y-38970480D01*
X174945671Y-38980970D01*
X174922572Y-38989235D01*
X174898773Y-38995196D01*
X174874505Y-38998796D01*
X174850001Y-39000000D01*
X173949999Y-39000000D01*
X173925495Y-38998796D01*
X173901227Y-38995196D01*
X173877428Y-38989235D01*
X173854329Y-38980970D01*
X173832150Y-38970480D01*
X173811107Y-38957868D01*
X173791401Y-38943253D01*
X173773223Y-38926777D01*
X173756747Y-38908599D01*
X173742132Y-38888893D01*
X173729520Y-38867850D01*
X173719030Y-38845671D01*
X173710765Y-38822572D01*
X173704804Y-38798773D01*
X173701204Y-38774505D01*
X173700000Y-38750001D01*
X173700000Y-38099999D01*
X173701204Y-38075495D01*
X173704804Y-38051227D01*
X173710765Y-38027428D01*
X173719030Y-38004329D01*
X173729520Y-37982150D01*
X173742132Y-37961107D01*
X173756747Y-37941401D01*
X173773223Y-37923223D01*
X173791401Y-37906747D01*
X173811107Y-37892132D01*
X173832150Y-37879520D01*
X173854329Y-37869030D01*
X173877428Y-37860765D01*
X173901227Y-37854804D01*
X173925495Y-37851204D01*
X173949999Y-37850000D01*
X174850001Y-37850000D01*
X174874505Y-37851204D01*
G37*
G04 #@! TD.AperFunction*
G04 #@! TA.AperFunction,SMDPad,CuDef*
G36*
X190224505Y-106701204D02*
G01*
X190248773Y-106704804D01*
X190272572Y-106710765D01*
X190295671Y-106719030D01*
X190317850Y-106729520D01*
X190338893Y-106742132D01*
X190358599Y-106756747D01*
X190376777Y-106773223D01*
X190393253Y-106791401D01*
X190407868Y-106811107D01*
X190420480Y-106832150D01*
X190430970Y-106854329D01*
X190439235Y-106877428D01*
X190445196Y-106901227D01*
X190448796Y-106925495D01*
X190450000Y-106949999D01*
X190450000Y-107600001D01*
X190448796Y-107624505D01*
X190445196Y-107648773D01*
X190439235Y-107672572D01*
X190430970Y-107695671D01*
X190420480Y-107717850D01*
X190407868Y-107738893D01*
X190393253Y-107758599D01*
X190376777Y-107776777D01*
X190358599Y-107793253D01*
X190338893Y-107807868D01*
X190317850Y-107820480D01*
X190295671Y-107830970D01*
X190272572Y-107839235D01*
X190248773Y-107845196D01*
X190224505Y-107848796D01*
X190200001Y-107850000D01*
X189299999Y-107850000D01*
X189275495Y-107848796D01*
X189251227Y-107845196D01*
X189227428Y-107839235D01*
X189204329Y-107830970D01*
X189182150Y-107820480D01*
X189161107Y-107807868D01*
X189141401Y-107793253D01*
X189123223Y-107776777D01*
X189106747Y-107758599D01*
X189092132Y-107738893D01*
X189079520Y-107717850D01*
X189069030Y-107695671D01*
X189060765Y-107672572D01*
X189054804Y-107648773D01*
X189051204Y-107624505D01*
X189050000Y-107600001D01*
X189050000Y-106949999D01*
X189051204Y-106925495D01*
X189054804Y-106901227D01*
X189060765Y-106877428D01*
X189069030Y-106854329D01*
X189079520Y-106832150D01*
X189092132Y-106811107D01*
X189106747Y-106791401D01*
X189123223Y-106773223D01*
X189141401Y-106756747D01*
X189161107Y-106742132D01*
X189182150Y-106729520D01*
X189204329Y-106719030D01*
X189227428Y-106710765D01*
X189251227Y-106704804D01*
X189275495Y-106701204D01*
X189299999Y-106700000D01*
X190200001Y-106700000D01*
X190224505Y-106701204D01*
G37*
G04 #@! TD.AperFunction*
G04 #@! TA.AperFunction,SMDPad,CuDef*
G36*
X190224505Y-104651204D02*
G01*
X190248773Y-104654804D01*
X190272572Y-104660765D01*
X190295671Y-104669030D01*
X190317850Y-104679520D01*
X190338893Y-104692132D01*
X190358599Y-104706747D01*
X190376777Y-104723223D01*
X190393253Y-104741401D01*
X190407868Y-104761107D01*
X190420480Y-104782150D01*
X190430970Y-104804329D01*
X190439235Y-104827428D01*
X190445196Y-104851227D01*
X190448796Y-104875495D01*
X190450000Y-104899999D01*
X190450000Y-105550001D01*
X190448796Y-105574505D01*
X190445196Y-105598773D01*
X190439235Y-105622572D01*
X190430970Y-105645671D01*
X190420480Y-105667850D01*
X190407868Y-105688893D01*
X190393253Y-105708599D01*
X190376777Y-105726777D01*
X190358599Y-105743253D01*
X190338893Y-105757868D01*
X190317850Y-105770480D01*
X190295671Y-105780970D01*
X190272572Y-105789235D01*
X190248773Y-105795196D01*
X190224505Y-105798796D01*
X190200001Y-105800000D01*
X189299999Y-105800000D01*
X189275495Y-105798796D01*
X189251227Y-105795196D01*
X189227428Y-105789235D01*
X189204329Y-105780970D01*
X189182150Y-105770480D01*
X189161107Y-105757868D01*
X189141401Y-105743253D01*
X189123223Y-105726777D01*
X189106747Y-105708599D01*
X189092132Y-105688893D01*
X189079520Y-105667850D01*
X189069030Y-105645671D01*
X189060765Y-105622572D01*
X189054804Y-105598773D01*
X189051204Y-105574505D01*
X189050000Y-105550001D01*
X189050000Y-104899999D01*
X189051204Y-104875495D01*
X189054804Y-104851227D01*
X189060765Y-104827428D01*
X189069030Y-104804329D01*
X189079520Y-104782150D01*
X189092132Y-104761107D01*
X189106747Y-104741401D01*
X189123223Y-104723223D01*
X189141401Y-104706747D01*
X189161107Y-104692132D01*
X189182150Y-104679520D01*
X189204329Y-104669030D01*
X189227428Y-104660765D01*
X189251227Y-104654804D01*
X189275495Y-104651204D01*
X189299999Y-104650000D01*
X190200001Y-104650000D01*
X190224505Y-104651204D01*
G37*
G04 #@! TD.AperFunction*
G04 #@! TA.AperFunction,SMDPad,CuDef*
G36*
X168324505Y-26801204D02*
G01*
X168348773Y-26804804D01*
X168372572Y-26810765D01*
X168395671Y-26819030D01*
X168417850Y-26829520D01*
X168438893Y-26842132D01*
X168458599Y-26856747D01*
X168476777Y-26873223D01*
X168493253Y-26891401D01*
X168507868Y-26911107D01*
X168520480Y-26932150D01*
X168530970Y-26954329D01*
X168539235Y-26977428D01*
X168545196Y-27001227D01*
X168548796Y-27025495D01*
X168550000Y-27049999D01*
X168550000Y-27950001D01*
X168548796Y-27974505D01*
X168545196Y-27998773D01*
X168539235Y-28022572D01*
X168530970Y-28045671D01*
X168520480Y-28067850D01*
X168507868Y-28088893D01*
X168493253Y-28108599D01*
X168476777Y-28126777D01*
X168458599Y-28143253D01*
X168438893Y-28157868D01*
X168417850Y-28170480D01*
X168395671Y-28180970D01*
X168372572Y-28189235D01*
X168348773Y-28195196D01*
X168324505Y-28198796D01*
X168300001Y-28200000D01*
X167649999Y-28200000D01*
X167625495Y-28198796D01*
X167601227Y-28195196D01*
X167577428Y-28189235D01*
X167554329Y-28180970D01*
X167532150Y-28170480D01*
X167511107Y-28157868D01*
X167491401Y-28143253D01*
X167473223Y-28126777D01*
X167456747Y-28108599D01*
X167442132Y-28088893D01*
X167429520Y-28067850D01*
X167419030Y-28045671D01*
X167410765Y-28022572D01*
X167404804Y-27998773D01*
X167401204Y-27974505D01*
X167400000Y-27950001D01*
X167400000Y-27049999D01*
X167401204Y-27025495D01*
X167404804Y-27001227D01*
X167410765Y-26977428D01*
X167419030Y-26954329D01*
X167429520Y-26932150D01*
X167442132Y-26911107D01*
X167456747Y-26891401D01*
X167473223Y-26873223D01*
X167491401Y-26856747D01*
X167511107Y-26842132D01*
X167532150Y-26829520D01*
X167554329Y-26819030D01*
X167577428Y-26810765D01*
X167601227Y-26804804D01*
X167625495Y-26801204D01*
X167649999Y-26800000D01*
X168300001Y-26800000D01*
X168324505Y-26801204D01*
G37*
G04 #@! TD.AperFunction*
G04 #@! TA.AperFunction,SMDPad,CuDef*
G36*
X170374505Y-26801204D02*
G01*
X170398773Y-26804804D01*
X170422572Y-26810765D01*
X170445671Y-26819030D01*
X170467850Y-26829520D01*
X170488893Y-26842132D01*
X170508599Y-26856747D01*
X170526777Y-26873223D01*
X170543253Y-26891401D01*
X170557868Y-26911107D01*
X170570480Y-26932150D01*
X170580970Y-26954329D01*
X170589235Y-26977428D01*
X170595196Y-27001227D01*
X170598796Y-27025495D01*
X170600000Y-27049999D01*
X170600000Y-27950001D01*
X170598796Y-27974505D01*
X170595196Y-27998773D01*
X170589235Y-28022572D01*
X170580970Y-28045671D01*
X170570480Y-28067850D01*
X170557868Y-28088893D01*
X170543253Y-28108599D01*
X170526777Y-28126777D01*
X170508599Y-28143253D01*
X170488893Y-28157868D01*
X170467850Y-28170480D01*
X170445671Y-28180970D01*
X170422572Y-28189235D01*
X170398773Y-28195196D01*
X170374505Y-28198796D01*
X170350001Y-28200000D01*
X169699999Y-28200000D01*
X169675495Y-28198796D01*
X169651227Y-28195196D01*
X169627428Y-28189235D01*
X169604329Y-28180970D01*
X169582150Y-28170480D01*
X169561107Y-28157868D01*
X169541401Y-28143253D01*
X169523223Y-28126777D01*
X169506747Y-28108599D01*
X169492132Y-28088893D01*
X169479520Y-28067850D01*
X169469030Y-28045671D01*
X169460765Y-28022572D01*
X169454804Y-27998773D01*
X169451204Y-27974505D01*
X169450000Y-27950001D01*
X169450000Y-27049999D01*
X169451204Y-27025495D01*
X169454804Y-27001227D01*
X169460765Y-26977428D01*
X169469030Y-26954329D01*
X169479520Y-26932150D01*
X169492132Y-26911107D01*
X169506747Y-26891401D01*
X169523223Y-26873223D01*
X169541401Y-26856747D01*
X169561107Y-26842132D01*
X169582150Y-26829520D01*
X169604329Y-26819030D01*
X169627428Y-26810765D01*
X169651227Y-26804804D01*
X169675495Y-26801204D01*
X169699999Y-26800000D01*
X170350001Y-26800000D01*
X170374505Y-26801204D01*
G37*
G04 #@! TD.AperFunction*
G04 #@! TA.AperFunction,SMDPad,CuDef*
G36*
X176324505Y-26801204D02*
G01*
X176348773Y-26804804D01*
X176372572Y-26810765D01*
X176395671Y-26819030D01*
X176417850Y-26829520D01*
X176438893Y-26842132D01*
X176458599Y-26856747D01*
X176476777Y-26873223D01*
X176493253Y-26891401D01*
X176507868Y-26911107D01*
X176520480Y-26932150D01*
X176530970Y-26954329D01*
X176539235Y-26977428D01*
X176545196Y-27001227D01*
X176548796Y-27025495D01*
X176550000Y-27049999D01*
X176550000Y-27950001D01*
X176548796Y-27974505D01*
X176545196Y-27998773D01*
X176539235Y-28022572D01*
X176530970Y-28045671D01*
X176520480Y-28067850D01*
X176507868Y-28088893D01*
X176493253Y-28108599D01*
X176476777Y-28126777D01*
X176458599Y-28143253D01*
X176438893Y-28157868D01*
X176417850Y-28170480D01*
X176395671Y-28180970D01*
X176372572Y-28189235D01*
X176348773Y-28195196D01*
X176324505Y-28198796D01*
X176300001Y-28200000D01*
X175649999Y-28200000D01*
X175625495Y-28198796D01*
X175601227Y-28195196D01*
X175577428Y-28189235D01*
X175554329Y-28180970D01*
X175532150Y-28170480D01*
X175511107Y-28157868D01*
X175491401Y-28143253D01*
X175473223Y-28126777D01*
X175456747Y-28108599D01*
X175442132Y-28088893D01*
X175429520Y-28067850D01*
X175419030Y-28045671D01*
X175410765Y-28022572D01*
X175404804Y-27998773D01*
X175401204Y-27974505D01*
X175400000Y-27950001D01*
X175400000Y-27049999D01*
X175401204Y-27025495D01*
X175404804Y-27001227D01*
X175410765Y-26977428D01*
X175419030Y-26954329D01*
X175429520Y-26932150D01*
X175442132Y-26911107D01*
X175456747Y-26891401D01*
X175473223Y-26873223D01*
X175491401Y-26856747D01*
X175511107Y-26842132D01*
X175532150Y-26829520D01*
X175554329Y-26819030D01*
X175577428Y-26810765D01*
X175601227Y-26804804D01*
X175625495Y-26801204D01*
X175649999Y-26800000D01*
X176300001Y-26800000D01*
X176324505Y-26801204D01*
G37*
G04 #@! TD.AperFunction*
G04 #@! TA.AperFunction,SMDPad,CuDef*
G36*
X178374505Y-26801204D02*
G01*
X178398773Y-26804804D01*
X178422572Y-26810765D01*
X178445671Y-26819030D01*
X178467850Y-26829520D01*
X178488893Y-26842132D01*
X178508599Y-26856747D01*
X178526777Y-26873223D01*
X178543253Y-26891401D01*
X178557868Y-26911107D01*
X178570480Y-26932150D01*
X178580970Y-26954329D01*
X178589235Y-26977428D01*
X178595196Y-27001227D01*
X178598796Y-27025495D01*
X178600000Y-27049999D01*
X178600000Y-27950001D01*
X178598796Y-27974505D01*
X178595196Y-27998773D01*
X178589235Y-28022572D01*
X178580970Y-28045671D01*
X178570480Y-28067850D01*
X178557868Y-28088893D01*
X178543253Y-28108599D01*
X178526777Y-28126777D01*
X178508599Y-28143253D01*
X178488893Y-28157868D01*
X178467850Y-28170480D01*
X178445671Y-28180970D01*
X178422572Y-28189235D01*
X178398773Y-28195196D01*
X178374505Y-28198796D01*
X178350001Y-28200000D01*
X177699999Y-28200000D01*
X177675495Y-28198796D01*
X177651227Y-28195196D01*
X177627428Y-28189235D01*
X177604329Y-28180970D01*
X177582150Y-28170480D01*
X177561107Y-28157868D01*
X177541401Y-28143253D01*
X177523223Y-28126777D01*
X177506747Y-28108599D01*
X177492132Y-28088893D01*
X177479520Y-28067850D01*
X177469030Y-28045671D01*
X177460765Y-28022572D01*
X177454804Y-27998773D01*
X177451204Y-27974505D01*
X177450000Y-27950001D01*
X177450000Y-27049999D01*
X177451204Y-27025495D01*
X177454804Y-27001227D01*
X177460765Y-26977428D01*
X177469030Y-26954329D01*
X177479520Y-26932150D01*
X177492132Y-26911107D01*
X177506747Y-26891401D01*
X177523223Y-26873223D01*
X177541401Y-26856747D01*
X177561107Y-26842132D01*
X177582150Y-26829520D01*
X177604329Y-26819030D01*
X177627428Y-26810765D01*
X177651227Y-26804804D01*
X177675495Y-26801204D01*
X177699999Y-26800000D01*
X178350001Y-26800000D01*
X178374505Y-26801204D01*
G37*
G04 #@! TD.AperFunction*
D11*
X313412500Y-102362500D03*
X318412500Y-101862500D03*
X313412500Y-83312500D03*
X318412500Y-82812500D03*
X313412500Y-64262500D03*
X318412500Y-63762500D03*
X313412500Y-45212500D03*
X318412500Y-44712500D03*
X313412500Y-26162500D03*
X318412500Y-25662500D03*
X294362500Y-102362500D03*
X299362500Y-101862500D03*
X294362500Y-83312500D03*
X299362500Y-82812500D03*
X284837500Y-26162500D03*
X289837500Y-25662500D03*
X275312500Y-102362500D03*
X280312500Y-101862500D03*
X268168750Y-83312500D03*
X273168750Y-82812500D03*
X282456250Y-64262500D03*
X287456250Y-63762500D03*
X265787500Y-45212500D03*
X270787500Y-44712500D03*
X256262500Y-26162500D03*
X261262500Y-25662500D03*
X256262500Y-102362500D03*
X261262500Y-101862500D03*
X251500000Y-64262500D03*
X256500000Y-63762500D03*
X246737500Y-45212500D03*
X251737500Y-44712500D03*
X237212500Y-26162500D03*
X242212500Y-25662500D03*
X234831250Y-102362500D03*
X239831250Y-101862500D03*
X241975000Y-83312500D03*
X246975000Y-82812500D03*
X232450000Y-64262500D03*
X237450000Y-63762500D03*
X227687500Y-45212500D03*
X232687500Y-44712500D03*
X218162500Y-26162500D03*
X223162500Y-25662500D03*
X222925000Y-83312500D03*
X227925000Y-82812500D03*
X213400000Y-64262500D03*
X218400000Y-63762500D03*
X208637500Y-45212500D03*
X213637500Y-44712500D03*
X199112500Y-26162500D03*
X204112500Y-25662500D03*
X203875000Y-83312500D03*
X208875000Y-82812500D03*
X194350000Y-64262500D03*
X199350000Y-63762500D03*
X189587500Y-45212500D03*
X194587500Y-44712500D03*
X180062500Y-26162500D03*
X185062500Y-25662500D03*
X184825000Y-83312500D03*
X189825000Y-82812500D03*
X175300000Y-64262500D03*
X180300000Y-63762500D03*
X170537500Y-45212500D03*
X175537500Y-44712500D03*
X161012500Y-26162500D03*
X166012500Y-25662500D03*
X165775000Y-83312500D03*
X170775000Y-82812500D03*
X156250000Y-64262500D03*
X161250000Y-63762500D03*
X151487500Y-45212500D03*
X156487500Y-44712500D03*
X141962500Y-26162500D03*
X146962500Y-25662500D03*
X146725000Y-83312500D03*
X151725000Y-82812500D03*
X137200000Y-64262500D03*
X142200000Y-63762500D03*
X132437500Y-45212500D03*
X137437500Y-44712500D03*
X122912500Y-26162500D03*
X127912500Y-25662500D03*
X127675000Y-83312500D03*
X132675000Y-82812500D03*
X118150000Y-64262500D03*
X123150000Y-63762500D03*
X113387500Y-45212500D03*
X118387500Y-44712500D03*
X103862500Y-26162500D03*
X108862500Y-25662500D03*
X108625000Y-83312500D03*
X113625000Y-82812500D03*
X99100000Y-64262500D03*
X104100000Y-63762500D03*
X94337500Y-45212500D03*
X99337500Y-44712500D03*
X84812500Y-26162500D03*
X89812500Y-25662500D03*
X84812500Y-102362500D03*
X89812500Y-101862500D03*
X89575000Y-83312500D03*
X94575000Y-82812500D03*
X80050000Y-64262500D03*
X85050000Y-63762500D03*
X75287500Y-45212500D03*
X80287500Y-44712500D03*
X65762500Y-26162500D03*
X70762500Y-25662500D03*
X58618750Y-102362500D03*
X63618750Y-101862500D03*
X70525000Y-83312500D03*
X75525000Y-82812500D03*
X61000000Y-64262500D03*
X66000000Y-63762500D03*
X56237500Y-45212500D03*
X61237500Y-44712500D03*
X46712500Y-26162500D03*
X51712500Y-25662500D03*
X32425000Y-102362500D03*
X37425000Y-101862500D03*
X39568750Y-83312500D03*
X44568750Y-82812500D03*
X34806250Y-64262500D03*
X39806250Y-63762500D03*
X32425000Y-45212500D03*
X37425000Y-44712500D03*
X27662500Y-26162500D03*
X32662500Y-25662500D03*
D19*
X141790000Y-105092500D03*
D20*
X141790000Y-107632500D03*
X139250000Y-105092500D03*
X139250000Y-107632500D03*
X136710000Y-105092500D03*
X136710000Y-107632500D03*
G04 #@! TA.AperFunction,SMDPad,CuDef*
D10*
G36*
X178449504Y-30801204D02*
G01*
X178473773Y-30804804D01*
X178497571Y-30810765D01*
X178520671Y-30819030D01*
X178542849Y-30829520D01*
X178563893Y-30842133D01*
X178583598Y-30856747D01*
X178601777Y-30873223D01*
X178618253Y-30891402D01*
X178632867Y-30911107D01*
X178645480Y-30932151D01*
X178655970Y-30954329D01*
X178664235Y-30977429D01*
X178670196Y-31001227D01*
X178673796Y-31025496D01*
X178675000Y-31050000D01*
X178675000Y-31975000D01*
X178673796Y-31999504D01*
X178670196Y-32023773D01*
X178664235Y-32047571D01*
X178655970Y-32070671D01*
X178645480Y-32092849D01*
X178632867Y-32113893D01*
X178618253Y-32133598D01*
X178601777Y-32151777D01*
X178583598Y-32168253D01*
X178563893Y-32182867D01*
X178542849Y-32195480D01*
X178520671Y-32205970D01*
X178497571Y-32214235D01*
X178473773Y-32220196D01*
X178449504Y-32223796D01*
X178425000Y-32225000D01*
X177175000Y-32225000D01*
X177150496Y-32223796D01*
X177126227Y-32220196D01*
X177102429Y-32214235D01*
X177079329Y-32205970D01*
X177057151Y-32195480D01*
X177036107Y-32182867D01*
X177016402Y-32168253D01*
X176998223Y-32151777D01*
X176981747Y-32133598D01*
X176967133Y-32113893D01*
X176954520Y-32092849D01*
X176944030Y-32070671D01*
X176935765Y-32047571D01*
X176929804Y-32023773D01*
X176926204Y-31999504D01*
X176925000Y-31975000D01*
X176925000Y-31050000D01*
X176926204Y-31025496D01*
X176929804Y-31001227D01*
X176935765Y-30977429D01*
X176944030Y-30954329D01*
X176954520Y-30932151D01*
X176967133Y-30911107D01*
X176981747Y-30891402D01*
X176998223Y-30873223D01*
X177016402Y-30856747D01*
X177036107Y-30842133D01*
X177057151Y-30829520D01*
X177079329Y-30819030D01*
X177102429Y-30810765D01*
X177126227Y-30804804D01*
X177150496Y-30801204D01*
X177175000Y-30800000D01*
X178425000Y-30800000D01*
X178449504Y-30801204D01*
G37*
G04 #@! TD.AperFunction*
G04 #@! TA.AperFunction,SMDPad,CuDef*
G36*
X178449504Y-33776204D02*
G01*
X178473773Y-33779804D01*
X178497571Y-33785765D01*
X178520671Y-33794030D01*
X178542849Y-33804520D01*
X178563893Y-33817133D01*
X178583598Y-33831747D01*
X178601777Y-33848223D01*
X178618253Y-33866402D01*
X178632867Y-33886107D01*
X178645480Y-33907151D01*
X178655970Y-33929329D01*
X178664235Y-33952429D01*
X178670196Y-33976227D01*
X178673796Y-34000496D01*
X178675000Y-34025000D01*
X178675000Y-34950000D01*
X178673796Y-34974504D01*
X178670196Y-34998773D01*
X178664235Y-35022571D01*
X178655970Y-35045671D01*
X178645480Y-35067849D01*
X178632867Y-35088893D01*
X178618253Y-35108598D01*
X178601777Y-35126777D01*
X178583598Y-35143253D01*
X178563893Y-35157867D01*
X178542849Y-35170480D01*
X178520671Y-35180970D01*
X178497571Y-35189235D01*
X178473773Y-35195196D01*
X178449504Y-35198796D01*
X178425000Y-35200000D01*
X177175000Y-35200000D01*
X177150496Y-35198796D01*
X177126227Y-35195196D01*
X177102429Y-35189235D01*
X177079329Y-35180970D01*
X177057151Y-35170480D01*
X177036107Y-35157867D01*
X177016402Y-35143253D01*
X176998223Y-35126777D01*
X176981747Y-35108598D01*
X176967133Y-35088893D01*
X176954520Y-35067849D01*
X176944030Y-35045671D01*
X176935765Y-35022571D01*
X176929804Y-34998773D01*
X176926204Y-34974504D01*
X176925000Y-34950000D01*
X176925000Y-34025000D01*
X176926204Y-34000496D01*
X176929804Y-33976227D01*
X176935765Y-33952429D01*
X176944030Y-33929329D01*
X176954520Y-33907151D01*
X176967133Y-33886107D01*
X176981747Y-33866402D01*
X176998223Y-33848223D01*
X177016402Y-33831747D01*
X177036107Y-33817133D01*
X177057151Y-33804520D01*
X177079329Y-33794030D01*
X177102429Y-33785765D01*
X177126227Y-33779804D01*
X177150496Y-33776204D01*
X177175000Y-33775000D01*
X178425000Y-33775000D01*
X178449504Y-33776204D01*
G37*
G04 #@! TD.AperFunction*
D21*
X322750000Y-104712500D03*
X322750000Y-108012500D03*
X322262500Y-85662500D03*
X322262500Y-88962500D03*
X322262500Y-67406250D03*
X322262500Y-70706250D03*
X322262500Y-49150000D03*
X322262500Y-52450000D03*
X322262500Y-30100000D03*
X322262500Y-33400000D03*
X305593750Y-104712500D03*
X305593750Y-108012500D03*
X305593750Y-84868750D03*
X305593750Y-88168750D03*
X300831250Y-47562500D03*
X300831250Y-50862500D03*
X297656250Y-28512500D03*
X297656250Y-31812500D03*
X286543750Y-104712500D03*
X286543750Y-108012500D03*
X279400000Y-84868750D03*
X279400000Y-88168750D03*
X294481250Y-66612500D03*
X294481250Y-69912500D03*
X277018750Y-47562500D03*
X277018750Y-50862500D03*
X267493750Y-28512500D03*
X267493750Y-31812500D03*
X267493750Y-104712500D03*
X267493750Y-108012500D03*
X263525000Y-66612500D03*
X263525000Y-69912500D03*
X257968750Y-47562500D03*
X257968750Y-50862500D03*
X248443750Y-28512500D03*
X248443750Y-31812500D03*
X246062500Y-104712500D03*
X246062500Y-108012500D03*
X253206250Y-84868750D03*
X253206250Y-88168750D03*
X243500000Y-66612500D03*
X243500000Y-69912500D03*
X238918750Y-47562500D03*
X238918750Y-50862500D03*
X229393750Y-28512500D03*
X229393750Y-31812500D03*
X234156250Y-84868750D03*
X234156250Y-88168750D03*
X224631250Y-66612500D03*
X224631250Y-69912500D03*
X219868750Y-47562500D03*
X219868750Y-50862500D03*
X210343750Y-28512500D03*
X210343750Y-31812500D03*
X215106250Y-83100000D03*
X215106250Y-86400000D03*
X205581250Y-66612500D03*
X205581250Y-69912500D03*
X200818750Y-47562500D03*
X200818750Y-50862500D03*
X191000000Y-28350000D03*
X191000000Y-31650000D03*
X196056250Y-84868750D03*
X196056250Y-88168750D03*
X186531250Y-66612500D03*
X186531250Y-69912500D03*
X181768750Y-47562500D03*
X181768750Y-50862500D03*
X156500000Y-28512500D03*
X156500000Y-31812500D03*
X175800000Y-84868750D03*
X175800000Y-88168750D03*
X167481250Y-66612500D03*
X167481250Y-69912500D03*
X162718750Y-47562500D03*
X162718750Y-50862500D03*
X153193750Y-28512500D03*
X153193750Y-31812500D03*
X172243750Y-104712500D03*
X172243750Y-108012500D03*
X157956250Y-84868750D03*
X157956250Y-88168750D03*
X148431250Y-66612500D03*
X148431250Y-69912500D03*
X143668750Y-47562500D03*
X143668750Y-50862500D03*
X134143750Y-28512500D03*
X134143750Y-31812500D03*
X138906250Y-84868750D03*
X138906250Y-88168750D03*
X129381250Y-66612500D03*
X129381250Y-69912500D03*
X124618750Y-47562500D03*
X124618750Y-50862500D03*
X115093750Y-28512500D03*
X115093750Y-31812500D03*
X119856250Y-84868750D03*
X119856250Y-88168750D03*
X110331250Y-66612500D03*
X110331250Y-69912500D03*
X105568750Y-47562500D03*
X105568750Y-50862500D03*
X96043750Y-28512500D03*
X96043750Y-31812500D03*
X96043750Y-104712500D03*
X96043750Y-108012500D03*
X100806250Y-84868750D03*
X100806250Y-88168750D03*
X91281250Y-66612500D03*
X91281250Y-69912500D03*
X86518750Y-47562500D03*
X86518750Y-50862500D03*
X76993750Y-28512500D03*
X76993750Y-31812500D03*
X69850000Y-104712500D03*
X69850000Y-108012500D03*
X81756250Y-84868750D03*
X81756250Y-88168750D03*
X72231250Y-66612500D03*
X72231250Y-69912500D03*
X67468750Y-47562500D03*
X67468750Y-50862500D03*
X57943750Y-28512500D03*
X57943750Y-31812500D03*
X43656250Y-104712500D03*
X43656250Y-108012500D03*
X50800000Y-84868750D03*
X50800000Y-88168750D03*
X46831250Y-66612500D03*
X46831250Y-69912500D03*
X43656250Y-47562500D03*
X43656250Y-50862500D03*
X38100000Y-28512500D03*
X38100000Y-31812500D03*
D22*
X227250000Y-107454238D03*
X227250000Y-107454238D03*
X227250000Y-107454238D03*
X227250000Y-107454238D03*
X221250000Y-113454238D03*
X221250000Y-113454238D03*
X215250000Y-112500000D03*
X221750000Y-97250000D03*
X191750000Y-107250000D03*
X209750000Y-101750000D03*
X192999998Y-98200000D03*
X202400000Y-109600000D03*
X212500000Y-109559479D03*
X163250000Y-34750000D03*
X188250000Y-34750000D03*
X179500000Y-57500000D03*
X199000000Y-57500000D03*
X237000000Y-97750000D03*
X237000000Y-93500000D03*
X175750000Y-95750000D03*
X194750000Y-95750000D03*
X170400000Y-25700000D03*
X171700000Y-28900000D03*
X177000000Y-29200000D03*
X206234694Y-104375001D03*
X193738580Y-106374990D03*
X206500000Y-106073002D03*
X90750000Y-91000000D03*
X87750000Y-91000000D03*
X62500000Y-91000000D03*
X199500000Y-92000000D03*
X198457758Y-90300853D03*
X197746280Y-89598128D03*
X197347536Y-88681053D03*
X223155187Y-95930815D03*
X150500000Y-94250000D03*
X150500000Y-98000000D03*
X223917940Y-96695293D03*
X224720304Y-97476151D03*
X225667939Y-98195294D03*
X226500000Y-99000000D03*
X234316228Y-105551315D03*
X234000000Y-106500000D03*
X229750000Y-113525000D03*
X230057003Y-112573289D03*
X209762653Y-109400000D03*
X207400000Y-111200000D03*
X185125010Y-76500000D03*
X177209490Y-76500000D03*
X196200000Y-107800002D03*
X177209490Y-96500000D03*
X185622356Y-96499978D03*
X168209490Y-58486510D03*
X197600000Y-96999996D03*
X210750000Y-113540510D03*
X202500000Y-102000000D03*
X211000002Y-111000000D03*
X196400000Y-106800000D03*
X90737340Y-89987340D03*
X198683769Y-91274990D03*
D23*
X225747844Y-105952082D02*
X227250000Y-107454238D01*
X225358936Y-105952082D02*
X225747844Y-105952082D01*
X221250000Y-113156854D02*
X219702082Y-111608936D01*
X221250000Y-113454238D02*
X221250000Y-113156854D01*
X216732233Y-111043250D02*
X216706750Y-111043250D01*
X216706750Y-111043250D02*
X215250000Y-112500000D01*
X220267767Y-98456750D02*
X220293250Y-98456750D01*
X220293250Y-98456750D02*
X221500000Y-97250000D01*
X189050000Y-107275000D02*
X186825000Y-109500000D01*
X189750000Y-107275000D02*
X189050000Y-107275000D01*
X179150000Y-109031000D02*
X179150000Y-108100000D01*
X179619000Y-109500000D02*
X179150000Y-109031000D01*
X186825000Y-109500000D02*
X179619000Y-109500000D01*
X136750000Y-110000000D02*
X135469499Y-108719499D01*
X135469499Y-106333001D02*
X135860001Y-105942499D01*
X168503348Y-110000000D02*
X136750000Y-110000000D01*
X171331349Y-107171999D02*
X168503348Y-110000000D01*
X179150000Y-108100000D02*
X174084152Y-108100000D01*
X135469499Y-108719499D02*
X135469499Y-106333001D01*
X173156151Y-107171999D02*
X171331349Y-107171999D01*
X174084152Y-108100000D02*
X173156151Y-107171999D01*
X135860001Y-105942499D02*
X136710000Y-105092500D01*
X189775000Y-107250000D02*
X189750000Y-107275000D01*
X191750000Y-107250000D02*
X189775000Y-107250000D01*
X201750000Y-111225000D02*
X197750000Y-111225000D01*
X197750000Y-111225000D02*
X194000000Y-111225000D01*
X194000000Y-111225000D02*
X190000000Y-111225000D01*
X190000000Y-107525000D02*
X189750000Y-107275000D01*
X190000000Y-111225000D02*
X190000000Y-107525000D01*
X212105887Y-101750000D02*
X210315685Y-101750000D01*
X212772435Y-102416548D02*
X212105887Y-101750000D01*
X210315685Y-101750000D02*
X209750000Y-101750000D01*
X184800000Y-47800000D02*
X183615510Y-48984490D01*
X183615510Y-48984490D02*
X180415510Y-48984490D01*
X184800000Y-42200000D02*
X184800000Y-47800000D01*
X177800000Y-35200000D02*
X184800000Y-42200000D01*
X177800000Y-34487500D02*
X177800000Y-35200000D01*
X177084490Y-52315509D02*
X180415509Y-48984490D01*
X177084489Y-64284489D02*
X177084490Y-52315509D01*
X182600001Y-69800001D02*
X177084489Y-64284489D01*
X183200001Y-96965686D02*
X184434315Y-98200000D01*
X177084490Y-52315509D02*
X177084490Y-64284489D01*
X184434315Y-98200000D02*
X192434313Y-98200000D01*
X177084490Y-64284489D02*
X183200001Y-70400000D01*
X183200001Y-70400000D02*
X183200001Y-96965686D01*
X192434313Y-98200000D02*
X192999998Y-98200000D01*
X201750000Y-110250000D02*
X202000001Y-109999999D01*
X202000001Y-109999999D02*
X202400000Y-109600000D01*
X201750000Y-111225000D02*
X201750000Y-110250000D01*
X213844656Y-108214823D02*
X212899999Y-109159480D01*
X213903806Y-108214823D02*
X213844656Y-108214823D01*
X212899999Y-109159480D02*
X212500000Y-109559479D01*
D24*
X211045584Y-95037868D02*
X210088478Y-95037868D01*
X210724874Y-96974874D02*
X214469491Y-100719491D01*
X210724874Y-95674264D02*
X210088478Y-95037868D01*
X210724874Y-96974874D02*
X210724874Y-95674264D01*
X212651562Y-92474784D02*
X212724784Y-92474784D01*
X210088478Y-95037868D02*
X212651562Y-92474784D01*
X205401562Y-99724784D02*
X205224784Y-99724784D01*
X35512500Y-28512500D02*
X38100000Y-28512500D01*
X32662500Y-25662500D02*
X35512500Y-28512500D01*
X56250000Y-38500000D02*
X74750000Y-38500000D01*
X76143750Y-31812500D02*
X76993750Y-31812500D01*
X74750000Y-33206250D02*
X76143750Y-31812500D01*
X74750000Y-38500000D02*
X94000000Y-38500000D01*
X95193750Y-31812500D02*
X96043750Y-31812500D01*
X94000000Y-33006250D02*
X95193750Y-31812500D01*
X94000000Y-38500000D02*
X112500000Y-38500000D01*
X113437500Y-31812500D02*
X115093750Y-31812500D01*
X112500000Y-32750000D02*
X113437500Y-31812500D01*
X112500000Y-38500000D02*
X131250000Y-38500000D01*
X132937500Y-31812500D02*
X134143750Y-31812500D01*
X131250000Y-33500000D02*
X132937500Y-31812500D01*
X131250000Y-38500000D02*
X150500000Y-38500000D01*
X153193750Y-31812500D02*
X156500000Y-31812500D01*
X156500000Y-31812500D02*
X157812500Y-31812500D01*
X157812500Y-31812500D02*
X158750000Y-32750000D01*
X158750000Y-32750000D02*
X158750000Y-34750000D01*
X158750000Y-34750000D02*
X163250000Y-34750000D01*
X188250000Y-34750000D02*
X188250000Y-34750000D01*
X189350000Y-31650000D02*
X191000000Y-31650000D01*
X188250000Y-32750000D02*
X189350000Y-31650000D01*
X188250000Y-34750000D02*
X207500000Y-34750000D01*
X207500000Y-34750000D02*
X207500000Y-33250000D01*
X208937500Y-31812500D02*
X210343750Y-31812500D01*
X207500000Y-33250000D02*
X208937500Y-31812500D01*
X207500000Y-34750000D02*
X224000000Y-34750000D01*
X224000000Y-34750000D02*
X226000000Y-34750000D01*
X227437500Y-31812500D02*
X229393750Y-31812500D01*
X226000000Y-33250000D02*
X227437500Y-31812500D01*
X226000000Y-34750000D02*
X226000000Y-33250000D01*
X226000000Y-34750000D02*
X242250000Y-34750000D01*
X242250000Y-34750000D02*
X246000000Y-34750000D01*
X246000000Y-34184315D02*
X246000000Y-34750000D01*
X246000000Y-33406250D02*
X246000000Y-34184315D01*
X247593750Y-31812500D02*
X246000000Y-33406250D01*
X248443750Y-31812500D02*
X247593750Y-31812500D01*
X246000000Y-34750000D02*
X265000000Y-34750000D01*
X265000000Y-34750000D02*
X265000000Y-33250000D01*
X266437500Y-31812500D02*
X267493750Y-31812500D01*
X265000000Y-33250000D02*
X266437500Y-31812500D01*
X265000000Y-34750000D02*
X295000000Y-34750000D01*
X295000000Y-34750000D02*
X295000000Y-33250000D01*
X296437500Y-31812500D02*
X297656250Y-31812500D01*
X295000000Y-33250000D02*
X296437500Y-31812500D01*
X295000000Y-34750000D02*
X316000000Y-34750000D01*
X316000000Y-34750000D02*
X317500000Y-33250000D01*
X322112500Y-33250000D02*
X322262500Y-33400000D01*
X317500000Y-33250000D02*
X322112500Y-33250000D01*
X153193750Y-31812500D02*
X153193750Y-36556250D01*
X151250000Y-38500000D02*
X150500000Y-38500000D01*
X153193750Y-36556250D02*
X151250000Y-38500000D01*
X131250000Y-38500000D02*
X131250000Y-34250000D01*
X131250000Y-34250000D02*
X131250000Y-33500000D01*
X131250000Y-34750000D02*
X131250000Y-34250000D01*
X112500000Y-38500000D02*
X112500000Y-33750000D01*
X112500000Y-33750000D02*
X112500000Y-32750000D01*
X112500000Y-34750000D02*
X112500000Y-33750000D01*
X94000000Y-38500000D02*
X94000000Y-33500000D01*
X94000000Y-33500000D02*
X94000000Y-33006250D01*
X94000000Y-34750000D02*
X94000000Y-33500000D01*
X74750000Y-38500000D02*
X74750000Y-33750000D01*
X74750000Y-33750000D02*
X74750000Y-33206250D01*
X74750000Y-34750000D02*
X74750000Y-33750000D01*
X36500000Y-33262500D02*
X36500000Y-37000000D01*
X37950000Y-31812500D02*
X36500000Y-33262500D01*
X38100000Y-31812500D02*
X37950000Y-31812500D01*
X36500000Y-37000000D02*
X38000000Y-38500000D01*
X38000000Y-38500000D02*
X56250000Y-38500000D01*
X56250000Y-32656250D02*
X56250000Y-34750000D01*
X56250000Y-34750000D02*
X56250000Y-38500000D01*
X57093750Y-31812500D02*
X56250000Y-32656250D01*
X57943750Y-31812500D02*
X57093750Y-31812500D01*
X188250000Y-34750000D02*
X188250000Y-32750000D01*
X43656250Y-46862500D02*
X43656250Y-47562500D01*
X41506250Y-44712500D02*
X43656250Y-46862500D01*
X37425000Y-44712500D02*
X41506250Y-44712500D01*
X46831250Y-65912500D02*
X46831250Y-66612500D01*
X44681250Y-63762500D02*
X46831250Y-65912500D01*
X39806250Y-63762500D02*
X44681250Y-63762500D01*
X46625000Y-84868750D02*
X50800000Y-84868750D01*
X44568750Y-82812500D02*
X46625000Y-84868750D01*
X43656250Y-104012500D02*
X43656250Y-104712500D01*
X41506250Y-101862500D02*
X43656250Y-104012500D01*
X37425000Y-101862500D02*
X41506250Y-101862500D01*
X57943750Y-27812500D02*
X57943750Y-28512500D01*
X55793750Y-25662500D02*
X57943750Y-27812500D01*
X51712500Y-25662500D02*
X55793750Y-25662500D01*
X65887500Y-50862500D02*
X67468750Y-50862500D01*
X64500000Y-52250000D02*
X65887500Y-50862500D01*
X64500000Y-57500000D02*
X83750000Y-57500000D01*
X84887500Y-50862500D02*
X86518750Y-50862500D01*
X83750000Y-52000000D02*
X84887500Y-50862500D01*
X83750000Y-57500000D02*
X103000000Y-57500000D01*
X104387500Y-50862500D02*
X105568750Y-50862500D01*
X103000000Y-52250000D02*
X104387500Y-50862500D01*
X103000000Y-57500000D02*
X121000000Y-57500000D01*
X122637500Y-50862500D02*
X124618750Y-50862500D01*
X121000000Y-52500000D02*
X122637500Y-50862500D01*
X121000000Y-57500000D02*
X139750000Y-57500000D01*
X141387500Y-50862500D02*
X143668750Y-50862500D01*
X139750000Y-52500000D02*
X141387500Y-50862500D01*
X139750000Y-57500000D02*
X159000000Y-57500000D01*
X160137500Y-50862500D02*
X162718750Y-50862500D01*
X159000000Y-52000000D02*
X160137500Y-50862500D01*
X180918750Y-50862500D02*
X181768750Y-50862500D01*
X179500000Y-52281250D02*
X180918750Y-50862500D01*
X179500000Y-57500000D02*
X199000000Y-57500000D01*
X199637500Y-50862500D02*
X200818750Y-50862500D01*
X199000000Y-51500000D02*
X199637500Y-50862500D01*
X199000000Y-57500000D02*
X218250000Y-57500000D01*
X219868750Y-55881250D02*
X219868750Y-50862500D01*
X218250000Y-57500000D02*
X219868750Y-55881250D01*
X64500000Y-57500000D02*
X64500000Y-53500000D01*
X64500000Y-53500000D02*
X64500000Y-52250000D01*
X64500000Y-53750000D02*
X64500000Y-53500000D01*
X83750000Y-57500000D02*
X83750000Y-53250000D01*
X83750000Y-53250000D02*
X83750000Y-52000000D01*
X83750000Y-53750000D02*
X83750000Y-53250000D01*
X103000000Y-57500000D02*
X103000000Y-53250000D01*
X103000000Y-53250000D02*
X103000000Y-52250000D01*
X103000000Y-53750000D02*
X103000000Y-53250000D01*
X121000000Y-57500000D02*
X121000000Y-53250000D01*
X121000000Y-53250000D02*
X121000000Y-52500000D01*
X121000000Y-53750000D02*
X121000000Y-53250000D01*
X139750000Y-57500000D02*
X139750000Y-53250000D01*
X139750000Y-53250000D02*
X139750000Y-52500000D01*
X139750000Y-53750000D02*
X139750000Y-53250000D01*
X159000000Y-57500000D02*
X159000000Y-52500000D01*
X159000000Y-52500000D02*
X159000000Y-52000000D01*
X159000000Y-53750000D02*
X159000000Y-52500000D01*
X179500000Y-57500000D02*
X179500000Y-52750000D01*
X179500000Y-53750000D02*
X179500000Y-52750000D01*
X199000000Y-57500000D02*
X199000000Y-53250000D01*
X199000000Y-53250000D02*
X199000000Y-51500000D01*
X199000000Y-53750000D02*
X199000000Y-53250000D01*
X218250000Y-57500000D02*
X237500000Y-57500000D01*
X238918750Y-56081250D02*
X238918750Y-50862500D01*
X237500000Y-57500000D02*
X238918750Y-56081250D01*
X237500000Y-57500000D02*
X256750000Y-57500000D01*
X256750000Y-57500000D02*
X258000000Y-56250000D01*
X257968750Y-56218750D02*
X257968750Y-50862500D01*
X258000000Y-56250000D02*
X257968750Y-56218750D01*
X256750000Y-57500000D02*
X275750000Y-57500000D01*
X277018750Y-56231250D02*
X277018750Y-50862500D01*
X275750000Y-57500000D02*
X277018750Y-56231250D01*
X275750000Y-57500000D02*
X300750000Y-57500000D01*
X300750000Y-50943750D02*
X300831250Y-50862500D01*
X300750000Y-57500000D02*
X300750000Y-50943750D01*
X300750000Y-57500000D02*
X320000000Y-57500000D01*
X321412500Y-52450000D02*
X322262500Y-52450000D01*
X320000000Y-53862500D02*
X321412500Y-52450000D01*
X320000000Y-57500000D02*
X320000000Y-53862500D01*
X67468750Y-46862500D02*
X67468750Y-47562500D01*
X65318750Y-44712500D02*
X67468750Y-46862500D01*
X61237500Y-44712500D02*
X65318750Y-44712500D01*
X72231250Y-65912500D02*
X72231250Y-66612500D01*
X70081250Y-63762500D02*
X72231250Y-65912500D01*
X66000000Y-63762500D02*
X70081250Y-63762500D01*
X81756250Y-84168750D02*
X81756250Y-84868750D01*
X80400000Y-82812500D02*
X81756250Y-84168750D01*
X75525000Y-82812500D02*
X80400000Y-82812500D01*
X69850000Y-104012500D02*
X69850000Y-104712500D01*
X67700000Y-101862500D02*
X69850000Y-104012500D01*
X63618750Y-101862500D02*
X67700000Y-101862500D01*
X74843750Y-25662500D02*
X76993750Y-27812500D01*
X76993750Y-27812500D02*
X76993750Y-28512500D01*
X70762500Y-25662500D02*
X74843750Y-25662500D01*
X46831250Y-75581250D02*
X47750000Y-76500000D01*
X46831250Y-69912500D02*
X46831250Y-75581250D01*
X47750000Y-76500000D02*
X71000000Y-76500000D01*
X71000000Y-76500000D02*
X71000000Y-74750000D01*
X72231250Y-73518750D02*
X72231250Y-69912500D01*
X71000000Y-74750000D02*
X72231250Y-73518750D01*
X71000000Y-76500000D02*
X90000000Y-76500000D01*
X91281250Y-75218750D02*
X91281250Y-69912500D01*
X90000000Y-76500000D02*
X91281250Y-75218750D01*
X90000000Y-76500000D02*
X109250000Y-76500000D01*
X110331250Y-75418750D02*
X110331250Y-69912500D01*
X109250000Y-76500000D02*
X110331250Y-75418750D01*
X109250000Y-76500000D02*
X128000000Y-76500000D01*
X129381250Y-75118750D02*
X129381250Y-69912500D01*
X128000000Y-76500000D02*
X129381250Y-75118750D01*
X128000000Y-76500000D02*
X147500000Y-76500000D01*
X148431250Y-75568750D02*
X148431250Y-69912500D01*
X147500000Y-76500000D02*
X148431250Y-75568750D01*
X147500000Y-76500000D02*
X166000000Y-76500000D01*
X167481250Y-75018750D02*
X167481250Y-69912500D01*
X166000000Y-76500000D02*
X167481250Y-75018750D01*
X205581250Y-75418750D02*
X205581250Y-69912500D01*
X204500000Y-76500000D02*
X205581250Y-75418750D01*
X204500000Y-76500000D02*
X223250000Y-76500000D01*
X224631250Y-75118750D02*
X224631250Y-69912500D01*
X223250000Y-76500000D02*
X224631250Y-75118750D01*
X243500000Y-75500000D02*
X243500000Y-69912500D01*
X242500000Y-76500000D02*
X243500000Y-75500000D01*
X242500000Y-76500000D02*
X261500000Y-76500000D01*
X263525000Y-74475000D02*
X263525000Y-69912500D01*
X261500000Y-76500000D02*
X263525000Y-74475000D01*
X261500000Y-76500000D02*
X292000000Y-76500000D01*
X294481250Y-73268750D02*
X294481250Y-69912500D01*
X292000000Y-75750000D02*
X294481250Y-73268750D01*
X292000000Y-76500000D02*
X292000000Y-75750000D01*
X321750000Y-76500000D02*
X322250000Y-76000000D01*
X292000000Y-76500000D02*
X321750000Y-76500000D01*
X322250000Y-70718750D02*
X322262500Y-70706250D01*
X322250000Y-76000000D02*
X322250000Y-70718750D01*
X229131371Y-114250000D02*
X236113590Y-114250000D01*
X223096194Y-108214823D02*
X229131371Y-114250000D01*
X237000000Y-113363590D02*
X237000000Y-97750000D01*
X236113590Y-114250000D02*
X237000000Y-113363590D01*
X237000000Y-93500000D02*
X237000000Y-80750000D01*
X232750000Y-76500000D02*
X242500000Y-76500000D01*
X237000000Y-80750000D02*
X232750000Y-76500000D01*
X223250000Y-76500000D02*
X232750000Y-76500000D01*
X86518750Y-46862500D02*
X86518750Y-47562500D01*
X84368750Y-44712500D02*
X86518750Y-46862500D01*
X80287500Y-44712500D02*
X84368750Y-44712500D01*
X91281250Y-65912500D02*
X91281250Y-66612500D01*
X89131250Y-63762500D02*
X91281250Y-65912500D01*
X85050000Y-63762500D02*
X89131250Y-63762500D01*
X100806250Y-84168750D02*
X100806250Y-84868750D01*
X99450000Y-82812500D02*
X100806250Y-84168750D01*
X94575000Y-82812500D02*
X99450000Y-82812500D01*
X96043750Y-104012500D02*
X96043750Y-104712500D01*
X93893750Y-101862500D02*
X96043750Y-104012500D01*
X89812500Y-101862500D02*
X93893750Y-101862500D01*
X96043750Y-27812500D02*
X96043750Y-28512500D01*
X93893750Y-25662500D02*
X96043750Y-27812500D01*
X89812500Y-25662500D02*
X93893750Y-25662500D01*
X50800000Y-95050000D02*
X51500000Y-95750000D01*
X50800000Y-88168750D02*
X50800000Y-95050000D01*
X51500000Y-95750000D02*
X80500000Y-95750000D01*
X81756250Y-94493750D02*
X81756250Y-88168750D01*
X80500000Y-95750000D02*
X81756250Y-94493750D01*
X80500000Y-95750000D02*
X99500000Y-95750000D01*
X100806250Y-94443750D02*
X100806250Y-88168750D01*
X99500000Y-95750000D02*
X100806250Y-94443750D01*
X99500000Y-95750000D02*
X118500000Y-95750000D01*
X119856250Y-94393750D02*
X119856250Y-88168750D01*
X118500000Y-95750000D02*
X119856250Y-94393750D01*
X118500000Y-95750000D02*
X137500000Y-95750000D01*
X138906250Y-94343750D02*
X138906250Y-88168750D01*
X137500000Y-95750000D02*
X138906250Y-94343750D01*
X137500000Y-95750000D02*
X156500000Y-95750000D01*
X157956250Y-94293750D02*
X157956250Y-88168750D01*
X156500000Y-95750000D02*
X157956250Y-94293750D01*
X156500000Y-95750000D02*
X175750000Y-95750000D01*
X196056250Y-94443750D02*
X196056250Y-88168750D01*
X194750000Y-95750000D02*
X196056250Y-94443750D01*
X234156250Y-94343750D02*
X234156250Y-88168750D01*
X233000000Y-95500000D02*
X234156250Y-94343750D01*
X253206250Y-94043750D02*
X253206250Y-88168750D01*
X251750000Y-95500000D02*
X253206250Y-94043750D01*
X251750000Y-95500000D02*
X278000000Y-95500000D01*
X279400000Y-94100000D02*
X279400000Y-88168750D01*
X278000000Y-95500000D02*
X279400000Y-94100000D01*
X278000000Y-95500000D02*
X304250000Y-95500000D01*
X305593750Y-94156250D02*
X305593750Y-88168750D01*
X304250000Y-95500000D02*
X305593750Y-94156250D01*
X304250000Y-95500000D02*
X321000000Y-95500000D01*
X322262500Y-94237500D02*
X322262500Y-88962500D01*
X321000000Y-95500000D02*
X322262500Y-94237500D01*
X222530509Y-108780509D02*
X228549990Y-114799990D01*
X228549990Y-114799990D02*
X236200010Y-114799990D01*
X237750000Y-113250000D02*
X237750000Y-95500000D01*
X236200010Y-114799990D02*
X237750000Y-113250000D01*
X237750000Y-95500000D02*
X251750000Y-95500000D01*
X233000000Y-95500000D02*
X237750000Y-95500000D01*
X223650000Y-86400000D02*
X215106250Y-86400000D01*
X232750000Y-95500000D02*
X223650000Y-86400000D01*
X233000000Y-95500000D02*
X232750000Y-95500000D01*
X105568750Y-46862500D02*
X105568750Y-47562500D01*
X103418750Y-44712500D02*
X105568750Y-46862500D01*
X99337500Y-44712500D02*
X103418750Y-44712500D01*
X110331250Y-65912500D02*
X110331250Y-66612500D01*
X108181250Y-63762500D02*
X110331250Y-65912500D01*
X104100000Y-63762500D02*
X108181250Y-63762500D01*
X119856250Y-84168750D02*
X119856250Y-84868750D01*
X118500000Y-82812500D02*
X119856250Y-84168750D01*
X113625000Y-82812500D02*
X118500000Y-82812500D01*
X112943750Y-25662500D02*
X115093750Y-27812500D01*
X115093750Y-27812500D02*
X115093750Y-28512500D01*
X108862500Y-25662500D02*
X112943750Y-25662500D01*
X43656250Y-108712500D02*
X49193750Y-114250000D01*
X43656250Y-108012500D02*
X43656250Y-108712500D01*
X69850000Y-112650000D02*
X69850000Y-108012500D01*
X68250000Y-114250000D02*
X69850000Y-112650000D01*
X68000000Y-114250000D02*
X95000000Y-114250000D01*
X49193750Y-114250000D02*
X68000000Y-114250000D01*
X68000000Y-114250000D02*
X68250000Y-114250000D01*
X96043750Y-113206250D02*
X96043750Y-108012500D01*
X95000000Y-114250000D02*
X96043750Y-113206250D01*
X95000000Y-114250000D02*
X95000000Y-114250000D01*
X170500000Y-114250000D02*
X172250000Y-112500000D01*
X95000000Y-114250000D02*
X170500000Y-114250000D01*
X172250000Y-108018750D02*
X172243750Y-108012500D01*
X172250000Y-112500000D02*
X172250000Y-108018750D01*
X246062500Y-113187500D02*
X246062500Y-108012500D01*
X267493750Y-113006250D02*
X267493750Y-108012500D01*
X266250000Y-114250000D02*
X267493750Y-113006250D01*
X266250000Y-114250000D02*
X285250000Y-114250000D01*
X286543750Y-112956250D02*
X286543750Y-108012500D01*
X285250000Y-114250000D02*
X286543750Y-112956250D01*
X285250000Y-114250000D02*
X304250000Y-114250000D01*
X305593750Y-112906250D02*
X305593750Y-108012500D01*
X304250000Y-114250000D02*
X305593750Y-112906250D01*
X322750000Y-108012500D02*
X322750000Y-111250000D01*
X322750000Y-111250000D02*
X319750000Y-114250000D01*
X304250000Y-114250000D02*
X319750000Y-114250000D01*
X247125000Y-114250000D02*
X248000000Y-114250000D01*
X246062500Y-113187500D02*
X247125000Y-114250000D01*
X248000000Y-114250000D02*
X266250000Y-114250000D01*
X246125000Y-115250000D02*
X245000000Y-115250000D01*
X245000000Y-115250000D02*
X245218980Y-115250000D01*
X247125000Y-114250000D02*
X246125000Y-115250000D01*
X172250000Y-113000000D02*
X174500000Y-115250000D01*
X172250000Y-112500000D02*
X172250000Y-113000000D01*
X221964823Y-109346194D02*
X223250000Y-110631371D01*
X223250000Y-110631371D02*
X223250000Y-115250000D01*
X223250000Y-115250000D02*
X245000000Y-115250000D01*
X174500000Y-115250000D02*
X223250000Y-115250000D01*
X124618750Y-46862500D02*
X124618750Y-47562500D01*
X122468750Y-44712500D02*
X124618750Y-46862500D01*
X118387500Y-44712500D02*
X122468750Y-44712500D01*
X129381250Y-65912500D02*
X129381250Y-66612500D01*
X127231250Y-63762500D02*
X129381250Y-65912500D01*
X123150000Y-63762500D02*
X127231250Y-63762500D01*
X137550000Y-82812500D02*
X138906250Y-84168750D01*
X138906250Y-84168750D02*
X138906250Y-84868750D01*
X132675000Y-82812500D02*
X137550000Y-82812500D01*
X134143750Y-27812500D02*
X134143750Y-28512500D01*
X131993750Y-25662500D02*
X134143750Y-27812500D01*
X127912500Y-25662500D02*
X131993750Y-25662500D01*
X141518750Y-44712500D02*
X143668750Y-46862500D01*
X143668750Y-46862500D02*
X143668750Y-47562500D01*
X137437500Y-44712500D02*
X141518750Y-44712500D01*
X146281250Y-63762500D02*
X148431250Y-65912500D01*
X148431250Y-65912500D02*
X148431250Y-66612500D01*
X142200000Y-63762500D02*
X146281250Y-63762500D01*
X157956250Y-84168750D02*
X157956250Y-84868750D01*
X156600000Y-82812500D02*
X157956250Y-84168750D01*
X151725000Y-82812500D02*
X156600000Y-82812500D01*
X172243750Y-104012500D02*
X172243750Y-104712500D01*
X170093750Y-101862500D02*
X172243750Y-104012500D01*
X166012500Y-101862500D02*
X170093750Y-101862500D01*
X153193750Y-27812500D02*
X153193750Y-28512500D01*
X151043750Y-25662500D02*
X153193750Y-27812500D01*
X146962500Y-25662500D02*
X151043750Y-25662500D01*
X162718750Y-46862500D02*
X162718750Y-47562500D01*
X160568750Y-44712500D02*
X162718750Y-46862500D01*
X156487500Y-44712500D02*
X160568750Y-44712500D01*
X167481250Y-65912500D02*
X167481250Y-66612500D01*
X165331250Y-63762500D02*
X167481250Y-65912500D01*
X161250000Y-63762500D02*
X165331250Y-63762500D01*
X166012500Y-25662500D02*
X164350000Y-24000000D01*
X164350000Y-24000000D02*
X158000000Y-24000000D01*
X156500000Y-25500000D02*
X156500000Y-28512500D01*
X158000000Y-24000000D02*
X156500000Y-25500000D01*
X181768750Y-46862500D02*
X181768750Y-47562500D01*
X179618750Y-44712500D02*
X181768750Y-46862500D01*
X175537500Y-44712500D02*
X179618750Y-44712500D01*
X186531250Y-65912500D02*
X186531250Y-66612500D01*
X184381250Y-63762500D02*
X186531250Y-65912500D01*
X180300000Y-63762500D02*
X184381250Y-63762500D01*
X196056250Y-84168750D02*
X196056250Y-84868750D01*
X194700000Y-82812500D02*
X196056250Y-84168750D01*
X189825000Y-82812500D02*
X194700000Y-82812500D01*
X191000000Y-27650000D02*
X191000000Y-28350000D01*
X189012500Y-25662500D02*
X191000000Y-27650000D01*
X185062500Y-25662500D02*
X189012500Y-25662500D01*
X198668750Y-44712500D02*
X200818750Y-46862500D01*
X200818750Y-46862500D02*
X200818750Y-47562500D01*
X194587500Y-44712500D02*
X198668750Y-44712500D01*
X205581250Y-65912500D02*
X205581250Y-66612500D01*
X203431250Y-63762500D02*
X205581250Y-65912500D01*
X199350000Y-63762500D02*
X203431250Y-63762500D01*
X210343750Y-27812500D02*
X210343750Y-28512500D01*
X208193750Y-25662500D02*
X210343750Y-27812500D01*
X204112500Y-25662500D02*
X208193750Y-25662500D01*
X219868750Y-46862500D02*
X219868750Y-47562500D01*
X217718750Y-44712500D02*
X219868750Y-46862500D01*
X213637500Y-44712500D02*
X217718750Y-44712500D01*
X224631250Y-65912500D02*
X224631250Y-66612500D01*
X222481250Y-63762500D02*
X224631250Y-65912500D01*
X218400000Y-63762500D02*
X222481250Y-63762500D01*
X234156250Y-84168750D02*
X234156250Y-84868750D01*
X232800000Y-82812500D02*
X234156250Y-84168750D01*
X227925000Y-82812500D02*
X232800000Y-82812500D01*
X229393750Y-27812500D02*
X229393750Y-28512500D01*
X227243750Y-25662500D02*
X229393750Y-27812500D01*
X223162500Y-25662500D02*
X227243750Y-25662500D01*
X238918750Y-46862500D02*
X238918750Y-47562500D01*
X236768750Y-44712500D02*
X238918750Y-46862500D01*
X232687500Y-44712500D02*
X236768750Y-44712500D01*
X237450000Y-63762500D02*
X243118750Y-63762500D01*
X253206250Y-84168750D02*
X253206250Y-84868750D01*
X251850000Y-82812500D02*
X253206250Y-84168750D01*
X246975000Y-82812500D02*
X251850000Y-82812500D01*
X243912500Y-101862500D02*
X246062500Y-104012500D01*
X246062500Y-104012500D02*
X246062500Y-104712500D01*
X239831250Y-101862500D02*
X243912500Y-101862500D01*
X248443750Y-27812500D02*
X248443750Y-28512500D01*
X246293750Y-25662500D02*
X248443750Y-27812500D01*
X242212500Y-25662500D02*
X246293750Y-25662500D01*
X257968750Y-46862500D02*
X257968750Y-47562500D01*
X255818750Y-44712500D02*
X257968750Y-46862500D01*
X251737500Y-44712500D02*
X255818750Y-44712500D01*
X263525000Y-65912500D02*
X263525000Y-66612500D01*
X261375000Y-63762500D02*
X263525000Y-65912500D01*
X256500000Y-63762500D02*
X261375000Y-63762500D01*
X267493750Y-104012500D02*
X267493750Y-104712500D01*
X265343750Y-101862500D02*
X267493750Y-104012500D01*
X261262500Y-101862500D02*
X265343750Y-101862500D01*
X267493750Y-27812500D02*
X267493750Y-28512500D01*
X265343750Y-25662500D02*
X267493750Y-27812500D01*
X261262500Y-25662500D02*
X265343750Y-25662500D01*
X277018750Y-46862500D02*
X277018750Y-47562500D01*
X274868750Y-44712500D02*
X277018750Y-46862500D01*
X270787500Y-44712500D02*
X274868750Y-44712500D01*
X292331250Y-63762500D02*
X294481250Y-65912500D01*
X294481250Y-65912500D02*
X294481250Y-66612500D01*
X287456250Y-63762500D02*
X292331250Y-63762500D01*
X279400000Y-84168750D02*
X279400000Y-84868750D01*
X278043750Y-82812500D02*
X279400000Y-84168750D01*
X273168750Y-82812500D02*
X278043750Y-82812500D01*
X286543750Y-104012500D02*
X286543750Y-104712500D01*
X284393750Y-101862500D02*
X286543750Y-104012500D01*
X280312500Y-101862500D02*
X284393750Y-101862500D01*
X297656250Y-27812500D02*
X297656250Y-28512500D01*
X295506250Y-25662500D02*
X297656250Y-27812500D01*
X289837500Y-25662500D02*
X295506250Y-25662500D01*
X300831250Y-46862500D02*
X300831250Y-47562500D01*
X298681250Y-44712500D02*
X300831250Y-46862500D01*
X294600000Y-44712500D02*
X298681250Y-44712500D01*
X305593750Y-84168750D02*
X305593750Y-84868750D01*
X304237500Y-82812500D02*
X305593750Y-84168750D01*
X299362500Y-82812500D02*
X304237500Y-82812500D01*
X305593750Y-104012500D02*
X305593750Y-104712500D01*
X303443750Y-101862500D02*
X305593750Y-104012500D01*
X299362500Y-101862500D02*
X303443750Y-101862500D01*
X322262500Y-29512500D02*
X322262500Y-30100000D01*
X318412500Y-25662500D02*
X322262500Y-29512500D01*
X322262500Y-48562500D02*
X322262500Y-49150000D01*
X318412500Y-44712500D02*
X322262500Y-48562500D01*
X243500000Y-64143750D02*
X243500000Y-66612500D01*
X243118750Y-63762500D02*
X243500000Y-64143750D01*
X322056250Y-67406250D02*
X322262500Y-67406250D01*
X318412500Y-63762500D02*
X322056250Y-67406250D01*
X214562500Y-82812500D02*
X215106250Y-83356250D01*
X208875000Y-82812500D02*
X214562500Y-82812500D01*
X321262500Y-85662500D02*
X322262500Y-85662500D01*
X318412500Y-82812500D02*
X321262500Y-85662500D01*
X321262500Y-104712500D02*
X322750000Y-104712500D01*
X318412500Y-101862500D02*
X321262500Y-104712500D01*
D23*
X170450000Y-25650000D02*
X170400000Y-25700000D01*
X170450000Y-23295000D02*
X170450000Y-25650000D01*
X171700000Y-30500000D02*
X171650000Y-30550000D01*
X171700000Y-28900000D02*
X171700000Y-30500000D01*
X177000000Y-26844180D02*
X177000000Y-29200000D01*
X175350000Y-25194180D02*
X177000000Y-26844180D01*
X175350000Y-23295000D02*
X175350000Y-25194180D01*
X177000000Y-30712500D02*
X177800000Y-31512500D01*
X177000000Y-29200000D02*
X177000000Y-30712500D01*
D24*
X189750000Y-105225000D02*
X188225000Y-105225000D01*
X187400000Y-104400000D02*
X185350000Y-104400000D01*
X188225000Y-105225000D02*
X187400000Y-104400000D01*
X212206750Y-102982233D02*
X211722641Y-102498124D01*
X171000000Y-105750000D02*
X168000000Y-108750000D01*
X185350000Y-104400000D02*
X181850000Y-104400000D01*
X172250000Y-105750000D02*
X171000000Y-105750000D01*
X172374999Y-105874999D02*
X172250000Y-105750000D01*
X168000000Y-108750000D02*
X142907500Y-108750000D01*
X180375001Y-105874999D02*
X172374999Y-105874999D01*
X142907500Y-108750000D02*
X141790000Y-107632500D01*
X181850000Y-104400000D02*
X180375001Y-105874999D01*
X211641064Y-105952082D02*
X207547918Y-105952082D01*
X207547918Y-105952082D02*
X207500000Y-106000000D01*
X43656250Y-55406250D02*
X45750000Y-57500000D01*
X43656250Y-50862500D02*
X43656250Y-55406250D01*
X45750000Y-57500000D02*
X64500000Y-57500000D01*
X139250000Y-107632500D02*
X140867500Y-109250000D01*
X189061820Y-106374990D02*
X193738580Y-106374990D01*
X140867500Y-109250000D02*
X168500000Y-109250000D01*
X168500000Y-109250000D02*
X171250000Y-106500000D01*
X188936810Y-106500000D02*
X189061820Y-106374990D01*
X171250000Y-106500000D02*
X188936810Y-106500000D01*
X193738580Y-106374990D02*
X193738580Y-106374990D01*
X179500000Y-52500000D02*
X179500000Y-52281250D01*
X179500000Y-52750000D02*
X179500000Y-52500000D01*
X212206750Y-106517767D02*
X211722641Y-107001876D01*
X212206750Y-106517767D02*
X211224517Y-107500000D01*
X211224517Y-107500000D02*
X211224517Y-107474517D01*
X211224517Y-107474517D02*
X211199034Y-107500000D01*
X207926998Y-107500000D02*
X206500000Y-106073002D01*
X211199034Y-107500000D02*
X207926998Y-107500000D01*
X90750000Y-91000000D02*
X87750000Y-91000000D01*
X62500000Y-91000000D02*
X57250000Y-91000000D01*
X57250000Y-91000000D02*
X53000000Y-86750000D01*
X43006250Y-86750000D02*
X39568750Y-83312500D01*
X53000000Y-86750000D02*
X43006250Y-86750000D01*
X222755188Y-96330814D02*
X223155187Y-95930815D01*
X222755188Y-97317814D02*
X222755188Y-96330814D01*
X221050567Y-99022435D02*
X222755188Y-97317814D01*
X220833452Y-99022435D02*
X221050567Y-99022435D01*
X146725000Y-90475000D02*
X150500000Y-94250000D01*
X146725000Y-83312500D02*
X146725000Y-90475000D01*
X154862500Y-102362500D02*
X150500000Y-98000000D01*
X161012500Y-102362500D02*
X154862500Y-102362500D01*
X223917940Y-97260978D02*
X223917940Y-96695293D01*
X221590798Y-99588120D02*
X223917940Y-97260978D01*
X221399138Y-99588120D02*
X221590798Y-99588120D01*
X222042649Y-100153806D02*
X224320305Y-97876150D01*
X221964823Y-100153806D02*
X222042649Y-100153806D01*
X224320305Y-97876150D02*
X224720304Y-97476151D01*
X188462501Y-44087501D02*
X189587500Y-45212500D01*
X181187499Y-36812499D02*
X188462501Y-44087501D01*
X181187499Y-27287499D02*
X181187499Y-36812499D01*
X180062500Y-26162500D02*
X181187499Y-27287499D01*
X225102254Y-98195294D02*
X225667939Y-98195294D01*
X222530509Y-100719491D02*
X225054706Y-98195294D01*
X225054706Y-98195294D02*
X225102254Y-98195294D01*
X225934315Y-99000000D02*
X226500000Y-99000000D01*
X225381371Y-99000000D02*
X225934315Y-99000000D01*
X223096194Y-101285177D02*
X225381371Y-99000000D01*
X233706251Y-101237501D02*
X234831250Y-102362500D01*
X224275241Y-101237501D02*
X233706251Y-101237501D01*
X223661880Y-101850862D02*
X224275241Y-101237501D01*
X224227565Y-102416548D02*
X224711674Y-101932439D01*
X230068849Y-101932439D02*
X230184525Y-102048115D01*
X224711674Y-101932439D02*
X230068849Y-101932439D01*
X230813028Y-102048115D02*
X234316228Y-105551315D01*
X230184525Y-102048115D02*
X230813028Y-102048115D01*
X225277359Y-102498124D02*
X229998124Y-102498124D01*
X224793250Y-102982233D02*
X225277359Y-102498124D01*
X229998124Y-102498124D02*
X234000000Y-106500000D01*
X223661880Y-107649138D02*
X223661880Y-107661880D01*
X223661880Y-107661880D02*
X229750000Y-113750000D01*
X229750000Y-113750000D02*
X229750000Y-113525000D01*
X224227565Y-107083452D02*
X224227565Y-107227565D01*
X229880292Y-112750000D02*
X230057003Y-112573289D01*
X229750000Y-112750000D02*
X229880292Y-112750000D01*
X229491318Y-112573289D02*
X230057003Y-112573289D01*
X224227565Y-107309536D02*
X229491318Y-112573289D01*
X224227565Y-107083452D02*
X224227565Y-107309536D01*
X174650000Y-23295000D02*
X174650000Y-25450000D01*
X175975000Y-26775000D02*
X175975000Y-27500000D01*
X174650000Y-25450000D02*
X175975000Y-26775000D01*
X171650000Y-24770000D02*
X171650000Y-23295000D01*
X171650000Y-26450000D02*
X171650000Y-24770000D01*
X170600000Y-27500000D02*
X171650000Y-26450000D01*
X170025000Y-27500000D02*
X170600000Y-27500000D01*
X173650000Y-21820000D02*
X173650000Y-23295000D01*
X172800000Y-21700000D02*
X173530000Y-21700000D01*
X172625001Y-23125001D02*
X172625001Y-21874999D01*
X172650000Y-23150000D02*
X172625001Y-23125001D01*
X173530000Y-21700000D02*
X173650000Y-21820000D01*
X172625001Y-21874999D02*
X172800000Y-21700000D01*
X172650000Y-23295000D02*
X172650000Y-23150000D01*
X173500000Y-32000000D02*
X173950000Y-32450000D01*
X173000000Y-31485002D02*
X173500000Y-31985002D01*
X173674999Y-25925001D02*
X173000000Y-26600000D01*
X173000000Y-26600000D02*
X173000000Y-31485002D01*
X173674999Y-23474999D02*
X173674999Y-25925001D01*
X173650000Y-23450000D02*
X173674999Y-23474999D01*
X173500000Y-31985002D02*
X173500000Y-32000000D01*
X173650000Y-23295000D02*
X173650000Y-23450000D01*
X173200000Y-33900000D02*
X173200000Y-35500000D01*
X173200000Y-35500000D02*
X174075000Y-36375000D01*
X173950000Y-33150000D02*
X173200000Y-33900000D01*
X174075000Y-36375000D02*
X174400000Y-36375000D01*
X173950000Y-32450000D02*
X173950000Y-33150000D01*
X172174999Y-23374999D02*
X172174999Y-25674999D01*
X172150000Y-23350000D02*
X172174999Y-23374999D01*
X172150000Y-23295000D02*
X172150000Y-23350000D01*
X172174999Y-25674999D02*
X172500000Y-26000000D01*
X172500000Y-26000000D02*
X172750000Y-26000000D01*
X173150000Y-25600000D02*
X173150000Y-23295000D01*
X172750000Y-26000000D02*
X173150000Y-25600000D01*
X171800000Y-31935002D02*
X171800000Y-32300000D01*
X171800000Y-32300000D02*
X171650000Y-32450000D01*
X172500000Y-31235002D02*
X171800000Y-31935002D01*
X172500000Y-26000000D02*
X172500000Y-31235002D01*
X171650000Y-33150000D02*
X171650000Y-32450000D01*
X172500000Y-34000000D02*
X171650000Y-33150000D01*
X172500000Y-35500000D02*
X172500000Y-34000000D01*
X171625000Y-36375000D02*
X172500000Y-35500000D01*
X171500000Y-36375000D02*
X171625000Y-36375000D01*
X225747844Y-103547918D02*
X225358936Y-103547918D01*
X227897918Y-103547918D02*
X225747844Y-103547918D01*
X230000000Y-105650000D02*
X227897918Y-103547918D01*
X230000000Y-106225000D02*
X230000000Y-105650000D01*
D23*
X168580000Y-18881000D02*
X168580000Y-21880000D01*
X168580000Y-17700000D02*
X168580000Y-18881000D01*
X177220000Y-21330000D02*
X177220000Y-21880000D01*
X176339000Y-20449000D02*
X177220000Y-21330000D01*
X169461000Y-20449000D02*
X176339000Y-20449000D01*
X168580000Y-21330000D02*
X169461000Y-20449000D01*
X168580000Y-21880000D02*
X168580000Y-21330000D01*
X177220000Y-20449000D02*
X177220000Y-17700000D01*
X177220000Y-21880000D02*
X177220000Y-20449000D01*
X169675000Y-22975000D02*
X168580000Y-21880000D01*
X169675000Y-23295000D02*
X169675000Y-22975000D01*
X176125000Y-22975000D02*
X177220000Y-21880000D01*
X176125000Y-23295000D02*
X176125000Y-22975000D01*
X176339000Y-17700000D02*
X168580000Y-17700000D01*
X177220000Y-17700000D02*
X176339000Y-17700000D01*
X176125000Y-24901000D02*
X176700000Y-25476000D01*
X176125000Y-23295000D02*
X176125000Y-24901000D01*
X176700000Y-25476000D02*
X176700000Y-25500000D01*
X178025000Y-26800000D02*
X178025000Y-27500000D01*
X176725000Y-25500000D02*
X178025000Y-26800000D01*
X176700000Y-25500000D02*
X176725000Y-25500000D01*
X167975000Y-26601000D02*
X167975000Y-27500000D01*
X169675000Y-24901000D02*
X167975000Y-26601000D01*
X169675000Y-23295000D02*
X169675000Y-24901000D01*
D24*
X203775216Y-98098438D02*
X203775216Y-98275216D01*
X206411522Y-95462132D02*
X203775216Y-98098438D01*
X207784490Y-98984490D02*
X205669060Y-96869060D01*
X211603119Y-98984490D02*
X207784490Y-98984490D01*
X205669060Y-96204594D02*
X206411522Y-95462132D01*
X205669060Y-96869060D02*
X205669060Y-96204594D01*
X213903806Y-101285177D02*
X211603119Y-98984490D01*
X205250000Y-111225000D02*
X207375000Y-111225000D01*
X207375000Y-111225000D02*
X207400000Y-111200000D01*
X210328338Y-109400000D02*
X209762653Y-109400000D01*
X211076998Y-109400000D02*
X210328338Y-109400000D01*
X212965511Y-110284489D02*
X211961487Y-110284489D01*
X211961487Y-110284489D02*
X211076998Y-109400000D01*
X214469491Y-108780509D02*
X212965511Y-110284489D01*
X177600000Y-60600000D02*
X177600000Y-60800000D01*
X177600000Y-52929042D02*
X177600000Y-60800000D01*
X177600000Y-52529040D02*
X177600000Y-52929042D01*
X189750000Y-49500000D02*
X180629040Y-49500000D01*
X191500000Y-47750000D02*
X189750000Y-49500000D01*
X180629040Y-49500000D02*
X177600000Y-52529040D01*
X191500000Y-38000000D02*
X191500000Y-47750000D01*
X188250000Y-34750000D02*
X191500000Y-38000000D01*
X177600000Y-60800000D02*
X177600000Y-64070958D01*
X182864521Y-69335479D02*
X183115512Y-69586470D01*
X177600000Y-64070958D02*
X182864521Y-69335479D01*
X183949990Y-70420948D02*
X182864521Y-69335479D01*
X183949990Y-77034392D02*
X183949990Y-70420948D01*
X187600000Y-84963590D02*
X187600000Y-80684402D01*
X183949991Y-96876989D02*
X183949991Y-88613599D01*
X184748001Y-97674999D02*
X183949991Y-96876989D01*
X196222820Y-98200000D02*
X196200000Y-98200000D01*
X191851999Y-97674999D02*
X184748001Y-97674999D01*
X192051999Y-97474999D02*
X191851999Y-97674999D01*
X183949991Y-88613599D02*
X187600000Y-84963590D01*
X196200000Y-98200000D02*
X195851999Y-97851999D01*
X195348001Y-97474999D02*
X192051999Y-97474999D01*
X206631528Y-108608708D02*
X196222820Y-98200000D01*
X212378550Y-108608708D02*
X206631528Y-108608708D01*
X187600000Y-80684402D02*
X183949990Y-77034392D01*
X213338120Y-107649138D02*
X212378550Y-108608708D01*
X195250006Y-97450006D02*
X195200000Y-97450006D01*
X195651999Y-97851999D02*
X195250006Y-97450006D01*
X195851999Y-97851999D02*
X195651999Y-97851999D01*
X204500000Y-76500000D02*
X185125010Y-76500000D01*
X186531250Y-75093760D02*
X185125010Y-76500000D01*
X186531250Y-69912500D02*
X186531250Y-75093760D01*
X166000000Y-76500000D02*
X177209490Y-76500000D01*
X202617949Y-85700000D02*
X197825000Y-85700000D01*
X214756195Y-85349945D02*
X202968004Y-85349945D01*
X215106250Y-85700000D02*
X214756195Y-85349945D01*
X215106250Y-86400000D02*
X215106250Y-85700000D01*
X197825000Y-85700000D02*
X196056250Y-87468750D01*
X202968004Y-85349945D02*
X202617949Y-85700000D01*
X196056250Y-87468750D02*
X196056250Y-88168750D01*
X175800000Y-88368750D02*
X176000000Y-88168750D01*
X175800000Y-95700000D02*
X175800000Y-88368750D01*
X175750000Y-95750000D02*
X175800000Y-95700000D01*
X175800000Y-84400000D02*
X175600000Y-84600000D01*
X175800000Y-83800000D02*
X175800000Y-84400000D01*
X174812500Y-82812500D02*
X175800000Y-83800000D01*
X170775000Y-82812500D02*
X174812500Y-82812500D01*
X212206750Y-102982233D02*
X211699518Y-102475001D01*
X208134694Y-102475001D02*
X206634693Y-103975002D01*
X206634693Y-103975002D02*
X206234694Y-104375001D01*
X211699518Y-102475001D02*
X208134694Y-102475001D01*
X189750000Y-105225000D02*
X193624998Y-105225000D01*
X193624998Y-105225000D02*
X195800001Y-107400003D01*
X195800001Y-107400003D02*
X196200000Y-107800002D01*
X176628295Y-96484490D02*
X176643805Y-96500000D01*
X176643805Y-96500000D02*
X177209490Y-96500000D01*
X139250000Y-105092500D02*
X147858010Y-96484490D01*
X147858010Y-96484490D02*
X176628295Y-96484490D01*
X186188041Y-96499978D02*
X185622356Y-96499978D01*
X196100022Y-96499978D02*
X186188041Y-96499978D01*
X196600000Y-96000000D02*
X196100022Y-96499978D01*
X197650004Y-96000000D02*
X196600000Y-96000000D01*
X198325002Y-98898004D02*
X198325002Y-96674998D01*
X207547918Y-105952082D02*
X206845836Y-105250000D01*
X204676998Y-105250000D02*
X198325002Y-98898004D01*
X206845836Y-105250000D02*
X204676998Y-105250000D01*
X198325002Y-96674998D02*
X197650004Y-96000000D01*
X159000000Y-57500000D02*
X159986510Y-58486510D01*
X159986510Y-58486510D02*
X167643805Y-58486510D01*
X167643805Y-58486510D02*
X168209490Y-58486510D01*
X179100001Y-57899999D02*
X179500000Y-57500000D01*
X178050011Y-58949989D02*
X179100001Y-57899999D01*
X178050011Y-63884558D02*
X178050011Y-58949989D01*
X183400000Y-69200000D02*
X178050011Y-63884558D01*
X183565522Y-69400069D02*
X183400000Y-69200000D01*
X206908697Y-108158697D02*
X197600000Y-98850000D01*
X184400002Y-96690589D02*
X184934401Y-97224988D01*
X212772435Y-107083452D02*
X211697190Y-108158697D01*
X197600000Y-97565681D02*
X197600000Y-96999996D01*
X183400000Y-69200000D02*
X184400000Y-70200000D01*
X184400002Y-88799998D02*
X184400002Y-96690589D01*
X184400000Y-70200000D02*
X184400001Y-76847993D01*
X184934401Y-97224988D02*
X186465599Y-97224988D01*
X211697190Y-108158697D02*
X206908697Y-108158697D01*
X184400001Y-76847993D02*
X188050011Y-80498002D01*
X197034315Y-96999996D02*
X197600000Y-96999996D01*
X188050011Y-85149990D02*
X184400002Y-88799998D01*
X188050011Y-80498002D02*
X188050011Y-85149990D01*
X197600000Y-98850000D02*
X197600000Y-97565681D01*
X186465599Y-97224988D02*
X186690591Y-96999996D01*
X186690591Y-96999996D02*
X197034315Y-96999996D01*
X199500004Y-92000000D02*
X199500000Y-92000000D01*
X211800000Y-87600000D02*
X203900004Y-87600000D01*
X213750000Y-95590770D02*
X215750000Y-93590770D01*
X215750000Y-91550000D02*
X211800000Y-87600000D01*
X215750000Y-93590770D02*
X215750000Y-91550000D01*
X213750000Y-98868629D02*
X213750000Y-95590770D01*
X215035177Y-100153806D02*
X213750000Y-98868629D01*
X203900004Y-87600000D02*
X199500004Y-92000000D01*
X216166548Y-99022435D02*
X214799991Y-97655878D01*
X216650022Y-93963570D02*
X216650022Y-91177200D01*
X216650022Y-91177200D02*
X212172800Y-86699978D01*
X199926329Y-90300853D02*
X199023443Y-90300853D01*
X214799991Y-97655878D02*
X214799991Y-95813599D01*
X203527204Y-86699978D02*
X199926329Y-90300853D01*
X212172800Y-86699978D02*
X203527204Y-86699978D01*
X199023443Y-90300853D02*
X198457758Y-90300853D01*
X214799991Y-95813599D02*
X216650022Y-93963570D01*
X216732233Y-98456750D02*
X215250002Y-96974519D01*
X200392642Y-89198129D02*
X198146279Y-89198129D01*
X212359200Y-86249967D02*
X203340804Y-86249967D01*
X215250002Y-96974519D02*
X215250002Y-95999999D01*
X215250002Y-95999999D02*
X217100033Y-94149970D01*
X198146279Y-89198129D02*
X197746280Y-89598128D01*
X217100033Y-94149970D02*
X217100033Y-90990800D01*
X217100033Y-90990800D02*
X212359200Y-86249967D01*
X203340804Y-86249967D02*
X200392642Y-89198129D01*
X212545600Y-85799956D02*
X203154404Y-85799956D01*
X217550044Y-97638938D02*
X217550044Y-90804400D01*
X217550044Y-90804400D02*
X212545600Y-85799956D01*
X217297918Y-97891064D02*
X217550044Y-97638938D01*
X203154404Y-85799956D02*
X200273307Y-88681053D01*
X200273307Y-88681053D02*
X197913221Y-88681053D01*
X197913221Y-88681053D02*
X197347536Y-88681053D01*
X172218979Y-65582569D02*
X172218979Y-50332999D01*
X182986410Y-100750000D02*
X180950010Y-98713600D01*
X173250000Y-38875000D02*
X173700000Y-38425000D01*
X207558720Y-109058719D02*
X204858719Y-109058719D01*
X215600862Y-109911880D02*
X213762743Y-111749999D01*
X196550000Y-100750000D02*
X182986410Y-100750000D01*
X213762743Y-111749999D02*
X210249999Y-111749999D01*
X210249999Y-111749999D02*
X207558720Y-109058719D01*
X204858719Y-109058719D02*
X196550000Y-100750000D01*
X180950010Y-98713600D02*
X180950010Y-74313599D01*
X173250000Y-49301978D02*
X173250000Y-38875000D01*
X180950010Y-74313599D02*
X172218979Y-65582569D01*
X173700000Y-38425000D02*
X174400000Y-38425000D01*
X172218979Y-50332999D02*
X173250000Y-49301978D01*
D23*
X213338120Y-101850862D02*
X216500000Y-105012742D01*
X216500000Y-107881371D02*
X215035177Y-109346194D01*
X219718159Y-110468159D02*
X216500000Y-107250000D01*
X219718159Y-110493642D02*
X219718159Y-110468159D01*
X220267767Y-111043250D02*
X219718159Y-110493642D01*
X216500000Y-107250000D02*
X216500000Y-107881371D01*
X216500000Y-105012742D02*
X216500000Y-107250000D01*
X224603054Y-106517767D02*
X223098029Y-105012742D01*
X224793250Y-106517767D02*
X224603054Y-106517767D01*
X219152473Y-104152473D02*
X220000000Y-105000000D01*
X219313174Y-97891064D02*
X219152473Y-98051765D01*
X219152473Y-98051765D02*
X219152473Y-104152473D01*
X219702082Y-97891064D02*
X219313174Y-97891064D01*
X220000000Y-105000000D02*
X216500000Y-105012742D01*
X223098029Y-105012742D02*
X220000000Y-105000000D01*
X226550483Y-108275000D02*
X224793250Y-106517767D01*
X230000000Y-108275000D02*
X226550483Y-108275000D01*
X173950000Y-30850000D02*
X173950000Y-30750000D01*
X178690310Y-32615510D02*
X175715510Y-32615510D01*
X179065510Y-32240310D02*
X178690310Y-32615510D01*
X179065510Y-27965510D02*
X179065510Y-32240310D01*
X175715510Y-32615510D02*
X173950000Y-30850000D01*
X178600000Y-27500000D02*
X179065510Y-27965510D01*
X178025000Y-27500000D02*
X178600000Y-27500000D01*
X203750000Y-100750000D02*
X204000000Y-100750000D01*
X202500000Y-102000000D02*
X203750000Y-100750000D01*
X205515510Y-113540510D02*
X205250000Y-113275000D01*
X210750000Y-113540510D02*
X205515510Y-113540510D01*
X205250000Y-113275000D02*
X201750000Y-113275000D01*
X201750000Y-113275000D02*
X197750000Y-113275000D01*
X197750000Y-113275000D02*
X194000000Y-113275000D01*
X194000000Y-113275000D02*
X190000000Y-113275000D01*
X208037868Y-95815686D02*
X208037868Y-97088478D01*
X208180890Y-95672664D02*
X208037868Y-95815686D01*
D25*
X208250000Y-94000000D02*
X208250000Y-95603554D01*
X208250000Y-95603554D02*
X208180890Y-95672664D01*
X208500000Y-93750000D02*
X208250000Y-94000000D01*
D23*
X208888910Y-93411522D02*
X211275216Y-91025216D01*
X208462132Y-93411522D02*
X208888910Y-93411522D01*
X205075000Y-101825000D02*
X204000000Y-100750000D01*
X207400000Y-99500000D02*
X205075000Y-101825000D01*
X210987258Y-99500000D02*
X207400000Y-99500000D01*
X213338120Y-101850862D02*
X210987258Y-99500000D01*
X207825736Y-92775126D02*
X208462132Y-93411522D01*
X206500000Y-92800000D02*
X206600000Y-92800000D01*
X203333274Y-100033274D02*
X202100000Y-98800000D01*
X202100000Y-98800000D02*
X202100000Y-97200000D01*
X203333274Y-100083274D02*
X203333274Y-100033274D01*
X206624874Y-92775126D02*
X207825736Y-92775126D01*
X202100000Y-97200000D02*
X206500000Y-92800000D01*
X206600000Y-92800000D02*
X206624874Y-92775126D01*
X204000000Y-100750000D02*
X203333274Y-100083274D01*
X204199568Y-100750000D02*
X204000000Y-100750000D01*
X205224784Y-99724784D02*
X204199568Y-100750000D01*
X141790000Y-103861500D02*
X148651500Y-97000000D01*
X176200000Y-97000000D02*
X178000000Y-98800000D01*
X148651500Y-97000000D02*
X176200000Y-97000000D01*
X141790000Y-105092500D02*
X141790000Y-103861500D01*
X169000000Y-66400000D02*
X178000000Y-75400000D01*
X169000000Y-54751863D02*
X169000000Y-66400000D01*
X167975000Y-53726863D02*
X169000000Y-54751863D01*
X167975000Y-27500000D02*
X167975000Y-53726863D01*
X178000000Y-75400000D02*
X178000000Y-98800000D01*
X215035177Y-109346194D02*
X213381371Y-111000000D01*
X211565687Y-111000000D02*
X211000002Y-111000000D01*
X213381371Y-111000000D02*
X211565687Y-111000000D01*
X196000001Y-106400001D02*
X196400000Y-106800000D01*
X181600001Y-103400001D02*
X193000001Y-103400001D01*
X178000000Y-99800000D02*
X181600001Y-103400001D01*
X193000001Y-103400001D02*
X196000001Y-106400001D01*
X178000000Y-98800000D02*
X178000000Y-99800000D01*
D24*
X214444103Y-112200010D02*
X216166548Y-110477565D01*
X207372320Y-109508730D02*
X210063599Y-112200010D01*
X204508730Y-109508730D02*
X207372320Y-109508730D01*
X180499999Y-98899999D02*
X182850000Y-101250000D01*
X172200000Y-38425000D02*
X172750000Y-38975000D01*
X171500000Y-38425000D02*
X172200000Y-38425000D01*
X172750000Y-49165567D02*
X171768968Y-50146599D01*
X182850000Y-101250000D02*
X196250000Y-101250000D01*
X172750000Y-38975000D02*
X172750000Y-49165567D01*
X210063599Y-112200010D02*
X214444103Y-112200010D01*
X180499999Y-74499999D02*
X180499999Y-98899999D01*
X171768968Y-65768968D02*
X180499999Y-74499999D01*
X196250000Y-101250000D02*
X204508730Y-109508730D01*
X171768968Y-50146599D02*
X171768968Y-65768968D01*
X70525000Y-83312500D02*
X74462500Y-87250000D01*
X88000000Y-87250000D02*
X90337341Y-89587341D01*
X90337341Y-89587341D02*
X90737340Y-89987340D01*
X74462500Y-87250000D02*
X88000000Y-87250000D01*
X216200011Y-91363600D02*
X216200011Y-93777170D01*
X199588603Y-91274990D02*
X203713604Y-87149989D01*
X214200011Y-95777169D02*
X214200011Y-98187269D01*
X216200011Y-93777170D02*
X214200011Y-95777169D01*
X198683769Y-91274990D02*
X199588603Y-91274990D01*
X214200011Y-98187269D02*
X215600862Y-99588120D01*
X211986400Y-87149989D02*
X216200011Y-91363600D01*
X203713604Y-87149989D02*
X211986400Y-87149989D01*
D25*
G36*
X176346839Y-16663831D02*
G01*
X176219997Y-16848322D01*
X176131585Y-17054013D01*
X176085000Y-17273000D01*
X176085000Y-17573000D01*
X177093000Y-17573000D01*
X177093000Y-17553000D01*
X177347000Y-17553000D01*
X177347000Y-17573000D01*
X177367000Y-17573000D01*
X177367000Y-17827000D01*
X177347000Y-17827000D01*
X177347000Y-18967954D01*
X177521874Y-19094119D01*
X177742401Y-19015198D01*
X177742401Y-19868685D01*
X177743456Y-19879400D01*
X177745715Y-19932588D01*
X177750190Y-19964307D01*
X177752461Y-19996263D01*
X177753700Y-20003241D01*
X177781835Y-20155578D01*
X177794553Y-20199744D01*
X177806676Y-20244171D01*
X177809247Y-20250775D01*
X177866342Y-20394511D01*
X177744976Y-20315724D01*
X177521874Y-20235881D01*
X177347000Y-20362046D01*
X177347000Y-21753000D01*
X177367000Y-21753000D01*
X177367000Y-22007000D01*
X177347000Y-22007000D01*
X177347000Y-23397954D01*
X177521874Y-23524119D01*
X177744976Y-23444276D01*
X177932764Y-23322369D01*
X177982672Y-23273767D01*
X177974682Y-23873000D01*
X177060956Y-23873000D01*
X177060000Y-23580750D01*
X176967644Y-23488394D01*
X177059668Y-23422002D01*
X177060000Y-23422002D01*
X177060000Y-23421762D01*
X177093000Y-23397954D01*
X177093000Y-22007000D01*
X177073000Y-22007000D01*
X177073000Y-21753000D01*
X177093000Y-21753000D01*
X177093000Y-20362046D01*
X176918126Y-20235881D01*
X176695024Y-20315724D01*
X176507236Y-20437631D01*
X176346839Y-20593831D01*
X176272902Y-20701372D01*
X176172542Y-20634314D01*
X176025568Y-20573435D01*
X175869542Y-20542400D01*
X175710458Y-20542400D01*
X175554432Y-20573435D01*
X175407458Y-20634314D01*
X175275185Y-20722696D01*
X175162696Y-20835185D01*
X175074314Y-20967458D01*
X175013435Y-21114432D01*
X174982400Y-21270458D01*
X174982400Y-21429542D01*
X175013435Y-21585568D01*
X175014668Y-21588545D01*
X174955394Y-21594383D01*
X174925000Y-21603603D01*
X174894606Y-21594383D01*
X174800000Y-21585065D01*
X174500000Y-21585065D01*
X174405394Y-21594383D01*
X174400000Y-21596019D01*
X174394606Y-21594383D01*
X174300000Y-21585065D01*
X174213373Y-21585065D01*
X174157645Y-21480803D01*
X174081716Y-21388284D01*
X174058539Y-21369263D01*
X173980741Y-21291465D01*
X173961716Y-21268284D01*
X173869197Y-21192355D01*
X173763643Y-21135936D01*
X173649110Y-21101192D01*
X173559841Y-21092400D01*
X173559831Y-21092400D01*
X173530000Y-21089462D01*
X173500169Y-21092400D01*
X172829831Y-21092400D01*
X172800000Y-21089462D01*
X172770169Y-21092400D01*
X172770159Y-21092400D01*
X172680890Y-21101192D01*
X172566357Y-21135936D01*
X172460803Y-21192355D01*
X172368284Y-21268284D01*
X172349258Y-21291467D01*
X172216463Y-21424262D01*
X172193286Y-21443283D01*
X172174265Y-21466460D01*
X172174263Y-21466462D01*
X172117357Y-21535802D01*
X172091026Y-21585065D01*
X172000000Y-21585065D01*
X171905394Y-21594383D01*
X171900000Y-21596019D01*
X171894606Y-21594383D01*
X171800000Y-21585065D01*
X171500000Y-21585065D01*
X171405394Y-21594383D01*
X171400000Y-21596019D01*
X171394606Y-21594383D01*
X171300000Y-21585065D01*
X171000000Y-21585065D01*
X170905394Y-21594383D01*
X170875000Y-21603603D01*
X170844606Y-21594383D01*
X170785332Y-21588545D01*
X170786565Y-21585568D01*
X170817600Y-21429542D01*
X170817600Y-21270458D01*
X170786565Y-21114432D01*
X170725686Y-20967458D01*
X170637304Y-20835185D01*
X170524815Y-20722696D01*
X170392542Y-20634314D01*
X170245568Y-20573435D01*
X170089542Y-20542400D01*
X169930458Y-20542400D01*
X169774432Y-20573435D01*
X169627458Y-20634314D01*
X169527098Y-20701372D01*
X169453161Y-20593831D01*
X169292764Y-20437631D01*
X169104976Y-20315724D01*
X168881874Y-20235881D01*
X168707000Y-20362046D01*
X168707000Y-21753000D01*
X168727000Y-21753000D01*
X168727000Y-22007000D01*
X168707000Y-22007000D01*
X168707000Y-23397954D01*
X168740000Y-23421762D01*
X168740000Y-23422002D01*
X168740332Y-23422002D01*
X168832356Y-23488394D01*
X168740000Y-23580750D01*
X168739044Y-23873000D01*
X167430432Y-23873000D01*
X167463239Y-22642738D01*
X167491585Y-22775987D01*
X167579997Y-22981678D01*
X167706839Y-23166169D01*
X167867236Y-23322369D01*
X168055024Y-23444276D01*
X168278126Y-23524119D01*
X168453000Y-23397954D01*
X168453000Y-22007000D01*
X168433000Y-22007000D01*
X168433000Y-21753000D01*
X168453000Y-21753000D01*
X168453000Y-20362046D01*
X168278126Y-20235881D01*
X168055024Y-20315724D01*
X167867236Y-20437631D01*
X167813464Y-20489996D01*
X167869543Y-20384528D01*
X167887073Y-20341997D01*
X167905198Y-20299709D01*
X167907291Y-20292944D01*
X167907294Y-20292937D01*
X167907295Y-20292930D01*
X167952068Y-20144637D01*
X167960994Y-20099556D01*
X167970570Y-20054506D01*
X167971310Y-20047457D01*
X167986324Y-19894338D01*
X167988737Y-19870875D01*
X167992609Y-18973758D01*
X168055024Y-19014276D01*
X168278126Y-19094119D01*
X168453000Y-18967954D01*
X168453000Y-17827000D01*
X168707000Y-17827000D01*
X168707000Y-18967954D01*
X168881874Y-19094119D01*
X169104976Y-19014276D01*
X169292764Y-18892369D01*
X169453161Y-18736169D01*
X169580003Y-18551678D01*
X169668415Y-18345987D01*
X169715000Y-18127000D01*
X169715000Y-17827000D01*
X176085000Y-17827000D01*
X176085000Y-18127000D01*
X176131585Y-18345987D01*
X176219997Y-18551678D01*
X176346839Y-18736169D01*
X176507236Y-18892369D01*
X176695024Y-19014276D01*
X176918126Y-19094119D01*
X177093000Y-18967954D01*
X177093000Y-17827000D01*
X176085000Y-17827000D01*
X169715000Y-17827000D01*
X168707000Y-17827000D01*
X168453000Y-17827000D01*
X168433000Y-17827000D01*
X168433000Y-17573000D01*
X168453000Y-17573000D01*
X168453000Y-17553000D01*
X168707000Y-17553000D01*
X168707000Y-17573000D01*
X169715000Y-17573000D01*
X169715000Y-17273000D01*
X169668415Y-17054013D01*
X169580003Y-16848322D01*
X169453161Y-16663831D01*
X169415340Y-16627000D01*
X176384660Y-16627000D01*
X176346839Y-16663831D01*
G37*
X176346839Y-16663831D02*
X176219997Y-16848322D01*
X176131585Y-17054013D01*
X176085000Y-17273000D01*
X176085000Y-17573000D01*
X177093000Y-17573000D01*
X177093000Y-17553000D01*
X177347000Y-17553000D01*
X177347000Y-17573000D01*
X177367000Y-17573000D01*
X177367000Y-17827000D01*
X177347000Y-17827000D01*
X177347000Y-18967954D01*
X177521874Y-19094119D01*
X177742401Y-19015198D01*
X177742401Y-19868685D01*
X177743456Y-19879400D01*
X177745715Y-19932588D01*
X177750190Y-19964307D01*
X177752461Y-19996263D01*
X177753700Y-20003241D01*
X177781835Y-20155578D01*
X177794553Y-20199744D01*
X177806676Y-20244171D01*
X177809247Y-20250775D01*
X177866342Y-20394511D01*
X177744976Y-20315724D01*
X177521874Y-20235881D01*
X177347000Y-20362046D01*
X177347000Y-21753000D01*
X177367000Y-21753000D01*
X177367000Y-22007000D01*
X177347000Y-22007000D01*
X177347000Y-23397954D01*
X177521874Y-23524119D01*
X177744976Y-23444276D01*
X177932764Y-23322369D01*
X177982672Y-23273767D01*
X177974682Y-23873000D01*
X177060956Y-23873000D01*
X177060000Y-23580750D01*
X176967644Y-23488394D01*
X177059668Y-23422002D01*
X177060000Y-23422002D01*
X177060000Y-23421762D01*
X177093000Y-23397954D01*
X177093000Y-22007000D01*
X177073000Y-22007000D01*
X177073000Y-21753000D01*
X177093000Y-21753000D01*
X177093000Y-20362046D01*
X176918126Y-20235881D01*
X176695024Y-20315724D01*
X176507236Y-20437631D01*
X176346839Y-20593831D01*
X176272902Y-20701372D01*
X176172542Y-20634314D01*
X176025568Y-20573435D01*
X175869542Y-20542400D01*
X175710458Y-20542400D01*
X175554432Y-20573435D01*
X175407458Y-20634314D01*
X175275185Y-20722696D01*
X175162696Y-20835185D01*
X175074314Y-20967458D01*
X175013435Y-21114432D01*
X174982400Y-21270458D01*
X174982400Y-21429542D01*
X175013435Y-21585568D01*
X175014668Y-21588545D01*
X174955394Y-21594383D01*
X174925000Y-21603603D01*
X174894606Y-21594383D01*
X174800000Y-21585065D01*
X174500000Y-21585065D01*
X174405394Y-21594383D01*
X174400000Y-21596019D01*
X174394606Y-21594383D01*
X174300000Y-21585065D01*
X174213373Y-21585065D01*
X174157645Y-21480803D01*
X174081716Y-21388284D01*
X174058539Y-21369263D01*
X173980741Y-21291465D01*
X173961716Y-21268284D01*
X173869197Y-21192355D01*
X173763643Y-21135936D01*
X173649110Y-21101192D01*
X173559841Y-21092400D01*
X173559831Y-21092400D01*
X173530000Y-21089462D01*
X173500169Y-21092400D01*
X172829831Y-21092400D01*
X172800000Y-21089462D01*
X172770169Y-21092400D01*
X172770159Y-21092400D01*
X172680890Y-21101192D01*
X172566357Y-21135936D01*
X172460803Y-21192355D01*
X172368284Y-21268284D01*
X172349258Y-21291467D01*
X172216463Y-21424262D01*
X172193286Y-21443283D01*
X172174265Y-21466460D01*
X172174263Y-21466462D01*
X172117357Y-21535802D01*
X172091026Y-21585065D01*
X172000000Y-21585065D01*
X171905394Y-21594383D01*
X171900000Y-21596019D01*
X171894606Y-21594383D01*
X171800000Y-21585065D01*
X171500000Y-21585065D01*
X171405394Y-21594383D01*
X171400000Y-21596019D01*
X171394606Y-21594383D01*
X171300000Y-21585065D01*
X171000000Y-21585065D01*
X170905394Y-21594383D01*
X170875000Y-21603603D01*
X170844606Y-21594383D01*
X170785332Y-21588545D01*
X170786565Y-21585568D01*
X170817600Y-21429542D01*
X170817600Y-21270458D01*
X170786565Y-21114432D01*
X170725686Y-20967458D01*
X170637304Y-20835185D01*
X170524815Y-20722696D01*
X170392542Y-20634314D01*
X170245568Y-20573435D01*
X170089542Y-20542400D01*
X169930458Y-20542400D01*
X169774432Y-20573435D01*
X169627458Y-20634314D01*
X169527098Y-20701372D01*
X169453161Y-20593831D01*
X169292764Y-20437631D01*
X169104976Y-20315724D01*
X168881874Y-20235881D01*
X168707000Y-20362046D01*
X168707000Y-21753000D01*
X168727000Y-21753000D01*
X168727000Y-22007000D01*
X168707000Y-22007000D01*
X168707000Y-23397954D01*
X168740000Y-23421762D01*
X168740000Y-23422002D01*
X168740332Y-23422002D01*
X168832356Y-23488394D01*
X168740000Y-23580750D01*
X168739044Y-23873000D01*
X167430432Y-23873000D01*
X167463239Y-22642738D01*
X167491585Y-22775987D01*
X167579997Y-22981678D01*
X167706839Y-23166169D01*
X167867236Y-23322369D01*
X168055024Y-23444276D01*
X168278126Y-23524119D01*
X168453000Y-23397954D01*
X168453000Y-22007000D01*
X168433000Y-22007000D01*
X168433000Y-21753000D01*
X168453000Y-21753000D01*
X168453000Y-20362046D01*
X168278126Y-20235881D01*
X168055024Y-20315724D01*
X167867236Y-20437631D01*
X167813464Y-20489996D01*
X167869543Y-20384528D01*
X167887073Y-20341997D01*
X167905198Y-20299709D01*
X167907291Y-20292944D01*
X167907294Y-20292937D01*
X167907295Y-20292930D01*
X167952068Y-20144637D01*
X167960994Y-20099556D01*
X167970570Y-20054506D01*
X167971310Y-20047457D01*
X167986324Y-19894338D01*
X167988737Y-19870875D01*
X167992609Y-18973758D01*
X168055024Y-19014276D01*
X168278126Y-19094119D01*
X168453000Y-18967954D01*
X168453000Y-17827000D01*
X168707000Y-17827000D01*
X168707000Y-18967954D01*
X168881874Y-19094119D01*
X169104976Y-19014276D01*
X169292764Y-18892369D01*
X169453161Y-18736169D01*
X169580003Y-18551678D01*
X169668415Y-18345987D01*
X169715000Y-18127000D01*
X169715000Y-17827000D01*
X176085000Y-17827000D01*
X176085000Y-18127000D01*
X176131585Y-18345987D01*
X176219997Y-18551678D01*
X176346839Y-18736169D01*
X176507236Y-18892369D01*
X176695024Y-19014276D01*
X176918126Y-19094119D01*
X177093000Y-18967954D01*
X177093000Y-17827000D01*
X176085000Y-17827000D01*
X169715000Y-17827000D01*
X168707000Y-17827000D01*
X168453000Y-17827000D01*
X168433000Y-17827000D01*
X168433000Y-17573000D01*
X168453000Y-17573000D01*
X168453000Y-17553000D01*
X168707000Y-17553000D01*
X168707000Y-17573000D01*
X169715000Y-17573000D01*
X169715000Y-17273000D01*
X169668415Y-17054013D01*
X169580003Y-16848322D01*
X169453161Y-16663831D01*
X169415340Y-16627000D01*
X176384660Y-16627000D01*
X176346839Y-16663831D01*
G36*
X176252000Y-23168000D02*
G01*
X176272000Y-23168000D01*
X176272000Y-23422000D01*
X176252000Y-23422000D01*
X176252000Y-23442000D01*
X176134935Y-23442000D01*
X176134935Y-23148000D01*
X176252000Y-23148000D01*
X176252000Y-23168000D01*
G37*
X176252000Y-23168000D02*
X176272000Y-23168000D01*
X176272000Y-23422000D01*
X176252000Y-23422000D01*
X176252000Y-23442000D01*
X176134935Y-23442000D01*
X176134935Y-23148000D01*
X176252000Y-23148000D01*
X176252000Y-23168000D01*
G36*
X169665065Y-23442000D02*
G01*
X169548000Y-23442000D01*
X169548000Y-23422000D01*
X169528000Y-23422000D01*
X169528000Y-23168000D01*
X169548000Y-23168000D01*
X169548000Y-23148000D01*
X169665065Y-23148000D01*
X169665065Y-23442000D01*
G37*
X169665065Y-23442000D02*
X169548000Y-23442000D01*
X169548000Y-23422000D01*
X169528000Y-23422000D01*
X169528000Y-23168000D01*
X169548000Y-23168000D01*
X169548000Y-23148000D01*
X169665065Y-23148000D01*
X169665065Y-23442000D01*
D26*
G36*
X215307501Y-91733291D02*
G01*
X215307500Y-93407480D01*
X213452476Y-95262505D01*
X213435592Y-95276361D01*
X213421736Y-95293245D01*
X213421735Y-95293246D01*
X213380295Y-95343741D01*
X213339205Y-95420614D01*
X213313904Y-95504025D01*
X213305359Y-95590770D01*
X213307501Y-95612514D01*
X213307500Y-98846894D01*
X213305359Y-98868629D01*
X213307500Y-98890363D01*
X213307500Y-98890365D01*
X213312017Y-98936228D01*
X211167374Y-96791585D01*
X211167374Y-95695998D01*
X211168800Y-95681524D01*
X211692929Y-95157395D01*
X211732605Y-95109049D01*
X211762087Y-95053892D01*
X211780242Y-94994043D01*
X211786372Y-94931802D01*
X211780242Y-94869561D01*
X211762087Y-94809712D01*
X211732605Y-94754555D01*
X211692929Y-94706209D01*
X211369428Y-94382708D01*
X212285078Y-93467058D01*
X212320257Y-93495928D01*
X212418636Y-93548513D01*
X212525383Y-93580894D01*
X212636396Y-93591828D01*
X212747409Y-93580894D01*
X212854156Y-93548513D01*
X212952535Y-93495928D01*
X213038765Y-93425162D01*
X213675162Y-92788765D01*
X213745928Y-92702535D01*
X213798513Y-92604156D01*
X213830894Y-92497409D01*
X213841828Y-92386396D01*
X213830894Y-92275383D01*
X213798513Y-92168636D01*
X213745928Y-92070257D01*
X213675162Y-91984027D01*
X213215541Y-91524406D01*
X213129311Y-91453640D01*
X213030932Y-91401055D01*
X212924185Y-91368674D01*
X212813172Y-91357740D01*
X212702159Y-91368674D01*
X212595412Y-91401055D01*
X212497033Y-91453640D01*
X212410803Y-91524406D01*
X211774406Y-92160803D01*
X211703640Y-92247033D01*
X211651055Y-92345412D01*
X211618674Y-92452159D01*
X211607740Y-92563172D01*
X211618674Y-92674185D01*
X211651055Y-92780932D01*
X211674940Y-92825617D01*
X210743638Y-93756918D01*
X210420137Y-93433417D01*
X210403525Y-93419784D01*
X210404221Y-93417489D01*
X210415256Y-93305456D01*
X210404221Y-93193423D01*
X210371542Y-93085694D01*
X210318475Y-92986412D01*
X210247057Y-92899389D01*
X209844437Y-92500680D01*
X209642382Y-92500680D01*
X208731540Y-93411522D01*
X208745682Y-93425664D01*
X208476274Y-93695072D01*
X208462132Y-93680930D01*
X208447990Y-93695072D01*
X208178582Y-93425664D01*
X208192724Y-93411522D01*
X207387948Y-92606746D01*
X207185893Y-92606746D01*
X206677207Y-93111521D01*
X206605789Y-93198544D01*
X206552722Y-93297826D01*
X206520043Y-93405555D01*
X206509008Y-93517588D01*
X206520043Y-93629621D01*
X206552722Y-93737350D01*
X206569845Y-93769385D01*
X206517588Y-93764238D01*
X206455347Y-93770368D01*
X206395498Y-93788523D01*
X206340341Y-93818005D01*
X206291995Y-93857681D01*
X204807071Y-95342605D01*
X204767395Y-95390951D01*
X204737913Y-95446108D01*
X204719758Y-95505957D01*
X204713628Y-95568198D01*
X204719758Y-95630439D01*
X204737913Y-95690288D01*
X204767395Y-95745445D01*
X204807071Y-95793791D01*
X205130572Y-96117292D01*
X204054521Y-97193344D01*
X203974617Y-97169106D01*
X203863604Y-97158172D01*
X203752591Y-97169106D01*
X203645844Y-97201487D01*
X203547465Y-97254072D01*
X203461235Y-97324838D01*
X202824838Y-97961235D01*
X202754072Y-98047465D01*
X202701487Y-98145844D01*
X202669106Y-98252591D01*
X202658172Y-98363604D01*
X202669106Y-98474617D01*
X202701487Y-98581364D01*
X202754072Y-98679743D01*
X202824838Y-98765973D01*
X203284459Y-99225594D01*
X203370689Y-99296360D01*
X203469068Y-99348945D01*
X203575815Y-99381326D01*
X203686828Y-99392260D01*
X203797841Y-99381326D01*
X203904588Y-99348945D01*
X204002967Y-99296360D01*
X204089197Y-99225594D01*
X204636437Y-98678354D01*
X204649818Y-98678354D01*
X204649818Y-98880410D01*
X205224784Y-99455376D01*
X205888139Y-98792022D01*
X205888139Y-98589966D01*
X205719239Y-98417156D01*
X205632217Y-98345738D01*
X205532934Y-98292671D01*
X205425206Y-98259992D01*
X205313172Y-98248957D01*
X205201139Y-98259992D01*
X205093411Y-98292671D01*
X204994128Y-98345738D01*
X204907106Y-98417156D01*
X204649818Y-98678354D01*
X204636437Y-98678354D01*
X204725594Y-98589197D01*
X204796360Y-98502967D01*
X204848945Y-98404588D01*
X204881326Y-98297841D01*
X204892260Y-98186828D01*
X204881326Y-98075815D01*
X204848945Y-97969068D01*
X204796360Y-97870689D01*
X204725594Y-97784459D01*
X204720289Y-97779154D01*
X205337218Y-97162226D01*
X205354651Y-97183469D01*
X205371541Y-97197330D01*
X207456224Y-99282014D01*
X207470081Y-99298899D01*
X207486965Y-99312755D01*
X207537460Y-99354195D01*
X207575137Y-99374334D01*
X207614333Y-99395285D01*
X207697745Y-99420587D01*
X207762753Y-99426990D01*
X207762756Y-99426990D01*
X207784490Y-99429131D01*
X207806224Y-99426990D01*
X211419830Y-99426990D01*
X212659329Y-100666490D01*
X212639410Y-100680689D01*
X212639410Y-100882744D01*
X213338120Y-101581454D01*
X213349055Y-101570520D01*
X213444367Y-101665832D01*
X213153090Y-101957109D01*
X213057778Y-101861797D01*
X213068712Y-101850862D01*
X212370002Y-101152152D01*
X212167947Y-101152152D01*
X212127054Y-101209519D01*
X212111787Y-101240124D01*
X212105887Y-101239543D01*
X212080943Y-101242000D01*
X210256699Y-101242000D01*
X210207380Y-101192681D01*
X210089864Y-101114159D01*
X209959287Y-101060073D01*
X209820668Y-101032500D01*
X209679332Y-101032500D01*
X209540713Y-101060073D01*
X209410136Y-101114159D01*
X209292620Y-101192681D01*
X209192681Y-101292620D01*
X209114159Y-101410136D01*
X209060073Y-101540713D01*
X209032500Y-101679332D01*
X209032500Y-101820668D01*
X209060073Y-101959287D01*
X209090399Y-102032501D01*
X208156428Y-102032501D01*
X208134694Y-102030360D01*
X208112960Y-102032501D01*
X208112957Y-102032501D01*
X208047949Y-102038904D01*
X207964537Y-102064206D01*
X207887665Y-102105296D01*
X207820285Y-102160592D01*
X207806429Y-102177476D01*
X206337173Y-103646733D01*
X206337168Y-103646737D01*
X206322913Y-103660992D01*
X206305362Y-103657501D01*
X206164026Y-103657501D01*
X206025407Y-103685074D01*
X205894830Y-103739160D01*
X205777314Y-103817682D01*
X205677375Y-103917621D01*
X205601917Y-104030552D01*
X202082259Y-100657546D01*
X204561429Y-100657546D01*
X204561429Y-100859602D01*
X204730329Y-101032412D01*
X204817351Y-101103830D01*
X204916634Y-101156897D01*
X205024362Y-101189576D01*
X205136396Y-101200611D01*
X205248429Y-101189576D01*
X205356157Y-101156897D01*
X205455440Y-101103830D01*
X205542462Y-101032412D01*
X205799750Y-100771214D01*
X205799750Y-100569158D01*
X205224784Y-99994192D01*
X204561429Y-100657546D01*
X202082259Y-100657546D01*
X201201173Y-99813172D01*
X203748957Y-99813172D01*
X203759992Y-99925206D01*
X203792671Y-100032934D01*
X203845738Y-100132217D01*
X203917156Y-100219239D01*
X204089966Y-100388139D01*
X204292022Y-100388139D01*
X204955376Y-99724784D01*
X205494192Y-99724784D01*
X206069158Y-100299750D01*
X206271214Y-100299750D01*
X206532412Y-100042462D01*
X206603830Y-99955440D01*
X206656897Y-99856157D01*
X206689576Y-99748429D01*
X206700611Y-99636396D01*
X206689576Y-99524362D01*
X206656897Y-99416634D01*
X206603830Y-99317351D01*
X206532412Y-99230329D01*
X206359602Y-99061429D01*
X206157546Y-99061429D01*
X205494192Y-99724784D01*
X204955376Y-99724784D01*
X204380410Y-99149818D01*
X204178354Y-99149818D01*
X203917156Y-99407106D01*
X203845738Y-99494128D01*
X203792671Y-99593411D01*
X203759992Y-99701139D01*
X203748957Y-99813172D01*
X201201173Y-99813172D01*
X198889939Y-97598240D01*
X204161213Y-92135283D01*
X207657356Y-92135283D01*
X207657356Y-92337338D01*
X208462132Y-93142114D01*
X209372974Y-92231272D01*
X209372974Y-92029217D01*
X209302428Y-91957978D01*
X210611861Y-91957978D01*
X210611861Y-92160034D01*
X210780761Y-92332844D01*
X210867783Y-92404262D01*
X210967066Y-92457329D01*
X211074794Y-92490008D01*
X211186828Y-92501043D01*
X211298861Y-92490008D01*
X211406589Y-92457329D01*
X211505872Y-92404262D01*
X211592894Y-92332844D01*
X211850182Y-92071646D01*
X211850182Y-91869590D01*
X211275216Y-91294624D01*
X210611861Y-91957978D01*
X209302428Y-91957978D01*
X208974265Y-91626597D01*
X208887242Y-91555179D01*
X208787960Y-91502112D01*
X208680231Y-91469433D01*
X208568198Y-91458398D01*
X208456165Y-91469433D01*
X208348436Y-91502112D01*
X208249154Y-91555179D01*
X208162131Y-91626597D01*
X207657356Y-92135283D01*
X204161213Y-92135283D01*
X205147043Y-91113604D01*
X209799389Y-91113604D01*
X209810424Y-91225638D01*
X209843103Y-91333366D01*
X209896170Y-91432649D01*
X209967588Y-91519671D01*
X210140398Y-91688571D01*
X210342454Y-91688571D01*
X211005808Y-91025216D01*
X211544624Y-91025216D01*
X212119590Y-91600182D01*
X212321646Y-91600182D01*
X212582844Y-91342894D01*
X212654262Y-91255872D01*
X212707329Y-91156589D01*
X212740008Y-91048861D01*
X212751043Y-90936828D01*
X212740008Y-90824794D01*
X212707329Y-90717066D01*
X212654262Y-90617783D01*
X212582844Y-90530761D01*
X212410034Y-90361861D01*
X212207978Y-90361861D01*
X211544624Y-91025216D01*
X211005808Y-91025216D01*
X210430842Y-90450250D01*
X210228786Y-90450250D01*
X209967588Y-90707538D01*
X209896170Y-90794560D01*
X209843103Y-90893843D01*
X209810424Y-91001571D01*
X209799389Y-91113604D01*
X205147043Y-91113604D01*
X206242043Y-89978786D01*
X210700250Y-89978786D01*
X210700250Y-90180842D01*
X211275216Y-90755808D01*
X211938571Y-90092454D01*
X211938571Y-89890398D01*
X211769671Y-89717588D01*
X211682649Y-89646170D01*
X211583366Y-89593103D01*
X211475638Y-89560424D01*
X211363604Y-89549389D01*
X211251571Y-89560424D01*
X211143843Y-89593103D01*
X211044560Y-89646170D01*
X210957538Y-89717588D01*
X210700250Y-89978786D01*
X206242043Y-89978786D01*
X208110390Y-88042500D01*
X211616711Y-88042500D01*
X215307501Y-91733291D01*
G37*
X215307501Y-91733291D02*
X215307500Y-93407480D01*
X213452476Y-95262505D01*
X213435592Y-95276361D01*
X213421736Y-95293245D01*
X213421735Y-95293246D01*
X213380295Y-95343741D01*
X213339205Y-95420614D01*
X213313904Y-95504025D01*
X213305359Y-95590770D01*
X213307501Y-95612514D01*
X213307500Y-98846894D01*
X213305359Y-98868629D01*
X213307500Y-98890363D01*
X213307500Y-98890365D01*
X213312017Y-98936228D01*
X211167374Y-96791585D01*
X211167374Y-95695998D01*
X211168800Y-95681524D01*
X211692929Y-95157395D01*
X211732605Y-95109049D01*
X211762087Y-95053892D01*
X211780242Y-94994043D01*
X211786372Y-94931802D01*
X211780242Y-94869561D01*
X211762087Y-94809712D01*
X211732605Y-94754555D01*
X211692929Y-94706209D01*
X211369428Y-94382708D01*
X212285078Y-93467058D01*
X212320257Y-93495928D01*
X212418636Y-93548513D01*
X212525383Y-93580894D01*
X212636396Y-93591828D01*
X212747409Y-93580894D01*
X212854156Y-93548513D01*
X212952535Y-93495928D01*
X213038765Y-93425162D01*
X213675162Y-92788765D01*
X213745928Y-92702535D01*
X213798513Y-92604156D01*
X213830894Y-92497409D01*
X213841828Y-92386396D01*
X213830894Y-92275383D01*
X213798513Y-92168636D01*
X213745928Y-92070257D01*
X213675162Y-91984027D01*
X213215541Y-91524406D01*
X213129311Y-91453640D01*
X213030932Y-91401055D01*
X212924185Y-91368674D01*
X212813172Y-91357740D01*
X212702159Y-91368674D01*
X212595412Y-91401055D01*
X212497033Y-91453640D01*
X212410803Y-91524406D01*
X211774406Y-92160803D01*
X211703640Y-92247033D01*
X211651055Y-92345412D01*
X211618674Y-92452159D01*
X211607740Y-92563172D01*
X211618674Y-92674185D01*
X211651055Y-92780932D01*
X211674940Y-92825617D01*
X210743638Y-93756918D01*
X210420137Y-93433417D01*
X210403525Y-93419784D01*
X210404221Y-93417489D01*
X210415256Y-93305456D01*
X210404221Y-93193423D01*
X210371542Y-93085694D01*
X210318475Y-92986412D01*
X210247057Y-92899389D01*
X209844437Y-92500680D01*
X209642382Y-92500680D01*
X208731540Y-93411522D01*
X208745682Y-93425664D01*
X208476274Y-93695072D01*
X208462132Y-93680930D01*
X208447990Y-93695072D01*
X208178582Y-93425664D01*
X208192724Y-93411522D01*
X207387948Y-92606746D01*
X207185893Y-92606746D01*
X206677207Y-93111521D01*
X206605789Y-93198544D01*
X206552722Y-93297826D01*
X206520043Y-93405555D01*
X206509008Y-93517588D01*
X206520043Y-93629621D01*
X206552722Y-93737350D01*
X206569845Y-93769385D01*
X206517588Y-93764238D01*
X206455347Y-93770368D01*
X206395498Y-93788523D01*
X206340341Y-93818005D01*
X206291995Y-93857681D01*
X204807071Y-95342605D01*
X204767395Y-95390951D01*
X204737913Y-95446108D01*
X204719758Y-95505957D01*
X204713628Y-95568198D01*
X204719758Y-95630439D01*
X204737913Y-95690288D01*
X204767395Y-95745445D01*
X204807071Y-95793791D01*
X205130572Y-96117292D01*
X204054521Y-97193344D01*
X203974617Y-97169106D01*
X203863604Y-97158172D01*
X203752591Y-97169106D01*
X203645844Y-97201487D01*
X203547465Y-97254072D01*
X203461235Y-97324838D01*
X202824838Y-97961235D01*
X202754072Y-98047465D01*
X202701487Y-98145844D01*
X202669106Y-98252591D01*
X202658172Y-98363604D01*
X202669106Y-98474617D01*
X202701487Y-98581364D01*
X202754072Y-98679743D01*
X202824838Y-98765973D01*
X203284459Y-99225594D01*
X203370689Y-99296360D01*
X203469068Y-99348945D01*
X203575815Y-99381326D01*
X203686828Y-99392260D01*
X203797841Y-99381326D01*
X203904588Y-99348945D01*
X204002967Y-99296360D01*
X204089197Y-99225594D01*
X204636437Y-98678354D01*
X204649818Y-98678354D01*
X204649818Y-98880410D01*
X205224784Y-99455376D01*
X205888139Y-98792022D01*
X205888139Y-98589966D01*
X205719239Y-98417156D01*
X205632217Y-98345738D01*
X205532934Y-98292671D01*
X205425206Y-98259992D01*
X205313172Y-98248957D01*
X205201139Y-98259992D01*
X205093411Y-98292671D01*
X204994128Y-98345738D01*
X204907106Y-98417156D01*
X204649818Y-98678354D01*
X204636437Y-98678354D01*
X204725594Y-98589197D01*
X204796360Y-98502967D01*
X204848945Y-98404588D01*
X204881326Y-98297841D01*
X204892260Y-98186828D01*
X204881326Y-98075815D01*
X204848945Y-97969068D01*
X204796360Y-97870689D01*
X204725594Y-97784459D01*
X204720289Y-97779154D01*
X205337218Y-97162226D01*
X205354651Y-97183469D01*
X205371541Y-97197330D01*
X207456224Y-99282014D01*
X207470081Y-99298899D01*
X207486965Y-99312755D01*
X207537460Y-99354195D01*
X207575137Y-99374334D01*
X207614333Y-99395285D01*
X207697745Y-99420587D01*
X207762753Y-99426990D01*
X207762756Y-99426990D01*
X207784490Y-99429131D01*
X207806224Y-99426990D01*
X211419830Y-99426990D01*
X212659329Y-100666490D01*
X212639410Y-100680689D01*
X212639410Y-100882744D01*
X213338120Y-101581454D01*
X213349055Y-101570520D01*
X213444367Y-101665832D01*
X213153090Y-101957109D01*
X213057778Y-101861797D01*
X213068712Y-101850862D01*
X212370002Y-101152152D01*
X212167947Y-101152152D01*
X212127054Y-101209519D01*
X212111787Y-101240124D01*
X212105887Y-101239543D01*
X212080943Y-101242000D01*
X210256699Y-101242000D01*
X210207380Y-101192681D01*
X210089864Y-101114159D01*
X209959287Y-101060073D01*
X209820668Y-101032500D01*
X209679332Y-101032500D01*
X209540713Y-101060073D01*
X209410136Y-101114159D01*
X209292620Y-101192681D01*
X209192681Y-101292620D01*
X209114159Y-101410136D01*
X209060073Y-101540713D01*
X209032500Y-101679332D01*
X209032500Y-101820668D01*
X209060073Y-101959287D01*
X209090399Y-102032501D01*
X208156428Y-102032501D01*
X208134694Y-102030360D01*
X208112960Y-102032501D01*
X208112957Y-102032501D01*
X208047949Y-102038904D01*
X207964537Y-102064206D01*
X207887665Y-102105296D01*
X207820285Y-102160592D01*
X207806429Y-102177476D01*
X206337173Y-103646733D01*
X206337168Y-103646737D01*
X206322913Y-103660992D01*
X206305362Y-103657501D01*
X206164026Y-103657501D01*
X206025407Y-103685074D01*
X205894830Y-103739160D01*
X205777314Y-103817682D01*
X205677375Y-103917621D01*
X205601917Y-104030552D01*
X202082259Y-100657546D01*
X204561429Y-100657546D01*
X204561429Y-100859602D01*
X204730329Y-101032412D01*
X204817351Y-101103830D01*
X204916634Y-101156897D01*
X205024362Y-101189576D01*
X205136396Y-101200611D01*
X205248429Y-101189576D01*
X205356157Y-101156897D01*
X205455440Y-101103830D01*
X205542462Y-101032412D01*
X205799750Y-100771214D01*
X205799750Y-100569158D01*
X205224784Y-99994192D01*
X204561429Y-100657546D01*
X202082259Y-100657546D01*
X201201173Y-99813172D01*
X203748957Y-99813172D01*
X203759992Y-99925206D01*
X203792671Y-100032934D01*
X203845738Y-100132217D01*
X203917156Y-100219239D01*
X204089966Y-100388139D01*
X204292022Y-100388139D01*
X204955376Y-99724784D01*
X205494192Y-99724784D01*
X206069158Y-100299750D01*
X206271214Y-100299750D01*
X206532412Y-100042462D01*
X206603830Y-99955440D01*
X206656897Y-99856157D01*
X206689576Y-99748429D01*
X206700611Y-99636396D01*
X206689576Y-99524362D01*
X206656897Y-99416634D01*
X206603830Y-99317351D01*
X206532412Y-99230329D01*
X206359602Y-99061429D01*
X206157546Y-99061429D01*
X205494192Y-99724784D01*
X204955376Y-99724784D01*
X204380410Y-99149818D01*
X204178354Y-99149818D01*
X203917156Y-99407106D01*
X203845738Y-99494128D01*
X203792671Y-99593411D01*
X203759992Y-99701139D01*
X203748957Y-99813172D01*
X201201173Y-99813172D01*
X198889939Y-97598240D01*
X204161213Y-92135283D01*
X207657356Y-92135283D01*
X207657356Y-92337338D01*
X208462132Y-93142114D01*
X209372974Y-92231272D01*
X209372974Y-92029217D01*
X209302428Y-91957978D01*
X210611861Y-91957978D01*
X210611861Y-92160034D01*
X210780761Y-92332844D01*
X210867783Y-92404262D01*
X210967066Y-92457329D01*
X211074794Y-92490008D01*
X211186828Y-92501043D01*
X211298861Y-92490008D01*
X211406589Y-92457329D01*
X211505872Y-92404262D01*
X211592894Y-92332844D01*
X211850182Y-92071646D01*
X211850182Y-91869590D01*
X211275216Y-91294624D01*
X210611861Y-91957978D01*
X209302428Y-91957978D01*
X208974265Y-91626597D01*
X208887242Y-91555179D01*
X208787960Y-91502112D01*
X208680231Y-91469433D01*
X208568198Y-91458398D01*
X208456165Y-91469433D01*
X208348436Y-91502112D01*
X208249154Y-91555179D01*
X208162131Y-91626597D01*
X207657356Y-92135283D01*
X204161213Y-92135283D01*
X205147043Y-91113604D01*
X209799389Y-91113604D01*
X209810424Y-91225638D01*
X209843103Y-91333366D01*
X209896170Y-91432649D01*
X209967588Y-91519671D01*
X210140398Y-91688571D01*
X210342454Y-91688571D01*
X211005808Y-91025216D01*
X211544624Y-91025216D01*
X212119590Y-91600182D01*
X212321646Y-91600182D01*
X212582844Y-91342894D01*
X212654262Y-91255872D01*
X212707329Y-91156589D01*
X212740008Y-91048861D01*
X212751043Y-90936828D01*
X212740008Y-90824794D01*
X212707329Y-90717066D01*
X212654262Y-90617783D01*
X212582844Y-90530761D01*
X212410034Y-90361861D01*
X212207978Y-90361861D01*
X211544624Y-91025216D01*
X211005808Y-91025216D01*
X210430842Y-90450250D01*
X210228786Y-90450250D01*
X209967588Y-90707538D01*
X209896170Y-90794560D01*
X209843103Y-90893843D01*
X209810424Y-91001571D01*
X209799389Y-91113604D01*
X205147043Y-91113604D01*
X206242043Y-89978786D01*
X210700250Y-89978786D01*
X210700250Y-90180842D01*
X211275216Y-90755808D01*
X211938571Y-90092454D01*
X211938571Y-89890398D01*
X211769671Y-89717588D01*
X211682649Y-89646170D01*
X211583366Y-89593103D01*
X211475638Y-89560424D01*
X211363604Y-89549389D01*
X211251571Y-89560424D01*
X211143843Y-89593103D01*
X211044560Y-89646170D01*
X210957538Y-89717588D01*
X210700250Y-89978786D01*
X206242043Y-89978786D01*
X208110390Y-88042500D01*
X211616711Y-88042500D01*
X215307501Y-91733291D01*
G36*
X210282374Y-96953139D02*
G01*
X210280233Y-96974874D01*
X210282374Y-96996608D01*
X210282374Y-96996610D01*
X210288777Y-97061618D01*
X210305300Y-97116088D01*
X210314079Y-97145030D01*
X210355169Y-97221903D01*
X210374192Y-97245083D01*
X210410465Y-97289283D01*
X210427355Y-97303144D01*
X211670718Y-98546507D01*
X211624856Y-98541990D01*
X211624853Y-98541990D01*
X211603119Y-98539849D01*
X211581385Y-98541990D01*
X208666734Y-98541990D01*
X208842644Y-98364717D01*
X208842644Y-98162662D01*
X208037868Y-97357886D01*
X208023726Y-97372028D01*
X207754318Y-97102620D01*
X207768460Y-97088478D01*
X207754318Y-97074336D01*
X208023726Y-96804928D01*
X208037868Y-96819070D01*
X208052010Y-96804928D01*
X208321418Y-97074336D01*
X208307276Y-97088478D01*
X209112052Y-97893254D01*
X209314107Y-97893254D01*
X209822793Y-97388479D01*
X209894211Y-97301456D01*
X209947278Y-97202174D01*
X209979957Y-97094445D01*
X209990992Y-96982412D01*
X209979957Y-96870379D01*
X209947278Y-96762650D01*
X209930155Y-96730615D01*
X209982412Y-96735762D01*
X210044653Y-96729632D01*
X210104502Y-96711477D01*
X210159659Y-96681995D01*
X210208005Y-96642319D01*
X210282374Y-96567950D01*
X210282374Y-96953139D01*
G37*
X210282374Y-96953139D02*
X210280233Y-96974874D01*
X210282374Y-96996608D01*
X210282374Y-96996610D01*
X210288777Y-97061618D01*
X210305300Y-97116088D01*
X210314079Y-97145030D01*
X210355169Y-97221903D01*
X210374192Y-97245083D01*
X210410465Y-97289283D01*
X210427355Y-97303144D01*
X211670718Y-98546507D01*
X211624856Y-98541990D01*
X211624853Y-98541990D01*
X211603119Y-98539849D01*
X211581385Y-98541990D01*
X208666734Y-98541990D01*
X208842644Y-98364717D01*
X208842644Y-98162662D01*
X208037868Y-97357886D01*
X208023726Y-97372028D01*
X207754318Y-97102620D01*
X207768460Y-97088478D01*
X207754318Y-97074336D01*
X208023726Y-96804928D01*
X208037868Y-96819070D01*
X208052010Y-96804928D01*
X208321418Y-97074336D01*
X208307276Y-97088478D01*
X209112052Y-97893254D01*
X209314107Y-97893254D01*
X209822793Y-97388479D01*
X209894211Y-97301456D01*
X209947278Y-97202174D01*
X209979957Y-97094445D01*
X209990992Y-96982412D01*
X209979957Y-96870379D01*
X209947278Y-96762650D01*
X209930155Y-96730615D01*
X209982412Y-96735762D01*
X210044653Y-96729632D01*
X210104502Y-96711477D01*
X210159659Y-96681995D01*
X210208005Y-96642319D01*
X210282374Y-96567950D01*
X210282374Y-96953139D01*
G36*
X219023484Y-97528230D02*
G01*
X218867784Y-97528230D01*
X218582830Y-97809596D01*
X218508990Y-97894572D01*
X218453147Y-97992320D01*
X218417446Y-98099085D01*
X218403260Y-98210763D01*
X218411135Y-98323063D01*
X218440765Y-98431669D01*
X218491016Y-98532407D01*
X218531909Y-98589774D01*
X218733964Y-98589774D01*
X219399063Y-97924675D01*
X219661190Y-98201364D01*
X219003372Y-98859182D01*
X219003372Y-99061237D01*
X219060739Y-99102130D01*
X219161477Y-99152381D01*
X219270083Y-99182011D01*
X219382383Y-99189886D01*
X219477034Y-99177863D01*
X219706298Y-99407127D01*
X219754644Y-99446803D01*
X219809801Y-99476285D01*
X219812959Y-99477243D01*
X219813917Y-99480401D01*
X219843399Y-99535558D01*
X219883075Y-99583904D01*
X220271983Y-99972812D01*
X220320329Y-100012488D01*
X220375486Y-100041970D01*
X220378645Y-100042928D01*
X220379603Y-100046086D01*
X220409085Y-100101243D01*
X220448761Y-100149589D01*
X220837669Y-100538497D01*
X220886015Y-100578173D01*
X220941172Y-100607655D01*
X220944330Y-100608613D01*
X220945288Y-100611772D01*
X220974770Y-100666929D01*
X221014446Y-100715275D01*
X221403354Y-101104183D01*
X221451700Y-101143859D01*
X221506857Y-101173341D01*
X221510016Y-101174299D01*
X221510974Y-101177457D01*
X221540456Y-101232614D01*
X221580132Y-101280960D01*
X221969040Y-101669868D01*
X222017386Y-101709544D01*
X222072543Y-101739026D01*
X222075701Y-101739984D01*
X222076659Y-101743143D01*
X222106141Y-101798300D01*
X222145817Y-101846646D01*
X222534725Y-102235554D01*
X222583071Y-102275230D01*
X222638228Y-102304712D01*
X222641387Y-102305670D01*
X222642345Y-102308828D01*
X222671827Y-102363985D01*
X222711503Y-102412331D01*
X223100411Y-102801239D01*
X223148757Y-102840915D01*
X223203914Y-102870397D01*
X223207072Y-102871355D01*
X223208030Y-102874514D01*
X223237512Y-102929671D01*
X223277188Y-102978017D01*
X223666096Y-103366925D01*
X223714442Y-103406601D01*
X223769599Y-103436083D01*
X223772757Y-103437041D01*
X223773715Y-103440199D01*
X223803197Y-103495356D01*
X223842873Y-103543702D01*
X224231781Y-103932610D01*
X224280127Y-103972286D01*
X224335284Y-104001768D01*
X224338443Y-104002726D01*
X224339401Y-104005884D01*
X224368883Y-104061041D01*
X224408559Y-104109387D01*
X224797467Y-104498295D01*
X224845813Y-104537971D01*
X224900970Y-104567453D01*
X224960819Y-104585608D01*
X225023060Y-104591738D01*
X225085301Y-104585608D01*
X225145150Y-104567453D01*
X225200307Y-104537971D01*
X225248653Y-104498295D01*
X225442787Y-104304161D01*
X225911395Y-104798803D01*
X225478573Y-105231625D01*
X225248653Y-105001705D01*
X225200307Y-104962029D01*
X225145150Y-104932547D01*
X225085301Y-104914392D01*
X225023060Y-104908262D01*
X224960819Y-104914392D01*
X224900970Y-104932547D01*
X224845813Y-104962029D01*
X224797467Y-105001705D01*
X224568204Y-105230968D01*
X224473551Y-105218945D01*
X224361251Y-105226820D01*
X224252645Y-105256450D01*
X224151907Y-105306701D01*
X224094540Y-105347594D01*
X224094540Y-105549649D01*
X224627545Y-106082654D01*
X224358137Y-106352062D01*
X223825132Y-105819057D01*
X223623077Y-105819057D01*
X223582184Y-105876424D01*
X223531933Y-105977162D01*
X223502303Y-106085768D01*
X223494428Y-106198068D01*
X223506451Y-106292720D01*
X223277188Y-106521983D01*
X223237512Y-106570329D01*
X223208030Y-106625486D01*
X223207072Y-106628645D01*
X223203914Y-106629603D01*
X223148757Y-106659085D01*
X223100411Y-106698761D01*
X222711503Y-107087669D01*
X222671827Y-107136015D01*
X222642345Y-107191172D01*
X222641387Y-107194330D01*
X222638228Y-107195288D01*
X222583071Y-107224770D01*
X222534725Y-107264446D01*
X222145817Y-107653354D01*
X222106141Y-107701700D01*
X222076659Y-107756857D01*
X222075701Y-107760016D01*
X222072543Y-107760974D01*
X222017386Y-107790456D01*
X221969040Y-107830132D01*
X221580132Y-108219040D01*
X221540456Y-108267386D01*
X221510974Y-108322543D01*
X221510016Y-108325701D01*
X221506857Y-108326659D01*
X221451700Y-108356141D01*
X221403354Y-108395817D01*
X221014446Y-108784725D01*
X220974770Y-108833071D01*
X220945288Y-108888228D01*
X220944330Y-108891387D01*
X220941172Y-108892345D01*
X220886015Y-108921827D01*
X220837669Y-108961503D01*
X220448761Y-109350411D01*
X220409085Y-109398757D01*
X220379603Y-109453914D01*
X220378645Y-109457072D01*
X220375486Y-109458030D01*
X220320329Y-109487512D01*
X220271983Y-109527188D01*
X220042720Y-109756451D01*
X219948068Y-109744428D01*
X219835768Y-109752303D01*
X219727162Y-109781933D01*
X219626424Y-109832184D01*
X219569057Y-109873077D01*
X219569057Y-110075132D01*
X220102062Y-110608137D01*
X219832654Y-110877545D01*
X219299649Y-110344540D01*
X219097594Y-110344540D01*
X219056701Y-110401907D01*
X219006450Y-110502645D01*
X218976820Y-110611251D01*
X218968945Y-110723551D01*
X218980968Y-110818204D01*
X218751705Y-111047467D01*
X218712029Y-111095813D01*
X218682547Y-111150970D01*
X218664392Y-111210819D01*
X218658262Y-111273060D01*
X218664392Y-111335301D01*
X218682547Y-111395150D01*
X218712029Y-111450307D01*
X218751705Y-111498653D01*
X218981625Y-111728573D01*
X218401230Y-112308968D01*
X217932622Y-111814326D01*
X218248295Y-111498653D01*
X218287971Y-111450307D01*
X218317453Y-111395150D01*
X218335608Y-111335301D01*
X218341738Y-111273060D01*
X218335608Y-111210819D01*
X218317453Y-111150970D01*
X218287971Y-111095813D01*
X218248295Y-111047467D01*
X217859387Y-110658559D01*
X217811041Y-110618883D01*
X217755884Y-110589401D01*
X217752726Y-110588443D01*
X217751768Y-110585284D01*
X217722286Y-110530127D01*
X217682610Y-110481781D01*
X217293702Y-110092873D01*
X217245356Y-110053197D01*
X217190199Y-110023715D01*
X217187041Y-110022757D01*
X217186083Y-110019599D01*
X217156601Y-109964442D01*
X217116925Y-109916096D01*
X216728017Y-109527188D01*
X216679671Y-109487512D01*
X216624514Y-109458030D01*
X216621355Y-109457072D01*
X216620397Y-109453914D01*
X216590915Y-109398757D01*
X216551239Y-109350411D01*
X216321976Y-109121148D01*
X216333999Y-109026495D01*
X216326124Y-108914195D01*
X216296494Y-108805589D01*
X216246243Y-108704851D01*
X216205350Y-108647484D01*
X216003295Y-108647484D01*
X215453405Y-109197374D01*
X215191278Y-108920685D01*
X215733887Y-108378076D01*
X215733887Y-108176021D01*
X215676520Y-108135128D01*
X215575782Y-108084877D01*
X215467176Y-108055247D01*
X215354876Y-108047372D01*
X215260223Y-108059395D01*
X215030960Y-107830132D01*
X214982614Y-107790456D01*
X214927457Y-107760974D01*
X214924299Y-107760016D01*
X214923341Y-107756857D01*
X214893859Y-107701700D01*
X214854183Y-107653354D01*
X214465275Y-107264446D01*
X214416929Y-107224770D01*
X214361772Y-107195288D01*
X214358613Y-107194330D01*
X214357655Y-107191172D01*
X214328173Y-107136015D01*
X214288497Y-107087669D01*
X213899589Y-106698761D01*
X213851243Y-106659085D01*
X213796086Y-106629603D01*
X213792928Y-106628645D01*
X213791970Y-106625486D01*
X213762488Y-106570329D01*
X213722812Y-106521983D01*
X213333904Y-106133075D01*
X213285558Y-106093399D01*
X213230401Y-106063917D01*
X213227243Y-106062959D01*
X213226285Y-106059801D01*
X213196803Y-106004644D01*
X213157127Y-105956298D01*
X212768219Y-105567390D01*
X212719873Y-105527714D01*
X212664716Y-105498232D01*
X212661557Y-105497274D01*
X212660599Y-105494116D01*
X212631117Y-105438959D01*
X212591441Y-105390613D01*
X212202533Y-105001705D01*
X212154187Y-104962029D01*
X212099030Y-104932547D01*
X212039181Y-104914392D01*
X211976940Y-104908262D01*
X211914699Y-104914392D01*
X211854850Y-104932547D01*
X211799693Y-104962029D01*
X211751347Y-105001705D01*
X211611267Y-105141785D01*
X211288605Y-104801197D01*
X211671427Y-104418375D01*
X211751347Y-104498295D01*
X211799693Y-104537971D01*
X211854850Y-104567453D01*
X211914699Y-104585608D01*
X211976940Y-104591738D01*
X212039181Y-104585608D01*
X212099030Y-104567453D01*
X212154187Y-104537971D01*
X212202533Y-104498295D01*
X212591441Y-104109387D01*
X212631117Y-104061041D01*
X212660599Y-104005884D01*
X212661557Y-104002726D01*
X212664716Y-104001768D01*
X212719873Y-103972286D01*
X212768219Y-103932610D01*
X213157127Y-103543702D01*
X213196803Y-103495356D01*
X213226285Y-103440199D01*
X213227243Y-103437041D01*
X213230401Y-103436083D01*
X213285558Y-103406601D01*
X213333904Y-103366925D01*
X213563168Y-103137661D01*
X213657819Y-103149684D01*
X213770119Y-103141809D01*
X213878725Y-103112179D01*
X213979463Y-103061928D01*
X214036830Y-103021035D01*
X214036830Y-102818980D01*
X213653826Y-102435976D01*
X213923234Y-102166568D01*
X214306238Y-102549572D01*
X214508293Y-102549572D01*
X214549186Y-102492205D01*
X214599437Y-102391467D01*
X214629067Y-102282861D01*
X214636942Y-102170561D01*
X214624919Y-102075910D01*
X214854183Y-101846646D01*
X214893859Y-101798300D01*
X214923341Y-101743143D01*
X214924299Y-101739984D01*
X214927457Y-101739026D01*
X214982614Y-101709544D01*
X215030960Y-101669868D01*
X215419868Y-101280960D01*
X215459544Y-101232614D01*
X215489026Y-101177457D01*
X215489984Y-101174299D01*
X215493143Y-101173341D01*
X215548300Y-101143859D01*
X215596646Y-101104183D01*
X215985554Y-100715275D01*
X216025230Y-100666929D01*
X216054712Y-100611772D01*
X216055670Y-100608613D01*
X216058828Y-100607655D01*
X216113985Y-100578173D01*
X216162331Y-100538497D01*
X216551239Y-100149589D01*
X216590915Y-100101243D01*
X216620397Y-100046086D01*
X216621355Y-100042928D01*
X216624514Y-100041970D01*
X216679671Y-100012488D01*
X216728017Y-99972812D01*
X217116925Y-99583904D01*
X217156601Y-99535558D01*
X217186083Y-99480401D01*
X217187041Y-99477243D01*
X217190199Y-99476285D01*
X217245356Y-99446803D01*
X217293702Y-99407127D01*
X217682610Y-99018219D01*
X217722286Y-98969873D01*
X217751768Y-98914716D01*
X217752726Y-98911557D01*
X217755884Y-98910599D01*
X217811041Y-98881117D01*
X217859387Y-98841441D01*
X218248295Y-98452533D01*
X218287971Y-98404187D01*
X218317453Y-98349030D01*
X218335608Y-98289181D01*
X218341738Y-98226940D01*
X218335608Y-98164699D01*
X218317453Y-98104850D01*
X218287971Y-98049693D01*
X218248295Y-98001347D01*
X218168375Y-97921427D01*
X218798770Y-97291032D01*
X219023484Y-97528230D01*
G37*
X219023484Y-97528230D02*
X218867784Y-97528230D01*
X218582830Y-97809596D01*
X218508990Y-97894572D01*
X218453147Y-97992320D01*
X218417446Y-98099085D01*
X218403260Y-98210763D01*
X218411135Y-98323063D01*
X218440765Y-98431669D01*
X218491016Y-98532407D01*
X218531909Y-98589774D01*
X218733964Y-98589774D01*
X219399063Y-97924675D01*
X219661190Y-98201364D01*
X219003372Y-98859182D01*
X219003372Y-99061237D01*
X219060739Y-99102130D01*
X219161477Y-99152381D01*
X219270083Y-99182011D01*
X219382383Y-99189886D01*
X219477034Y-99177863D01*
X219706298Y-99407127D01*
X219754644Y-99446803D01*
X219809801Y-99476285D01*
X219812959Y-99477243D01*
X219813917Y-99480401D01*
X219843399Y-99535558D01*
X219883075Y-99583904D01*
X220271983Y-99972812D01*
X220320329Y-100012488D01*
X220375486Y-100041970D01*
X220378645Y-100042928D01*
X220379603Y-100046086D01*
X220409085Y-100101243D01*
X220448761Y-100149589D01*
X220837669Y-100538497D01*
X220886015Y-100578173D01*
X220941172Y-100607655D01*
X220944330Y-100608613D01*
X220945288Y-100611772D01*
X220974770Y-100666929D01*
X221014446Y-100715275D01*
X221403354Y-101104183D01*
X221451700Y-101143859D01*
X221506857Y-101173341D01*
X221510016Y-101174299D01*
X221510974Y-101177457D01*
X221540456Y-101232614D01*
X221580132Y-101280960D01*
X221969040Y-101669868D01*
X222017386Y-101709544D01*
X222072543Y-101739026D01*
X222075701Y-101739984D01*
X222076659Y-101743143D01*
X222106141Y-101798300D01*
X222145817Y-101846646D01*
X222534725Y-102235554D01*
X222583071Y-102275230D01*
X222638228Y-102304712D01*
X222641387Y-102305670D01*
X222642345Y-102308828D01*
X222671827Y-102363985D01*
X222711503Y-102412331D01*
X223100411Y-102801239D01*
X223148757Y-102840915D01*
X223203914Y-102870397D01*
X223207072Y-102871355D01*
X223208030Y-102874514D01*
X223237512Y-102929671D01*
X223277188Y-102978017D01*
X223666096Y-103366925D01*
X223714442Y-103406601D01*
X223769599Y-103436083D01*
X223772757Y-103437041D01*
X223773715Y-103440199D01*
X223803197Y-103495356D01*
X223842873Y-103543702D01*
X224231781Y-103932610D01*
X224280127Y-103972286D01*
X224335284Y-104001768D01*
X224338443Y-104002726D01*
X224339401Y-104005884D01*
X224368883Y-104061041D01*
X224408559Y-104109387D01*
X224797467Y-104498295D01*
X224845813Y-104537971D01*
X224900970Y-104567453D01*
X224960819Y-104585608D01*
X225023060Y-104591738D01*
X225085301Y-104585608D01*
X225145150Y-104567453D01*
X225200307Y-104537971D01*
X225248653Y-104498295D01*
X225442787Y-104304161D01*
X225911395Y-104798803D01*
X225478573Y-105231625D01*
X225248653Y-105001705D01*
X225200307Y-104962029D01*
X225145150Y-104932547D01*
X225085301Y-104914392D01*
X225023060Y-104908262D01*
X224960819Y-104914392D01*
X224900970Y-104932547D01*
X224845813Y-104962029D01*
X224797467Y-105001705D01*
X224568204Y-105230968D01*
X224473551Y-105218945D01*
X224361251Y-105226820D01*
X224252645Y-105256450D01*
X224151907Y-105306701D01*
X224094540Y-105347594D01*
X224094540Y-105549649D01*
X224627545Y-106082654D01*
X224358137Y-106352062D01*
X223825132Y-105819057D01*
X223623077Y-105819057D01*
X223582184Y-105876424D01*
X223531933Y-105977162D01*
X223502303Y-106085768D01*
X223494428Y-106198068D01*
X223506451Y-106292720D01*
X223277188Y-106521983D01*
X223237512Y-106570329D01*
X223208030Y-106625486D01*
X223207072Y-106628645D01*
X223203914Y-106629603D01*
X223148757Y-106659085D01*
X223100411Y-106698761D01*
X222711503Y-107087669D01*
X222671827Y-107136015D01*
X222642345Y-107191172D01*
X222641387Y-107194330D01*
X222638228Y-107195288D01*
X222583071Y-107224770D01*
X222534725Y-107264446D01*
X222145817Y-107653354D01*
X222106141Y-107701700D01*
X222076659Y-107756857D01*
X222075701Y-107760016D01*
X222072543Y-107760974D01*
X222017386Y-107790456D01*
X221969040Y-107830132D01*
X221580132Y-108219040D01*
X221540456Y-108267386D01*
X221510974Y-108322543D01*
X221510016Y-108325701D01*
X221506857Y-108326659D01*
X221451700Y-108356141D01*
X221403354Y-108395817D01*
X221014446Y-108784725D01*
X220974770Y-108833071D01*
X220945288Y-108888228D01*
X220944330Y-108891387D01*
X220941172Y-108892345D01*
X220886015Y-108921827D01*
X220837669Y-108961503D01*
X220448761Y-109350411D01*
X220409085Y-109398757D01*
X220379603Y-109453914D01*
X220378645Y-109457072D01*
X220375486Y-109458030D01*
X220320329Y-109487512D01*
X220271983Y-109527188D01*
X220042720Y-109756451D01*
X219948068Y-109744428D01*
X219835768Y-109752303D01*
X219727162Y-109781933D01*
X219626424Y-109832184D01*
X219569057Y-109873077D01*
X219569057Y-110075132D01*
X220102062Y-110608137D01*
X219832654Y-110877545D01*
X219299649Y-110344540D01*
X219097594Y-110344540D01*
X219056701Y-110401907D01*
X219006450Y-110502645D01*
X218976820Y-110611251D01*
X218968945Y-110723551D01*
X218980968Y-110818204D01*
X218751705Y-111047467D01*
X218712029Y-111095813D01*
X218682547Y-111150970D01*
X218664392Y-111210819D01*
X218658262Y-111273060D01*
X218664392Y-111335301D01*
X218682547Y-111395150D01*
X218712029Y-111450307D01*
X218751705Y-111498653D01*
X218981625Y-111728573D01*
X218401230Y-112308968D01*
X217932622Y-111814326D01*
X218248295Y-111498653D01*
X218287971Y-111450307D01*
X218317453Y-111395150D01*
X218335608Y-111335301D01*
X218341738Y-111273060D01*
X218335608Y-111210819D01*
X218317453Y-111150970D01*
X218287971Y-111095813D01*
X218248295Y-111047467D01*
X217859387Y-110658559D01*
X217811041Y-110618883D01*
X217755884Y-110589401D01*
X217752726Y-110588443D01*
X217751768Y-110585284D01*
X217722286Y-110530127D01*
X217682610Y-110481781D01*
X217293702Y-110092873D01*
X217245356Y-110053197D01*
X217190199Y-110023715D01*
X217187041Y-110022757D01*
X217186083Y-110019599D01*
X217156601Y-109964442D01*
X217116925Y-109916096D01*
X216728017Y-109527188D01*
X216679671Y-109487512D01*
X216624514Y-109458030D01*
X216621355Y-109457072D01*
X216620397Y-109453914D01*
X216590915Y-109398757D01*
X216551239Y-109350411D01*
X216321976Y-109121148D01*
X216333999Y-109026495D01*
X216326124Y-108914195D01*
X216296494Y-108805589D01*
X216246243Y-108704851D01*
X216205350Y-108647484D01*
X216003295Y-108647484D01*
X215453405Y-109197374D01*
X215191278Y-108920685D01*
X215733887Y-108378076D01*
X215733887Y-108176021D01*
X215676520Y-108135128D01*
X215575782Y-108084877D01*
X215467176Y-108055247D01*
X215354876Y-108047372D01*
X215260223Y-108059395D01*
X215030960Y-107830132D01*
X214982614Y-107790456D01*
X214927457Y-107760974D01*
X214924299Y-107760016D01*
X214923341Y-107756857D01*
X214893859Y-107701700D01*
X214854183Y-107653354D01*
X214465275Y-107264446D01*
X214416929Y-107224770D01*
X214361772Y-107195288D01*
X214358613Y-107194330D01*
X214357655Y-107191172D01*
X214328173Y-107136015D01*
X214288497Y-107087669D01*
X213899589Y-106698761D01*
X213851243Y-106659085D01*
X213796086Y-106629603D01*
X213792928Y-106628645D01*
X213791970Y-106625486D01*
X213762488Y-106570329D01*
X213722812Y-106521983D01*
X213333904Y-106133075D01*
X213285558Y-106093399D01*
X213230401Y-106063917D01*
X213227243Y-106062959D01*
X213226285Y-106059801D01*
X213196803Y-106004644D01*
X213157127Y-105956298D01*
X212768219Y-105567390D01*
X212719873Y-105527714D01*
X212664716Y-105498232D01*
X212661557Y-105497274D01*
X212660599Y-105494116D01*
X212631117Y-105438959D01*
X212591441Y-105390613D01*
X212202533Y-105001705D01*
X212154187Y-104962029D01*
X212099030Y-104932547D01*
X212039181Y-104914392D01*
X211976940Y-104908262D01*
X211914699Y-104914392D01*
X211854850Y-104932547D01*
X211799693Y-104962029D01*
X211751347Y-105001705D01*
X211611267Y-105141785D01*
X211288605Y-104801197D01*
X211671427Y-104418375D01*
X211751347Y-104498295D01*
X211799693Y-104537971D01*
X211854850Y-104567453D01*
X211914699Y-104585608D01*
X211976940Y-104591738D01*
X212039181Y-104585608D01*
X212099030Y-104567453D01*
X212154187Y-104537971D01*
X212202533Y-104498295D01*
X212591441Y-104109387D01*
X212631117Y-104061041D01*
X212660599Y-104005884D01*
X212661557Y-104002726D01*
X212664716Y-104001768D01*
X212719873Y-103972286D01*
X212768219Y-103932610D01*
X213157127Y-103543702D01*
X213196803Y-103495356D01*
X213226285Y-103440199D01*
X213227243Y-103437041D01*
X213230401Y-103436083D01*
X213285558Y-103406601D01*
X213333904Y-103366925D01*
X213563168Y-103137661D01*
X213657819Y-103149684D01*
X213770119Y-103141809D01*
X213878725Y-103112179D01*
X213979463Y-103061928D01*
X214036830Y-103021035D01*
X214036830Y-102818980D01*
X213653826Y-102435976D01*
X213923234Y-102166568D01*
X214306238Y-102549572D01*
X214508293Y-102549572D01*
X214549186Y-102492205D01*
X214599437Y-102391467D01*
X214629067Y-102282861D01*
X214636942Y-102170561D01*
X214624919Y-102075910D01*
X214854183Y-101846646D01*
X214893859Y-101798300D01*
X214923341Y-101743143D01*
X214924299Y-101739984D01*
X214927457Y-101739026D01*
X214982614Y-101709544D01*
X215030960Y-101669868D01*
X215419868Y-101280960D01*
X215459544Y-101232614D01*
X215489026Y-101177457D01*
X215489984Y-101174299D01*
X215493143Y-101173341D01*
X215548300Y-101143859D01*
X215596646Y-101104183D01*
X215985554Y-100715275D01*
X216025230Y-100666929D01*
X216054712Y-100611772D01*
X216055670Y-100608613D01*
X216058828Y-100607655D01*
X216113985Y-100578173D01*
X216162331Y-100538497D01*
X216551239Y-100149589D01*
X216590915Y-100101243D01*
X216620397Y-100046086D01*
X216621355Y-100042928D01*
X216624514Y-100041970D01*
X216679671Y-100012488D01*
X216728017Y-99972812D01*
X217116925Y-99583904D01*
X217156601Y-99535558D01*
X217186083Y-99480401D01*
X217187041Y-99477243D01*
X217190199Y-99476285D01*
X217245356Y-99446803D01*
X217293702Y-99407127D01*
X217682610Y-99018219D01*
X217722286Y-98969873D01*
X217751768Y-98914716D01*
X217752726Y-98911557D01*
X217755884Y-98910599D01*
X217811041Y-98881117D01*
X217859387Y-98841441D01*
X218248295Y-98452533D01*
X218287971Y-98404187D01*
X218317453Y-98349030D01*
X218335608Y-98289181D01*
X218341738Y-98226940D01*
X218335608Y-98164699D01*
X218317453Y-98104850D01*
X218287971Y-98049693D01*
X218248295Y-98001347D01*
X218168375Y-97921427D01*
X218798770Y-97291032D01*
X219023484Y-97528230D01*
M02*
