G04 #@! TF.GenerationSoftware,KiCad,Pcbnew,(5.1.5-0-10_14)*
G04 #@! TF.CreationDate,2019-12-31T13:28:22+01:00*
G04 #@! TF.ProjectId,aek67,61656b36-372e-46b6-9963-61645f706362,rev?*
G04 #@! TF.SameCoordinates,Original*
G04 #@! TF.FileFunction,Legend,Bot*
G04 #@! TF.FilePolarity,Positive*
%FSLAX46Y46*%
G04 Gerber Fmt 4.6, Leading zero omitted, Abs format (unit mm)*
G04 Created by KiCad (PCBNEW (5.1.5-0-10_14)) date 2019-12-31 13:28:22*
%MOMM*%
%LPD*%
G04 APERTURE LIST*
%ADD10C,0.150000*%
%ADD11C,0.120000*%
%ADD12C,0.100000*%
%ADD13C,2.352000*%
%ADD14R,0.702000X2.552000*%
%ADD15R,0.402000X2.552000*%
%ADD16C,0.752000*%
%ADD17R,1.102000X1.002000*%
%ADD18R,1.102000X1.302000*%
%ADD19R,1.902000X1.202000*%
%ADD20R,1.302000X1.002000*%
G04 APERTURE END LIST*
D10*
X126396285Y-111728285D02*
X126541428Y-111655714D01*
X126831714Y-111655714D01*
X126976857Y-111728285D01*
X127122000Y-111873428D01*
X127194571Y-112018571D01*
X127194571Y-112308857D01*
X127122000Y-112454000D01*
X126976857Y-112599142D01*
X126831714Y-112671714D01*
X126541428Y-112671714D01*
X126396285Y-112599142D01*
X126686571Y-111147714D02*
X127049428Y-111220285D01*
X127412285Y-111438000D01*
X127630000Y-111800857D01*
X127702571Y-112163714D01*
X127630000Y-112526571D01*
X127412285Y-112889428D01*
X127049428Y-113107142D01*
X126686571Y-113179714D01*
X126323714Y-113107142D01*
X125960857Y-112889428D01*
X125743142Y-112526571D01*
X125670571Y-112163714D01*
X125743142Y-111800857D01*
X125960857Y-111438000D01*
X126323714Y-111220285D01*
X126686571Y-111147714D01*
X123928857Y-111510571D02*
X123856285Y-111438000D01*
X123711142Y-111365428D01*
X123348285Y-111365428D01*
X123203142Y-111438000D01*
X123130571Y-111510571D01*
X123058000Y-111655714D01*
X123058000Y-111800857D01*
X123130571Y-112018571D01*
X124001428Y-112889428D01*
X123058000Y-112889428D01*
X122114571Y-111365428D02*
X121969428Y-111365428D01*
X121824285Y-111438000D01*
X121751714Y-111510571D01*
X121679142Y-111655714D01*
X121606571Y-111946000D01*
X121606571Y-112308857D01*
X121679142Y-112599142D01*
X121751714Y-112744285D01*
X121824285Y-112816857D01*
X121969428Y-112889428D01*
X122114571Y-112889428D01*
X122259714Y-112816857D01*
X122332285Y-112744285D01*
X122404857Y-112599142D01*
X122477428Y-112308857D01*
X122477428Y-111946000D01*
X122404857Y-111655714D01*
X122332285Y-111510571D01*
X122259714Y-111438000D01*
X122114571Y-111365428D01*
X120155142Y-112889428D02*
X121026000Y-112889428D01*
X120590571Y-112889428D02*
X120590571Y-111365428D01*
X120735714Y-111583142D01*
X120880857Y-111728285D01*
X121026000Y-111800857D01*
X119429428Y-112889428D02*
X119139142Y-112889428D01*
X118994000Y-112816857D01*
X118921428Y-112744285D01*
X118776285Y-112526571D01*
X118703714Y-112236285D01*
X118703714Y-111655714D01*
X118776285Y-111510571D01*
X118848857Y-111438000D01*
X118994000Y-111365428D01*
X119284285Y-111365428D01*
X119429428Y-111438000D01*
X119502000Y-111510571D01*
X119574571Y-111655714D01*
X119574571Y-112018571D01*
X119502000Y-112163714D01*
X119429428Y-112236285D01*
X119284285Y-112308857D01*
X118994000Y-112308857D01*
X118848857Y-112236285D01*
X118776285Y-112163714D01*
X118703714Y-112018571D01*
X116889428Y-112889428D02*
X116889428Y-111873428D01*
X116889428Y-112018571D02*
X116816857Y-111946000D01*
X116671714Y-111873428D01*
X116454000Y-111873428D01*
X116308857Y-111946000D01*
X116236285Y-112091142D01*
X116236285Y-112889428D01*
X116236285Y-112091142D02*
X116163714Y-111946000D01*
X116018571Y-111873428D01*
X115800857Y-111873428D01*
X115655714Y-111946000D01*
X115583142Y-112091142D01*
X115583142Y-112889428D01*
X114204285Y-112889428D02*
X114204285Y-112091142D01*
X114276857Y-111946000D01*
X114422000Y-111873428D01*
X114712285Y-111873428D01*
X114857428Y-111946000D01*
X114204285Y-112816857D02*
X114349428Y-112889428D01*
X114712285Y-112889428D01*
X114857428Y-112816857D01*
X114930000Y-112671714D01*
X114930000Y-112526571D01*
X114857428Y-112381428D01*
X114712285Y-112308857D01*
X114349428Y-112308857D01*
X114204285Y-112236285D01*
X113551142Y-112816857D02*
X113406000Y-112889428D01*
X113115714Y-112889428D01*
X112970571Y-112816857D01*
X112898000Y-112671714D01*
X112898000Y-112599142D01*
X112970571Y-112454000D01*
X113115714Y-112381428D01*
X113333428Y-112381428D01*
X113478571Y-112308857D01*
X113551142Y-112163714D01*
X113551142Y-112091142D01*
X113478571Y-111946000D01*
X113333428Y-111873428D01*
X113115714Y-111873428D01*
X112970571Y-111946000D01*
X112462571Y-111873428D02*
X111882000Y-111873428D01*
X112244857Y-111365428D02*
X112244857Y-112671714D01*
X112172285Y-112816857D01*
X112027142Y-112889428D01*
X111882000Y-112889428D01*
X110793428Y-112816857D02*
X110938571Y-112889428D01*
X111228857Y-112889428D01*
X111374000Y-112816857D01*
X111446571Y-112671714D01*
X111446571Y-112091142D01*
X111374000Y-111946000D01*
X111228857Y-111873428D01*
X110938571Y-111873428D01*
X110793428Y-111946000D01*
X110720857Y-112091142D01*
X110720857Y-112236285D01*
X111446571Y-112381428D01*
X110067714Y-112889428D02*
X110067714Y-111873428D01*
X110067714Y-112163714D02*
X109995142Y-112018571D01*
X109922571Y-111946000D01*
X109777428Y-111873428D01*
X109632285Y-111873428D01*
X109269428Y-111873428D02*
X108471142Y-111873428D01*
X109269428Y-112889428D01*
X108471142Y-112889428D01*
X107310000Y-112816857D02*
X107455142Y-112889428D01*
X107745428Y-112889428D01*
X107890571Y-112816857D01*
X107963142Y-112671714D01*
X107963142Y-112091142D01*
X107890571Y-111946000D01*
X107745428Y-111873428D01*
X107455142Y-111873428D01*
X107310000Y-111946000D01*
X107237428Y-112091142D01*
X107237428Y-112236285D01*
X107963142Y-112381428D01*
X106584285Y-111873428D02*
X106584285Y-112889428D01*
X106584285Y-112018571D02*
X106511714Y-111946000D01*
X106366571Y-111873428D01*
X106148857Y-111873428D01*
X106003714Y-111946000D01*
X105931142Y-112091142D01*
X105931142Y-112889428D01*
D11*
X205960000Y-111988748D02*
X205960000Y-112511252D01*
X204540000Y-111988748D02*
X204540000Y-112511252D01*
X204817313Y-98313221D02*
X205186779Y-98682687D01*
X203813221Y-99317313D02*
X204182687Y-99686779D01*
X211682687Y-92436779D02*
X211313221Y-92067313D01*
X212686779Y-91432687D02*
X212317313Y-91063221D01*
X202460000Y-111988748D02*
X202460000Y-112511252D01*
X201040000Y-111988748D02*
X201040000Y-112511252D01*
X194710000Y-111988748D02*
X194710000Y-112511252D01*
X193290000Y-111988748D02*
X193290000Y-112511252D01*
X198460000Y-111988748D02*
X198460000Y-112511252D01*
X197040000Y-111988748D02*
X197040000Y-112511252D01*
X190710000Y-111988748D02*
X190710000Y-112511252D01*
X189290000Y-111988748D02*
X189290000Y-112511252D01*
X211750179Y-94931802D02*
X207931802Y-98750179D01*
X208568198Y-91749821D02*
X211750179Y-94931802D01*
D10*
X218093414Y-111661969D02*
X217191852Y-112563530D01*
X225818555Y-104750000D02*
X225341258Y-105227297D01*
X218500000Y-97431445D02*
X218022703Y-97908742D01*
X211181445Y-104750000D02*
X211658742Y-104272703D01*
X218500000Y-112068555D02*
X218977297Y-111591258D01*
X211181445Y-104750000D02*
X211658742Y-105227297D01*
X218500000Y-97431445D02*
X218977297Y-97908742D01*
X225818555Y-104750000D02*
X225341258Y-104272703D01*
X218500000Y-112068555D02*
X218093414Y-111661969D01*
X173450000Y-32950000D02*
X172150000Y-32950000D01*
X173450000Y-30050000D02*
X173450000Y-32950000D01*
X172150000Y-30050000D02*
X173450000Y-30050000D01*
X172150000Y-30050000D02*
X172150000Y-32950000D01*
X184850000Y-103650000D02*
X179650000Y-103650000D01*
X179650000Y-103650000D02*
X179650000Y-108850000D01*
X179650000Y-108850000D02*
X184850000Y-108850000D01*
X184850000Y-108850000D02*
X184850000Y-103650000D01*
X183250000Y-106250000D02*
G75*
G03X183250000Y-106250000I-1000000J0D01*
G01*
D11*
X229290000Y-107511252D02*
X229290000Y-106988748D01*
X230710000Y-107511252D02*
X230710000Y-106988748D01*
X170790000Y-37661252D02*
X170790000Y-37138748D01*
X172210000Y-37661252D02*
X172210000Y-37138748D01*
X173690000Y-37661252D02*
X173690000Y-37138748D01*
X175110000Y-37661252D02*
X175110000Y-37138748D01*
X190460000Y-105988748D02*
X190460000Y-106511252D01*
X189040000Y-105988748D02*
X189040000Y-106511252D01*
X169261252Y-28210000D02*
X168738748Y-28210000D01*
X169261252Y-26790000D02*
X168738748Y-26790000D01*
X177261252Y-28210000D02*
X176738748Y-28210000D01*
X177261252Y-26790000D02*
X176738748Y-26790000D01*
X176890000Y-33602064D02*
X176890000Y-32397936D01*
X178710000Y-33602064D02*
X178710000Y-32397936D01*
X323750000Y-108612500D02*
X323750000Y-104712500D01*
X321750000Y-108612500D02*
X321750000Y-104712500D01*
X323750000Y-108612500D02*
X321750000Y-108612500D01*
X323262500Y-89562500D02*
X323262500Y-85662500D01*
X321262500Y-89562500D02*
X321262500Y-85662500D01*
X323262500Y-89562500D02*
X321262500Y-89562500D01*
X323262500Y-71306250D02*
X323262500Y-67406250D01*
X321262500Y-71306250D02*
X321262500Y-67406250D01*
X323262500Y-71306250D02*
X321262500Y-71306250D01*
X323262500Y-53050000D02*
X323262500Y-49150000D01*
X321262500Y-53050000D02*
X321262500Y-49150000D01*
X323262500Y-53050000D02*
X321262500Y-53050000D01*
X323262500Y-34000000D02*
X323262500Y-30100000D01*
X321262500Y-34000000D02*
X321262500Y-30100000D01*
X323262500Y-34000000D02*
X321262500Y-34000000D01*
X306593750Y-108612500D02*
X306593750Y-104712500D01*
X304593750Y-108612500D02*
X304593750Y-104712500D01*
X306593750Y-108612500D02*
X304593750Y-108612500D01*
X306593750Y-88768750D02*
X306593750Y-84868750D01*
X304593750Y-88768750D02*
X304593750Y-84868750D01*
X306593750Y-88768750D02*
X304593750Y-88768750D01*
X301831250Y-51462500D02*
X301831250Y-47562500D01*
X299831250Y-51462500D02*
X299831250Y-47562500D01*
X301831250Y-51462500D02*
X299831250Y-51462500D01*
X298656250Y-32412500D02*
X298656250Y-28512500D01*
X296656250Y-32412500D02*
X296656250Y-28512500D01*
X298656250Y-32412500D02*
X296656250Y-32412500D01*
X287543750Y-108612500D02*
X287543750Y-104712500D01*
X285543750Y-108612500D02*
X285543750Y-104712500D01*
X287543750Y-108612500D02*
X285543750Y-108612500D01*
X280400000Y-88768750D02*
X280400000Y-84868750D01*
X278400000Y-88768750D02*
X278400000Y-84868750D01*
X280400000Y-88768750D02*
X278400000Y-88768750D01*
X295481250Y-70512500D02*
X295481250Y-66612500D01*
X293481250Y-70512500D02*
X293481250Y-66612500D01*
X295481250Y-70512500D02*
X293481250Y-70512500D01*
X278018750Y-51462500D02*
X278018750Y-47562500D01*
X276018750Y-51462500D02*
X276018750Y-47562500D01*
X278018750Y-51462500D02*
X276018750Y-51462500D01*
X268493750Y-32412500D02*
X268493750Y-28512500D01*
X266493750Y-32412500D02*
X266493750Y-28512500D01*
X268493750Y-32412500D02*
X266493750Y-32412500D01*
X268493750Y-108612500D02*
X268493750Y-104712500D01*
X266493750Y-108612500D02*
X266493750Y-104712500D01*
X268493750Y-108612500D02*
X266493750Y-108612500D01*
X264525000Y-70512500D02*
X264525000Y-66612500D01*
X262525000Y-70512500D02*
X262525000Y-66612500D01*
X264525000Y-70512500D02*
X262525000Y-70512500D01*
X258968750Y-51462500D02*
X258968750Y-47562500D01*
X256968750Y-51462500D02*
X256968750Y-47562500D01*
X258968750Y-51462500D02*
X256968750Y-51462500D01*
X249443750Y-32412500D02*
X249443750Y-28512500D01*
X247443750Y-32412500D02*
X247443750Y-28512500D01*
X249443750Y-32412500D02*
X247443750Y-32412500D01*
X247062500Y-108612500D02*
X247062500Y-104712500D01*
X245062500Y-108612500D02*
X245062500Y-104712500D01*
X247062500Y-108612500D02*
X245062500Y-108612500D01*
X254206250Y-88768750D02*
X254206250Y-84868750D01*
X252206250Y-88768750D02*
X252206250Y-84868750D01*
X254206250Y-88768750D02*
X252206250Y-88768750D01*
X244500000Y-70512500D02*
X244500000Y-66612500D01*
X242500000Y-70512500D02*
X242500000Y-66612500D01*
X244500000Y-70512500D02*
X242500000Y-70512500D01*
X239918750Y-51462500D02*
X239918750Y-47562500D01*
X237918750Y-51462500D02*
X237918750Y-47562500D01*
X239918750Y-51462500D02*
X237918750Y-51462500D01*
X230393750Y-32412500D02*
X230393750Y-28512500D01*
X228393750Y-32412500D02*
X228393750Y-28512500D01*
X230393750Y-32412500D02*
X228393750Y-32412500D01*
X235156250Y-88768750D02*
X235156250Y-84868750D01*
X233156250Y-88768750D02*
X233156250Y-84868750D01*
X235156250Y-88768750D02*
X233156250Y-88768750D01*
X225631250Y-70512500D02*
X225631250Y-66612500D01*
X223631250Y-70512500D02*
X223631250Y-66612500D01*
X225631250Y-70512500D02*
X223631250Y-70512500D01*
X220868750Y-51462500D02*
X220868750Y-47562500D01*
X218868750Y-51462500D02*
X218868750Y-47562500D01*
X220868750Y-51462500D02*
X218868750Y-51462500D01*
X211343750Y-32412500D02*
X211343750Y-28512500D01*
X209343750Y-32412500D02*
X209343750Y-28512500D01*
X211343750Y-32412500D02*
X209343750Y-32412500D01*
X216106250Y-87000000D02*
X216106250Y-83100000D01*
X214106250Y-87000000D02*
X214106250Y-83100000D01*
X216106250Y-87000000D02*
X214106250Y-87000000D01*
X206581250Y-70512500D02*
X206581250Y-66612500D01*
X204581250Y-70512500D02*
X204581250Y-66612500D01*
X206581250Y-70512500D02*
X204581250Y-70512500D01*
X201818750Y-51462500D02*
X201818750Y-47562500D01*
X199818750Y-51462500D02*
X199818750Y-47562500D01*
X201818750Y-51462500D02*
X199818750Y-51462500D01*
X192000000Y-32250000D02*
X192000000Y-28350000D01*
X190000000Y-32250000D02*
X190000000Y-28350000D01*
X192000000Y-32250000D02*
X190000000Y-32250000D01*
X197056250Y-88768750D02*
X197056250Y-84868750D01*
X195056250Y-88768750D02*
X195056250Y-84868750D01*
X197056250Y-88768750D02*
X195056250Y-88768750D01*
X187531250Y-70512500D02*
X187531250Y-66612500D01*
X185531250Y-70512500D02*
X185531250Y-66612500D01*
X187531250Y-70512500D02*
X185531250Y-70512500D01*
X182768750Y-51462500D02*
X182768750Y-47562500D01*
X180768750Y-51462500D02*
X180768750Y-47562500D01*
X182768750Y-51462500D02*
X180768750Y-51462500D01*
X157500000Y-32412500D02*
X157500000Y-28512500D01*
X155500000Y-32412500D02*
X155500000Y-28512500D01*
X157500000Y-32412500D02*
X155500000Y-32412500D01*
X176800000Y-88768750D02*
X176800000Y-84868750D01*
X174800000Y-88768750D02*
X174800000Y-84868750D01*
X176800000Y-88768750D02*
X174800000Y-88768750D01*
X168481250Y-70512500D02*
X168481250Y-66612500D01*
X166481250Y-70512500D02*
X166481250Y-66612500D01*
X168481250Y-70512500D02*
X166481250Y-70512500D01*
X163718750Y-51462500D02*
X163718750Y-47562500D01*
X161718750Y-51462500D02*
X161718750Y-47562500D01*
X163718750Y-51462500D02*
X161718750Y-51462500D01*
X154193750Y-32412500D02*
X154193750Y-28512500D01*
X152193750Y-32412500D02*
X152193750Y-28512500D01*
X154193750Y-32412500D02*
X152193750Y-32412500D01*
X173243750Y-108612500D02*
X173243750Y-104712500D01*
X171243750Y-108612500D02*
X171243750Y-104712500D01*
X173243750Y-108612500D02*
X171243750Y-108612500D01*
X158956250Y-88768750D02*
X158956250Y-84868750D01*
X156956250Y-88768750D02*
X156956250Y-84868750D01*
X158956250Y-88768750D02*
X156956250Y-88768750D01*
X149431250Y-70512500D02*
X149431250Y-66612500D01*
X147431250Y-70512500D02*
X147431250Y-66612500D01*
X149431250Y-70512500D02*
X147431250Y-70512500D01*
X144668750Y-51462500D02*
X144668750Y-47562500D01*
X142668750Y-51462500D02*
X142668750Y-47562500D01*
X144668750Y-51462500D02*
X142668750Y-51462500D01*
X135143750Y-32412500D02*
X135143750Y-28512500D01*
X133143750Y-32412500D02*
X133143750Y-28512500D01*
X135143750Y-32412500D02*
X133143750Y-32412500D01*
X139906250Y-88768750D02*
X139906250Y-84868750D01*
X137906250Y-88768750D02*
X137906250Y-84868750D01*
X139906250Y-88768750D02*
X137906250Y-88768750D01*
X130381250Y-70512500D02*
X130381250Y-66612500D01*
X128381250Y-70512500D02*
X128381250Y-66612500D01*
X130381250Y-70512500D02*
X128381250Y-70512500D01*
X125618750Y-51462500D02*
X125618750Y-47562500D01*
X123618750Y-51462500D02*
X123618750Y-47562500D01*
X125618750Y-51462500D02*
X123618750Y-51462500D01*
X116093750Y-32412500D02*
X116093750Y-28512500D01*
X114093750Y-32412500D02*
X114093750Y-28512500D01*
X116093750Y-32412500D02*
X114093750Y-32412500D01*
X120856250Y-88768750D02*
X120856250Y-84868750D01*
X118856250Y-88768750D02*
X118856250Y-84868750D01*
X120856250Y-88768750D02*
X118856250Y-88768750D01*
X111331250Y-70512500D02*
X111331250Y-66612500D01*
X109331250Y-70512500D02*
X109331250Y-66612500D01*
X111331250Y-70512500D02*
X109331250Y-70512500D01*
X106568750Y-51462500D02*
X106568750Y-47562500D01*
X104568750Y-51462500D02*
X104568750Y-47562500D01*
X106568750Y-51462500D02*
X104568750Y-51462500D01*
X97043750Y-32412500D02*
X97043750Y-28512500D01*
X95043750Y-32412500D02*
X95043750Y-28512500D01*
X97043750Y-32412500D02*
X95043750Y-32412500D01*
X97043750Y-108612500D02*
X97043750Y-104712500D01*
X95043750Y-108612500D02*
X95043750Y-104712500D01*
X97043750Y-108612500D02*
X95043750Y-108612500D01*
X101806250Y-88768750D02*
X101806250Y-84868750D01*
X99806250Y-88768750D02*
X99806250Y-84868750D01*
X101806250Y-88768750D02*
X99806250Y-88768750D01*
X92281250Y-70512500D02*
X92281250Y-66612500D01*
X90281250Y-70512500D02*
X90281250Y-66612500D01*
X92281250Y-70512500D02*
X90281250Y-70512500D01*
X87518750Y-51462500D02*
X87518750Y-47562500D01*
X85518750Y-51462500D02*
X85518750Y-47562500D01*
X87518750Y-51462500D02*
X85518750Y-51462500D01*
X77993750Y-32412500D02*
X77993750Y-28512500D01*
X75993750Y-32412500D02*
X75993750Y-28512500D01*
X77993750Y-32412500D02*
X75993750Y-32412500D01*
X70850000Y-108612500D02*
X70850000Y-104712500D01*
X68850000Y-108612500D02*
X68850000Y-104712500D01*
X70850000Y-108612500D02*
X68850000Y-108612500D01*
X82756250Y-88768750D02*
X82756250Y-84868750D01*
X80756250Y-88768750D02*
X80756250Y-84868750D01*
X82756250Y-88768750D02*
X80756250Y-88768750D01*
X73231250Y-70512500D02*
X73231250Y-66612500D01*
X71231250Y-70512500D02*
X71231250Y-66612500D01*
X73231250Y-70512500D02*
X71231250Y-70512500D01*
X68468750Y-51462500D02*
X68468750Y-47562500D01*
X66468750Y-51462500D02*
X66468750Y-47562500D01*
X68468750Y-51462500D02*
X66468750Y-51462500D01*
X58943750Y-32412500D02*
X58943750Y-28512500D01*
X56943750Y-32412500D02*
X56943750Y-28512500D01*
X58943750Y-32412500D02*
X56943750Y-32412500D01*
X44656250Y-108612500D02*
X44656250Y-104712500D01*
X42656250Y-108612500D02*
X42656250Y-104712500D01*
X44656250Y-108612500D02*
X42656250Y-108612500D01*
X51800000Y-88768750D02*
X51800000Y-84868750D01*
X49800000Y-88768750D02*
X49800000Y-84868750D01*
X51800000Y-88768750D02*
X49800000Y-88768750D01*
X47831250Y-70512500D02*
X47831250Y-66612500D01*
X45831250Y-70512500D02*
X45831250Y-66612500D01*
X47831250Y-70512500D02*
X45831250Y-70512500D01*
X44656250Y-51462500D02*
X44656250Y-47562500D01*
X42656250Y-51462500D02*
X42656250Y-47562500D01*
X44656250Y-51462500D02*
X42656250Y-51462500D01*
X39100000Y-32412500D02*
X39100000Y-28512500D01*
X37100000Y-32412500D02*
X37100000Y-28512500D01*
X39100000Y-32412500D02*
X37100000Y-32412500D01*
D10*
X203957142Y-112083333D02*
X204004761Y-112035714D01*
X204052380Y-111892857D01*
X204052380Y-111797619D01*
X204004761Y-111654761D01*
X203909523Y-111559523D01*
X203814285Y-111511904D01*
X203623809Y-111464285D01*
X203480952Y-111464285D01*
X203290476Y-111511904D01*
X203195238Y-111559523D01*
X203100000Y-111654761D01*
X203052380Y-111797619D01*
X203052380Y-111892857D01*
X203100000Y-112035714D01*
X203147619Y-112083333D01*
X203052380Y-112416666D02*
X203052380Y-113083333D01*
X204052380Y-112654761D01*
X203198586Y-100537115D02*
X203198586Y-100604458D01*
X203265930Y-100739145D01*
X203333274Y-100806489D01*
X203467961Y-100873832D01*
X203602648Y-100873832D01*
X203703663Y-100840161D01*
X203872022Y-100739145D01*
X203973037Y-100638130D01*
X204074052Y-100469771D01*
X204107724Y-100368756D01*
X204107724Y-100234069D01*
X204040380Y-100099382D01*
X203973037Y-100032038D01*
X203838350Y-99964695D01*
X203771006Y-99964695D01*
X203232258Y-99291260D02*
X203366945Y-99425947D01*
X203400617Y-99526962D01*
X203400617Y-99594306D01*
X203366945Y-99762664D01*
X203265930Y-99931023D01*
X202996556Y-100200397D01*
X202895541Y-100234069D01*
X202828197Y-100234069D01*
X202727182Y-100200397D01*
X202592495Y-100065710D01*
X202558823Y-99964695D01*
X202558823Y-99897351D01*
X202592495Y-99796336D01*
X202760854Y-99627977D01*
X202861869Y-99594306D01*
X202929212Y-99594306D01*
X203030228Y-99627977D01*
X203164915Y-99762664D01*
X203198586Y-99863680D01*
X203198586Y-99931023D01*
X203164915Y-100032038D01*
X213032038Y-90953663D02*
X213032038Y-91021006D01*
X213099382Y-91155693D01*
X213166726Y-91223037D01*
X213301413Y-91290380D01*
X213436100Y-91290380D01*
X213537115Y-91256709D01*
X213705474Y-91155693D01*
X213806489Y-91054678D01*
X213907504Y-90886319D01*
X213941176Y-90785304D01*
X213941176Y-90650617D01*
X213873832Y-90515930D01*
X213806489Y-90448586D01*
X213671802Y-90381243D01*
X213604458Y-90381243D01*
X213032038Y-89674136D02*
X213368756Y-90010854D01*
X213065710Y-90381243D01*
X213065710Y-90313899D01*
X213032038Y-90212884D01*
X212863680Y-90044525D01*
X212762664Y-90010854D01*
X212695321Y-90010854D01*
X212594306Y-90044525D01*
X212425947Y-90212884D01*
X212392275Y-90313899D01*
X212392275Y-90381243D01*
X212425947Y-90482258D01*
X212594306Y-90650617D01*
X212695321Y-90684289D01*
X212762664Y-90684289D01*
X200457142Y-112083333D02*
X200504761Y-112035714D01*
X200552380Y-111892857D01*
X200552380Y-111797619D01*
X200504761Y-111654761D01*
X200409523Y-111559523D01*
X200314285Y-111511904D01*
X200123809Y-111464285D01*
X199980952Y-111464285D01*
X199790476Y-111511904D01*
X199695238Y-111559523D01*
X199600000Y-111654761D01*
X199552380Y-111797619D01*
X199552380Y-111892857D01*
X199600000Y-112035714D01*
X199647619Y-112083333D01*
X199885714Y-112940476D02*
X200552380Y-112940476D01*
X199504761Y-112702380D02*
X200219047Y-112464285D01*
X200219047Y-113083333D01*
X192707142Y-112083333D02*
X192754761Y-112035714D01*
X192802380Y-111892857D01*
X192802380Y-111797619D01*
X192754761Y-111654761D01*
X192659523Y-111559523D01*
X192564285Y-111511904D01*
X192373809Y-111464285D01*
X192230952Y-111464285D01*
X192040476Y-111511904D01*
X191945238Y-111559523D01*
X191850000Y-111654761D01*
X191802380Y-111797619D01*
X191802380Y-111892857D01*
X191850000Y-112035714D01*
X191897619Y-112083333D01*
X191802380Y-112416666D02*
X191802380Y-113035714D01*
X192183333Y-112702380D01*
X192183333Y-112845238D01*
X192230952Y-112940476D01*
X192278571Y-112988095D01*
X192373809Y-113035714D01*
X192611904Y-113035714D01*
X192707142Y-112988095D01*
X192754761Y-112940476D01*
X192802380Y-112845238D01*
X192802380Y-112559523D01*
X192754761Y-112464285D01*
X192707142Y-112416666D01*
X196457142Y-112083333D02*
X196504761Y-112035714D01*
X196552380Y-111892857D01*
X196552380Y-111797619D01*
X196504761Y-111654761D01*
X196409523Y-111559523D01*
X196314285Y-111511904D01*
X196123809Y-111464285D01*
X195980952Y-111464285D01*
X195790476Y-111511904D01*
X195695238Y-111559523D01*
X195600000Y-111654761D01*
X195552380Y-111797619D01*
X195552380Y-111892857D01*
X195600000Y-112035714D01*
X195647619Y-112083333D01*
X195647619Y-112464285D02*
X195600000Y-112511904D01*
X195552380Y-112607142D01*
X195552380Y-112845238D01*
X195600000Y-112940476D01*
X195647619Y-112988095D01*
X195742857Y-113035714D01*
X195838095Y-113035714D01*
X195980952Y-112988095D01*
X196552380Y-112416666D01*
X196552380Y-113035714D01*
X188707142Y-112083333D02*
X188754761Y-112035714D01*
X188802380Y-111892857D01*
X188802380Y-111797619D01*
X188754761Y-111654761D01*
X188659523Y-111559523D01*
X188564285Y-111511904D01*
X188373809Y-111464285D01*
X188230952Y-111464285D01*
X188040476Y-111511904D01*
X187945238Y-111559523D01*
X187850000Y-111654761D01*
X187802380Y-111797619D01*
X187802380Y-111892857D01*
X187850000Y-112035714D01*
X187897619Y-112083333D01*
X188802380Y-113035714D02*
X188802380Y-112464285D01*
X188802380Y-112750000D02*
X187802380Y-112750000D01*
X187945238Y-112654761D01*
X188040476Y-112559523D01*
X188088095Y-112464285D01*
X174638095Y-24752380D02*
X174638095Y-25561904D01*
X174590476Y-25657142D01*
X174542857Y-25704761D01*
X174447619Y-25752380D01*
X174257142Y-25752380D01*
X174161904Y-25704761D01*
X174114285Y-25657142D01*
X174066666Y-25561904D01*
X174066666Y-24752380D01*
X173638095Y-25704761D02*
X173495238Y-25752380D01*
X173257142Y-25752380D01*
X173161904Y-25704761D01*
X173114285Y-25657142D01*
X173066666Y-25561904D01*
X173066666Y-25466666D01*
X173114285Y-25371428D01*
X173161904Y-25323809D01*
X173257142Y-25276190D01*
X173447619Y-25228571D01*
X173542857Y-25180952D01*
X173590476Y-25133333D01*
X173638095Y-25038095D01*
X173638095Y-24942857D01*
X173590476Y-24847619D01*
X173542857Y-24800000D01*
X173447619Y-24752380D01*
X173209523Y-24752380D01*
X173066666Y-24800000D01*
X172304761Y-25228571D02*
X172161904Y-25276190D01*
X172114285Y-25323809D01*
X172066666Y-25419047D01*
X172066666Y-25561904D01*
X172114285Y-25657142D01*
X172161904Y-25704761D01*
X172257142Y-25752380D01*
X172638095Y-25752380D01*
X172638095Y-24752380D01*
X172304761Y-24752380D01*
X172209523Y-24800000D01*
X172161904Y-24847619D01*
X172114285Y-24942857D01*
X172114285Y-25038095D01*
X172161904Y-25133333D01*
X172209523Y-25180952D01*
X172304761Y-25228571D01*
X172638095Y-25228571D01*
X171114285Y-25752380D02*
X171685714Y-25752380D01*
X171400000Y-25752380D02*
X171400000Y-24752380D01*
X171495238Y-24895238D01*
X171590476Y-24990476D01*
X171685714Y-25038095D01*
X206278518Y-92133679D02*
X206514220Y-93312190D01*
X205807114Y-92605083D02*
X206985625Y-92840785D01*
X205874457Y-93951953D02*
X206278518Y-93547892D01*
X206076488Y-93749923D02*
X205369381Y-93042816D01*
X205537740Y-93076488D01*
X205672427Y-93076488D01*
X205773442Y-93042816D01*
X223919468Y-109091972D02*
X224491888Y-109664392D01*
X224525560Y-109765407D01*
X224525560Y-109832751D01*
X224491888Y-109933766D01*
X224357201Y-110068453D01*
X224256186Y-110102125D01*
X224188842Y-110102125D01*
X224087827Y-110068453D01*
X223515407Y-109496033D01*
X223515407Y-110910247D02*
X223919468Y-110506186D01*
X223717438Y-110708216D02*
X223010331Y-110001110D01*
X223178690Y-110034781D01*
X223313377Y-110034781D01*
X223414392Y-110001110D01*
X169652380Y-30438095D02*
X170461904Y-30438095D01*
X170557142Y-30485714D01*
X170604761Y-30533333D01*
X170652380Y-30628571D01*
X170652380Y-30819047D01*
X170604761Y-30914285D01*
X170557142Y-30961904D01*
X170461904Y-31009523D01*
X169652380Y-31009523D01*
X169747619Y-31438095D02*
X169700000Y-31485714D01*
X169652380Y-31580952D01*
X169652380Y-31819047D01*
X169700000Y-31914285D01*
X169747619Y-31961904D01*
X169842857Y-32009523D01*
X169938095Y-32009523D01*
X170080952Y-31961904D01*
X170652380Y-31390476D01*
X170652380Y-32009523D01*
X183583333Y-110718761D02*
X183440476Y-110766380D01*
X183202380Y-110766380D01*
X183107142Y-110718761D01*
X183059523Y-110671142D01*
X183011904Y-110575904D01*
X183011904Y-110480666D01*
X183059523Y-110385428D01*
X183107142Y-110337809D01*
X183202380Y-110290190D01*
X183392857Y-110242571D01*
X183488095Y-110194952D01*
X183535714Y-110147333D01*
X183583333Y-110052095D01*
X183583333Y-109956857D01*
X183535714Y-109861619D01*
X183488095Y-109814000D01*
X183392857Y-109766380D01*
X183154761Y-109766380D01*
X183011904Y-109814000D01*
X182678571Y-109766380D02*
X182440476Y-110766380D01*
X182250000Y-110052095D01*
X182059523Y-110766380D01*
X181821428Y-109766380D01*
X180916666Y-110766380D02*
X181488095Y-110766380D01*
X181202380Y-110766380D02*
X181202380Y-109766380D01*
X181297619Y-109909238D01*
X181392857Y-110004476D01*
X181488095Y-110052095D01*
X232102380Y-107083333D02*
X231626190Y-106750000D01*
X232102380Y-106511904D02*
X231102380Y-106511904D01*
X231102380Y-106892857D01*
X231150000Y-106988095D01*
X231197619Y-107035714D01*
X231292857Y-107083333D01*
X231435714Y-107083333D01*
X231530952Y-107035714D01*
X231578571Y-106988095D01*
X231626190Y-106892857D01*
X231626190Y-106511904D01*
X231435714Y-107940476D02*
X232102380Y-107940476D01*
X231054761Y-107702380D02*
X231769047Y-107464285D01*
X231769047Y-108083333D01*
X170252380Y-37233333D02*
X169776190Y-36900000D01*
X170252380Y-36661904D02*
X169252380Y-36661904D01*
X169252380Y-37042857D01*
X169300000Y-37138095D01*
X169347619Y-37185714D01*
X169442857Y-37233333D01*
X169585714Y-37233333D01*
X169680952Y-37185714D01*
X169728571Y-37138095D01*
X169776190Y-37042857D01*
X169776190Y-36661904D01*
X169252380Y-37566666D02*
X169252380Y-38185714D01*
X169633333Y-37852380D01*
X169633333Y-37995238D01*
X169680952Y-38090476D01*
X169728571Y-38138095D01*
X169823809Y-38185714D01*
X170061904Y-38185714D01*
X170157142Y-38138095D01*
X170204761Y-38090476D01*
X170252380Y-37995238D01*
X170252380Y-37709523D01*
X170204761Y-37614285D01*
X170157142Y-37566666D01*
X176502380Y-37233333D02*
X176026190Y-36900000D01*
X176502380Y-36661904D02*
X175502380Y-36661904D01*
X175502380Y-37042857D01*
X175550000Y-37138095D01*
X175597619Y-37185714D01*
X175692857Y-37233333D01*
X175835714Y-37233333D01*
X175930952Y-37185714D01*
X175978571Y-37138095D01*
X176026190Y-37042857D01*
X176026190Y-36661904D01*
X175597619Y-37614285D02*
X175550000Y-37661904D01*
X175502380Y-37757142D01*
X175502380Y-37995238D01*
X175550000Y-38090476D01*
X175597619Y-38138095D01*
X175692857Y-38185714D01*
X175788095Y-38185714D01*
X175930952Y-38138095D01*
X176502380Y-37566666D01*
X176502380Y-38185714D01*
X188552380Y-106083333D02*
X188076190Y-105750000D01*
X188552380Y-105511904D02*
X187552380Y-105511904D01*
X187552380Y-105892857D01*
X187600000Y-105988095D01*
X187647619Y-106035714D01*
X187742857Y-106083333D01*
X187885714Y-106083333D01*
X187980952Y-106035714D01*
X188028571Y-105988095D01*
X188076190Y-105892857D01*
X188076190Y-105511904D01*
X188552380Y-107035714D02*
X188552380Y-106464285D01*
X188552380Y-106750000D02*
X187552380Y-106750000D01*
X187695238Y-106654761D01*
X187790476Y-106559523D01*
X187838095Y-106464285D01*
X169366666Y-29652380D02*
X169700000Y-29176190D01*
X169938095Y-29652380D02*
X169938095Y-28652380D01*
X169557142Y-28652380D01*
X169461904Y-28700000D01*
X169414285Y-28747619D01*
X169366666Y-28842857D01*
X169366666Y-28985714D01*
X169414285Y-29080952D01*
X169461904Y-29128571D01*
X169557142Y-29176190D01*
X169938095Y-29176190D01*
X168509523Y-28652380D02*
X168700000Y-28652380D01*
X168795238Y-28700000D01*
X168842857Y-28747619D01*
X168938095Y-28890476D01*
X168985714Y-29080952D01*
X168985714Y-29461904D01*
X168938095Y-29557142D01*
X168890476Y-29604761D01*
X168795238Y-29652380D01*
X168604761Y-29652380D01*
X168509523Y-29604761D01*
X168461904Y-29557142D01*
X168414285Y-29461904D01*
X168414285Y-29223809D01*
X168461904Y-29128571D01*
X168509523Y-29080952D01*
X168604761Y-29033333D01*
X168795238Y-29033333D01*
X168890476Y-29080952D01*
X168938095Y-29128571D01*
X168985714Y-29223809D01*
X178766666Y-29652380D02*
X179100000Y-29176190D01*
X179338095Y-29652380D02*
X179338095Y-28652380D01*
X178957142Y-28652380D01*
X178861904Y-28700000D01*
X178814285Y-28747619D01*
X178766666Y-28842857D01*
X178766666Y-28985714D01*
X178814285Y-29080952D01*
X178861904Y-29128571D01*
X178957142Y-29176190D01*
X179338095Y-29176190D01*
X177861904Y-28652380D02*
X178338095Y-28652380D01*
X178385714Y-29128571D01*
X178338095Y-29080952D01*
X178242857Y-29033333D01*
X178004761Y-29033333D01*
X177909523Y-29080952D01*
X177861904Y-29128571D01*
X177814285Y-29223809D01*
X177814285Y-29461904D01*
X177861904Y-29557142D01*
X177909523Y-29604761D01*
X178004761Y-29652380D01*
X178242857Y-29652380D01*
X178338095Y-29604761D01*
X178385714Y-29557142D01*
X183348214Y-22010714D02*
X182633928Y-22010714D01*
X183062500Y-21582142D02*
X183348214Y-22867857D01*
X182729166Y-22439285D02*
X183443452Y-22439285D01*
X183014880Y-22867857D02*
X182729166Y-21582142D01*
X182157738Y-22105952D02*
X182252976Y-22058333D01*
X182300595Y-22010714D01*
X182348214Y-21915476D01*
X182348214Y-21867857D01*
X182300595Y-21772619D01*
X182252976Y-21725000D01*
X182157738Y-21677380D01*
X181967261Y-21677380D01*
X181872023Y-21725000D01*
X181824404Y-21772619D01*
X181776785Y-21867857D01*
X181776785Y-21915476D01*
X181824404Y-22010714D01*
X181872023Y-22058333D01*
X181967261Y-22105952D01*
X182157738Y-22105952D01*
X182252976Y-22153571D01*
X182300595Y-22201190D01*
X182348214Y-22296428D01*
X182348214Y-22486904D01*
X182300595Y-22582142D01*
X182252976Y-22629761D01*
X182157738Y-22677380D01*
X181967261Y-22677380D01*
X181872023Y-22629761D01*
X181824404Y-22582142D01*
X181776785Y-22486904D01*
X181776785Y-22296428D01*
X181824404Y-22201190D01*
X181872023Y-22153571D01*
X181967261Y-22105952D01*
X137202380Y-109041071D02*
X136202380Y-109041071D01*
X136916666Y-109374404D01*
X136202380Y-109707738D01*
X137202380Y-109707738D01*
X137202380Y-110183928D02*
X136202380Y-110183928D01*
X137154761Y-110612500D02*
X137202380Y-110755357D01*
X137202380Y-110993452D01*
X137154761Y-111088690D01*
X137107142Y-111136309D01*
X137011904Y-111183928D01*
X136916666Y-111183928D01*
X136821428Y-111136309D01*
X136773809Y-111088690D01*
X136726190Y-110993452D01*
X136678571Y-110802976D01*
X136630952Y-110707738D01*
X136583333Y-110660119D01*
X136488095Y-110612500D01*
X136392857Y-110612500D01*
X136297619Y-110660119D01*
X136250000Y-110707738D01*
X136202380Y-110802976D01*
X136202380Y-111041071D01*
X136250000Y-111183928D01*
X136202380Y-111802976D02*
X136202380Y-111993452D01*
X136250000Y-112088690D01*
X136345238Y-112183928D01*
X136535714Y-112231547D01*
X136869047Y-112231547D01*
X137059523Y-112183928D01*
X137154761Y-112088690D01*
X137202380Y-111993452D01*
X137202380Y-111802976D01*
X137154761Y-111707738D01*
X137059523Y-111612500D01*
X136869047Y-111564880D01*
X136535714Y-111564880D01*
X136345238Y-111612500D01*
X136250000Y-111707738D01*
X136202380Y-111802976D01*
X136202380Y-103695833D02*
X137202380Y-103362500D01*
X136202380Y-103029166D01*
X137107142Y-102124404D02*
X137154761Y-102172023D01*
X137202380Y-102314880D01*
X137202380Y-102410119D01*
X137154761Y-102552976D01*
X137059523Y-102648214D01*
X136964285Y-102695833D01*
X136773809Y-102743452D01*
X136630952Y-102743452D01*
X136440476Y-102695833D01*
X136345238Y-102648214D01*
X136250000Y-102552976D01*
X136202380Y-102410119D01*
X136202380Y-102314880D01*
X136250000Y-102172023D01*
X136297619Y-102124404D01*
X137107142Y-101124404D02*
X137154761Y-101172023D01*
X137202380Y-101314880D01*
X137202380Y-101410119D01*
X137154761Y-101552976D01*
X137059523Y-101648214D01*
X136964285Y-101695833D01*
X136773809Y-101743452D01*
X136630952Y-101743452D01*
X136440476Y-101695833D01*
X136345238Y-101648214D01*
X136250000Y-101552976D01*
X136202380Y-101410119D01*
X136202380Y-101314880D01*
X136250000Y-101172023D01*
X136297619Y-101124404D01*
X139654761Y-109076785D02*
X139702380Y-109219642D01*
X139702380Y-109457738D01*
X139654761Y-109552976D01*
X139607142Y-109600595D01*
X139511904Y-109648214D01*
X139416666Y-109648214D01*
X139321428Y-109600595D01*
X139273809Y-109552976D01*
X139226190Y-109457738D01*
X139178571Y-109267261D01*
X139130952Y-109172023D01*
X139083333Y-109124404D01*
X138988095Y-109076785D01*
X138892857Y-109076785D01*
X138797619Y-109124404D01*
X138750000Y-109172023D01*
X138702380Y-109267261D01*
X138702380Y-109505357D01*
X138750000Y-109648214D01*
X139607142Y-110648214D02*
X139654761Y-110600595D01*
X139702380Y-110457738D01*
X139702380Y-110362500D01*
X139654761Y-110219642D01*
X139559523Y-110124404D01*
X139464285Y-110076785D01*
X139273809Y-110029166D01*
X139130952Y-110029166D01*
X138940476Y-110076785D01*
X138845238Y-110124404D01*
X138750000Y-110219642D01*
X138702380Y-110362500D01*
X138702380Y-110457738D01*
X138750000Y-110600595D01*
X138797619Y-110648214D01*
X139702380Y-111076785D02*
X138702380Y-111076785D01*
X139702380Y-111648214D02*
X139130952Y-111219642D01*
X138702380Y-111648214D02*
X139273809Y-111076785D01*
X139702380Y-103683928D02*
X138702380Y-103683928D01*
X139416666Y-103350595D01*
X138702380Y-103017261D01*
X139702380Y-103017261D01*
X138702380Y-102350595D02*
X138702380Y-102160119D01*
X138750000Y-102064880D01*
X138845238Y-101969642D01*
X139035714Y-101922023D01*
X139369047Y-101922023D01*
X139559523Y-101969642D01*
X139654761Y-102064880D01*
X139702380Y-102160119D01*
X139702380Y-102350595D01*
X139654761Y-102445833D01*
X139559523Y-102541071D01*
X139369047Y-102588690D01*
X139035714Y-102588690D01*
X138845238Y-102541071D01*
X138750000Y-102445833D01*
X138702380Y-102350595D01*
X139654761Y-101541071D02*
X139702380Y-101398214D01*
X139702380Y-101160119D01*
X139654761Y-101064880D01*
X139607142Y-101017261D01*
X139511904Y-100969642D01*
X139416666Y-100969642D01*
X139321428Y-101017261D01*
X139273809Y-101064880D01*
X139226190Y-101160119D01*
X139178571Y-101350595D01*
X139130952Y-101445833D01*
X139083333Y-101493452D01*
X138988095Y-101541071D01*
X138892857Y-101541071D01*
X138797619Y-101493452D01*
X138750000Y-101445833D01*
X138702380Y-101350595D01*
X138702380Y-101112500D01*
X138750000Y-100969642D01*
X139702380Y-100541071D02*
X138702380Y-100541071D01*
X142202380Y-110064880D02*
X141726190Y-109731547D01*
X142202380Y-109493452D02*
X141202380Y-109493452D01*
X141202380Y-109874404D01*
X141250000Y-109969642D01*
X141297619Y-110017261D01*
X141392857Y-110064880D01*
X141535714Y-110064880D01*
X141630952Y-110017261D01*
X141678571Y-109969642D01*
X141726190Y-109874404D01*
X141726190Y-109493452D01*
X142154761Y-110445833D02*
X142202380Y-110588690D01*
X142202380Y-110826785D01*
X142154761Y-110922023D01*
X142107142Y-110969642D01*
X142011904Y-111017261D01*
X141916666Y-111017261D01*
X141821428Y-110969642D01*
X141773809Y-110922023D01*
X141726190Y-110826785D01*
X141678571Y-110636309D01*
X141630952Y-110541071D01*
X141583333Y-110493452D01*
X141488095Y-110445833D01*
X141392857Y-110445833D01*
X141297619Y-110493452D01*
X141250000Y-110541071D01*
X141202380Y-110636309D01*
X141202380Y-110874404D01*
X141250000Y-111017261D01*
X141202380Y-111302976D02*
X141202380Y-111874404D01*
X142202380Y-111588690D02*
X141202380Y-111588690D01*
X141250000Y-102874404D02*
X141202380Y-102969642D01*
X141202380Y-103112500D01*
X141250000Y-103255357D01*
X141345238Y-103350595D01*
X141440476Y-103398214D01*
X141630952Y-103445833D01*
X141773809Y-103445833D01*
X141964285Y-103398214D01*
X142059523Y-103350595D01*
X142154761Y-103255357D01*
X142202380Y-103112500D01*
X142202380Y-103017261D01*
X142154761Y-102874404D01*
X142107142Y-102826785D01*
X141773809Y-102826785D01*
X141773809Y-103017261D01*
X142202380Y-102398214D02*
X141202380Y-102398214D01*
X142202380Y-101826785D01*
X141202380Y-101826785D01*
X142202380Y-101350595D02*
X141202380Y-101350595D01*
X141202380Y-101112500D01*
X141250000Y-100969642D01*
X141345238Y-100874404D01*
X141440476Y-100826785D01*
X141630952Y-100779166D01*
X141773809Y-100779166D01*
X141964285Y-100826785D01*
X142059523Y-100874404D01*
X142154761Y-100969642D01*
X142202380Y-101112500D01*
X142202380Y-101350595D01*
X179548571Y-33266666D02*
X179548571Y-32933333D01*
X180072380Y-32933333D02*
X179072380Y-32933333D01*
X179072380Y-33409523D01*
X180072380Y-34314285D02*
X180072380Y-33742857D01*
X180072380Y-34028571D02*
X179072380Y-34028571D01*
X179215238Y-33933333D01*
X179310476Y-33838095D01*
X179358095Y-33742857D01*
X325202380Y-105148214D02*
X324202380Y-105148214D01*
X324202380Y-105386309D01*
X324250000Y-105529166D01*
X324345238Y-105624404D01*
X324440476Y-105672023D01*
X324630952Y-105719642D01*
X324773809Y-105719642D01*
X324964285Y-105672023D01*
X325059523Y-105624404D01*
X325154761Y-105529166D01*
X325202380Y-105386309D01*
X325202380Y-105148214D01*
X324202380Y-106576785D02*
X324202380Y-106386309D01*
X324250000Y-106291071D01*
X324297619Y-106243452D01*
X324440476Y-106148214D01*
X324630952Y-106100595D01*
X325011904Y-106100595D01*
X325107142Y-106148214D01*
X325154761Y-106195833D01*
X325202380Y-106291071D01*
X325202380Y-106481547D01*
X325154761Y-106576785D01*
X325107142Y-106624404D01*
X325011904Y-106672023D01*
X324773809Y-106672023D01*
X324678571Y-106624404D01*
X324630952Y-106576785D01*
X324583333Y-106481547D01*
X324583333Y-106291071D01*
X324630952Y-106195833D01*
X324678571Y-106148214D01*
X324773809Y-106100595D01*
X324202380Y-107005357D02*
X324202380Y-107672023D01*
X325202380Y-107243452D01*
X324714880Y-86098214D02*
X323714880Y-86098214D01*
X323714880Y-86336309D01*
X323762500Y-86479166D01*
X323857738Y-86574404D01*
X323952976Y-86622023D01*
X324143452Y-86669642D01*
X324286309Y-86669642D01*
X324476785Y-86622023D01*
X324572023Y-86574404D01*
X324667261Y-86479166D01*
X324714880Y-86336309D01*
X324714880Y-86098214D01*
X323714880Y-87574404D02*
X323714880Y-87098214D01*
X324191071Y-87050595D01*
X324143452Y-87098214D01*
X324095833Y-87193452D01*
X324095833Y-87431547D01*
X324143452Y-87526785D01*
X324191071Y-87574404D01*
X324286309Y-87622023D01*
X324524404Y-87622023D01*
X324619642Y-87574404D01*
X324667261Y-87526785D01*
X324714880Y-87431547D01*
X324714880Y-87193452D01*
X324667261Y-87098214D01*
X324619642Y-87050595D01*
X324143452Y-88193452D02*
X324095833Y-88098214D01*
X324048214Y-88050595D01*
X323952976Y-88002976D01*
X323905357Y-88002976D01*
X323810119Y-88050595D01*
X323762500Y-88098214D01*
X323714880Y-88193452D01*
X323714880Y-88383928D01*
X323762500Y-88479166D01*
X323810119Y-88526785D01*
X323905357Y-88574404D01*
X323952976Y-88574404D01*
X324048214Y-88526785D01*
X324095833Y-88479166D01*
X324143452Y-88383928D01*
X324143452Y-88193452D01*
X324191071Y-88098214D01*
X324238690Y-88050595D01*
X324333928Y-88002976D01*
X324524404Y-88002976D01*
X324619642Y-88050595D01*
X324667261Y-88098214D01*
X324714880Y-88193452D01*
X324714880Y-88383928D01*
X324667261Y-88479166D01*
X324619642Y-88526785D01*
X324524404Y-88574404D01*
X324333928Y-88574404D01*
X324238690Y-88526785D01*
X324191071Y-88479166D01*
X324143452Y-88383928D01*
X324714880Y-67841964D02*
X323714880Y-67841964D01*
X323714880Y-68080059D01*
X323762500Y-68222916D01*
X323857738Y-68318154D01*
X323952976Y-68365773D01*
X324143452Y-68413392D01*
X324286309Y-68413392D01*
X324476785Y-68365773D01*
X324572023Y-68318154D01*
X324667261Y-68222916D01*
X324714880Y-68080059D01*
X324714880Y-67841964D01*
X324048214Y-69270535D02*
X324714880Y-69270535D01*
X323667261Y-69032440D02*
X324381547Y-68794345D01*
X324381547Y-69413392D01*
X324048214Y-70222916D02*
X324714880Y-70222916D01*
X323667261Y-69984821D02*
X324381547Y-69746726D01*
X324381547Y-70365773D01*
X324714880Y-49585714D02*
X323714880Y-49585714D01*
X323714880Y-49823809D01*
X323762500Y-49966666D01*
X323857738Y-50061904D01*
X323952976Y-50109523D01*
X324143452Y-50157142D01*
X324286309Y-50157142D01*
X324476785Y-50109523D01*
X324572023Y-50061904D01*
X324667261Y-49966666D01*
X324714880Y-49823809D01*
X324714880Y-49585714D01*
X323714880Y-50490476D02*
X323714880Y-51109523D01*
X324095833Y-50776190D01*
X324095833Y-50919047D01*
X324143452Y-51014285D01*
X324191071Y-51061904D01*
X324286309Y-51109523D01*
X324524404Y-51109523D01*
X324619642Y-51061904D01*
X324667261Y-51014285D01*
X324714880Y-50919047D01*
X324714880Y-50633333D01*
X324667261Y-50538095D01*
X324619642Y-50490476D01*
X323714880Y-51728571D02*
X323714880Y-51823809D01*
X323762500Y-51919047D01*
X323810119Y-51966666D01*
X323905357Y-52014285D01*
X324095833Y-52061904D01*
X324333928Y-52061904D01*
X324524404Y-52014285D01*
X324619642Y-51966666D01*
X324667261Y-51919047D01*
X324714880Y-51823809D01*
X324714880Y-51728571D01*
X324667261Y-51633333D01*
X324619642Y-51585714D01*
X324524404Y-51538095D01*
X324333928Y-51490476D01*
X324095833Y-51490476D01*
X323905357Y-51538095D01*
X323810119Y-51585714D01*
X323762500Y-51633333D01*
X323714880Y-51728571D01*
X324714880Y-30535714D02*
X323714880Y-30535714D01*
X323714880Y-30773809D01*
X323762500Y-30916666D01*
X323857738Y-31011904D01*
X323952976Y-31059523D01*
X324143452Y-31107142D01*
X324286309Y-31107142D01*
X324476785Y-31059523D01*
X324572023Y-31011904D01*
X324667261Y-30916666D01*
X324714880Y-30773809D01*
X324714880Y-30535714D01*
X324714880Y-32059523D02*
X324714880Y-31488095D01*
X324714880Y-31773809D02*
X323714880Y-31773809D01*
X323857738Y-31678571D01*
X323952976Y-31583333D01*
X324000595Y-31488095D01*
X323714880Y-32964285D02*
X323714880Y-32488095D01*
X324191071Y-32440476D01*
X324143452Y-32488095D01*
X324095833Y-32583333D01*
X324095833Y-32821428D01*
X324143452Y-32916666D01*
X324191071Y-32964285D01*
X324286309Y-33011904D01*
X324524404Y-33011904D01*
X324619642Y-32964285D01*
X324667261Y-32916666D01*
X324714880Y-32821428D01*
X324714880Y-32583333D01*
X324667261Y-32488095D01*
X324619642Y-32440476D01*
X308046130Y-105148214D02*
X307046130Y-105148214D01*
X307046130Y-105386309D01*
X307093750Y-105529166D01*
X307188988Y-105624404D01*
X307284226Y-105672023D01*
X307474702Y-105719642D01*
X307617559Y-105719642D01*
X307808035Y-105672023D01*
X307903273Y-105624404D01*
X307998511Y-105529166D01*
X308046130Y-105386309D01*
X308046130Y-105148214D01*
X307046130Y-106576785D02*
X307046130Y-106386309D01*
X307093750Y-106291071D01*
X307141369Y-106243452D01*
X307284226Y-106148214D01*
X307474702Y-106100595D01*
X307855654Y-106100595D01*
X307950892Y-106148214D01*
X307998511Y-106195833D01*
X308046130Y-106291071D01*
X308046130Y-106481547D01*
X307998511Y-106576785D01*
X307950892Y-106624404D01*
X307855654Y-106672023D01*
X307617559Y-106672023D01*
X307522321Y-106624404D01*
X307474702Y-106576785D01*
X307427083Y-106481547D01*
X307427083Y-106291071D01*
X307474702Y-106195833D01*
X307522321Y-106148214D01*
X307617559Y-106100595D01*
X307046130Y-107529166D02*
X307046130Y-107338690D01*
X307093750Y-107243452D01*
X307141369Y-107195833D01*
X307284226Y-107100595D01*
X307474702Y-107052976D01*
X307855654Y-107052976D01*
X307950892Y-107100595D01*
X307998511Y-107148214D01*
X308046130Y-107243452D01*
X308046130Y-107433928D01*
X307998511Y-107529166D01*
X307950892Y-107576785D01*
X307855654Y-107624404D01*
X307617559Y-107624404D01*
X307522321Y-107576785D01*
X307474702Y-107529166D01*
X307427083Y-107433928D01*
X307427083Y-107243452D01*
X307474702Y-107148214D01*
X307522321Y-107100595D01*
X307617559Y-107052976D01*
X308046130Y-85304464D02*
X307046130Y-85304464D01*
X307046130Y-85542559D01*
X307093750Y-85685416D01*
X307188988Y-85780654D01*
X307284226Y-85828273D01*
X307474702Y-85875892D01*
X307617559Y-85875892D01*
X307808035Y-85828273D01*
X307903273Y-85780654D01*
X307998511Y-85685416D01*
X308046130Y-85542559D01*
X308046130Y-85304464D01*
X307046130Y-86780654D02*
X307046130Y-86304464D01*
X307522321Y-86256845D01*
X307474702Y-86304464D01*
X307427083Y-86399702D01*
X307427083Y-86637797D01*
X307474702Y-86733035D01*
X307522321Y-86780654D01*
X307617559Y-86828273D01*
X307855654Y-86828273D01*
X307950892Y-86780654D01*
X307998511Y-86733035D01*
X308046130Y-86637797D01*
X308046130Y-86399702D01*
X307998511Y-86304464D01*
X307950892Y-86256845D01*
X307046130Y-87161607D02*
X307046130Y-87828273D01*
X308046130Y-87399702D01*
X303283630Y-47998214D02*
X302283630Y-47998214D01*
X302283630Y-48236309D01*
X302331250Y-48379166D01*
X302426488Y-48474404D01*
X302521726Y-48522023D01*
X302712202Y-48569642D01*
X302855059Y-48569642D01*
X303045535Y-48522023D01*
X303140773Y-48474404D01*
X303236011Y-48379166D01*
X303283630Y-48236309D01*
X303283630Y-47998214D01*
X302378869Y-48950595D02*
X302331250Y-48998214D01*
X302283630Y-49093452D01*
X302283630Y-49331547D01*
X302331250Y-49426785D01*
X302378869Y-49474404D01*
X302474107Y-49522023D01*
X302569345Y-49522023D01*
X302712202Y-49474404D01*
X303283630Y-48902976D01*
X303283630Y-49522023D01*
X303283630Y-49998214D02*
X303283630Y-50188690D01*
X303236011Y-50283928D01*
X303188392Y-50331547D01*
X303045535Y-50426785D01*
X302855059Y-50474404D01*
X302474107Y-50474404D01*
X302378869Y-50426785D01*
X302331250Y-50379166D01*
X302283630Y-50283928D01*
X302283630Y-50093452D01*
X302331250Y-49998214D01*
X302378869Y-49950595D01*
X302474107Y-49902976D01*
X302712202Y-49902976D01*
X302807440Y-49950595D01*
X302855059Y-49998214D01*
X302902678Y-50093452D01*
X302902678Y-50283928D01*
X302855059Y-50379166D01*
X302807440Y-50426785D01*
X302712202Y-50474404D01*
X300108630Y-28948214D02*
X299108630Y-28948214D01*
X299108630Y-29186309D01*
X299156250Y-29329166D01*
X299251488Y-29424404D01*
X299346726Y-29472023D01*
X299537202Y-29519642D01*
X299680059Y-29519642D01*
X299870535Y-29472023D01*
X299965773Y-29424404D01*
X300061011Y-29329166D01*
X300108630Y-29186309D01*
X300108630Y-28948214D01*
X300108630Y-30472023D02*
X300108630Y-29900595D01*
X300108630Y-30186309D02*
X299108630Y-30186309D01*
X299251488Y-30091071D01*
X299346726Y-29995833D01*
X299394345Y-29900595D01*
X299441964Y-31329166D02*
X300108630Y-31329166D01*
X299061011Y-31091071D02*
X299775297Y-30852976D01*
X299775297Y-31472023D01*
X288996130Y-105148214D02*
X287996130Y-105148214D01*
X287996130Y-105386309D01*
X288043750Y-105529166D01*
X288138988Y-105624404D01*
X288234226Y-105672023D01*
X288424702Y-105719642D01*
X288567559Y-105719642D01*
X288758035Y-105672023D01*
X288853273Y-105624404D01*
X288948511Y-105529166D01*
X288996130Y-105386309D01*
X288996130Y-105148214D01*
X287996130Y-106576785D02*
X287996130Y-106386309D01*
X288043750Y-106291071D01*
X288091369Y-106243452D01*
X288234226Y-106148214D01*
X288424702Y-106100595D01*
X288805654Y-106100595D01*
X288900892Y-106148214D01*
X288948511Y-106195833D01*
X288996130Y-106291071D01*
X288996130Y-106481547D01*
X288948511Y-106576785D01*
X288900892Y-106624404D01*
X288805654Y-106672023D01*
X288567559Y-106672023D01*
X288472321Y-106624404D01*
X288424702Y-106576785D01*
X288377083Y-106481547D01*
X288377083Y-106291071D01*
X288424702Y-106195833D01*
X288472321Y-106148214D01*
X288567559Y-106100595D01*
X287996130Y-107576785D02*
X287996130Y-107100595D01*
X288472321Y-107052976D01*
X288424702Y-107100595D01*
X288377083Y-107195833D01*
X288377083Y-107433928D01*
X288424702Y-107529166D01*
X288472321Y-107576785D01*
X288567559Y-107624404D01*
X288805654Y-107624404D01*
X288900892Y-107576785D01*
X288948511Y-107529166D01*
X288996130Y-107433928D01*
X288996130Y-107195833D01*
X288948511Y-107100595D01*
X288900892Y-107052976D01*
X281852380Y-85304464D02*
X280852380Y-85304464D01*
X280852380Y-85542559D01*
X280900000Y-85685416D01*
X280995238Y-85780654D01*
X281090476Y-85828273D01*
X281280952Y-85875892D01*
X281423809Y-85875892D01*
X281614285Y-85828273D01*
X281709523Y-85780654D01*
X281804761Y-85685416D01*
X281852380Y-85542559D01*
X281852380Y-85304464D01*
X280852380Y-86780654D02*
X280852380Y-86304464D01*
X281328571Y-86256845D01*
X281280952Y-86304464D01*
X281233333Y-86399702D01*
X281233333Y-86637797D01*
X281280952Y-86733035D01*
X281328571Y-86780654D01*
X281423809Y-86828273D01*
X281661904Y-86828273D01*
X281757142Y-86780654D01*
X281804761Y-86733035D01*
X281852380Y-86637797D01*
X281852380Y-86399702D01*
X281804761Y-86304464D01*
X281757142Y-86256845D01*
X280852380Y-87685416D02*
X280852380Y-87494940D01*
X280900000Y-87399702D01*
X280947619Y-87352083D01*
X281090476Y-87256845D01*
X281280952Y-87209226D01*
X281661904Y-87209226D01*
X281757142Y-87256845D01*
X281804761Y-87304464D01*
X281852380Y-87399702D01*
X281852380Y-87590178D01*
X281804761Y-87685416D01*
X281757142Y-87733035D01*
X281661904Y-87780654D01*
X281423809Y-87780654D01*
X281328571Y-87733035D01*
X281280952Y-87685416D01*
X281233333Y-87590178D01*
X281233333Y-87399702D01*
X281280952Y-87304464D01*
X281328571Y-87256845D01*
X281423809Y-87209226D01*
X296933630Y-67048214D02*
X295933630Y-67048214D01*
X295933630Y-67286309D01*
X295981250Y-67429166D01*
X296076488Y-67524404D01*
X296171726Y-67572023D01*
X296362202Y-67619642D01*
X296505059Y-67619642D01*
X296695535Y-67572023D01*
X296790773Y-67524404D01*
X296886011Y-67429166D01*
X296933630Y-67286309D01*
X296933630Y-67048214D01*
X296266964Y-68476785D02*
X296933630Y-68476785D01*
X295886011Y-68238690D02*
X296600297Y-68000595D01*
X296600297Y-68619642D01*
X295933630Y-68905357D02*
X295933630Y-69524404D01*
X296314583Y-69191071D01*
X296314583Y-69333928D01*
X296362202Y-69429166D01*
X296409821Y-69476785D01*
X296505059Y-69524404D01*
X296743154Y-69524404D01*
X296838392Y-69476785D01*
X296886011Y-69429166D01*
X296933630Y-69333928D01*
X296933630Y-69048214D01*
X296886011Y-68952976D01*
X296838392Y-68905357D01*
X279471130Y-47998214D02*
X278471130Y-47998214D01*
X278471130Y-48236309D01*
X278518750Y-48379166D01*
X278613988Y-48474404D01*
X278709226Y-48522023D01*
X278899702Y-48569642D01*
X279042559Y-48569642D01*
X279233035Y-48522023D01*
X279328273Y-48474404D01*
X279423511Y-48379166D01*
X279471130Y-48236309D01*
X279471130Y-47998214D01*
X278566369Y-48950595D02*
X278518750Y-48998214D01*
X278471130Y-49093452D01*
X278471130Y-49331547D01*
X278518750Y-49426785D01*
X278566369Y-49474404D01*
X278661607Y-49522023D01*
X278756845Y-49522023D01*
X278899702Y-49474404D01*
X279471130Y-48902976D01*
X279471130Y-49522023D01*
X278899702Y-50093452D02*
X278852083Y-49998214D01*
X278804464Y-49950595D01*
X278709226Y-49902976D01*
X278661607Y-49902976D01*
X278566369Y-49950595D01*
X278518750Y-49998214D01*
X278471130Y-50093452D01*
X278471130Y-50283928D01*
X278518750Y-50379166D01*
X278566369Y-50426785D01*
X278661607Y-50474404D01*
X278709226Y-50474404D01*
X278804464Y-50426785D01*
X278852083Y-50379166D01*
X278899702Y-50283928D01*
X278899702Y-50093452D01*
X278947321Y-49998214D01*
X278994940Y-49950595D01*
X279090178Y-49902976D01*
X279280654Y-49902976D01*
X279375892Y-49950595D01*
X279423511Y-49998214D01*
X279471130Y-50093452D01*
X279471130Y-50283928D01*
X279423511Y-50379166D01*
X279375892Y-50426785D01*
X279280654Y-50474404D01*
X279090178Y-50474404D01*
X278994940Y-50426785D01*
X278947321Y-50379166D01*
X278899702Y-50283928D01*
X269946130Y-28948214D02*
X268946130Y-28948214D01*
X268946130Y-29186309D01*
X268993750Y-29329166D01*
X269088988Y-29424404D01*
X269184226Y-29472023D01*
X269374702Y-29519642D01*
X269517559Y-29519642D01*
X269708035Y-29472023D01*
X269803273Y-29424404D01*
X269898511Y-29329166D01*
X269946130Y-29186309D01*
X269946130Y-28948214D01*
X269946130Y-30472023D02*
X269946130Y-29900595D01*
X269946130Y-30186309D02*
X268946130Y-30186309D01*
X269088988Y-30091071D01*
X269184226Y-29995833D01*
X269231845Y-29900595D01*
X268946130Y-30805357D02*
X268946130Y-31424404D01*
X269327083Y-31091071D01*
X269327083Y-31233928D01*
X269374702Y-31329166D01*
X269422321Y-31376785D01*
X269517559Y-31424404D01*
X269755654Y-31424404D01*
X269850892Y-31376785D01*
X269898511Y-31329166D01*
X269946130Y-31233928D01*
X269946130Y-30948214D01*
X269898511Y-30852976D01*
X269850892Y-30805357D01*
X269946130Y-105148214D02*
X268946130Y-105148214D01*
X268946130Y-105386309D01*
X268993750Y-105529166D01*
X269088988Y-105624404D01*
X269184226Y-105672023D01*
X269374702Y-105719642D01*
X269517559Y-105719642D01*
X269708035Y-105672023D01*
X269803273Y-105624404D01*
X269898511Y-105529166D01*
X269946130Y-105386309D01*
X269946130Y-105148214D01*
X268946130Y-106576785D02*
X268946130Y-106386309D01*
X268993750Y-106291071D01*
X269041369Y-106243452D01*
X269184226Y-106148214D01*
X269374702Y-106100595D01*
X269755654Y-106100595D01*
X269850892Y-106148214D01*
X269898511Y-106195833D01*
X269946130Y-106291071D01*
X269946130Y-106481547D01*
X269898511Y-106576785D01*
X269850892Y-106624404D01*
X269755654Y-106672023D01*
X269517559Y-106672023D01*
X269422321Y-106624404D01*
X269374702Y-106576785D01*
X269327083Y-106481547D01*
X269327083Y-106291071D01*
X269374702Y-106195833D01*
X269422321Y-106148214D01*
X269517559Y-106100595D01*
X269279464Y-107529166D02*
X269946130Y-107529166D01*
X268898511Y-107291071D02*
X269612797Y-107052976D01*
X269612797Y-107672023D01*
X265977380Y-67048214D02*
X264977380Y-67048214D01*
X264977380Y-67286309D01*
X265025000Y-67429166D01*
X265120238Y-67524404D01*
X265215476Y-67572023D01*
X265405952Y-67619642D01*
X265548809Y-67619642D01*
X265739285Y-67572023D01*
X265834523Y-67524404D01*
X265929761Y-67429166D01*
X265977380Y-67286309D01*
X265977380Y-67048214D01*
X265310714Y-68476785D02*
X265977380Y-68476785D01*
X264929761Y-68238690D02*
X265644047Y-68000595D01*
X265644047Y-68619642D01*
X265072619Y-68952976D02*
X265025000Y-69000595D01*
X264977380Y-69095833D01*
X264977380Y-69333928D01*
X265025000Y-69429166D01*
X265072619Y-69476785D01*
X265167857Y-69524404D01*
X265263095Y-69524404D01*
X265405952Y-69476785D01*
X265977380Y-68905357D01*
X265977380Y-69524404D01*
X260421130Y-47998214D02*
X259421130Y-47998214D01*
X259421130Y-48236309D01*
X259468750Y-48379166D01*
X259563988Y-48474404D01*
X259659226Y-48522023D01*
X259849702Y-48569642D01*
X259992559Y-48569642D01*
X260183035Y-48522023D01*
X260278273Y-48474404D01*
X260373511Y-48379166D01*
X260421130Y-48236309D01*
X260421130Y-47998214D01*
X259516369Y-48950595D02*
X259468750Y-48998214D01*
X259421130Y-49093452D01*
X259421130Y-49331547D01*
X259468750Y-49426785D01*
X259516369Y-49474404D01*
X259611607Y-49522023D01*
X259706845Y-49522023D01*
X259849702Y-49474404D01*
X260421130Y-48902976D01*
X260421130Y-49522023D01*
X259421130Y-49855357D02*
X259421130Y-50522023D01*
X260421130Y-50093452D01*
X250896130Y-28948214D02*
X249896130Y-28948214D01*
X249896130Y-29186309D01*
X249943750Y-29329166D01*
X250038988Y-29424404D01*
X250134226Y-29472023D01*
X250324702Y-29519642D01*
X250467559Y-29519642D01*
X250658035Y-29472023D01*
X250753273Y-29424404D01*
X250848511Y-29329166D01*
X250896130Y-29186309D01*
X250896130Y-28948214D01*
X250896130Y-30472023D02*
X250896130Y-29900595D01*
X250896130Y-30186309D02*
X249896130Y-30186309D01*
X250038988Y-30091071D01*
X250134226Y-29995833D01*
X250181845Y-29900595D01*
X249991369Y-30852976D02*
X249943750Y-30900595D01*
X249896130Y-30995833D01*
X249896130Y-31233928D01*
X249943750Y-31329166D01*
X249991369Y-31376785D01*
X250086607Y-31424404D01*
X250181845Y-31424404D01*
X250324702Y-31376785D01*
X250896130Y-30805357D01*
X250896130Y-31424404D01*
X248514880Y-105148214D02*
X247514880Y-105148214D01*
X247514880Y-105386309D01*
X247562500Y-105529166D01*
X247657738Y-105624404D01*
X247752976Y-105672023D01*
X247943452Y-105719642D01*
X248086309Y-105719642D01*
X248276785Y-105672023D01*
X248372023Y-105624404D01*
X248467261Y-105529166D01*
X248514880Y-105386309D01*
X248514880Y-105148214D01*
X247514880Y-106576785D02*
X247514880Y-106386309D01*
X247562500Y-106291071D01*
X247610119Y-106243452D01*
X247752976Y-106148214D01*
X247943452Y-106100595D01*
X248324404Y-106100595D01*
X248419642Y-106148214D01*
X248467261Y-106195833D01*
X248514880Y-106291071D01*
X248514880Y-106481547D01*
X248467261Y-106576785D01*
X248419642Y-106624404D01*
X248324404Y-106672023D01*
X248086309Y-106672023D01*
X247991071Y-106624404D01*
X247943452Y-106576785D01*
X247895833Y-106481547D01*
X247895833Y-106291071D01*
X247943452Y-106195833D01*
X247991071Y-106148214D01*
X248086309Y-106100595D01*
X247514880Y-107005357D02*
X247514880Y-107624404D01*
X247895833Y-107291071D01*
X247895833Y-107433928D01*
X247943452Y-107529166D01*
X247991071Y-107576785D01*
X248086309Y-107624404D01*
X248324404Y-107624404D01*
X248419642Y-107576785D01*
X248467261Y-107529166D01*
X248514880Y-107433928D01*
X248514880Y-107148214D01*
X248467261Y-107052976D01*
X248419642Y-107005357D01*
X255658630Y-85304464D02*
X254658630Y-85304464D01*
X254658630Y-85542559D01*
X254706250Y-85685416D01*
X254801488Y-85780654D01*
X254896726Y-85828273D01*
X255087202Y-85875892D01*
X255230059Y-85875892D01*
X255420535Y-85828273D01*
X255515773Y-85780654D01*
X255611011Y-85685416D01*
X255658630Y-85542559D01*
X255658630Y-85304464D01*
X254658630Y-86780654D02*
X254658630Y-86304464D01*
X255134821Y-86256845D01*
X255087202Y-86304464D01*
X255039583Y-86399702D01*
X255039583Y-86637797D01*
X255087202Y-86733035D01*
X255134821Y-86780654D01*
X255230059Y-86828273D01*
X255468154Y-86828273D01*
X255563392Y-86780654D01*
X255611011Y-86733035D01*
X255658630Y-86637797D01*
X255658630Y-86399702D01*
X255611011Y-86304464D01*
X255563392Y-86256845D01*
X254658630Y-87733035D02*
X254658630Y-87256845D01*
X255134821Y-87209226D01*
X255087202Y-87256845D01*
X255039583Y-87352083D01*
X255039583Y-87590178D01*
X255087202Y-87685416D01*
X255134821Y-87733035D01*
X255230059Y-87780654D01*
X255468154Y-87780654D01*
X255563392Y-87733035D01*
X255611011Y-87685416D01*
X255658630Y-87590178D01*
X255658630Y-87352083D01*
X255611011Y-87256845D01*
X255563392Y-87209226D01*
X245952380Y-67048214D02*
X244952380Y-67048214D01*
X244952380Y-67286309D01*
X245000000Y-67429166D01*
X245095238Y-67524404D01*
X245190476Y-67572023D01*
X245380952Y-67619642D01*
X245523809Y-67619642D01*
X245714285Y-67572023D01*
X245809523Y-67524404D01*
X245904761Y-67429166D01*
X245952380Y-67286309D01*
X245952380Y-67048214D01*
X245285714Y-68476785D02*
X245952380Y-68476785D01*
X244904761Y-68238690D02*
X245619047Y-68000595D01*
X245619047Y-68619642D01*
X245952380Y-69524404D02*
X245952380Y-68952976D01*
X245952380Y-69238690D02*
X244952380Y-69238690D01*
X245095238Y-69143452D01*
X245190476Y-69048214D01*
X245238095Y-68952976D01*
X241371130Y-47998214D02*
X240371130Y-47998214D01*
X240371130Y-48236309D01*
X240418750Y-48379166D01*
X240513988Y-48474404D01*
X240609226Y-48522023D01*
X240799702Y-48569642D01*
X240942559Y-48569642D01*
X241133035Y-48522023D01*
X241228273Y-48474404D01*
X241323511Y-48379166D01*
X241371130Y-48236309D01*
X241371130Y-47998214D01*
X240466369Y-48950595D02*
X240418750Y-48998214D01*
X240371130Y-49093452D01*
X240371130Y-49331547D01*
X240418750Y-49426785D01*
X240466369Y-49474404D01*
X240561607Y-49522023D01*
X240656845Y-49522023D01*
X240799702Y-49474404D01*
X241371130Y-48902976D01*
X241371130Y-49522023D01*
X240371130Y-50379166D02*
X240371130Y-50188690D01*
X240418750Y-50093452D01*
X240466369Y-50045833D01*
X240609226Y-49950595D01*
X240799702Y-49902976D01*
X241180654Y-49902976D01*
X241275892Y-49950595D01*
X241323511Y-49998214D01*
X241371130Y-50093452D01*
X241371130Y-50283928D01*
X241323511Y-50379166D01*
X241275892Y-50426785D01*
X241180654Y-50474404D01*
X240942559Y-50474404D01*
X240847321Y-50426785D01*
X240799702Y-50379166D01*
X240752083Y-50283928D01*
X240752083Y-50093452D01*
X240799702Y-49998214D01*
X240847321Y-49950595D01*
X240942559Y-49902976D01*
X231846130Y-28948214D02*
X230846130Y-28948214D01*
X230846130Y-29186309D01*
X230893750Y-29329166D01*
X230988988Y-29424404D01*
X231084226Y-29472023D01*
X231274702Y-29519642D01*
X231417559Y-29519642D01*
X231608035Y-29472023D01*
X231703273Y-29424404D01*
X231798511Y-29329166D01*
X231846130Y-29186309D01*
X231846130Y-28948214D01*
X231846130Y-30472023D02*
X231846130Y-29900595D01*
X231846130Y-30186309D02*
X230846130Y-30186309D01*
X230988988Y-30091071D01*
X231084226Y-29995833D01*
X231131845Y-29900595D01*
X231846130Y-31424404D02*
X231846130Y-30852976D01*
X231846130Y-31138690D02*
X230846130Y-31138690D01*
X230988988Y-31043452D01*
X231084226Y-30948214D01*
X231131845Y-30852976D01*
X236608630Y-85304464D02*
X235608630Y-85304464D01*
X235608630Y-85542559D01*
X235656250Y-85685416D01*
X235751488Y-85780654D01*
X235846726Y-85828273D01*
X236037202Y-85875892D01*
X236180059Y-85875892D01*
X236370535Y-85828273D01*
X236465773Y-85780654D01*
X236561011Y-85685416D01*
X236608630Y-85542559D01*
X236608630Y-85304464D01*
X235608630Y-86780654D02*
X235608630Y-86304464D01*
X236084821Y-86256845D01*
X236037202Y-86304464D01*
X235989583Y-86399702D01*
X235989583Y-86637797D01*
X236037202Y-86733035D01*
X236084821Y-86780654D01*
X236180059Y-86828273D01*
X236418154Y-86828273D01*
X236513392Y-86780654D01*
X236561011Y-86733035D01*
X236608630Y-86637797D01*
X236608630Y-86399702D01*
X236561011Y-86304464D01*
X236513392Y-86256845D01*
X235941964Y-87685416D02*
X236608630Y-87685416D01*
X235561011Y-87447321D02*
X236275297Y-87209226D01*
X236275297Y-87828273D01*
X227083630Y-67048214D02*
X226083630Y-67048214D01*
X226083630Y-67286309D01*
X226131250Y-67429166D01*
X226226488Y-67524404D01*
X226321726Y-67572023D01*
X226512202Y-67619642D01*
X226655059Y-67619642D01*
X226845535Y-67572023D01*
X226940773Y-67524404D01*
X227036011Y-67429166D01*
X227083630Y-67286309D01*
X227083630Y-67048214D01*
X226416964Y-68476785D02*
X227083630Y-68476785D01*
X226036011Y-68238690D02*
X226750297Y-68000595D01*
X226750297Y-68619642D01*
X226083630Y-69191071D02*
X226083630Y-69286309D01*
X226131250Y-69381547D01*
X226178869Y-69429166D01*
X226274107Y-69476785D01*
X226464583Y-69524404D01*
X226702678Y-69524404D01*
X226893154Y-69476785D01*
X226988392Y-69429166D01*
X227036011Y-69381547D01*
X227083630Y-69286309D01*
X227083630Y-69191071D01*
X227036011Y-69095833D01*
X226988392Y-69048214D01*
X226893154Y-69000595D01*
X226702678Y-68952976D01*
X226464583Y-68952976D01*
X226274107Y-69000595D01*
X226178869Y-69048214D01*
X226131250Y-69095833D01*
X226083630Y-69191071D01*
X222321130Y-47998214D02*
X221321130Y-47998214D01*
X221321130Y-48236309D01*
X221368750Y-48379166D01*
X221463988Y-48474404D01*
X221559226Y-48522023D01*
X221749702Y-48569642D01*
X221892559Y-48569642D01*
X222083035Y-48522023D01*
X222178273Y-48474404D01*
X222273511Y-48379166D01*
X222321130Y-48236309D01*
X222321130Y-47998214D01*
X221416369Y-48950595D02*
X221368750Y-48998214D01*
X221321130Y-49093452D01*
X221321130Y-49331547D01*
X221368750Y-49426785D01*
X221416369Y-49474404D01*
X221511607Y-49522023D01*
X221606845Y-49522023D01*
X221749702Y-49474404D01*
X222321130Y-48902976D01*
X222321130Y-49522023D01*
X221321130Y-50426785D02*
X221321130Y-49950595D01*
X221797321Y-49902976D01*
X221749702Y-49950595D01*
X221702083Y-50045833D01*
X221702083Y-50283928D01*
X221749702Y-50379166D01*
X221797321Y-50426785D01*
X221892559Y-50474404D01*
X222130654Y-50474404D01*
X222225892Y-50426785D01*
X222273511Y-50379166D01*
X222321130Y-50283928D01*
X222321130Y-50045833D01*
X222273511Y-49950595D01*
X222225892Y-49902976D01*
X212796130Y-28948214D02*
X211796130Y-28948214D01*
X211796130Y-29186309D01*
X211843750Y-29329166D01*
X211938988Y-29424404D01*
X212034226Y-29472023D01*
X212224702Y-29519642D01*
X212367559Y-29519642D01*
X212558035Y-29472023D01*
X212653273Y-29424404D01*
X212748511Y-29329166D01*
X212796130Y-29186309D01*
X212796130Y-28948214D01*
X212796130Y-30472023D02*
X212796130Y-29900595D01*
X212796130Y-30186309D02*
X211796130Y-30186309D01*
X211938988Y-30091071D01*
X212034226Y-29995833D01*
X212081845Y-29900595D01*
X211796130Y-31091071D02*
X211796130Y-31186309D01*
X211843750Y-31281547D01*
X211891369Y-31329166D01*
X211986607Y-31376785D01*
X212177083Y-31424404D01*
X212415178Y-31424404D01*
X212605654Y-31376785D01*
X212700892Y-31329166D01*
X212748511Y-31281547D01*
X212796130Y-31186309D01*
X212796130Y-31091071D01*
X212748511Y-30995833D01*
X212700892Y-30948214D01*
X212605654Y-30900595D01*
X212415178Y-30852976D01*
X212177083Y-30852976D01*
X211986607Y-30900595D01*
X211891369Y-30948214D01*
X211843750Y-30995833D01*
X211796130Y-31091071D01*
X217558630Y-83535714D02*
X216558630Y-83535714D01*
X216558630Y-83773809D01*
X216606250Y-83916666D01*
X216701488Y-84011904D01*
X216796726Y-84059523D01*
X216987202Y-84107142D01*
X217130059Y-84107142D01*
X217320535Y-84059523D01*
X217415773Y-84011904D01*
X217511011Y-83916666D01*
X217558630Y-83773809D01*
X217558630Y-83535714D01*
X216558630Y-85011904D02*
X216558630Y-84535714D01*
X217034821Y-84488095D01*
X216987202Y-84535714D01*
X216939583Y-84630952D01*
X216939583Y-84869047D01*
X216987202Y-84964285D01*
X217034821Y-85011904D01*
X217130059Y-85059523D01*
X217368154Y-85059523D01*
X217463392Y-85011904D01*
X217511011Y-84964285D01*
X217558630Y-84869047D01*
X217558630Y-84630952D01*
X217511011Y-84535714D01*
X217463392Y-84488095D01*
X216558630Y-85392857D02*
X216558630Y-86011904D01*
X216939583Y-85678571D01*
X216939583Y-85821428D01*
X216987202Y-85916666D01*
X217034821Y-85964285D01*
X217130059Y-86011904D01*
X217368154Y-86011904D01*
X217463392Y-85964285D01*
X217511011Y-85916666D01*
X217558630Y-85821428D01*
X217558630Y-85535714D01*
X217511011Y-85440476D01*
X217463392Y-85392857D01*
X208033630Y-67048214D02*
X207033630Y-67048214D01*
X207033630Y-67286309D01*
X207081250Y-67429166D01*
X207176488Y-67524404D01*
X207271726Y-67572023D01*
X207462202Y-67619642D01*
X207605059Y-67619642D01*
X207795535Y-67572023D01*
X207890773Y-67524404D01*
X207986011Y-67429166D01*
X208033630Y-67286309D01*
X208033630Y-67048214D01*
X207033630Y-67952976D02*
X207033630Y-68572023D01*
X207414583Y-68238690D01*
X207414583Y-68381547D01*
X207462202Y-68476785D01*
X207509821Y-68524404D01*
X207605059Y-68572023D01*
X207843154Y-68572023D01*
X207938392Y-68524404D01*
X207986011Y-68476785D01*
X208033630Y-68381547D01*
X208033630Y-68095833D01*
X207986011Y-68000595D01*
X207938392Y-67952976D01*
X208033630Y-69048214D02*
X208033630Y-69238690D01*
X207986011Y-69333928D01*
X207938392Y-69381547D01*
X207795535Y-69476785D01*
X207605059Y-69524404D01*
X207224107Y-69524404D01*
X207128869Y-69476785D01*
X207081250Y-69429166D01*
X207033630Y-69333928D01*
X207033630Y-69143452D01*
X207081250Y-69048214D01*
X207128869Y-69000595D01*
X207224107Y-68952976D01*
X207462202Y-68952976D01*
X207557440Y-69000595D01*
X207605059Y-69048214D01*
X207652678Y-69143452D01*
X207652678Y-69333928D01*
X207605059Y-69429166D01*
X207557440Y-69476785D01*
X207462202Y-69524404D01*
X203271130Y-47998214D02*
X202271130Y-47998214D01*
X202271130Y-48236309D01*
X202318750Y-48379166D01*
X202413988Y-48474404D01*
X202509226Y-48522023D01*
X202699702Y-48569642D01*
X202842559Y-48569642D01*
X203033035Y-48522023D01*
X203128273Y-48474404D01*
X203223511Y-48379166D01*
X203271130Y-48236309D01*
X203271130Y-47998214D01*
X202366369Y-48950595D02*
X202318750Y-48998214D01*
X202271130Y-49093452D01*
X202271130Y-49331547D01*
X202318750Y-49426785D01*
X202366369Y-49474404D01*
X202461607Y-49522023D01*
X202556845Y-49522023D01*
X202699702Y-49474404D01*
X203271130Y-48902976D01*
X203271130Y-49522023D01*
X202604464Y-50379166D02*
X203271130Y-50379166D01*
X202223511Y-50141071D02*
X202937797Y-49902976D01*
X202937797Y-50522023D01*
X193452380Y-29261904D02*
X192452380Y-29261904D01*
X192452380Y-29500000D01*
X192500000Y-29642857D01*
X192595238Y-29738095D01*
X192690476Y-29785714D01*
X192880952Y-29833333D01*
X193023809Y-29833333D01*
X193214285Y-29785714D01*
X193309523Y-29738095D01*
X193404761Y-29642857D01*
X193452380Y-29500000D01*
X193452380Y-29261904D01*
X193452380Y-30309523D02*
X193452380Y-30500000D01*
X193404761Y-30595238D01*
X193357142Y-30642857D01*
X193214285Y-30738095D01*
X193023809Y-30785714D01*
X192642857Y-30785714D01*
X192547619Y-30738095D01*
X192500000Y-30690476D01*
X192452380Y-30595238D01*
X192452380Y-30404761D01*
X192500000Y-30309523D01*
X192547619Y-30261904D01*
X192642857Y-30214285D01*
X192880952Y-30214285D01*
X192976190Y-30261904D01*
X193023809Y-30309523D01*
X193071428Y-30404761D01*
X193071428Y-30595238D01*
X193023809Y-30690476D01*
X192976190Y-30738095D01*
X192880952Y-30785714D01*
X198508630Y-85304464D02*
X197508630Y-85304464D01*
X197508630Y-85542559D01*
X197556250Y-85685416D01*
X197651488Y-85780654D01*
X197746726Y-85828273D01*
X197937202Y-85875892D01*
X198080059Y-85875892D01*
X198270535Y-85828273D01*
X198365773Y-85780654D01*
X198461011Y-85685416D01*
X198508630Y-85542559D01*
X198508630Y-85304464D01*
X197508630Y-86780654D02*
X197508630Y-86304464D01*
X197984821Y-86256845D01*
X197937202Y-86304464D01*
X197889583Y-86399702D01*
X197889583Y-86637797D01*
X197937202Y-86733035D01*
X197984821Y-86780654D01*
X198080059Y-86828273D01*
X198318154Y-86828273D01*
X198413392Y-86780654D01*
X198461011Y-86733035D01*
X198508630Y-86637797D01*
X198508630Y-86399702D01*
X198461011Y-86304464D01*
X198413392Y-86256845D01*
X197603869Y-87209226D02*
X197556250Y-87256845D01*
X197508630Y-87352083D01*
X197508630Y-87590178D01*
X197556250Y-87685416D01*
X197603869Y-87733035D01*
X197699107Y-87780654D01*
X197794345Y-87780654D01*
X197937202Y-87733035D01*
X198508630Y-87161607D01*
X198508630Y-87780654D01*
X188983630Y-67048214D02*
X187983630Y-67048214D01*
X187983630Y-67286309D01*
X188031250Y-67429166D01*
X188126488Y-67524404D01*
X188221726Y-67572023D01*
X188412202Y-67619642D01*
X188555059Y-67619642D01*
X188745535Y-67572023D01*
X188840773Y-67524404D01*
X188936011Y-67429166D01*
X188983630Y-67286309D01*
X188983630Y-67048214D01*
X187983630Y-67952976D02*
X187983630Y-68572023D01*
X188364583Y-68238690D01*
X188364583Y-68381547D01*
X188412202Y-68476785D01*
X188459821Y-68524404D01*
X188555059Y-68572023D01*
X188793154Y-68572023D01*
X188888392Y-68524404D01*
X188936011Y-68476785D01*
X188983630Y-68381547D01*
X188983630Y-68095833D01*
X188936011Y-68000595D01*
X188888392Y-67952976D01*
X188412202Y-69143452D02*
X188364583Y-69048214D01*
X188316964Y-69000595D01*
X188221726Y-68952976D01*
X188174107Y-68952976D01*
X188078869Y-69000595D01*
X188031250Y-69048214D01*
X187983630Y-69143452D01*
X187983630Y-69333928D01*
X188031250Y-69429166D01*
X188078869Y-69476785D01*
X188174107Y-69524404D01*
X188221726Y-69524404D01*
X188316964Y-69476785D01*
X188364583Y-69429166D01*
X188412202Y-69333928D01*
X188412202Y-69143452D01*
X188459821Y-69048214D01*
X188507440Y-69000595D01*
X188602678Y-68952976D01*
X188793154Y-68952976D01*
X188888392Y-69000595D01*
X188936011Y-69048214D01*
X188983630Y-69143452D01*
X188983630Y-69333928D01*
X188936011Y-69429166D01*
X188888392Y-69476785D01*
X188793154Y-69524404D01*
X188602678Y-69524404D01*
X188507440Y-69476785D01*
X188459821Y-69429166D01*
X188412202Y-69333928D01*
X184221130Y-47998214D02*
X183221130Y-47998214D01*
X183221130Y-48236309D01*
X183268750Y-48379166D01*
X183363988Y-48474404D01*
X183459226Y-48522023D01*
X183649702Y-48569642D01*
X183792559Y-48569642D01*
X183983035Y-48522023D01*
X184078273Y-48474404D01*
X184173511Y-48379166D01*
X184221130Y-48236309D01*
X184221130Y-47998214D01*
X183316369Y-48950595D02*
X183268750Y-48998214D01*
X183221130Y-49093452D01*
X183221130Y-49331547D01*
X183268750Y-49426785D01*
X183316369Y-49474404D01*
X183411607Y-49522023D01*
X183506845Y-49522023D01*
X183649702Y-49474404D01*
X184221130Y-48902976D01*
X184221130Y-49522023D01*
X183221130Y-49855357D02*
X183221130Y-50474404D01*
X183602083Y-50141071D01*
X183602083Y-50283928D01*
X183649702Y-50379166D01*
X183697321Y-50426785D01*
X183792559Y-50474404D01*
X184030654Y-50474404D01*
X184125892Y-50426785D01*
X184173511Y-50379166D01*
X184221130Y-50283928D01*
X184221130Y-49998214D01*
X184173511Y-49902976D01*
X184125892Y-49855357D01*
X158952380Y-29424404D02*
X157952380Y-29424404D01*
X157952380Y-29662500D01*
X158000000Y-29805357D01*
X158095238Y-29900595D01*
X158190476Y-29948214D01*
X158380952Y-29995833D01*
X158523809Y-29995833D01*
X158714285Y-29948214D01*
X158809523Y-29900595D01*
X158904761Y-29805357D01*
X158952380Y-29662500D01*
X158952380Y-29424404D01*
X158380952Y-30567261D02*
X158333333Y-30472023D01*
X158285714Y-30424404D01*
X158190476Y-30376785D01*
X158142857Y-30376785D01*
X158047619Y-30424404D01*
X158000000Y-30472023D01*
X157952380Y-30567261D01*
X157952380Y-30757738D01*
X158000000Y-30852976D01*
X158047619Y-30900595D01*
X158142857Y-30948214D01*
X158190476Y-30948214D01*
X158285714Y-30900595D01*
X158333333Y-30852976D01*
X158380952Y-30757738D01*
X158380952Y-30567261D01*
X158428571Y-30472023D01*
X158476190Y-30424404D01*
X158571428Y-30376785D01*
X158761904Y-30376785D01*
X158857142Y-30424404D01*
X158904761Y-30472023D01*
X158952380Y-30567261D01*
X158952380Y-30757738D01*
X158904761Y-30852976D01*
X158857142Y-30900595D01*
X158761904Y-30948214D01*
X158571428Y-30948214D01*
X158476190Y-30900595D01*
X158428571Y-30852976D01*
X158380952Y-30757738D01*
X178252380Y-85304464D02*
X177252380Y-85304464D01*
X177252380Y-85542559D01*
X177300000Y-85685416D01*
X177395238Y-85780654D01*
X177490476Y-85828273D01*
X177680952Y-85875892D01*
X177823809Y-85875892D01*
X178014285Y-85828273D01*
X178109523Y-85780654D01*
X178204761Y-85685416D01*
X178252380Y-85542559D01*
X178252380Y-85304464D01*
X177252380Y-86780654D02*
X177252380Y-86304464D01*
X177728571Y-86256845D01*
X177680952Y-86304464D01*
X177633333Y-86399702D01*
X177633333Y-86637797D01*
X177680952Y-86733035D01*
X177728571Y-86780654D01*
X177823809Y-86828273D01*
X178061904Y-86828273D01*
X178157142Y-86780654D01*
X178204761Y-86733035D01*
X178252380Y-86637797D01*
X178252380Y-86399702D01*
X178204761Y-86304464D01*
X178157142Y-86256845D01*
X178252380Y-87780654D02*
X178252380Y-87209226D01*
X178252380Y-87494940D02*
X177252380Y-87494940D01*
X177395238Y-87399702D01*
X177490476Y-87304464D01*
X177538095Y-87209226D01*
X169933630Y-67048214D02*
X168933630Y-67048214D01*
X168933630Y-67286309D01*
X168981250Y-67429166D01*
X169076488Y-67524404D01*
X169171726Y-67572023D01*
X169362202Y-67619642D01*
X169505059Y-67619642D01*
X169695535Y-67572023D01*
X169790773Y-67524404D01*
X169886011Y-67429166D01*
X169933630Y-67286309D01*
X169933630Y-67048214D01*
X168933630Y-67952976D02*
X168933630Y-68572023D01*
X169314583Y-68238690D01*
X169314583Y-68381547D01*
X169362202Y-68476785D01*
X169409821Y-68524404D01*
X169505059Y-68572023D01*
X169743154Y-68572023D01*
X169838392Y-68524404D01*
X169886011Y-68476785D01*
X169933630Y-68381547D01*
X169933630Y-68095833D01*
X169886011Y-68000595D01*
X169838392Y-67952976D01*
X168933630Y-68905357D02*
X168933630Y-69572023D01*
X169933630Y-69143452D01*
X165171130Y-47998214D02*
X164171130Y-47998214D01*
X164171130Y-48236309D01*
X164218750Y-48379166D01*
X164313988Y-48474404D01*
X164409226Y-48522023D01*
X164599702Y-48569642D01*
X164742559Y-48569642D01*
X164933035Y-48522023D01*
X165028273Y-48474404D01*
X165123511Y-48379166D01*
X165171130Y-48236309D01*
X165171130Y-47998214D01*
X164266369Y-48950595D02*
X164218750Y-48998214D01*
X164171130Y-49093452D01*
X164171130Y-49331547D01*
X164218750Y-49426785D01*
X164266369Y-49474404D01*
X164361607Y-49522023D01*
X164456845Y-49522023D01*
X164599702Y-49474404D01*
X165171130Y-48902976D01*
X165171130Y-49522023D01*
X164266369Y-49902976D02*
X164218750Y-49950595D01*
X164171130Y-50045833D01*
X164171130Y-50283928D01*
X164218750Y-50379166D01*
X164266369Y-50426785D01*
X164361607Y-50474404D01*
X164456845Y-50474404D01*
X164599702Y-50426785D01*
X165171130Y-49855357D01*
X165171130Y-50474404D01*
X155646130Y-29424404D02*
X154646130Y-29424404D01*
X154646130Y-29662500D01*
X154693750Y-29805357D01*
X154788988Y-29900595D01*
X154884226Y-29948214D01*
X155074702Y-29995833D01*
X155217559Y-29995833D01*
X155408035Y-29948214D01*
X155503273Y-29900595D01*
X155598511Y-29805357D01*
X155646130Y-29662500D01*
X155646130Y-29424404D01*
X154646130Y-30329166D02*
X154646130Y-30995833D01*
X155646130Y-30567261D01*
X174696130Y-105148214D02*
X173696130Y-105148214D01*
X173696130Y-105386309D01*
X173743750Y-105529166D01*
X173838988Y-105624404D01*
X173934226Y-105672023D01*
X174124702Y-105719642D01*
X174267559Y-105719642D01*
X174458035Y-105672023D01*
X174553273Y-105624404D01*
X174648511Y-105529166D01*
X174696130Y-105386309D01*
X174696130Y-105148214D01*
X173696130Y-106576785D02*
X173696130Y-106386309D01*
X173743750Y-106291071D01*
X173791369Y-106243452D01*
X173934226Y-106148214D01*
X174124702Y-106100595D01*
X174505654Y-106100595D01*
X174600892Y-106148214D01*
X174648511Y-106195833D01*
X174696130Y-106291071D01*
X174696130Y-106481547D01*
X174648511Y-106576785D01*
X174600892Y-106624404D01*
X174505654Y-106672023D01*
X174267559Y-106672023D01*
X174172321Y-106624404D01*
X174124702Y-106576785D01*
X174077083Y-106481547D01*
X174077083Y-106291071D01*
X174124702Y-106195833D01*
X174172321Y-106148214D01*
X174267559Y-106100595D01*
X173791369Y-107052976D02*
X173743750Y-107100595D01*
X173696130Y-107195833D01*
X173696130Y-107433928D01*
X173743750Y-107529166D01*
X173791369Y-107576785D01*
X173886607Y-107624404D01*
X173981845Y-107624404D01*
X174124702Y-107576785D01*
X174696130Y-107005357D01*
X174696130Y-107624404D01*
X160408630Y-85304464D02*
X159408630Y-85304464D01*
X159408630Y-85542559D01*
X159456250Y-85685416D01*
X159551488Y-85780654D01*
X159646726Y-85828273D01*
X159837202Y-85875892D01*
X159980059Y-85875892D01*
X160170535Y-85828273D01*
X160265773Y-85780654D01*
X160361011Y-85685416D01*
X160408630Y-85542559D01*
X160408630Y-85304464D01*
X159408630Y-86780654D02*
X159408630Y-86304464D01*
X159884821Y-86256845D01*
X159837202Y-86304464D01*
X159789583Y-86399702D01*
X159789583Y-86637797D01*
X159837202Y-86733035D01*
X159884821Y-86780654D01*
X159980059Y-86828273D01*
X160218154Y-86828273D01*
X160313392Y-86780654D01*
X160361011Y-86733035D01*
X160408630Y-86637797D01*
X160408630Y-86399702D01*
X160361011Y-86304464D01*
X160313392Y-86256845D01*
X159408630Y-87447321D02*
X159408630Y-87542559D01*
X159456250Y-87637797D01*
X159503869Y-87685416D01*
X159599107Y-87733035D01*
X159789583Y-87780654D01*
X160027678Y-87780654D01*
X160218154Y-87733035D01*
X160313392Y-87685416D01*
X160361011Y-87637797D01*
X160408630Y-87542559D01*
X160408630Y-87447321D01*
X160361011Y-87352083D01*
X160313392Y-87304464D01*
X160218154Y-87256845D01*
X160027678Y-87209226D01*
X159789583Y-87209226D01*
X159599107Y-87256845D01*
X159503869Y-87304464D01*
X159456250Y-87352083D01*
X159408630Y-87447321D01*
X150883630Y-67048214D02*
X149883630Y-67048214D01*
X149883630Y-67286309D01*
X149931250Y-67429166D01*
X150026488Y-67524404D01*
X150121726Y-67572023D01*
X150312202Y-67619642D01*
X150455059Y-67619642D01*
X150645535Y-67572023D01*
X150740773Y-67524404D01*
X150836011Y-67429166D01*
X150883630Y-67286309D01*
X150883630Y-67048214D01*
X149883630Y-67952976D02*
X149883630Y-68572023D01*
X150264583Y-68238690D01*
X150264583Y-68381547D01*
X150312202Y-68476785D01*
X150359821Y-68524404D01*
X150455059Y-68572023D01*
X150693154Y-68572023D01*
X150788392Y-68524404D01*
X150836011Y-68476785D01*
X150883630Y-68381547D01*
X150883630Y-68095833D01*
X150836011Y-68000595D01*
X150788392Y-67952976D01*
X149883630Y-69429166D02*
X149883630Y-69238690D01*
X149931250Y-69143452D01*
X149978869Y-69095833D01*
X150121726Y-69000595D01*
X150312202Y-68952976D01*
X150693154Y-68952976D01*
X150788392Y-69000595D01*
X150836011Y-69048214D01*
X150883630Y-69143452D01*
X150883630Y-69333928D01*
X150836011Y-69429166D01*
X150788392Y-69476785D01*
X150693154Y-69524404D01*
X150455059Y-69524404D01*
X150359821Y-69476785D01*
X150312202Y-69429166D01*
X150264583Y-69333928D01*
X150264583Y-69143452D01*
X150312202Y-69048214D01*
X150359821Y-69000595D01*
X150455059Y-68952976D01*
X146121130Y-47998214D02*
X145121130Y-47998214D01*
X145121130Y-48236309D01*
X145168750Y-48379166D01*
X145263988Y-48474404D01*
X145359226Y-48522023D01*
X145549702Y-48569642D01*
X145692559Y-48569642D01*
X145883035Y-48522023D01*
X145978273Y-48474404D01*
X146073511Y-48379166D01*
X146121130Y-48236309D01*
X146121130Y-47998214D01*
X145216369Y-48950595D02*
X145168750Y-48998214D01*
X145121130Y-49093452D01*
X145121130Y-49331547D01*
X145168750Y-49426785D01*
X145216369Y-49474404D01*
X145311607Y-49522023D01*
X145406845Y-49522023D01*
X145549702Y-49474404D01*
X146121130Y-48902976D01*
X146121130Y-49522023D01*
X146121130Y-50474404D02*
X146121130Y-49902976D01*
X146121130Y-50188690D02*
X145121130Y-50188690D01*
X145263988Y-50093452D01*
X145359226Y-49998214D01*
X145406845Y-49902976D01*
X136596130Y-29424404D02*
X135596130Y-29424404D01*
X135596130Y-29662500D01*
X135643750Y-29805357D01*
X135738988Y-29900595D01*
X135834226Y-29948214D01*
X136024702Y-29995833D01*
X136167559Y-29995833D01*
X136358035Y-29948214D01*
X136453273Y-29900595D01*
X136548511Y-29805357D01*
X136596130Y-29662500D01*
X136596130Y-29424404D01*
X135596130Y-30852976D02*
X135596130Y-30662500D01*
X135643750Y-30567261D01*
X135691369Y-30519642D01*
X135834226Y-30424404D01*
X136024702Y-30376785D01*
X136405654Y-30376785D01*
X136500892Y-30424404D01*
X136548511Y-30472023D01*
X136596130Y-30567261D01*
X136596130Y-30757738D01*
X136548511Y-30852976D01*
X136500892Y-30900595D01*
X136405654Y-30948214D01*
X136167559Y-30948214D01*
X136072321Y-30900595D01*
X136024702Y-30852976D01*
X135977083Y-30757738D01*
X135977083Y-30567261D01*
X136024702Y-30472023D01*
X136072321Y-30424404D01*
X136167559Y-30376785D01*
X141358630Y-85304464D02*
X140358630Y-85304464D01*
X140358630Y-85542559D01*
X140406250Y-85685416D01*
X140501488Y-85780654D01*
X140596726Y-85828273D01*
X140787202Y-85875892D01*
X140930059Y-85875892D01*
X141120535Y-85828273D01*
X141215773Y-85780654D01*
X141311011Y-85685416D01*
X141358630Y-85542559D01*
X141358630Y-85304464D01*
X140691964Y-86733035D02*
X141358630Y-86733035D01*
X140311011Y-86494940D02*
X141025297Y-86256845D01*
X141025297Y-86875892D01*
X141358630Y-87304464D02*
X141358630Y-87494940D01*
X141311011Y-87590178D01*
X141263392Y-87637797D01*
X141120535Y-87733035D01*
X140930059Y-87780654D01*
X140549107Y-87780654D01*
X140453869Y-87733035D01*
X140406250Y-87685416D01*
X140358630Y-87590178D01*
X140358630Y-87399702D01*
X140406250Y-87304464D01*
X140453869Y-87256845D01*
X140549107Y-87209226D01*
X140787202Y-87209226D01*
X140882440Y-87256845D01*
X140930059Y-87304464D01*
X140977678Y-87399702D01*
X140977678Y-87590178D01*
X140930059Y-87685416D01*
X140882440Y-87733035D01*
X140787202Y-87780654D01*
X131833630Y-67048214D02*
X130833630Y-67048214D01*
X130833630Y-67286309D01*
X130881250Y-67429166D01*
X130976488Y-67524404D01*
X131071726Y-67572023D01*
X131262202Y-67619642D01*
X131405059Y-67619642D01*
X131595535Y-67572023D01*
X131690773Y-67524404D01*
X131786011Y-67429166D01*
X131833630Y-67286309D01*
X131833630Y-67048214D01*
X130833630Y-67952976D02*
X130833630Y-68572023D01*
X131214583Y-68238690D01*
X131214583Y-68381547D01*
X131262202Y-68476785D01*
X131309821Y-68524404D01*
X131405059Y-68572023D01*
X131643154Y-68572023D01*
X131738392Y-68524404D01*
X131786011Y-68476785D01*
X131833630Y-68381547D01*
X131833630Y-68095833D01*
X131786011Y-68000595D01*
X131738392Y-67952976D01*
X130833630Y-69476785D02*
X130833630Y-69000595D01*
X131309821Y-68952976D01*
X131262202Y-69000595D01*
X131214583Y-69095833D01*
X131214583Y-69333928D01*
X131262202Y-69429166D01*
X131309821Y-69476785D01*
X131405059Y-69524404D01*
X131643154Y-69524404D01*
X131738392Y-69476785D01*
X131786011Y-69429166D01*
X131833630Y-69333928D01*
X131833630Y-69095833D01*
X131786011Y-69000595D01*
X131738392Y-68952976D01*
X127071130Y-47998214D02*
X126071130Y-47998214D01*
X126071130Y-48236309D01*
X126118750Y-48379166D01*
X126213988Y-48474404D01*
X126309226Y-48522023D01*
X126499702Y-48569642D01*
X126642559Y-48569642D01*
X126833035Y-48522023D01*
X126928273Y-48474404D01*
X127023511Y-48379166D01*
X127071130Y-48236309D01*
X127071130Y-47998214D01*
X126166369Y-48950595D02*
X126118750Y-48998214D01*
X126071130Y-49093452D01*
X126071130Y-49331547D01*
X126118750Y-49426785D01*
X126166369Y-49474404D01*
X126261607Y-49522023D01*
X126356845Y-49522023D01*
X126499702Y-49474404D01*
X127071130Y-48902976D01*
X127071130Y-49522023D01*
X126071130Y-50141071D02*
X126071130Y-50236309D01*
X126118750Y-50331547D01*
X126166369Y-50379166D01*
X126261607Y-50426785D01*
X126452083Y-50474404D01*
X126690178Y-50474404D01*
X126880654Y-50426785D01*
X126975892Y-50379166D01*
X127023511Y-50331547D01*
X127071130Y-50236309D01*
X127071130Y-50141071D01*
X127023511Y-50045833D01*
X126975892Y-49998214D01*
X126880654Y-49950595D01*
X126690178Y-49902976D01*
X126452083Y-49902976D01*
X126261607Y-49950595D01*
X126166369Y-49998214D01*
X126118750Y-50045833D01*
X126071130Y-50141071D01*
X117546130Y-29424404D02*
X116546130Y-29424404D01*
X116546130Y-29662500D01*
X116593750Y-29805357D01*
X116688988Y-29900595D01*
X116784226Y-29948214D01*
X116974702Y-29995833D01*
X117117559Y-29995833D01*
X117308035Y-29948214D01*
X117403273Y-29900595D01*
X117498511Y-29805357D01*
X117546130Y-29662500D01*
X117546130Y-29424404D01*
X116546130Y-30900595D02*
X116546130Y-30424404D01*
X117022321Y-30376785D01*
X116974702Y-30424404D01*
X116927083Y-30519642D01*
X116927083Y-30757738D01*
X116974702Y-30852976D01*
X117022321Y-30900595D01*
X117117559Y-30948214D01*
X117355654Y-30948214D01*
X117450892Y-30900595D01*
X117498511Y-30852976D01*
X117546130Y-30757738D01*
X117546130Y-30519642D01*
X117498511Y-30424404D01*
X117450892Y-30376785D01*
X122308630Y-85304464D02*
X121308630Y-85304464D01*
X121308630Y-85542559D01*
X121356250Y-85685416D01*
X121451488Y-85780654D01*
X121546726Y-85828273D01*
X121737202Y-85875892D01*
X121880059Y-85875892D01*
X122070535Y-85828273D01*
X122165773Y-85780654D01*
X122261011Y-85685416D01*
X122308630Y-85542559D01*
X122308630Y-85304464D01*
X121641964Y-86733035D02*
X122308630Y-86733035D01*
X121261011Y-86494940D02*
X121975297Y-86256845D01*
X121975297Y-86875892D01*
X121737202Y-87399702D02*
X121689583Y-87304464D01*
X121641964Y-87256845D01*
X121546726Y-87209226D01*
X121499107Y-87209226D01*
X121403869Y-87256845D01*
X121356250Y-87304464D01*
X121308630Y-87399702D01*
X121308630Y-87590178D01*
X121356250Y-87685416D01*
X121403869Y-87733035D01*
X121499107Y-87780654D01*
X121546726Y-87780654D01*
X121641964Y-87733035D01*
X121689583Y-87685416D01*
X121737202Y-87590178D01*
X121737202Y-87399702D01*
X121784821Y-87304464D01*
X121832440Y-87256845D01*
X121927678Y-87209226D01*
X122118154Y-87209226D01*
X122213392Y-87256845D01*
X122261011Y-87304464D01*
X122308630Y-87399702D01*
X122308630Y-87590178D01*
X122261011Y-87685416D01*
X122213392Y-87733035D01*
X122118154Y-87780654D01*
X121927678Y-87780654D01*
X121832440Y-87733035D01*
X121784821Y-87685416D01*
X121737202Y-87590178D01*
X112783630Y-67048214D02*
X111783630Y-67048214D01*
X111783630Y-67286309D01*
X111831250Y-67429166D01*
X111926488Y-67524404D01*
X112021726Y-67572023D01*
X112212202Y-67619642D01*
X112355059Y-67619642D01*
X112545535Y-67572023D01*
X112640773Y-67524404D01*
X112736011Y-67429166D01*
X112783630Y-67286309D01*
X112783630Y-67048214D01*
X111783630Y-67952976D02*
X111783630Y-68572023D01*
X112164583Y-68238690D01*
X112164583Y-68381547D01*
X112212202Y-68476785D01*
X112259821Y-68524404D01*
X112355059Y-68572023D01*
X112593154Y-68572023D01*
X112688392Y-68524404D01*
X112736011Y-68476785D01*
X112783630Y-68381547D01*
X112783630Y-68095833D01*
X112736011Y-68000595D01*
X112688392Y-67952976D01*
X112116964Y-69429166D02*
X112783630Y-69429166D01*
X111736011Y-69191071D02*
X112450297Y-68952976D01*
X112450297Y-69572023D01*
X108021130Y-47998214D02*
X107021130Y-47998214D01*
X107021130Y-48236309D01*
X107068750Y-48379166D01*
X107163988Y-48474404D01*
X107259226Y-48522023D01*
X107449702Y-48569642D01*
X107592559Y-48569642D01*
X107783035Y-48522023D01*
X107878273Y-48474404D01*
X107973511Y-48379166D01*
X108021130Y-48236309D01*
X108021130Y-47998214D01*
X108021130Y-49522023D02*
X108021130Y-48950595D01*
X108021130Y-49236309D02*
X107021130Y-49236309D01*
X107163988Y-49141071D01*
X107259226Y-49045833D01*
X107306845Y-48950595D01*
X108021130Y-49998214D02*
X108021130Y-50188690D01*
X107973511Y-50283928D01*
X107925892Y-50331547D01*
X107783035Y-50426785D01*
X107592559Y-50474404D01*
X107211607Y-50474404D01*
X107116369Y-50426785D01*
X107068750Y-50379166D01*
X107021130Y-50283928D01*
X107021130Y-50093452D01*
X107068750Y-49998214D01*
X107116369Y-49950595D01*
X107211607Y-49902976D01*
X107449702Y-49902976D01*
X107544940Y-49950595D01*
X107592559Y-49998214D01*
X107640178Y-50093452D01*
X107640178Y-50283928D01*
X107592559Y-50379166D01*
X107544940Y-50426785D01*
X107449702Y-50474404D01*
X98496130Y-29424404D02*
X97496130Y-29424404D01*
X97496130Y-29662500D01*
X97543750Y-29805357D01*
X97638988Y-29900595D01*
X97734226Y-29948214D01*
X97924702Y-29995833D01*
X98067559Y-29995833D01*
X98258035Y-29948214D01*
X98353273Y-29900595D01*
X98448511Y-29805357D01*
X98496130Y-29662500D01*
X98496130Y-29424404D01*
X97829464Y-30852976D02*
X98496130Y-30852976D01*
X97448511Y-30614880D02*
X98162797Y-30376785D01*
X98162797Y-30995833D01*
X98496130Y-105148214D02*
X97496130Y-105148214D01*
X97496130Y-105386309D01*
X97543750Y-105529166D01*
X97638988Y-105624404D01*
X97734226Y-105672023D01*
X97924702Y-105719642D01*
X98067559Y-105719642D01*
X98258035Y-105672023D01*
X98353273Y-105624404D01*
X98448511Y-105529166D01*
X98496130Y-105386309D01*
X98496130Y-105148214D01*
X97496130Y-106576785D02*
X97496130Y-106386309D01*
X97543750Y-106291071D01*
X97591369Y-106243452D01*
X97734226Y-106148214D01*
X97924702Y-106100595D01*
X98305654Y-106100595D01*
X98400892Y-106148214D01*
X98448511Y-106195833D01*
X98496130Y-106291071D01*
X98496130Y-106481547D01*
X98448511Y-106576785D01*
X98400892Y-106624404D01*
X98305654Y-106672023D01*
X98067559Y-106672023D01*
X97972321Y-106624404D01*
X97924702Y-106576785D01*
X97877083Y-106481547D01*
X97877083Y-106291071D01*
X97924702Y-106195833D01*
X97972321Y-106148214D01*
X98067559Y-106100595D01*
X98496130Y-107624404D02*
X98496130Y-107052976D01*
X98496130Y-107338690D02*
X97496130Y-107338690D01*
X97638988Y-107243452D01*
X97734226Y-107148214D01*
X97781845Y-107052976D01*
X103258630Y-85304464D02*
X102258630Y-85304464D01*
X102258630Y-85542559D01*
X102306250Y-85685416D01*
X102401488Y-85780654D01*
X102496726Y-85828273D01*
X102687202Y-85875892D01*
X102830059Y-85875892D01*
X103020535Y-85828273D01*
X103115773Y-85780654D01*
X103211011Y-85685416D01*
X103258630Y-85542559D01*
X103258630Y-85304464D01*
X102591964Y-86733035D02*
X103258630Y-86733035D01*
X102211011Y-86494940D02*
X102925297Y-86256845D01*
X102925297Y-86875892D01*
X102258630Y-87161607D02*
X102258630Y-87828273D01*
X103258630Y-87399702D01*
X93733630Y-67048214D02*
X92733630Y-67048214D01*
X92733630Y-67286309D01*
X92781250Y-67429166D01*
X92876488Y-67524404D01*
X92971726Y-67572023D01*
X93162202Y-67619642D01*
X93305059Y-67619642D01*
X93495535Y-67572023D01*
X93590773Y-67524404D01*
X93686011Y-67429166D01*
X93733630Y-67286309D01*
X93733630Y-67048214D01*
X92733630Y-67952976D02*
X92733630Y-68572023D01*
X93114583Y-68238690D01*
X93114583Y-68381547D01*
X93162202Y-68476785D01*
X93209821Y-68524404D01*
X93305059Y-68572023D01*
X93543154Y-68572023D01*
X93638392Y-68524404D01*
X93686011Y-68476785D01*
X93733630Y-68381547D01*
X93733630Y-68095833D01*
X93686011Y-68000595D01*
X93638392Y-67952976D01*
X92733630Y-68905357D02*
X92733630Y-69524404D01*
X93114583Y-69191071D01*
X93114583Y-69333928D01*
X93162202Y-69429166D01*
X93209821Y-69476785D01*
X93305059Y-69524404D01*
X93543154Y-69524404D01*
X93638392Y-69476785D01*
X93686011Y-69429166D01*
X93733630Y-69333928D01*
X93733630Y-69048214D01*
X93686011Y-68952976D01*
X93638392Y-68905357D01*
X88971130Y-47998214D02*
X87971130Y-47998214D01*
X87971130Y-48236309D01*
X88018750Y-48379166D01*
X88113988Y-48474404D01*
X88209226Y-48522023D01*
X88399702Y-48569642D01*
X88542559Y-48569642D01*
X88733035Y-48522023D01*
X88828273Y-48474404D01*
X88923511Y-48379166D01*
X88971130Y-48236309D01*
X88971130Y-47998214D01*
X88971130Y-49522023D02*
X88971130Y-48950595D01*
X88971130Y-49236309D02*
X87971130Y-49236309D01*
X88113988Y-49141071D01*
X88209226Y-49045833D01*
X88256845Y-48950595D01*
X88399702Y-50093452D02*
X88352083Y-49998214D01*
X88304464Y-49950595D01*
X88209226Y-49902976D01*
X88161607Y-49902976D01*
X88066369Y-49950595D01*
X88018750Y-49998214D01*
X87971130Y-50093452D01*
X87971130Y-50283928D01*
X88018750Y-50379166D01*
X88066369Y-50426785D01*
X88161607Y-50474404D01*
X88209226Y-50474404D01*
X88304464Y-50426785D01*
X88352083Y-50379166D01*
X88399702Y-50283928D01*
X88399702Y-50093452D01*
X88447321Y-49998214D01*
X88494940Y-49950595D01*
X88590178Y-49902976D01*
X88780654Y-49902976D01*
X88875892Y-49950595D01*
X88923511Y-49998214D01*
X88971130Y-50093452D01*
X88971130Y-50283928D01*
X88923511Y-50379166D01*
X88875892Y-50426785D01*
X88780654Y-50474404D01*
X88590178Y-50474404D01*
X88494940Y-50426785D01*
X88447321Y-50379166D01*
X88399702Y-50283928D01*
X79446130Y-29424404D02*
X78446130Y-29424404D01*
X78446130Y-29662500D01*
X78493750Y-29805357D01*
X78588988Y-29900595D01*
X78684226Y-29948214D01*
X78874702Y-29995833D01*
X79017559Y-29995833D01*
X79208035Y-29948214D01*
X79303273Y-29900595D01*
X79398511Y-29805357D01*
X79446130Y-29662500D01*
X79446130Y-29424404D01*
X78446130Y-30329166D02*
X78446130Y-30948214D01*
X78827083Y-30614880D01*
X78827083Y-30757738D01*
X78874702Y-30852976D01*
X78922321Y-30900595D01*
X79017559Y-30948214D01*
X79255654Y-30948214D01*
X79350892Y-30900595D01*
X79398511Y-30852976D01*
X79446130Y-30757738D01*
X79446130Y-30472023D01*
X79398511Y-30376785D01*
X79350892Y-30329166D01*
X72302380Y-105148214D02*
X71302380Y-105148214D01*
X71302380Y-105386309D01*
X71350000Y-105529166D01*
X71445238Y-105624404D01*
X71540476Y-105672023D01*
X71730952Y-105719642D01*
X71873809Y-105719642D01*
X72064285Y-105672023D01*
X72159523Y-105624404D01*
X72254761Y-105529166D01*
X72302380Y-105386309D01*
X72302380Y-105148214D01*
X71302380Y-106576785D02*
X71302380Y-106386309D01*
X71350000Y-106291071D01*
X71397619Y-106243452D01*
X71540476Y-106148214D01*
X71730952Y-106100595D01*
X72111904Y-106100595D01*
X72207142Y-106148214D01*
X72254761Y-106195833D01*
X72302380Y-106291071D01*
X72302380Y-106481547D01*
X72254761Y-106576785D01*
X72207142Y-106624404D01*
X72111904Y-106672023D01*
X71873809Y-106672023D01*
X71778571Y-106624404D01*
X71730952Y-106576785D01*
X71683333Y-106481547D01*
X71683333Y-106291071D01*
X71730952Y-106195833D01*
X71778571Y-106148214D01*
X71873809Y-106100595D01*
X71302380Y-107291071D02*
X71302380Y-107386309D01*
X71350000Y-107481547D01*
X71397619Y-107529166D01*
X71492857Y-107576785D01*
X71683333Y-107624404D01*
X71921428Y-107624404D01*
X72111904Y-107576785D01*
X72207142Y-107529166D01*
X72254761Y-107481547D01*
X72302380Y-107386309D01*
X72302380Y-107291071D01*
X72254761Y-107195833D01*
X72207142Y-107148214D01*
X72111904Y-107100595D01*
X71921428Y-107052976D01*
X71683333Y-107052976D01*
X71492857Y-107100595D01*
X71397619Y-107148214D01*
X71350000Y-107195833D01*
X71302380Y-107291071D01*
X84208630Y-85304464D02*
X83208630Y-85304464D01*
X83208630Y-85542559D01*
X83256250Y-85685416D01*
X83351488Y-85780654D01*
X83446726Y-85828273D01*
X83637202Y-85875892D01*
X83780059Y-85875892D01*
X83970535Y-85828273D01*
X84065773Y-85780654D01*
X84161011Y-85685416D01*
X84208630Y-85542559D01*
X84208630Y-85304464D01*
X83541964Y-86733035D02*
X84208630Y-86733035D01*
X83161011Y-86494940D02*
X83875297Y-86256845D01*
X83875297Y-86875892D01*
X83208630Y-87685416D02*
X83208630Y-87494940D01*
X83256250Y-87399702D01*
X83303869Y-87352083D01*
X83446726Y-87256845D01*
X83637202Y-87209226D01*
X84018154Y-87209226D01*
X84113392Y-87256845D01*
X84161011Y-87304464D01*
X84208630Y-87399702D01*
X84208630Y-87590178D01*
X84161011Y-87685416D01*
X84113392Y-87733035D01*
X84018154Y-87780654D01*
X83780059Y-87780654D01*
X83684821Y-87733035D01*
X83637202Y-87685416D01*
X83589583Y-87590178D01*
X83589583Y-87399702D01*
X83637202Y-87304464D01*
X83684821Y-87256845D01*
X83780059Y-87209226D01*
X74683630Y-67048214D02*
X73683630Y-67048214D01*
X73683630Y-67286309D01*
X73731250Y-67429166D01*
X73826488Y-67524404D01*
X73921726Y-67572023D01*
X74112202Y-67619642D01*
X74255059Y-67619642D01*
X74445535Y-67572023D01*
X74540773Y-67524404D01*
X74636011Y-67429166D01*
X74683630Y-67286309D01*
X74683630Y-67048214D01*
X73683630Y-67952976D02*
X73683630Y-68572023D01*
X74064583Y-68238690D01*
X74064583Y-68381547D01*
X74112202Y-68476785D01*
X74159821Y-68524404D01*
X74255059Y-68572023D01*
X74493154Y-68572023D01*
X74588392Y-68524404D01*
X74636011Y-68476785D01*
X74683630Y-68381547D01*
X74683630Y-68095833D01*
X74636011Y-68000595D01*
X74588392Y-67952976D01*
X73778869Y-68952976D02*
X73731250Y-69000595D01*
X73683630Y-69095833D01*
X73683630Y-69333928D01*
X73731250Y-69429166D01*
X73778869Y-69476785D01*
X73874107Y-69524404D01*
X73969345Y-69524404D01*
X74112202Y-69476785D01*
X74683630Y-68905357D01*
X74683630Y-69524404D01*
X69921130Y-47998214D02*
X68921130Y-47998214D01*
X68921130Y-48236309D01*
X68968750Y-48379166D01*
X69063988Y-48474404D01*
X69159226Y-48522023D01*
X69349702Y-48569642D01*
X69492559Y-48569642D01*
X69683035Y-48522023D01*
X69778273Y-48474404D01*
X69873511Y-48379166D01*
X69921130Y-48236309D01*
X69921130Y-47998214D01*
X69921130Y-49522023D02*
X69921130Y-48950595D01*
X69921130Y-49236309D02*
X68921130Y-49236309D01*
X69063988Y-49141071D01*
X69159226Y-49045833D01*
X69206845Y-48950595D01*
X68921130Y-49855357D02*
X68921130Y-50522023D01*
X69921130Y-50093452D01*
X60396130Y-29424404D02*
X59396130Y-29424404D01*
X59396130Y-29662500D01*
X59443750Y-29805357D01*
X59538988Y-29900595D01*
X59634226Y-29948214D01*
X59824702Y-29995833D01*
X59967559Y-29995833D01*
X60158035Y-29948214D01*
X60253273Y-29900595D01*
X60348511Y-29805357D01*
X60396130Y-29662500D01*
X60396130Y-29424404D01*
X59491369Y-30376785D02*
X59443750Y-30424404D01*
X59396130Y-30519642D01*
X59396130Y-30757738D01*
X59443750Y-30852976D01*
X59491369Y-30900595D01*
X59586607Y-30948214D01*
X59681845Y-30948214D01*
X59824702Y-30900595D01*
X60396130Y-30329166D01*
X60396130Y-30948214D01*
X46108630Y-105148214D02*
X45108630Y-105148214D01*
X45108630Y-105386309D01*
X45156250Y-105529166D01*
X45251488Y-105624404D01*
X45346726Y-105672023D01*
X45537202Y-105719642D01*
X45680059Y-105719642D01*
X45870535Y-105672023D01*
X45965773Y-105624404D01*
X46061011Y-105529166D01*
X46108630Y-105386309D01*
X46108630Y-105148214D01*
X45108630Y-106624404D02*
X45108630Y-106148214D01*
X45584821Y-106100595D01*
X45537202Y-106148214D01*
X45489583Y-106243452D01*
X45489583Y-106481547D01*
X45537202Y-106576785D01*
X45584821Y-106624404D01*
X45680059Y-106672023D01*
X45918154Y-106672023D01*
X46013392Y-106624404D01*
X46061011Y-106576785D01*
X46108630Y-106481547D01*
X46108630Y-106243452D01*
X46061011Y-106148214D01*
X46013392Y-106100595D01*
X46108630Y-107148214D02*
X46108630Y-107338690D01*
X46061011Y-107433928D01*
X46013392Y-107481547D01*
X45870535Y-107576785D01*
X45680059Y-107624404D01*
X45299107Y-107624404D01*
X45203869Y-107576785D01*
X45156250Y-107529166D01*
X45108630Y-107433928D01*
X45108630Y-107243452D01*
X45156250Y-107148214D01*
X45203869Y-107100595D01*
X45299107Y-107052976D01*
X45537202Y-107052976D01*
X45632440Y-107100595D01*
X45680059Y-107148214D01*
X45727678Y-107243452D01*
X45727678Y-107433928D01*
X45680059Y-107529166D01*
X45632440Y-107576785D01*
X45537202Y-107624404D01*
X53252380Y-85304464D02*
X52252380Y-85304464D01*
X52252380Y-85542559D01*
X52300000Y-85685416D01*
X52395238Y-85780654D01*
X52490476Y-85828273D01*
X52680952Y-85875892D01*
X52823809Y-85875892D01*
X53014285Y-85828273D01*
X53109523Y-85780654D01*
X53204761Y-85685416D01*
X53252380Y-85542559D01*
X53252380Y-85304464D01*
X52585714Y-86733035D02*
X53252380Y-86733035D01*
X52204761Y-86494940D02*
X52919047Y-86256845D01*
X52919047Y-86875892D01*
X52252380Y-87733035D02*
X52252380Y-87256845D01*
X52728571Y-87209226D01*
X52680952Y-87256845D01*
X52633333Y-87352083D01*
X52633333Y-87590178D01*
X52680952Y-87685416D01*
X52728571Y-87733035D01*
X52823809Y-87780654D01*
X53061904Y-87780654D01*
X53157142Y-87733035D01*
X53204761Y-87685416D01*
X53252380Y-87590178D01*
X53252380Y-87352083D01*
X53204761Y-87256845D01*
X53157142Y-87209226D01*
X49283630Y-67048214D02*
X48283630Y-67048214D01*
X48283630Y-67286309D01*
X48331250Y-67429166D01*
X48426488Y-67524404D01*
X48521726Y-67572023D01*
X48712202Y-67619642D01*
X48855059Y-67619642D01*
X49045535Y-67572023D01*
X49140773Y-67524404D01*
X49236011Y-67429166D01*
X49283630Y-67286309D01*
X49283630Y-67048214D01*
X48283630Y-67952976D02*
X48283630Y-68572023D01*
X48664583Y-68238690D01*
X48664583Y-68381547D01*
X48712202Y-68476785D01*
X48759821Y-68524404D01*
X48855059Y-68572023D01*
X49093154Y-68572023D01*
X49188392Y-68524404D01*
X49236011Y-68476785D01*
X49283630Y-68381547D01*
X49283630Y-68095833D01*
X49236011Y-68000595D01*
X49188392Y-67952976D01*
X49283630Y-69524404D02*
X49283630Y-68952976D01*
X49283630Y-69238690D02*
X48283630Y-69238690D01*
X48426488Y-69143452D01*
X48521726Y-69048214D01*
X48569345Y-68952976D01*
X46108630Y-47998214D02*
X45108630Y-47998214D01*
X45108630Y-48236309D01*
X45156250Y-48379166D01*
X45251488Y-48474404D01*
X45346726Y-48522023D01*
X45537202Y-48569642D01*
X45680059Y-48569642D01*
X45870535Y-48522023D01*
X45965773Y-48474404D01*
X46061011Y-48379166D01*
X46108630Y-48236309D01*
X46108630Y-47998214D01*
X46108630Y-49522023D02*
X46108630Y-48950595D01*
X46108630Y-49236309D02*
X45108630Y-49236309D01*
X45251488Y-49141071D01*
X45346726Y-49045833D01*
X45394345Y-48950595D01*
X45108630Y-50379166D02*
X45108630Y-50188690D01*
X45156250Y-50093452D01*
X45203869Y-50045833D01*
X45346726Y-49950595D01*
X45537202Y-49902976D01*
X45918154Y-49902976D01*
X46013392Y-49950595D01*
X46061011Y-49998214D01*
X46108630Y-50093452D01*
X46108630Y-50283928D01*
X46061011Y-50379166D01*
X46013392Y-50426785D01*
X45918154Y-50474404D01*
X45680059Y-50474404D01*
X45584821Y-50426785D01*
X45537202Y-50379166D01*
X45489583Y-50283928D01*
X45489583Y-50093452D01*
X45537202Y-49998214D01*
X45584821Y-49950595D01*
X45680059Y-49902976D01*
X40552380Y-29424404D02*
X39552380Y-29424404D01*
X39552380Y-29662500D01*
X39600000Y-29805357D01*
X39695238Y-29900595D01*
X39790476Y-29948214D01*
X39980952Y-29995833D01*
X40123809Y-29995833D01*
X40314285Y-29948214D01*
X40409523Y-29900595D01*
X40504761Y-29805357D01*
X40552380Y-29662500D01*
X40552380Y-29424404D01*
X40552380Y-30948214D02*
X40552380Y-30376785D01*
X40552380Y-30662500D02*
X39552380Y-30662500D01*
X39695238Y-30567261D01*
X39790476Y-30472023D01*
X39838095Y-30376785D01*
%LPC*%
D12*
G36*
X205755505Y-112650311D02*
G01*
X205781925Y-112654230D01*
X205807835Y-112660720D01*
X205832983Y-112669718D01*
X205857128Y-112681138D01*
X205880038Y-112694869D01*
X205901492Y-112710780D01*
X205921282Y-112728718D01*
X205939220Y-112748508D01*
X205955131Y-112769962D01*
X205968862Y-112792872D01*
X205980282Y-112817017D01*
X205989280Y-112842165D01*
X205995770Y-112868075D01*
X205999689Y-112894495D01*
X206001000Y-112921173D01*
X206001000Y-113628827D01*
X205999689Y-113655505D01*
X205995770Y-113681925D01*
X205989280Y-113707835D01*
X205980282Y-113732983D01*
X205968862Y-113757128D01*
X205955131Y-113780038D01*
X205939220Y-113801492D01*
X205921282Y-113821282D01*
X205901492Y-113839220D01*
X205880038Y-113855131D01*
X205857128Y-113868862D01*
X205832983Y-113880282D01*
X205807835Y-113889280D01*
X205781925Y-113895770D01*
X205755505Y-113899689D01*
X205728827Y-113901000D01*
X204771173Y-113901000D01*
X204744495Y-113899689D01*
X204718075Y-113895770D01*
X204692165Y-113889280D01*
X204667017Y-113880282D01*
X204642872Y-113868862D01*
X204619962Y-113855131D01*
X204598508Y-113839220D01*
X204578718Y-113821282D01*
X204560780Y-113801492D01*
X204544869Y-113780038D01*
X204531138Y-113757128D01*
X204519718Y-113732983D01*
X204510720Y-113707835D01*
X204504230Y-113681925D01*
X204500311Y-113655505D01*
X204499000Y-113628827D01*
X204499000Y-112921173D01*
X204500311Y-112894495D01*
X204504230Y-112868075D01*
X204510720Y-112842165D01*
X204519718Y-112817017D01*
X204531138Y-112792872D01*
X204544869Y-112769962D01*
X204560780Y-112748508D01*
X204578718Y-112728718D01*
X204598508Y-112710780D01*
X204619962Y-112694869D01*
X204642872Y-112681138D01*
X204667017Y-112669718D01*
X204692165Y-112660720D01*
X204718075Y-112654230D01*
X204744495Y-112650311D01*
X204771173Y-112649000D01*
X205728827Y-112649000D01*
X205755505Y-112650311D01*
G37*
G36*
X205755505Y-110600311D02*
G01*
X205781925Y-110604230D01*
X205807835Y-110610720D01*
X205832983Y-110619718D01*
X205857128Y-110631138D01*
X205880038Y-110644869D01*
X205901492Y-110660780D01*
X205921282Y-110678718D01*
X205939220Y-110698508D01*
X205955131Y-110719962D01*
X205968862Y-110742872D01*
X205980282Y-110767017D01*
X205989280Y-110792165D01*
X205995770Y-110818075D01*
X205999689Y-110844495D01*
X206001000Y-110871173D01*
X206001000Y-111578827D01*
X205999689Y-111605505D01*
X205995770Y-111631925D01*
X205989280Y-111657835D01*
X205980282Y-111682983D01*
X205968862Y-111707128D01*
X205955131Y-111730038D01*
X205939220Y-111751492D01*
X205921282Y-111771282D01*
X205901492Y-111789220D01*
X205880038Y-111805131D01*
X205857128Y-111818862D01*
X205832983Y-111830282D01*
X205807835Y-111839280D01*
X205781925Y-111845770D01*
X205755505Y-111849689D01*
X205728827Y-111851000D01*
X204771173Y-111851000D01*
X204744495Y-111849689D01*
X204718075Y-111845770D01*
X204692165Y-111839280D01*
X204667017Y-111830282D01*
X204642872Y-111818862D01*
X204619962Y-111805131D01*
X204598508Y-111789220D01*
X204578718Y-111771282D01*
X204560780Y-111751492D01*
X204544869Y-111730038D01*
X204531138Y-111707128D01*
X204519718Y-111682983D01*
X204510720Y-111657835D01*
X204504230Y-111631925D01*
X204500311Y-111605505D01*
X204499000Y-111578827D01*
X204499000Y-110871173D01*
X204500311Y-110844495D01*
X204504230Y-110818075D01*
X204510720Y-110792165D01*
X204519718Y-110767017D01*
X204531138Y-110742872D01*
X204544869Y-110719962D01*
X204560780Y-110698508D01*
X204578718Y-110678718D01*
X204598508Y-110660780D01*
X204619962Y-110644869D01*
X204642872Y-110631138D01*
X204667017Y-110619718D01*
X204692165Y-110610720D01*
X204718075Y-110604230D01*
X204744495Y-110600311D01*
X204771173Y-110599000D01*
X205728827Y-110599000D01*
X205755505Y-110600311D01*
G37*
G36*
X205339850Y-98865147D02*
G01*
X205366270Y-98869066D01*
X205392180Y-98875556D01*
X205417328Y-98884554D01*
X205441473Y-98895974D01*
X205464383Y-98909705D01*
X205485837Y-98925616D01*
X205505627Y-98943554D01*
X206006014Y-99443941D01*
X206023952Y-99463731D01*
X206039863Y-99485185D01*
X206053594Y-99508095D01*
X206065014Y-99532240D01*
X206074012Y-99557388D01*
X206080502Y-99583298D01*
X206084421Y-99609718D01*
X206085732Y-99636396D01*
X206084421Y-99663074D01*
X206080502Y-99689494D01*
X206074012Y-99715404D01*
X206065014Y-99740552D01*
X206053594Y-99764697D01*
X206039863Y-99787607D01*
X206023952Y-99809061D01*
X206006014Y-99828851D01*
X205328851Y-100506014D01*
X205309061Y-100523952D01*
X205287607Y-100539863D01*
X205264697Y-100553594D01*
X205240552Y-100565014D01*
X205215404Y-100574012D01*
X205189494Y-100580502D01*
X205163074Y-100584421D01*
X205136396Y-100585732D01*
X205109718Y-100584421D01*
X205083298Y-100580502D01*
X205057388Y-100574012D01*
X205032240Y-100565014D01*
X205008095Y-100553594D01*
X204985185Y-100539863D01*
X204963731Y-100523952D01*
X204943941Y-100506014D01*
X204443554Y-100005627D01*
X204425616Y-99985837D01*
X204409705Y-99964383D01*
X204395974Y-99941473D01*
X204384554Y-99917328D01*
X204375556Y-99892180D01*
X204369066Y-99866270D01*
X204365147Y-99839850D01*
X204363836Y-99813172D01*
X204365147Y-99786494D01*
X204369066Y-99760074D01*
X204375556Y-99734164D01*
X204384554Y-99709016D01*
X204395974Y-99684871D01*
X204409705Y-99661961D01*
X204425616Y-99640507D01*
X204443554Y-99620717D01*
X205120717Y-98943554D01*
X205140507Y-98925616D01*
X205161961Y-98909705D01*
X205184871Y-98895974D01*
X205209016Y-98884554D01*
X205234164Y-98875556D01*
X205260074Y-98869066D01*
X205286494Y-98865147D01*
X205313172Y-98863836D01*
X205339850Y-98865147D01*
G37*
G36*
X203890282Y-97415579D02*
G01*
X203916702Y-97419498D01*
X203942612Y-97425988D01*
X203967760Y-97434986D01*
X203991905Y-97446406D01*
X204014815Y-97460137D01*
X204036269Y-97476048D01*
X204056059Y-97493986D01*
X204556446Y-97994373D01*
X204574384Y-98014163D01*
X204590295Y-98035617D01*
X204604026Y-98058527D01*
X204615446Y-98082672D01*
X204624444Y-98107820D01*
X204630934Y-98133730D01*
X204634853Y-98160150D01*
X204636164Y-98186828D01*
X204634853Y-98213506D01*
X204630934Y-98239926D01*
X204624444Y-98265836D01*
X204615446Y-98290984D01*
X204604026Y-98315129D01*
X204590295Y-98338039D01*
X204574384Y-98359493D01*
X204556446Y-98379283D01*
X203879283Y-99056446D01*
X203859493Y-99074384D01*
X203838039Y-99090295D01*
X203815129Y-99104026D01*
X203790984Y-99115446D01*
X203765836Y-99124444D01*
X203739926Y-99130934D01*
X203713506Y-99134853D01*
X203686828Y-99136164D01*
X203660150Y-99134853D01*
X203633730Y-99130934D01*
X203607820Y-99124444D01*
X203582672Y-99115446D01*
X203558527Y-99104026D01*
X203535617Y-99090295D01*
X203514163Y-99074384D01*
X203494373Y-99056446D01*
X202993986Y-98556059D01*
X202976048Y-98536269D01*
X202960137Y-98514815D01*
X202946406Y-98491905D01*
X202934986Y-98467760D01*
X202925988Y-98442612D01*
X202919498Y-98416702D01*
X202915579Y-98390282D01*
X202914268Y-98363604D01*
X202915579Y-98336926D01*
X202919498Y-98310506D01*
X202925988Y-98284596D01*
X202934986Y-98259448D01*
X202946406Y-98235303D01*
X202960137Y-98212393D01*
X202976048Y-98190939D01*
X202993986Y-98171149D01*
X203671149Y-97493986D01*
X203690939Y-97476048D01*
X203712393Y-97460137D01*
X203735303Y-97446406D01*
X203759448Y-97434986D01*
X203784596Y-97425988D01*
X203810506Y-97419498D01*
X203836926Y-97415579D01*
X203863604Y-97414268D01*
X203890282Y-97415579D01*
G37*
G36*
X211390282Y-90165579D02*
G01*
X211416702Y-90169498D01*
X211442612Y-90175988D01*
X211467760Y-90184986D01*
X211491905Y-90196406D01*
X211514815Y-90210137D01*
X211536269Y-90226048D01*
X211556059Y-90243986D01*
X212056446Y-90744373D01*
X212074384Y-90764163D01*
X212090295Y-90785617D01*
X212104026Y-90808527D01*
X212115446Y-90832672D01*
X212124444Y-90857820D01*
X212130934Y-90883730D01*
X212134853Y-90910150D01*
X212136164Y-90936828D01*
X212134853Y-90963506D01*
X212130934Y-90989926D01*
X212124444Y-91015836D01*
X212115446Y-91040984D01*
X212104026Y-91065129D01*
X212090295Y-91088039D01*
X212074384Y-91109493D01*
X212056446Y-91129283D01*
X211379283Y-91806446D01*
X211359493Y-91824384D01*
X211338039Y-91840295D01*
X211315129Y-91854026D01*
X211290984Y-91865446D01*
X211265836Y-91874444D01*
X211239926Y-91880934D01*
X211213506Y-91884853D01*
X211186828Y-91886164D01*
X211160150Y-91884853D01*
X211133730Y-91880934D01*
X211107820Y-91874444D01*
X211082672Y-91865446D01*
X211058527Y-91854026D01*
X211035617Y-91840295D01*
X211014163Y-91824384D01*
X210994373Y-91806446D01*
X210493986Y-91306059D01*
X210476048Y-91286269D01*
X210460137Y-91264815D01*
X210446406Y-91241905D01*
X210434986Y-91217760D01*
X210425988Y-91192612D01*
X210419498Y-91166702D01*
X210415579Y-91140282D01*
X210414268Y-91113604D01*
X210415579Y-91086926D01*
X210419498Y-91060506D01*
X210425988Y-91034596D01*
X210434986Y-91009448D01*
X210446406Y-90985303D01*
X210460137Y-90962393D01*
X210476048Y-90940939D01*
X210493986Y-90921149D01*
X211171149Y-90243986D01*
X211190939Y-90226048D01*
X211212393Y-90210137D01*
X211235303Y-90196406D01*
X211259448Y-90184986D01*
X211284596Y-90175988D01*
X211310506Y-90169498D01*
X211336926Y-90165579D01*
X211363604Y-90164268D01*
X211390282Y-90165579D01*
G37*
G36*
X212839850Y-91615147D02*
G01*
X212866270Y-91619066D01*
X212892180Y-91625556D01*
X212917328Y-91634554D01*
X212941473Y-91645974D01*
X212964383Y-91659705D01*
X212985837Y-91675616D01*
X213005627Y-91693554D01*
X213506014Y-92193941D01*
X213523952Y-92213731D01*
X213539863Y-92235185D01*
X213553594Y-92258095D01*
X213565014Y-92282240D01*
X213574012Y-92307388D01*
X213580502Y-92333298D01*
X213584421Y-92359718D01*
X213585732Y-92386396D01*
X213584421Y-92413074D01*
X213580502Y-92439494D01*
X213574012Y-92465404D01*
X213565014Y-92490552D01*
X213553594Y-92514697D01*
X213539863Y-92537607D01*
X213523952Y-92559061D01*
X213506014Y-92578851D01*
X212828851Y-93256014D01*
X212809061Y-93273952D01*
X212787607Y-93289863D01*
X212764697Y-93303594D01*
X212740552Y-93315014D01*
X212715404Y-93324012D01*
X212689494Y-93330502D01*
X212663074Y-93334421D01*
X212636396Y-93335732D01*
X212609718Y-93334421D01*
X212583298Y-93330502D01*
X212557388Y-93324012D01*
X212532240Y-93315014D01*
X212508095Y-93303594D01*
X212485185Y-93289863D01*
X212463731Y-93273952D01*
X212443941Y-93256014D01*
X211943554Y-92755627D01*
X211925616Y-92735837D01*
X211909705Y-92714383D01*
X211895974Y-92691473D01*
X211884554Y-92667328D01*
X211875556Y-92642180D01*
X211869066Y-92616270D01*
X211865147Y-92589850D01*
X211863836Y-92563172D01*
X211865147Y-92536494D01*
X211869066Y-92510074D01*
X211875556Y-92484164D01*
X211884554Y-92459016D01*
X211895974Y-92434871D01*
X211909705Y-92411961D01*
X211925616Y-92390507D01*
X211943554Y-92370717D01*
X212620717Y-91693554D01*
X212640507Y-91675616D01*
X212661961Y-91659705D01*
X212684871Y-91645974D01*
X212709016Y-91634554D01*
X212734164Y-91625556D01*
X212760074Y-91619066D01*
X212786494Y-91615147D01*
X212813172Y-91613836D01*
X212839850Y-91615147D01*
G37*
G36*
X202255505Y-112650311D02*
G01*
X202281925Y-112654230D01*
X202307835Y-112660720D01*
X202332983Y-112669718D01*
X202357128Y-112681138D01*
X202380038Y-112694869D01*
X202401492Y-112710780D01*
X202421282Y-112728718D01*
X202439220Y-112748508D01*
X202455131Y-112769962D01*
X202468862Y-112792872D01*
X202480282Y-112817017D01*
X202489280Y-112842165D01*
X202495770Y-112868075D01*
X202499689Y-112894495D01*
X202501000Y-112921173D01*
X202501000Y-113628827D01*
X202499689Y-113655505D01*
X202495770Y-113681925D01*
X202489280Y-113707835D01*
X202480282Y-113732983D01*
X202468862Y-113757128D01*
X202455131Y-113780038D01*
X202439220Y-113801492D01*
X202421282Y-113821282D01*
X202401492Y-113839220D01*
X202380038Y-113855131D01*
X202357128Y-113868862D01*
X202332983Y-113880282D01*
X202307835Y-113889280D01*
X202281925Y-113895770D01*
X202255505Y-113899689D01*
X202228827Y-113901000D01*
X201271173Y-113901000D01*
X201244495Y-113899689D01*
X201218075Y-113895770D01*
X201192165Y-113889280D01*
X201167017Y-113880282D01*
X201142872Y-113868862D01*
X201119962Y-113855131D01*
X201098508Y-113839220D01*
X201078718Y-113821282D01*
X201060780Y-113801492D01*
X201044869Y-113780038D01*
X201031138Y-113757128D01*
X201019718Y-113732983D01*
X201010720Y-113707835D01*
X201004230Y-113681925D01*
X201000311Y-113655505D01*
X200999000Y-113628827D01*
X200999000Y-112921173D01*
X201000311Y-112894495D01*
X201004230Y-112868075D01*
X201010720Y-112842165D01*
X201019718Y-112817017D01*
X201031138Y-112792872D01*
X201044869Y-112769962D01*
X201060780Y-112748508D01*
X201078718Y-112728718D01*
X201098508Y-112710780D01*
X201119962Y-112694869D01*
X201142872Y-112681138D01*
X201167017Y-112669718D01*
X201192165Y-112660720D01*
X201218075Y-112654230D01*
X201244495Y-112650311D01*
X201271173Y-112649000D01*
X202228827Y-112649000D01*
X202255505Y-112650311D01*
G37*
G36*
X202255505Y-110600311D02*
G01*
X202281925Y-110604230D01*
X202307835Y-110610720D01*
X202332983Y-110619718D01*
X202357128Y-110631138D01*
X202380038Y-110644869D01*
X202401492Y-110660780D01*
X202421282Y-110678718D01*
X202439220Y-110698508D01*
X202455131Y-110719962D01*
X202468862Y-110742872D01*
X202480282Y-110767017D01*
X202489280Y-110792165D01*
X202495770Y-110818075D01*
X202499689Y-110844495D01*
X202501000Y-110871173D01*
X202501000Y-111578827D01*
X202499689Y-111605505D01*
X202495770Y-111631925D01*
X202489280Y-111657835D01*
X202480282Y-111682983D01*
X202468862Y-111707128D01*
X202455131Y-111730038D01*
X202439220Y-111751492D01*
X202421282Y-111771282D01*
X202401492Y-111789220D01*
X202380038Y-111805131D01*
X202357128Y-111818862D01*
X202332983Y-111830282D01*
X202307835Y-111839280D01*
X202281925Y-111845770D01*
X202255505Y-111849689D01*
X202228827Y-111851000D01*
X201271173Y-111851000D01*
X201244495Y-111849689D01*
X201218075Y-111845770D01*
X201192165Y-111839280D01*
X201167017Y-111830282D01*
X201142872Y-111818862D01*
X201119962Y-111805131D01*
X201098508Y-111789220D01*
X201078718Y-111771282D01*
X201060780Y-111751492D01*
X201044869Y-111730038D01*
X201031138Y-111707128D01*
X201019718Y-111682983D01*
X201010720Y-111657835D01*
X201004230Y-111631925D01*
X201000311Y-111605505D01*
X200999000Y-111578827D01*
X200999000Y-110871173D01*
X201000311Y-110844495D01*
X201004230Y-110818075D01*
X201010720Y-110792165D01*
X201019718Y-110767017D01*
X201031138Y-110742872D01*
X201044869Y-110719962D01*
X201060780Y-110698508D01*
X201078718Y-110678718D01*
X201098508Y-110660780D01*
X201119962Y-110644869D01*
X201142872Y-110631138D01*
X201167017Y-110619718D01*
X201192165Y-110610720D01*
X201218075Y-110604230D01*
X201244495Y-110600311D01*
X201271173Y-110599000D01*
X202228827Y-110599000D01*
X202255505Y-110600311D01*
G37*
G36*
X194505505Y-112650311D02*
G01*
X194531925Y-112654230D01*
X194557835Y-112660720D01*
X194582983Y-112669718D01*
X194607128Y-112681138D01*
X194630038Y-112694869D01*
X194651492Y-112710780D01*
X194671282Y-112728718D01*
X194689220Y-112748508D01*
X194705131Y-112769962D01*
X194718862Y-112792872D01*
X194730282Y-112817017D01*
X194739280Y-112842165D01*
X194745770Y-112868075D01*
X194749689Y-112894495D01*
X194751000Y-112921173D01*
X194751000Y-113628827D01*
X194749689Y-113655505D01*
X194745770Y-113681925D01*
X194739280Y-113707835D01*
X194730282Y-113732983D01*
X194718862Y-113757128D01*
X194705131Y-113780038D01*
X194689220Y-113801492D01*
X194671282Y-113821282D01*
X194651492Y-113839220D01*
X194630038Y-113855131D01*
X194607128Y-113868862D01*
X194582983Y-113880282D01*
X194557835Y-113889280D01*
X194531925Y-113895770D01*
X194505505Y-113899689D01*
X194478827Y-113901000D01*
X193521173Y-113901000D01*
X193494495Y-113899689D01*
X193468075Y-113895770D01*
X193442165Y-113889280D01*
X193417017Y-113880282D01*
X193392872Y-113868862D01*
X193369962Y-113855131D01*
X193348508Y-113839220D01*
X193328718Y-113821282D01*
X193310780Y-113801492D01*
X193294869Y-113780038D01*
X193281138Y-113757128D01*
X193269718Y-113732983D01*
X193260720Y-113707835D01*
X193254230Y-113681925D01*
X193250311Y-113655505D01*
X193249000Y-113628827D01*
X193249000Y-112921173D01*
X193250311Y-112894495D01*
X193254230Y-112868075D01*
X193260720Y-112842165D01*
X193269718Y-112817017D01*
X193281138Y-112792872D01*
X193294869Y-112769962D01*
X193310780Y-112748508D01*
X193328718Y-112728718D01*
X193348508Y-112710780D01*
X193369962Y-112694869D01*
X193392872Y-112681138D01*
X193417017Y-112669718D01*
X193442165Y-112660720D01*
X193468075Y-112654230D01*
X193494495Y-112650311D01*
X193521173Y-112649000D01*
X194478827Y-112649000D01*
X194505505Y-112650311D01*
G37*
G36*
X194505505Y-110600311D02*
G01*
X194531925Y-110604230D01*
X194557835Y-110610720D01*
X194582983Y-110619718D01*
X194607128Y-110631138D01*
X194630038Y-110644869D01*
X194651492Y-110660780D01*
X194671282Y-110678718D01*
X194689220Y-110698508D01*
X194705131Y-110719962D01*
X194718862Y-110742872D01*
X194730282Y-110767017D01*
X194739280Y-110792165D01*
X194745770Y-110818075D01*
X194749689Y-110844495D01*
X194751000Y-110871173D01*
X194751000Y-111578827D01*
X194749689Y-111605505D01*
X194745770Y-111631925D01*
X194739280Y-111657835D01*
X194730282Y-111682983D01*
X194718862Y-111707128D01*
X194705131Y-111730038D01*
X194689220Y-111751492D01*
X194671282Y-111771282D01*
X194651492Y-111789220D01*
X194630038Y-111805131D01*
X194607128Y-111818862D01*
X194582983Y-111830282D01*
X194557835Y-111839280D01*
X194531925Y-111845770D01*
X194505505Y-111849689D01*
X194478827Y-111851000D01*
X193521173Y-111851000D01*
X193494495Y-111849689D01*
X193468075Y-111845770D01*
X193442165Y-111839280D01*
X193417017Y-111830282D01*
X193392872Y-111818862D01*
X193369962Y-111805131D01*
X193348508Y-111789220D01*
X193328718Y-111771282D01*
X193310780Y-111751492D01*
X193294869Y-111730038D01*
X193281138Y-111707128D01*
X193269718Y-111682983D01*
X193260720Y-111657835D01*
X193254230Y-111631925D01*
X193250311Y-111605505D01*
X193249000Y-111578827D01*
X193249000Y-110871173D01*
X193250311Y-110844495D01*
X193254230Y-110818075D01*
X193260720Y-110792165D01*
X193269718Y-110767017D01*
X193281138Y-110742872D01*
X193294869Y-110719962D01*
X193310780Y-110698508D01*
X193328718Y-110678718D01*
X193348508Y-110660780D01*
X193369962Y-110644869D01*
X193392872Y-110631138D01*
X193417017Y-110619718D01*
X193442165Y-110610720D01*
X193468075Y-110604230D01*
X193494495Y-110600311D01*
X193521173Y-110599000D01*
X194478827Y-110599000D01*
X194505505Y-110600311D01*
G37*
G36*
X198255505Y-112650311D02*
G01*
X198281925Y-112654230D01*
X198307835Y-112660720D01*
X198332983Y-112669718D01*
X198357128Y-112681138D01*
X198380038Y-112694869D01*
X198401492Y-112710780D01*
X198421282Y-112728718D01*
X198439220Y-112748508D01*
X198455131Y-112769962D01*
X198468862Y-112792872D01*
X198480282Y-112817017D01*
X198489280Y-112842165D01*
X198495770Y-112868075D01*
X198499689Y-112894495D01*
X198501000Y-112921173D01*
X198501000Y-113628827D01*
X198499689Y-113655505D01*
X198495770Y-113681925D01*
X198489280Y-113707835D01*
X198480282Y-113732983D01*
X198468862Y-113757128D01*
X198455131Y-113780038D01*
X198439220Y-113801492D01*
X198421282Y-113821282D01*
X198401492Y-113839220D01*
X198380038Y-113855131D01*
X198357128Y-113868862D01*
X198332983Y-113880282D01*
X198307835Y-113889280D01*
X198281925Y-113895770D01*
X198255505Y-113899689D01*
X198228827Y-113901000D01*
X197271173Y-113901000D01*
X197244495Y-113899689D01*
X197218075Y-113895770D01*
X197192165Y-113889280D01*
X197167017Y-113880282D01*
X197142872Y-113868862D01*
X197119962Y-113855131D01*
X197098508Y-113839220D01*
X197078718Y-113821282D01*
X197060780Y-113801492D01*
X197044869Y-113780038D01*
X197031138Y-113757128D01*
X197019718Y-113732983D01*
X197010720Y-113707835D01*
X197004230Y-113681925D01*
X197000311Y-113655505D01*
X196999000Y-113628827D01*
X196999000Y-112921173D01*
X197000311Y-112894495D01*
X197004230Y-112868075D01*
X197010720Y-112842165D01*
X197019718Y-112817017D01*
X197031138Y-112792872D01*
X197044869Y-112769962D01*
X197060780Y-112748508D01*
X197078718Y-112728718D01*
X197098508Y-112710780D01*
X197119962Y-112694869D01*
X197142872Y-112681138D01*
X197167017Y-112669718D01*
X197192165Y-112660720D01*
X197218075Y-112654230D01*
X197244495Y-112650311D01*
X197271173Y-112649000D01*
X198228827Y-112649000D01*
X198255505Y-112650311D01*
G37*
G36*
X198255505Y-110600311D02*
G01*
X198281925Y-110604230D01*
X198307835Y-110610720D01*
X198332983Y-110619718D01*
X198357128Y-110631138D01*
X198380038Y-110644869D01*
X198401492Y-110660780D01*
X198421282Y-110678718D01*
X198439220Y-110698508D01*
X198455131Y-110719962D01*
X198468862Y-110742872D01*
X198480282Y-110767017D01*
X198489280Y-110792165D01*
X198495770Y-110818075D01*
X198499689Y-110844495D01*
X198501000Y-110871173D01*
X198501000Y-111578827D01*
X198499689Y-111605505D01*
X198495770Y-111631925D01*
X198489280Y-111657835D01*
X198480282Y-111682983D01*
X198468862Y-111707128D01*
X198455131Y-111730038D01*
X198439220Y-111751492D01*
X198421282Y-111771282D01*
X198401492Y-111789220D01*
X198380038Y-111805131D01*
X198357128Y-111818862D01*
X198332983Y-111830282D01*
X198307835Y-111839280D01*
X198281925Y-111845770D01*
X198255505Y-111849689D01*
X198228827Y-111851000D01*
X197271173Y-111851000D01*
X197244495Y-111849689D01*
X197218075Y-111845770D01*
X197192165Y-111839280D01*
X197167017Y-111830282D01*
X197142872Y-111818862D01*
X197119962Y-111805131D01*
X197098508Y-111789220D01*
X197078718Y-111771282D01*
X197060780Y-111751492D01*
X197044869Y-111730038D01*
X197031138Y-111707128D01*
X197019718Y-111682983D01*
X197010720Y-111657835D01*
X197004230Y-111631925D01*
X197000311Y-111605505D01*
X196999000Y-111578827D01*
X196999000Y-110871173D01*
X197000311Y-110844495D01*
X197004230Y-110818075D01*
X197010720Y-110792165D01*
X197019718Y-110767017D01*
X197031138Y-110742872D01*
X197044869Y-110719962D01*
X197060780Y-110698508D01*
X197078718Y-110678718D01*
X197098508Y-110660780D01*
X197119962Y-110644869D01*
X197142872Y-110631138D01*
X197167017Y-110619718D01*
X197192165Y-110610720D01*
X197218075Y-110604230D01*
X197244495Y-110600311D01*
X197271173Y-110599000D01*
X198228827Y-110599000D01*
X198255505Y-110600311D01*
G37*
G36*
X190505505Y-112650311D02*
G01*
X190531925Y-112654230D01*
X190557835Y-112660720D01*
X190582983Y-112669718D01*
X190607128Y-112681138D01*
X190630038Y-112694869D01*
X190651492Y-112710780D01*
X190671282Y-112728718D01*
X190689220Y-112748508D01*
X190705131Y-112769962D01*
X190718862Y-112792872D01*
X190730282Y-112817017D01*
X190739280Y-112842165D01*
X190745770Y-112868075D01*
X190749689Y-112894495D01*
X190751000Y-112921173D01*
X190751000Y-113628827D01*
X190749689Y-113655505D01*
X190745770Y-113681925D01*
X190739280Y-113707835D01*
X190730282Y-113732983D01*
X190718862Y-113757128D01*
X190705131Y-113780038D01*
X190689220Y-113801492D01*
X190671282Y-113821282D01*
X190651492Y-113839220D01*
X190630038Y-113855131D01*
X190607128Y-113868862D01*
X190582983Y-113880282D01*
X190557835Y-113889280D01*
X190531925Y-113895770D01*
X190505505Y-113899689D01*
X190478827Y-113901000D01*
X189521173Y-113901000D01*
X189494495Y-113899689D01*
X189468075Y-113895770D01*
X189442165Y-113889280D01*
X189417017Y-113880282D01*
X189392872Y-113868862D01*
X189369962Y-113855131D01*
X189348508Y-113839220D01*
X189328718Y-113821282D01*
X189310780Y-113801492D01*
X189294869Y-113780038D01*
X189281138Y-113757128D01*
X189269718Y-113732983D01*
X189260720Y-113707835D01*
X189254230Y-113681925D01*
X189250311Y-113655505D01*
X189249000Y-113628827D01*
X189249000Y-112921173D01*
X189250311Y-112894495D01*
X189254230Y-112868075D01*
X189260720Y-112842165D01*
X189269718Y-112817017D01*
X189281138Y-112792872D01*
X189294869Y-112769962D01*
X189310780Y-112748508D01*
X189328718Y-112728718D01*
X189348508Y-112710780D01*
X189369962Y-112694869D01*
X189392872Y-112681138D01*
X189417017Y-112669718D01*
X189442165Y-112660720D01*
X189468075Y-112654230D01*
X189494495Y-112650311D01*
X189521173Y-112649000D01*
X190478827Y-112649000D01*
X190505505Y-112650311D01*
G37*
G36*
X190505505Y-110600311D02*
G01*
X190531925Y-110604230D01*
X190557835Y-110610720D01*
X190582983Y-110619718D01*
X190607128Y-110631138D01*
X190630038Y-110644869D01*
X190651492Y-110660780D01*
X190671282Y-110678718D01*
X190689220Y-110698508D01*
X190705131Y-110719962D01*
X190718862Y-110742872D01*
X190730282Y-110767017D01*
X190739280Y-110792165D01*
X190745770Y-110818075D01*
X190749689Y-110844495D01*
X190751000Y-110871173D01*
X190751000Y-111578827D01*
X190749689Y-111605505D01*
X190745770Y-111631925D01*
X190739280Y-111657835D01*
X190730282Y-111682983D01*
X190718862Y-111707128D01*
X190705131Y-111730038D01*
X190689220Y-111751492D01*
X190671282Y-111771282D01*
X190651492Y-111789220D01*
X190630038Y-111805131D01*
X190607128Y-111818862D01*
X190582983Y-111830282D01*
X190557835Y-111839280D01*
X190531925Y-111845770D01*
X190505505Y-111849689D01*
X190478827Y-111851000D01*
X189521173Y-111851000D01*
X189494495Y-111849689D01*
X189468075Y-111845770D01*
X189442165Y-111839280D01*
X189417017Y-111830282D01*
X189392872Y-111818862D01*
X189369962Y-111805131D01*
X189348508Y-111789220D01*
X189328718Y-111771282D01*
X189310780Y-111751492D01*
X189294869Y-111730038D01*
X189281138Y-111707128D01*
X189269718Y-111682983D01*
X189260720Y-111657835D01*
X189254230Y-111631925D01*
X189250311Y-111605505D01*
X189249000Y-111578827D01*
X189249000Y-110871173D01*
X189250311Y-110844495D01*
X189254230Y-110818075D01*
X189260720Y-110792165D01*
X189269718Y-110767017D01*
X189281138Y-110742872D01*
X189294869Y-110719962D01*
X189310780Y-110698508D01*
X189328718Y-110678718D01*
X189348508Y-110660780D01*
X189369962Y-110644869D01*
X189392872Y-110631138D01*
X189417017Y-110619718D01*
X189442165Y-110610720D01*
X189468075Y-110604230D01*
X189494495Y-110600311D01*
X189521173Y-110599000D01*
X190478827Y-110599000D01*
X190505505Y-110600311D01*
G37*
D13*
X161012500Y-102362500D03*
X166012500Y-101862500D03*
D14*
X176125000Y-23295000D03*
X169675000Y-23295000D03*
X175350000Y-23295000D03*
X170450000Y-23295000D03*
D15*
X171150000Y-23295000D03*
X174650000Y-23295000D03*
X171650000Y-23295000D03*
X174150000Y-23295000D03*
X172150000Y-23295000D03*
X173650000Y-23295000D03*
X173150000Y-23295000D03*
X172650000Y-23295000D03*
D16*
X175790000Y-21350000D03*
X170010000Y-21350000D03*
D13*
X289600000Y-45212500D03*
X294600000Y-44712500D03*
D12*
G36*
X208568198Y-91960539D02*
G01*
X209913115Y-93305456D01*
X208356066Y-94862505D01*
X207011149Y-93517588D01*
X208568198Y-91960539D01*
G37*
G36*
X206517588Y-94011149D02*
G01*
X207862505Y-95356066D01*
X206305456Y-96913115D01*
X204960539Y-95568198D01*
X206517588Y-94011149D01*
G37*
G36*
X208143934Y-95637495D02*
G01*
X209488851Y-96982412D01*
X207931802Y-98539461D01*
X206586885Y-97194544D01*
X208143934Y-95637495D01*
G37*
G36*
X210194544Y-93586885D02*
G01*
X211539461Y-94931802D01*
X209982412Y-96488851D01*
X208637495Y-95143934D01*
X210194544Y-93586885D01*
G37*
G36*
X218905173Y-111273060D02*
G01*
X219366206Y-110812027D01*
X220498991Y-111944812D01*
X220037958Y-112405845D01*
X218905173Y-111273060D01*
G37*
G36*
X219470858Y-110707374D02*
G01*
X219931891Y-110246341D01*
X221064676Y-111379126D01*
X220603643Y-111840159D01*
X219470858Y-110707374D01*
G37*
G36*
X220036543Y-110141689D02*
G01*
X220497576Y-109680656D01*
X221630361Y-110813441D01*
X221169328Y-111274474D01*
X220036543Y-110141689D01*
G37*
G36*
X220602229Y-109576004D02*
G01*
X221063262Y-109114971D01*
X222196047Y-110247756D01*
X221735014Y-110708789D01*
X220602229Y-109576004D01*
G37*
G36*
X221167914Y-109010318D02*
G01*
X221628947Y-108549285D01*
X222761732Y-109682070D01*
X222300699Y-110143103D01*
X221167914Y-109010318D01*
G37*
G36*
X221733600Y-108444633D02*
G01*
X222194633Y-107983600D01*
X223327418Y-109116385D01*
X222866385Y-109577418D01*
X221733600Y-108444633D01*
G37*
G36*
X222299285Y-107878947D02*
G01*
X222760318Y-107417914D01*
X223893103Y-108550699D01*
X223432070Y-109011732D01*
X222299285Y-107878947D01*
G37*
G36*
X222864971Y-107313262D02*
G01*
X223326004Y-106852229D01*
X224458789Y-107985014D01*
X223997756Y-108446047D01*
X222864971Y-107313262D01*
G37*
G36*
X223430656Y-106747576D02*
G01*
X223891689Y-106286543D01*
X225024474Y-107419328D01*
X224563441Y-107880361D01*
X223430656Y-106747576D01*
G37*
G36*
X223996341Y-106181891D02*
G01*
X224457374Y-105720858D01*
X225590159Y-106853643D01*
X225129126Y-107314676D01*
X223996341Y-106181891D01*
G37*
G36*
X224562027Y-105616206D02*
G01*
X225023060Y-105155173D01*
X226155845Y-106287958D01*
X225694812Y-106748991D01*
X224562027Y-105616206D01*
G37*
G36*
X225023060Y-104344827D02*
G01*
X224562027Y-103883794D01*
X225694812Y-102751009D01*
X226155845Y-103212042D01*
X225023060Y-104344827D01*
G37*
G36*
X224457374Y-103779142D02*
G01*
X223996341Y-103318109D01*
X225129126Y-102185324D01*
X225590159Y-102646357D01*
X224457374Y-103779142D01*
G37*
G36*
X223891689Y-103213457D02*
G01*
X223430656Y-102752424D01*
X224563441Y-101619639D01*
X225024474Y-102080672D01*
X223891689Y-103213457D01*
G37*
G36*
X223326004Y-102647771D02*
G01*
X222864971Y-102186738D01*
X223997756Y-101053953D01*
X224458789Y-101514986D01*
X223326004Y-102647771D01*
G37*
G36*
X222760318Y-102082086D02*
G01*
X222299285Y-101621053D01*
X223432070Y-100488268D01*
X223893103Y-100949301D01*
X222760318Y-102082086D01*
G37*
G36*
X222194633Y-101516400D02*
G01*
X221733600Y-101055367D01*
X222866385Y-99922582D01*
X223327418Y-100383615D01*
X222194633Y-101516400D01*
G37*
G36*
X221628947Y-100950715D02*
G01*
X221167914Y-100489682D01*
X222300699Y-99356897D01*
X222761732Y-99817930D01*
X221628947Y-100950715D01*
G37*
G36*
X221063262Y-100385029D02*
G01*
X220602229Y-99923996D01*
X221735014Y-98791211D01*
X222196047Y-99252244D01*
X221063262Y-100385029D01*
G37*
G36*
X220497576Y-99819344D02*
G01*
X220036543Y-99358311D01*
X221169328Y-98225526D01*
X221630361Y-98686559D01*
X220497576Y-99819344D01*
G37*
G36*
X219931891Y-99253659D02*
G01*
X219470858Y-98792626D01*
X220603643Y-97659841D01*
X221064676Y-98120874D01*
X219931891Y-99253659D01*
G37*
G36*
X219366206Y-98687973D02*
G01*
X218905173Y-98226940D01*
X220037958Y-97094155D01*
X220498991Y-97555188D01*
X219366206Y-98687973D01*
G37*
G36*
X216501009Y-97555188D02*
G01*
X216962042Y-97094155D01*
X218094827Y-98226940D01*
X217633794Y-98687973D01*
X216501009Y-97555188D01*
G37*
G36*
X215935324Y-98120874D02*
G01*
X216396357Y-97659841D01*
X217529142Y-98792626D01*
X217068109Y-99253659D01*
X215935324Y-98120874D01*
G37*
G36*
X215369639Y-98686559D02*
G01*
X215830672Y-98225526D01*
X216963457Y-99358311D01*
X216502424Y-99819344D01*
X215369639Y-98686559D01*
G37*
G36*
X214803953Y-99252244D02*
G01*
X215264986Y-98791211D01*
X216397771Y-99923996D01*
X215936738Y-100385029D01*
X214803953Y-99252244D01*
G37*
G36*
X214238268Y-99817930D02*
G01*
X214699301Y-99356897D01*
X215832086Y-100489682D01*
X215371053Y-100950715D01*
X214238268Y-99817930D01*
G37*
G36*
X213672582Y-100383615D02*
G01*
X214133615Y-99922582D01*
X215266400Y-101055367D01*
X214805367Y-101516400D01*
X213672582Y-100383615D01*
G37*
G36*
X213106897Y-100949301D02*
G01*
X213567930Y-100488268D01*
X214700715Y-101621053D01*
X214239682Y-102082086D01*
X213106897Y-100949301D01*
G37*
G36*
X212541211Y-101514986D02*
G01*
X213002244Y-101053953D01*
X214135029Y-102186738D01*
X213673996Y-102647771D01*
X212541211Y-101514986D01*
G37*
G36*
X211975526Y-102080672D02*
G01*
X212436559Y-101619639D01*
X213569344Y-102752424D01*
X213108311Y-103213457D01*
X211975526Y-102080672D01*
G37*
G36*
X211409841Y-102646357D02*
G01*
X211870874Y-102185324D01*
X213003659Y-103318109D01*
X212542626Y-103779142D01*
X211409841Y-102646357D01*
G37*
G36*
X210844155Y-103212042D02*
G01*
X211305188Y-102751009D01*
X212437973Y-103883794D01*
X211976940Y-104344827D01*
X210844155Y-103212042D01*
G37*
G36*
X211305188Y-106748991D02*
G01*
X210844155Y-106287958D01*
X211976940Y-105155173D01*
X212437973Y-105616206D01*
X211305188Y-106748991D01*
G37*
G36*
X211870874Y-107314676D02*
G01*
X211409841Y-106853643D01*
X212542626Y-105720858D01*
X213003659Y-106181891D01*
X211870874Y-107314676D01*
G37*
G36*
X212436559Y-107880361D02*
G01*
X211975526Y-107419328D01*
X213108311Y-106286543D01*
X213569344Y-106747576D01*
X212436559Y-107880361D01*
G37*
G36*
X213002244Y-108446047D02*
G01*
X212541211Y-107985014D01*
X213673996Y-106852229D01*
X214135029Y-107313262D01*
X213002244Y-108446047D01*
G37*
G36*
X213567930Y-109011732D02*
G01*
X213106897Y-108550699D01*
X214239682Y-107417914D01*
X214700715Y-107878947D01*
X213567930Y-109011732D01*
G37*
G36*
X214133615Y-109577418D02*
G01*
X213672582Y-109116385D01*
X214805367Y-107983600D01*
X215266400Y-108444633D01*
X214133615Y-109577418D01*
G37*
G36*
X214699301Y-110143103D02*
G01*
X214238268Y-109682070D01*
X215371053Y-108549285D01*
X215832086Y-109010318D01*
X214699301Y-110143103D01*
G37*
G36*
X215264986Y-110708789D02*
G01*
X214803953Y-110247756D01*
X215936738Y-109114971D01*
X216397771Y-109576004D01*
X215264986Y-110708789D01*
G37*
G36*
X215830672Y-111274474D02*
G01*
X215369639Y-110813441D01*
X216502424Y-109680656D01*
X216963457Y-110141689D01*
X215830672Y-111274474D01*
G37*
G36*
X216396357Y-111840159D02*
G01*
X215935324Y-111379126D01*
X217068109Y-110246341D01*
X217529142Y-110707374D01*
X216396357Y-111840159D01*
G37*
G36*
X216962042Y-112405845D02*
G01*
X216501009Y-111944812D01*
X217633794Y-110812027D01*
X218094827Y-111273060D01*
X216962042Y-112405845D01*
G37*
D17*
X171650000Y-32450000D03*
X173950000Y-32450000D03*
X171650000Y-30550000D03*
D18*
X173950000Y-30750000D03*
D19*
X185350000Y-108100000D03*
X179150000Y-104400000D03*
X185350000Y-104400000D03*
X179150000Y-108100000D03*
D12*
G36*
X230505505Y-105600311D02*
G01*
X230531925Y-105604230D01*
X230557835Y-105610720D01*
X230582983Y-105619718D01*
X230607128Y-105631138D01*
X230630038Y-105644869D01*
X230651492Y-105660780D01*
X230671282Y-105678718D01*
X230689220Y-105698508D01*
X230705131Y-105719962D01*
X230718862Y-105742872D01*
X230730282Y-105767017D01*
X230739280Y-105792165D01*
X230745770Y-105818075D01*
X230749689Y-105844495D01*
X230751000Y-105871173D01*
X230751000Y-106578827D01*
X230749689Y-106605505D01*
X230745770Y-106631925D01*
X230739280Y-106657835D01*
X230730282Y-106682983D01*
X230718862Y-106707128D01*
X230705131Y-106730038D01*
X230689220Y-106751492D01*
X230671282Y-106771282D01*
X230651492Y-106789220D01*
X230630038Y-106805131D01*
X230607128Y-106818862D01*
X230582983Y-106830282D01*
X230557835Y-106839280D01*
X230531925Y-106845770D01*
X230505505Y-106849689D01*
X230478827Y-106851000D01*
X229521173Y-106851000D01*
X229494495Y-106849689D01*
X229468075Y-106845770D01*
X229442165Y-106839280D01*
X229417017Y-106830282D01*
X229392872Y-106818862D01*
X229369962Y-106805131D01*
X229348508Y-106789220D01*
X229328718Y-106771282D01*
X229310780Y-106751492D01*
X229294869Y-106730038D01*
X229281138Y-106707128D01*
X229269718Y-106682983D01*
X229260720Y-106657835D01*
X229254230Y-106631925D01*
X229250311Y-106605505D01*
X229249000Y-106578827D01*
X229249000Y-105871173D01*
X229250311Y-105844495D01*
X229254230Y-105818075D01*
X229260720Y-105792165D01*
X229269718Y-105767017D01*
X229281138Y-105742872D01*
X229294869Y-105719962D01*
X229310780Y-105698508D01*
X229328718Y-105678718D01*
X229348508Y-105660780D01*
X229369962Y-105644869D01*
X229392872Y-105631138D01*
X229417017Y-105619718D01*
X229442165Y-105610720D01*
X229468075Y-105604230D01*
X229494495Y-105600311D01*
X229521173Y-105599000D01*
X230478827Y-105599000D01*
X230505505Y-105600311D01*
G37*
G36*
X230505505Y-107650311D02*
G01*
X230531925Y-107654230D01*
X230557835Y-107660720D01*
X230582983Y-107669718D01*
X230607128Y-107681138D01*
X230630038Y-107694869D01*
X230651492Y-107710780D01*
X230671282Y-107728718D01*
X230689220Y-107748508D01*
X230705131Y-107769962D01*
X230718862Y-107792872D01*
X230730282Y-107817017D01*
X230739280Y-107842165D01*
X230745770Y-107868075D01*
X230749689Y-107894495D01*
X230751000Y-107921173D01*
X230751000Y-108628827D01*
X230749689Y-108655505D01*
X230745770Y-108681925D01*
X230739280Y-108707835D01*
X230730282Y-108732983D01*
X230718862Y-108757128D01*
X230705131Y-108780038D01*
X230689220Y-108801492D01*
X230671282Y-108821282D01*
X230651492Y-108839220D01*
X230630038Y-108855131D01*
X230607128Y-108868862D01*
X230582983Y-108880282D01*
X230557835Y-108889280D01*
X230531925Y-108895770D01*
X230505505Y-108899689D01*
X230478827Y-108901000D01*
X229521173Y-108901000D01*
X229494495Y-108899689D01*
X229468075Y-108895770D01*
X229442165Y-108889280D01*
X229417017Y-108880282D01*
X229392872Y-108868862D01*
X229369962Y-108855131D01*
X229348508Y-108839220D01*
X229328718Y-108821282D01*
X229310780Y-108801492D01*
X229294869Y-108780038D01*
X229281138Y-108757128D01*
X229269718Y-108732983D01*
X229260720Y-108707835D01*
X229254230Y-108681925D01*
X229250311Y-108655505D01*
X229249000Y-108628827D01*
X229249000Y-107921173D01*
X229250311Y-107894495D01*
X229254230Y-107868075D01*
X229260720Y-107842165D01*
X229269718Y-107817017D01*
X229281138Y-107792872D01*
X229294869Y-107769962D01*
X229310780Y-107748508D01*
X229328718Y-107728718D01*
X229348508Y-107710780D01*
X229369962Y-107694869D01*
X229392872Y-107681138D01*
X229417017Y-107669718D01*
X229442165Y-107660720D01*
X229468075Y-107654230D01*
X229494495Y-107650311D01*
X229521173Y-107649000D01*
X230478827Y-107649000D01*
X230505505Y-107650311D01*
G37*
G36*
X172005505Y-35750311D02*
G01*
X172031925Y-35754230D01*
X172057835Y-35760720D01*
X172082983Y-35769718D01*
X172107128Y-35781138D01*
X172130038Y-35794869D01*
X172151492Y-35810780D01*
X172171282Y-35828718D01*
X172189220Y-35848508D01*
X172205131Y-35869962D01*
X172218862Y-35892872D01*
X172230282Y-35917017D01*
X172239280Y-35942165D01*
X172245770Y-35968075D01*
X172249689Y-35994495D01*
X172251000Y-36021173D01*
X172251000Y-36728827D01*
X172249689Y-36755505D01*
X172245770Y-36781925D01*
X172239280Y-36807835D01*
X172230282Y-36832983D01*
X172218862Y-36857128D01*
X172205131Y-36880038D01*
X172189220Y-36901492D01*
X172171282Y-36921282D01*
X172151492Y-36939220D01*
X172130038Y-36955131D01*
X172107128Y-36968862D01*
X172082983Y-36980282D01*
X172057835Y-36989280D01*
X172031925Y-36995770D01*
X172005505Y-36999689D01*
X171978827Y-37001000D01*
X171021173Y-37001000D01*
X170994495Y-36999689D01*
X170968075Y-36995770D01*
X170942165Y-36989280D01*
X170917017Y-36980282D01*
X170892872Y-36968862D01*
X170869962Y-36955131D01*
X170848508Y-36939220D01*
X170828718Y-36921282D01*
X170810780Y-36901492D01*
X170794869Y-36880038D01*
X170781138Y-36857128D01*
X170769718Y-36832983D01*
X170760720Y-36807835D01*
X170754230Y-36781925D01*
X170750311Y-36755505D01*
X170749000Y-36728827D01*
X170749000Y-36021173D01*
X170750311Y-35994495D01*
X170754230Y-35968075D01*
X170760720Y-35942165D01*
X170769718Y-35917017D01*
X170781138Y-35892872D01*
X170794869Y-35869962D01*
X170810780Y-35848508D01*
X170828718Y-35828718D01*
X170848508Y-35810780D01*
X170869962Y-35794869D01*
X170892872Y-35781138D01*
X170917017Y-35769718D01*
X170942165Y-35760720D01*
X170968075Y-35754230D01*
X170994495Y-35750311D01*
X171021173Y-35749000D01*
X171978827Y-35749000D01*
X172005505Y-35750311D01*
G37*
G36*
X172005505Y-37800311D02*
G01*
X172031925Y-37804230D01*
X172057835Y-37810720D01*
X172082983Y-37819718D01*
X172107128Y-37831138D01*
X172130038Y-37844869D01*
X172151492Y-37860780D01*
X172171282Y-37878718D01*
X172189220Y-37898508D01*
X172205131Y-37919962D01*
X172218862Y-37942872D01*
X172230282Y-37967017D01*
X172239280Y-37992165D01*
X172245770Y-38018075D01*
X172249689Y-38044495D01*
X172251000Y-38071173D01*
X172251000Y-38778827D01*
X172249689Y-38805505D01*
X172245770Y-38831925D01*
X172239280Y-38857835D01*
X172230282Y-38882983D01*
X172218862Y-38907128D01*
X172205131Y-38930038D01*
X172189220Y-38951492D01*
X172171282Y-38971282D01*
X172151492Y-38989220D01*
X172130038Y-39005131D01*
X172107128Y-39018862D01*
X172082983Y-39030282D01*
X172057835Y-39039280D01*
X172031925Y-39045770D01*
X172005505Y-39049689D01*
X171978827Y-39051000D01*
X171021173Y-39051000D01*
X170994495Y-39049689D01*
X170968075Y-39045770D01*
X170942165Y-39039280D01*
X170917017Y-39030282D01*
X170892872Y-39018862D01*
X170869962Y-39005131D01*
X170848508Y-38989220D01*
X170828718Y-38971282D01*
X170810780Y-38951492D01*
X170794869Y-38930038D01*
X170781138Y-38907128D01*
X170769718Y-38882983D01*
X170760720Y-38857835D01*
X170754230Y-38831925D01*
X170750311Y-38805505D01*
X170749000Y-38778827D01*
X170749000Y-38071173D01*
X170750311Y-38044495D01*
X170754230Y-38018075D01*
X170760720Y-37992165D01*
X170769718Y-37967017D01*
X170781138Y-37942872D01*
X170794869Y-37919962D01*
X170810780Y-37898508D01*
X170828718Y-37878718D01*
X170848508Y-37860780D01*
X170869962Y-37844869D01*
X170892872Y-37831138D01*
X170917017Y-37819718D01*
X170942165Y-37810720D01*
X170968075Y-37804230D01*
X170994495Y-37800311D01*
X171021173Y-37799000D01*
X171978827Y-37799000D01*
X172005505Y-37800311D01*
G37*
G36*
X174905505Y-35750311D02*
G01*
X174931925Y-35754230D01*
X174957835Y-35760720D01*
X174982983Y-35769718D01*
X175007128Y-35781138D01*
X175030038Y-35794869D01*
X175051492Y-35810780D01*
X175071282Y-35828718D01*
X175089220Y-35848508D01*
X175105131Y-35869962D01*
X175118862Y-35892872D01*
X175130282Y-35917017D01*
X175139280Y-35942165D01*
X175145770Y-35968075D01*
X175149689Y-35994495D01*
X175151000Y-36021173D01*
X175151000Y-36728827D01*
X175149689Y-36755505D01*
X175145770Y-36781925D01*
X175139280Y-36807835D01*
X175130282Y-36832983D01*
X175118862Y-36857128D01*
X175105131Y-36880038D01*
X175089220Y-36901492D01*
X175071282Y-36921282D01*
X175051492Y-36939220D01*
X175030038Y-36955131D01*
X175007128Y-36968862D01*
X174982983Y-36980282D01*
X174957835Y-36989280D01*
X174931925Y-36995770D01*
X174905505Y-36999689D01*
X174878827Y-37001000D01*
X173921173Y-37001000D01*
X173894495Y-36999689D01*
X173868075Y-36995770D01*
X173842165Y-36989280D01*
X173817017Y-36980282D01*
X173792872Y-36968862D01*
X173769962Y-36955131D01*
X173748508Y-36939220D01*
X173728718Y-36921282D01*
X173710780Y-36901492D01*
X173694869Y-36880038D01*
X173681138Y-36857128D01*
X173669718Y-36832983D01*
X173660720Y-36807835D01*
X173654230Y-36781925D01*
X173650311Y-36755505D01*
X173649000Y-36728827D01*
X173649000Y-36021173D01*
X173650311Y-35994495D01*
X173654230Y-35968075D01*
X173660720Y-35942165D01*
X173669718Y-35917017D01*
X173681138Y-35892872D01*
X173694869Y-35869962D01*
X173710780Y-35848508D01*
X173728718Y-35828718D01*
X173748508Y-35810780D01*
X173769962Y-35794869D01*
X173792872Y-35781138D01*
X173817017Y-35769718D01*
X173842165Y-35760720D01*
X173868075Y-35754230D01*
X173894495Y-35750311D01*
X173921173Y-35749000D01*
X174878827Y-35749000D01*
X174905505Y-35750311D01*
G37*
G36*
X174905505Y-37800311D02*
G01*
X174931925Y-37804230D01*
X174957835Y-37810720D01*
X174982983Y-37819718D01*
X175007128Y-37831138D01*
X175030038Y-37844869D01*
X175051492Y-37860780D01*
X175071282Y-37878718D01*
X175089220Y-37898508D01*
X175105131Y-37919962D01*
X175118862Y-37942872D01*
X175130282Y-37967017D01*
X175139280Y-37992165D01*
X175145770Y-38018075D01*
X175149689Y-38044495D01*
X175151000Y-38071173D01*
X175151000Y-38778827D01*
X175149689Y-38805505D01*
X175145770Y-38831925D01*
X175139280Y-38857835D01*
X175130282Y-38882983D01*
X175118862Y-38907128D01*
X175105131Y-38930038D01*
X175089220Y-38951492D01*
X175071282Y-38971282D01*
X175051492Y-38989220D01*
X175030038Y-39005131D01*
X175007128Y-39018862D01*
X174982983Y-39030282D01*
X174957835Y-39039280D01*
X174931925Y-39045770D01*
X174905505Y-39049689D01*
X174878827Y-39051000D01*
X173921173Y-39051000D01*
X173894495Y-39049689D01*
X173868075Y-39045770D01*
X173842165Y-39039280D01*
X173817017Y-39030282D01*
X173792872Y-39018862D01*
X173769962Y-39005131D01*
X173748508Y-38989220D01*
X173728718Y-38971282D01*
X173710780Y-38951492D01*
X173694869Y-38930038D01*
X173681138Y-38907128D01*
X173669718Y-38882983D01*
X173660720Y-38857835D01*
X173654230Y-38831925D01*
X173650311Y-38805505D01*
X173649000Y-38778827D01*
X173649000Y-38071173D01*
X173650311Y-38044495D01*
X173654230Y-38018075D01*
X173660720Y-37992165D01*
X173669718Y-37967017D01*
X173681138Y-37942872D01*
X173694869Y-37919962D01*
X173710780Y-37898508D01*
X173728718Y-37878718D01*
X173748508Y-37860780D01*
X173769962Y-37844869D01*
X173792872Y-37831138D01*
X173817017Y-37819718D01*
X173842165Y-37810720D01*
X173868075Y-37804230D01*
X173894495Y-37800311D01*
X173921173Y-37799000D01*
X174878827Y-37799000D01*
X174905505Y-37800311D01*
G37*
G36*
X190255505Y-106650311D02*
G01*
X190281925Y-106654230D01*
X190307835Y-106660720D01*
X190332983Y-106669718D01*
X190357128Y-106681138D01*
X190380038Y-106694869D01*
X190401492Y-106710780D01*
X190421282Y-106728718D01*
X190439220Y-106748508D01*
X190455131Y-106769962D01*
X190468862Y-106792872D01*
X190480282Y-106817017D01*
X190489280Y-106842165D01*
X190495770Y-106868075D01*
X190499689Y-106894495D01*
X190501000Y-106921173D01*
X190501000Y-107628827D01*
X190499689Y-107655505D01*
X190495770Y-107681925D01*
X190489280Y-107707835D01*
X190480282Y-107732983D01*
X190468862Y-107757128D01*
X190455131Y-107780038D01*
X190439220Y-107801492D01*
X190421282Y-107821282D01*
X190401492Y-107839220D01*
X190380038Y-107855131D01*
X190357128Y-107868862D01*
X190332983Y-107880282D01*
X190307835Y-107889280D01*
X190281925Y-107895770D01*
X190255505Y-107899689D01*
X190228827Y-107901000D01*
X189271173Y-107901000D01*
X189244495Y-107899689D01*
X189218075Y-107895770D01*
X189192165Y-107889280D01*
X189167017Y-107880282D01*
X189142872Y-107868862D01*
X189119962Y-107855131D01*
X189098508Y-107839220D01*
X189078718Y-107821282D01*
X189060780Y-107801492D01*
X189044869Y-107780038D01*
X189031138Y-107757128D01*
X189019718Y-107732983D01*
X189010720Y-107707835D01*
X189004230Y-107681925D01*
X189000311Y-107655505D01*
X188999000Y-107628827D01*
X188999000Y-106921173D01*
X189000311Y-106894495D01*
X189004230Y-106868075D01*
X189010720Y-106842165D01*
X189019718Y-106817017D01*
X189031138Y-106792872D01*
X189044869Y-106769962D01*
X189060780Y-106748508D01*
X189078718Y-106728718D01*
X189098508Y-106710780D01*
X189119962Y-106694869D01*
X189142872Y-106681138D01*
X189167017Y-106669718D01*
X189192165Y-106660720D01*
X189218075Y-106654230D01*
X189244495Y-106650311D01*
X189271173Y-106649000D01*
X190228827Y-106649000D01*
X190255505Y-106650311D01*
G37*
G36*
X190255505Y-104600311D02*
G01*
X190281925Y-104604230D01*
X190307835Y-104610720D01*
X190332983Y-104619718D01*
X190357128Y-104631138D01*
X190380038Y-104644869D01*
X190401492Y-104660780D01*
X190421282Y-104678718D01*
X190439220Y-104698508D01*
X190455131Y-104719962D01*
X190468862Y-104742872D01*
X190480282Y-104767017D01*
X190489280Y-104792165D01*
X190495770Y-104818075D01*
X190499689Y-104844495D01*
X190501000Y-104871173D01*
X190501000Y-105578827D01*
X190499689Y-105605505D01*
X190495770Y-105631925D01*
X190489280Y-105657835D01*
X190480282Y-105682983D01*
X190468862Y-105707128D01*
X190455131Y-105730038D01*
X190439220Y-105751492D01*
X190421282Y-105771282D01*
X190401492Y-105789220D01*
X190380038Y-105805131D01*
X190357128Y-105818862D01*
X190332983Y-105830282D01*
X190307835Y-105839280D01*
X190281925Y-105845770D01*
X190255505Y-105849689D01*
X190228827Y-105851000D01*
X189271173Y-105851000D01*
X189244495Y-105849689D01*
X189218075Y-105845770D01*
X189192165Y-105839280D01*
X189167017Y-105830282D01*
X189142872Y-105818862D01*
X189119962Y-105805131D01*
X189098508Y-105789220D01*
X189078718Y-105771282D01*
X189060780Y-105751492D01*
X189044869Y-105730038D01*
X189031138Y-105707128D01*
X189019718Y-105682983D01*
X189010720Y-105657835D01*
X189004230Y-105631925D01*
X189000311Y-105605505D01*
X188999000Y-105578827D01*
X188999000Y-104871173D01*
X189000311Y-104844495D01*
X189004230Y-104818075D01*
X189010720Y-104792165D01*
X189019718Y-104767017D01*
X189031138Y-104742872D01*
X189044869Y-104719962D01*
X189060780Y-104698508D01*
X189078718Y-104678718D01*
X189098508Y-104660780D01*
X189119962Y-104644869D01*
X189142872Y-104631138D01*
X189167017Y-104619718D01*
X189192165Y-104610720D01*
X189218075Y-104604230D01*
X189244495Y-104600311D01*
X189271173Y-104599000D01*
X190228827Y-104599000D01*
X190255505Y-104600311D01*
G37*
G36*
X168355505Y-26750311D02*
G01*
X168381925Y-26754230D01*
X168407835Y-26760720D01*
X168432983Y-26769718D01*
X168457128Y-26781138D01*
X168480038Y-26794869D01*
X168501492Y-26810780D01*
X168521282Y-26828718D01*
X168539220Y-26848508D01*
X168555131Y-26869962D01*
X168568862Y-26892872D01*
X168580282Y-26917017D01*
X168589280Y-26942165D01*
X168595770Y-26968075D01*
X168599689Y-26994495D01*
X168601000Y-27021173D01*
X168601000Y-27978827D01*
X168599689Y-28005505D01*
X168595770Y-28031925D01*
X168589280Y-28057835D01*
X168580282Y-28082983D01*
X168568862Y-28107128D01*
X168555131Y-28130038D01*
X168539220Y-28151492D01*
X168521282Y-28171282D01*
X168501492Y-28189220D01*
X168480038Y-28205131D01*
X168457128Y-28218862D01*
X168432983Y-28230282D01*
X168407835Y-28239280D01*
X168381925Y-28245770D01*
X168355505Y-28249689D01*
X168328827Y-28251000D01*
X167621173Y-28251000D01*
X167594495Y-28249689D01*
X167568075Y-28245770D01*
X167542165Y-28239280D01*
X167517017Y-28230282D01*
X167492872Y-28218862D01*
X167469962Y-28205131D01*
X167448508Y-28189220D01*
X167428718Y-28171282D01*
X167410780Y-28151492D01*
X167394869Y-28130038D01*
X167381138Y-28107128D01*
X167369718Y-28082983D01*
X167360720Y-28057835D01*
X167354230Y-28031925D01*
X167350311Y-28005505D01*
X167349000Y-27978827D01*
X167349000Y-27021173D01*
X167350311Y-26994495D01*
X167354230Y-26968075D01*
X167360720Y-26942165D01*
X167369718Y-26917017D01*
X167381138Y-26892872D01*
X167394869Y-26869962D01*
X167410780Y-26848508D01*
X167428718Y-26828718D01*
X167448508Y-26810780D01*
X167469962Y-26794869D01*
X167492872Y-26781138D01*
X167517017Y-26769718D01*
X167542165Y-26760720D01*
X167568075Y-26754230D01*
X167594495Y-26750311D01*
X167621173Y-26749000D01*
X168328827Y-26749000D01*
X168355505Y-26750311D01*
G37*
G36*
X170405505Y-26750311D02*
G01*
X170431925Y-26754230D01*
X170457835Y-26760720D01*
X170482983Y-26769718D01*
X170507128Y-26781138D01*
X170530038Y-26794869D01*
X170551492Y-26810780D01*
X170571282Y-26828718D01*
X170589220Y-26848508D01*
X170605131Y-26869962D01*
X170618862Y-26892872D01*
X170630282Y-26917017D01*
X170639280Y-26942165D01*
X170645770Y-26968075D01*
X170649689Y-26994495D01*
X170651000Y-27021173D01*
X170651000Y-27978827D01*
X170649689Y-28005505D01*
X170645770Y-28031925D01*
X170639280Y-28057835D01*
X170630282Y-28082983D01*
X170618862Y-28107128D01*
X170605131Y-28130038D01*
X170589220Y-28151492D01*
X170571282Y-28171282D01*
X170551492Y-28189220D01*
X170530038Y-28205131D01*
X170507128Y-28218862D01*
X170482983Y-28230282D01*
X170457835Y-28239280D01*
X170431925Y-28245770D01*
X170405505Y-28249689D01*
X170378827Y-28251000D01*
X169671173Y-28251000D01*
X169644495Y-28249689D01*
X169618075Y-28245770D01*
X169592165Y-28239280D01*
X169567017Y-28230282D01*
X169542872Y-28218862D01*
X169519962Y-28205131D01*
X169498508Y-28189220D01*
X169478718Y-28171282D01*
X169460780Y-28151492D01*
X169444869Y-28130038D01*
X169431138Y-28107128D01*
X169419718Y-28082983D01*
X169410720Y-28057835D01*
X169404230Y-28031925D01*
X169400311Y-28005505D01*
X169399000Y-27978827D01*
X169399000Y-27021173D01*
X169400311Y-26994495D01*
X169404230Y-26968075D01*
X169410720Y-26942165D01*
X169419718Y-26917017D01*
X169431138Y-26892872D01*
X169444869Y-26869962D01*
X169460780Y-26848508D01*
X169478718Y-26828718D01*
X169498508Y-26810780D01*
X169519962Y-26794869D01*
X169542872Y-26781138D01*
X169567017Y-26769718D01*
X169592165Y-26760720D01*
X169618075Y-26754230D01*
X169644495Y-26750311D01*
X169671173Y-26749000D01*
X170378827Y-26749000D01*
X170405505Y-26750311D01*
G37*
G36*
X176355505Y-26750311D02*
G01*
X176381925Y-26754230D01*
X176407835Y-26760720D01*
X176432983Y-26769718D01*
X176457128Y-26781138D01*
X176480038Y-26794869D01*
X176501492Y-26810780D01*
X176521282Y-26828718D01*
X176539220Y-26848508D01*
X176555131Y-26869962D01*
X176568862Y-26892872D01*
X176580282Y-26917017D01*
X176589280Y-26942165D01*
X176595770Y-26968075D01*
X176599689Y-26994495D01*
X176601000Y-27021173D01*
X176601000Y-27978827D01*
X176599689Y-28005505D01*
X176595770Y-28031925D01*
X176589280Y-28057835D01*
X176580282Y-28082983D01*
X176568862Y-28107128D01*
X176555131Y-28130038D01*
X176539220Y-28151492D01*
X176521282Y-28171282D01*
X176501492Y-28189220D01*
X176480038Y-28205131D01*
X176457128Y-28218862D01*
X176432983Y-28230282D01*
X176407835Y-28239280D01*
X176381925Y-28245770D01*
X176355505Y-28249689D01*
X176328827Y-28251000D01*
X175621173Y-28251000D01*
X175594495Y-28249689D01*
X175568075Y-28245770D01*
X175542165Y-28239280D01*
X175517017Y-28230282D01*
X175492872Y-28218862D01*
X175469962Y-28205131D01*
X175448508Y-28189220D01*
X175428718Y-28171282D01*
X175410780Y-28151492D01*
X175394869Y-28130038D01*
X175381138Y-28107128D01*
X175369718Y-28082983D01*
X175360720Y-28057835D01*
X175354230Y-28031925D01*
X175350311Y-28005505D01*
X175349000Y-27978827D01*
X175349000Y-27021173D01*
X175350311Y-26994495D01*
X175354230Y-26968075D01*
X175360720Y-26942165D01*
X175369718Y-26917017D01*
X175381138Y-26892872D01*
X175394869Y-26869962D01*
X175410780Y-26848508D01*
X175428718Y-26828718D01*
X175448508Y-26810780D01*
X175469962Y-26794869D01*
X175492872Y-26781138D01*
X175517017Y-26769718D01*
X175542165Y-26760720D01*
X175568075Y-26754230D01*
X175594495Y-26750311D01*
X175621173Y-26749000D01*
X176328827Y-26749000D01*
X176355505Y-26750311D01*
G37*
G36*
X178405505Y-26750311D02*
G01*
X178431925Y-26754230D01*
X178457835Y-26760720D01*
X178482983Y-26769718D01*
X178507128Y-26781138D01*
X178530038Y-26794869D01*
X178551492Y-26810780D01*
X178571282Y-26828718D01*
X178589220Y-26848508D01*
X178605131Y-26869962D01*
X178618862Y-26892872D01*
X178630282Y-26917017D01*
X178639280Y-26942165D01*
X178645770Y-26968075D01*
X178649689Y-26994495D01*
X178651000Y-27021173D01*
X178651000Y-27978827D01*
X178649689Y-28005505D01*
X178645770Y-28031925D01*
X178639280Y-28057835D01*
X178630282Y-28082983D01*
X178618862Y-28107128D01*
X178605131Y-28130038D01*
X178589220Y-28151492D01*
X178571282Y-28171282D01*
X178551492Y-28189220D01*
X178530038Y-28205131D01*
X178507128Y-28218862D01*
X178482983Y-28230282D01*
X178457835Y-28239280D01*
X178431925Y-28245770D01*
X178405505Y-28249689D01*
X178378827Y-28251000D01*
X177671173Y-28251000D01*
X177644495Y-28249689D01*
X177618075Y-28245770D01*
X177592165Y-28239280D01*
X177567017Y-28230282D01*
X177542872Y-28218862D01*
X177519962Y-28205131D01*
X177498508Y-28189220D01*
X177478718Y-28171282D01*
X177460780Y-28151492D01*
X177444869Y-28130038D01*
X177431138Y-28107128D01*
X177419718Y-28082983D01*
X177410720Y-28057835D01*
X177404230Y-28031925D01*
X177400311Y-28005505D01*
X177399000Y-27978827D01*
X177399000Y-27021173D01*
X177400311Y-26994495D01*
X177404230Y-26968075D01*
X177410720Y-26942165D01*
X177419718Y-26917017D01*
X177431138Y-26892872D01*
X177444869Y-26869962D01*
X177460780Y-26848508D01*
X177478718Y-26828718D01*
X177498508Y-26810780D01*
X177519962Y-26794869D01*
X177542872Y-26781138D01*
X177567017Y-26769718D01*
X177592165Y-26760720D01*
X177618075Y-26754230D01*
X177644495Y-26750311D01*
X177671173Y-26749000D01*
X178378827Y-26749000D01*
X178405505Y-26750311D01*
G37*
D13*
X313412500Y-102362500D03*
X318412500Y-101862500D03*
X313412500Y-83312500D03*
X318412500Y-82812500D03*
X313412500Y-64262500D03*
X318412500Y-63762500D03*
X313412500Y-45212500D03*
X318412500Y-44712500D03*
X313412500Y-26162500D03*
X318412500Y-25662500D03*
X294362500Y-102362500D03*
X299362500Y-101862500D03*
X294362500Y-83312500D03*
X299362500Y-82812500D03*
X284837500Y-26162500D03*
X289837500Y-25662500D03*
X275312500Y-102362500D03*
X280312500Y-101862500D03*
X268168750Y-83312500D03*
X273168750Y-82812500D03*
X282456250Y-64262500D03*
X287456250Y-63762500D03*
X265787500Y-45212500D03*
X270787500Y-44712500D03*
X256262500Y-26162500D03*
X261262500Y-25662500D03*
X256262500Y-102362500D03*
X261262500Y-101862500D03*
X251500000Y-64262500D03*
X256500000Y-63762500D03*
X246737500Y-45212500D03*
X251737500Y-44712500D03*
X237212500Y-26162500D03*
X242212500Y-25662500D03*
X234831250Y-102362500D03*
X239831250Y-101862500D03*
X241975000Y-83312500D03*
X246975000Y-82812500D03*
X232450000Y-64262500D03*
X237450000Y-63762500D03*
X227687500Y-45212500D03*
X232687500Y-44712500D03*
X218162500Y-26162500D03*
X223162500Y-25662500D03*
X222925000Y-83312500D03*
X227925000Y-82812500D03*
X213400000Y-64262500D03*
X218400000Y-63762500D03*
X208637500Y-45212500D03*
X213637500Y-44712500D03*
X199112500Y-26162500D03*
X204112500Y-25662500D03*
X203875000Y-83312500D03*
X208875000Y-82812500D03*
X194350000Y-64262500D03*
X199350000Y-63762500D03*
X189587500Y-45212500D03*
X194587500Y-44712500D03*
X180062500Y-26162500D03*
X185062500Y-25662500D03*
X184825000Y-83312500D03*
X189825000Y-82812500D03*
X175300000Y-64262500D03*
X180300000Y-63762500D03*
X170537500Y-45212500D03*
X175537500Y-44712500D03*
X161012500Y-26162500D03*
X166012500Y-25662500D03*
X165775000Y-83312500D03*
X170775000Y-82812500D03*
X156250000Y-64262500D03*
X161250000Y-63762500D03*
X151487500Y-45212500D03*
X156487500Y-44712500D03*
X141962500Y-26162500D03*
X146962500Y-25662500D03*
X146725000Y-83312500D03*
X151725000Y-82812500D03*
X137200000Y-64262500D03*
X142200000Y-63762500D03*
X132437500Y-45212500D03*
X137437500Y-44712500D03*
X122912500Y-26162500D03*
X127912500Y-25662500D03*
X127675000Y-83312500D03*
X132675000Y-82812500D03*
X118150000Y-64262500D03*
X123150000Y-63762500D03*
X113387500Y-45212500D03*
X118387500Y-44712500D03*
X103862500Y-26162500D03*
X108862500Y-25662500D03*
X108625000Y-83312500D03*
X113625000Y-82812500D03*
X99100000Y-64262500D03*
X104100000Y-63762500D03*
X94337500Y-45212500D03*
X99337500Y-44712500D03*
X84812500Y-26162500D03*
X89812500Y-25662500D03*
X84812500Y-102362500D03*
X89812500Y-101862500D03*
X89575000Y-83312500D03*
X94575000Y-82812500D03*
X80050000Y-64262500D03*
X85050000Y-63762500D03*
X75287500Y-45212500D03*
X80287500Y-44712500D03*
X65762500Y-26162500D03*
X70762500Y-25662500D03*
X58618750Y-102362500D03*
X63618750Y-101862500D03*
X70525000Y-83312500D03*
X75525000Y-82812500D03*
X61000000Y-64262500D03*
X66000000Y-63762500D03*
X56237500Y-45212500D03*
X61237500Y-44712500D03*
X46712500Y-26162500D03*
X51712500Y-25662500D03*
X32425000Y-102362500D03*
X37425000Y-101862500D03*
X39568750Y-83312500D03*
X44568750Y-82812500D03*
X34806250Y-64262500D03*
X39806250Y-63762500D03*
X32425000Y-45212500D03*
X37425000Y-44712500D03*
X27662500Y-26162500D03*
X32662500Y-25662500D03*
D12*
G36*
X178484363Y-30750290D02*
G01*
X178510369Y-30754148D01*
X178535871Y-30760535D01*
X178560624Y-30769392D01*
X178584390Y-30780633D01*
X178606939Y-30794148D01*
X178628056Y-30809809D01*
X178647535Y-30827465D01*
X178665191Y-30846944D01*
X178680852Y-30868061D01*
X178694367Y-30890610D01*
X178705608Y-30914376D01*
X178714465Y-30939129D01*
X178720852Y-30964631D01*
X178724710Y-30990637D01*
X178726000Y-31016895D01*
X178726000Y-32008105D01*
X178724710Y-32034363D01*
X178720852Y-32060369D01*
X178714465Y-32085871D01*
X178705608Y-32110624D01*
X178694367Y-32134390D01*
X178680852Y-32156939D01*
X178665191Y-32178056D01*
X178647535Y-32197535D01*
X178628056Y-32215191D01*
X178606939Y-32230852D01*
X178584390Y-32244367D01*
X178560624Y-32255608D01*
X178535871Y-32264465D01*
X178510369Y-32270852D01*
X178484363Y-32274710D01*
X178458105Y-32276000D01*
X177141895Y-32276000D01*
X177115637Y-32274710D01*
X177089631Y-32270852D01*
X177064129Y-32264465D01*
X177039376Y-32255608D01*
X177015610Y-32244367D01*
X176993061Y-32230852D01*
X176971944Y-32215191D01*
X176952465Y-32197535D01*
X176934809Y-32178056D01*
X176919148Y-32156939D01*
X176905633Y-32134390D01*
X176894392Y-32110624D01*
X176885535Y-32085871D01*
X176879148Y-32060369D01*
X176875290Y-32034363D01*
X176874000Y-32008105D01*
X176874000Y-31016895D01*
X176875290Y-30990637D01*
X176879148Y-30964631D01*
X176885535Y-30939129D01*
X176894392Y-30914376D01*
X176905633Y-30890610D01*
X176919148Y-30868061D01*
X176934809Y-30846944D01*
X176952465Y-30827465D01*
X176971944Y-30809809D01*
X176993061Y-30794148D01*
X177015610Y-30780633D01*
X177039376Y-30769392D01*
X177064129Y-30760535D01*
X177089631Y-30754148D01*
X177115637Y-30750290D01*
X177141895Y-30749000D01*
X178458105Y-30749000D01*
X178484363Y-30750290D01*
G37*
G36*
X178484363Y-33725290D02*
G01*
X178510369Y-33729148D01*
X178535871Y-33735535D01*
X178560624Y-33744392D01*
X178584390Y-33755633D01*
X178606939Y-33769148D01*
X178628056Y-33784809D01*
X178647535Y-33802465D01*
X178665191Y-33821944D01*
X178680852Y-33843061D01*
X178694367Y-33865610D01*
X178705608Y-33889376D01*
X178714465Y-33914129D01*
X178720852Y-33939631D01*
X178724710Y-33965637D01*
X178726000Y-33991895D01*
X178726000Y-34983105D01*
X178724710Y-35009363D01*
X178720852Y-35035369D01*
X178714465Y-35060871D01*
X178705608Y-35085624D01*
X178694367Y-35109390D01*
X178680852Y-35131939D01*
X178665191Y-35153056D01*
X178647535Y-35172535D01*
X178628056Y-35190191D01*
X178606939Y-35205852D01*
X178584390Y-35219367D01*
X178560624Y-35230608D01*
X178535871Y-35239465D01*
X178510369Y-35245852D01*
X178484363Y-35249710D01*
X178458105Y-35251000D01*
X177141895Y-35251000D01*
X177115637Y-35249710D01*
X177089631Y-35245852D01*
X177064129Y-35239465D01*
X177039376Y-35230608D01*
X177015610Y-35219367D01*
X176993061Y-35205852D01*
X176971944Y-35190191D01*
X176952465Y-35172535D01*
X176934809Y-35153056D01*
X176919148Y-35131939D01*
X176905633Y-35109390D01*
X176894392Y-35085624D01*
X176885535Y-35060871D01*
X176879148Y-35035369D01*
X176875290Y-35009363D01*
X176874000Y-34983105D01*
X176874000Y-33991895D01*
X176875290Y-33965637D01*
X176879148Y-33939631D01*
X176885535Y-33914129D01*
X176894392Y-33889376D01*
X176905633Y-33865610D01*
X176919148Y-33843061D01*
X176934809Y-33821944D01*
X176952465Y-33802465D01*
X176971944Y-33784809D01*
X176993061Y-33769148D01*
X177015610Y-33755633D01*
X177039376Y-33744392D01*
X177064129Y-33735535D01*
X177089631Y-33729148D01*
X177115637Y-33725290D01*
X177141895Y-33724000D01*
X178458105Y-33724000D01*
X178484363Y-33725290D01*
G37*
D20*
X322750000Y-104712500D03*
X322750000Y-108012500D03*
X322262500Y-85662500D03*
X322262500Y-88962500D03*
X322262500Y-67406250D03*
X322262500Y-70706250D03*
X322262500Y-49150000D03*
X322262500Y-52450000D03*
X322262500Y-30100000D03*
X322262500Y-33400000D03*
X305593750Y-104712500D03*
X305593750Y-108012500D03*
X305593750Y-84868750D03*
X305593750Y-88168750D03*
X300831250Y-47562500D03*
X300831250Y-50862500D03*
X297656250Y-28512500D03*
X297656250Y-31812500D03*
X286543750Y-104712500D03*
X286543750Y-108012500D03*
X279400000Y-84868750D03*
X279400000Y-88168750D03*
X294481250Y-66612500D03*
X294481250Y-69912500D03*
X277018750Y-47562500D03*
X277018750Y-50862500D03*
X267493750Y-28512500D03*
X267493750Y-31812500D03*
X267493750Y-104712500D03*
X267493750Y-108012500D03*
X263525000Y-66612500D03*
X263525000Y-69912500D03*
X257968750Y-47562500D03*
X257968750Y-50862500D03*
X248443750Y-28512500D03*
X248443750Y-31812500D03*
X246062500Y-104712500D03*
X246062500Y-108012500D03*
X253206250Y-84868750D03*
X253206250Y-88168750D03*
X243500000Y-66612500D03*
X243500000Y-69912500D03*
X238918750Y-47562500D03*
X238918750Y-50862500D03*
X229393750Y-28512500D03*
X229393750Y-31812500D03*
X234156250Y-84868750D03*
X234156250Y-88168750D03*
X224631250Y-66612500D03*
X224631250Y-69912500D03*
X219868750Y-47562500D03*
X219868750Y-50862500D03*
X210343750Y-28512500D03*
X210343750Y-31812500D03*
X215106250Y-83100000D03*
X215106250Y-86400000D03*
X205581250Y-66612500D03*
X205581250Y-69912500D03*
X200818750Y-47562500D03*
X200818750Y-50862500D03*
X191000000Y-28350000D03*
X191000000Y-31650000D03*
X196056250Y-84868750D03*
X196056250Y-88168750D03*
X186531250Y-66612500D03*
X186531250Y-69912500D03*
X181768750Y-47562500D03*
X181768750Y-50862500D03*
X156500000Y-28512500D03*
X156500000Y-31812500D03*
X175800000Y-84868750D03*
X175800000Y-88168750D03*
X167481250Y-66612500D03*
X167481250Y-69912500D03*
X162718750Y-47562500D03*
X162718750Y-50862500D03*
X153193750Y-28512500D03*
X153193750Y-31812500D03*
X172243750Y-104712500D03*
X172243750Y-108012500D03*
X157956250Y-84868750D03*
X157956250Y-88168750D03*
X148431250Y-66612500D03*
X148431250Y-69912500D03*
X143668750Y-47562500D03*
X143668750Y-50862500D03*
X134143750Y-28512500D03*
X134143750Y-31812500D03*
X138906250Y-84868750D03*
X138906250Y-88168750D03*
X129381250Y-66612500D03*
X129381250Y-69912500D03*
X124618750Y-47562500D03*
X124618750Y-50862500D03*
X115093750Y-28512500D03*
X115093750Y-31812500D03*
X119856250Y-84868750D03*
X119856250Y-88168750D03*
X110331250Y-66612500D03*
X110331250Y-69912500D03*
X105568750Y-47562500D03*
X105568750Y-50862500D03*
X96043750Y-28512500D03*
X96043750Y-31812500D03*
X96043750Y-104712500D03*
X96043750Y-108012500D03*
X100806250Y-84868750D03*
X100806250Y-88168750D03*
X91281250Y-66612500D03*
X91281250Y-69912500D03*
X86518750Y-47562500D03*
X86518750Y-50862500D03*
X76993750Y-28512500D03*
X76993750Y-31812500D03*
X69850000Y-104712500D03*
X69850000Y-108012500D03*
X81756250Y-84868750D03*
X81756250Y-88168750D03*
X72231250Y-66612500D03*
X72231250Y-69912500D03*
X67468750Y-47562500D03*
X67468750Y-50862500D03*
X57943750Y-28512500D03*
X57943750Y-31812500D03*
X43656250Y-104712500D03*
X43656250Y-108012500D03*
X50800000Y-84868750D03*
X50800000Y-88168750D03*
X46831250Y-66612500D03*
X46831250Y-69912500D03*
X43656250Y-47562500D03*
X43656250Y-50862500D03*
X38100000Y-28512500D03*
X38100000Y-31812500D03*
M02*
