G04 #@! TF.GenerationSoftware,KiCad,Pcbnew,(5.1.5-0-10_14)*
G04 #@! TF.CreationDate,2019-12-30T20:39:33+01:00*
G04 #@! TF.ProjectId,aek67,61656b36-372e-46b6-9963-61645f706362,rev?*
G04 #@! TF.SameCoordinates,Original*
G04 #@! TF.FileFunction,Copper,L2,Bot*
G04 #@! TF.FilePolarity,Positive*
%FSLAX46Y46*%
G04 Gerber Fmt 4.6, Leading zero omitted, Abs format (unit mm)*
G04 Created by KiCad (PCBNEW (5.1.5-0-10_14)) date 2019-12-30 20:39:33*
%MOMM*%
%LPD*%
G04 APERTURE LIST*
%ADD10C,2.250000*%
%ADD11R,0.600000X2.450000*%
%ADD12R,0.300000X2.450000*%
%ADD13O,1.000000X2.100000*%
%ADD14O,1.000000X1.600000*%
%ADD15C,0.100000*%
%ADD16R,1.000000X0.900000*%
%ADD17R,1.000000X1.200000*%
%ADD18R,1.800000X1.100000*%
%ADD19R,1.700000X1.700000*%
%ADD20C,1.700000*%
%ADD21R,1.200000X0.900000*%
%ADD22C,0.800000*%
%ADD23C,0.381000*%
%ADD24C,0.250000*%
%ADD25C,0.254000*%
%ADD26C,0.025400*%
G04 APERTURE END LIST*
D10*
X161012500Y-102362500D03*
X166012500Y-101862500D03*
D11*
X176125000Y-23295000D03*
X169675000Y-23295000D03*
X175350000Y-23295000D03*
X170450000Y-23295000D03*
D12*
X171150000Y-23295000D03*
X174650000Y-23295000D03*
X171650000Y-23295000D03*
X174150000Y-23295000D03*
X172150000Y-23295000D03*
X173650000Y-23295000D03*
X173150000Y-23295000D03*
X172650000Y-23295000D03*
D13*
X168580000Y-21880000D03*
X177220000Y-21880000D03*
D14*
X168580000Y-17700000D03*
X177220000Y-17700000D03*
D10*
X289600000Y-45212500D03*
X294600000Y-44712500D03*
G04 #@! TA.AperFunction,SMDPad,CuDef*
D15*
G36*
X208568198Y-92032664D02*
G01*
X209840990Y-93305456D01*
X208356066Y-94790380D01*
X207083274Y-93517588D01*
X208568198Y-92032664D01*
G37*
G04 #@! TD.AperFunction*
G04 #@! TA.AperFunction,SMDPad,CuDef*
G36*
X206517588Y-94083274D02*
G01*
X207790380Y-95356066D01*
X206305456Y-96840990D01*
X205032664Y-95568198D01*
X206517588Y-94083274D01*
G37*
G04 #@! TD.AperFunction*
G04 #@! TA.AperFunction,SMDPad,CuDef*
G36*
X208143934Y-95709620D02*
G01*
X209416726Y-96982412D01*
X207931802Y-98467336D01*
X206659010Y-97194544D01*
X208143934Y-95709620D01*
G37*
G04 #@! TD.AperFunction*
G04 #@! TA.AperFunction,SMDPad,CuDef*
G36*
X210194544Y-93659010D02*
G01*
X211467336Y-94931802D01*
X209982412Y-96416726D01*
X208709620Y-95143934D01*
X210194544Y-93659010D01*
G37*
G04 #@! TD.AperFunction*
G04 #@! TA.AperFunction,SMDPad,CuDef*
G36*
X218977298Y-111273060D02*
G01*
X219366206Y-110884152D01*
X220426866Y-111944812D01*
X220037958Y-112333720D01*
X218977298Y-111273060D01*
G37*
G04 #@! TD.AperFunction*
G04 #@! TA.AperFunction,SMDPad,CuDef*
G36*
X219542983Y-110707374D02*
G01*
X219931891Y-110318466D01*
X220992551Y-111379126D01*
X220603643Y-111768034D01*
X219542983Y-110707374D01*
G37*
G04 #@! TD.AperFunction*
G04 #@! TA.AperFunction,SMDPad,CuDef*
G36*
X220108668Y-110141689D02*
G01*
X220497576Y-109752781D01*
X221558236Y-110813441D01*
X221169328Y-111202349D01*
X220108668Y-110141689D01*
G37*
G04 #@! TD.AperFunction*
G04 #@! TA.AperFunction,SMDPad,CuDef*
G36*
X220674354Y-109576004D02*
G01*
X221063262Y-109187096D01*
X222123922Y-110247756D01*
X221735014Y-110636664D01*
X220674354Y-109576004D01*
G37*
G04 #@! TD.AperFunction*
G04 #@! TA.AperFunction,SMDPad,CuDef*
G36*
X221240039Y-109010318D02*
G01*
X221628947Y-108621410D01*
X222689607Y-109682070D01*
X222300699Y-110070978D01*
X221240039Y-109010318D01*
G37*
G04 #@! TD.AperFunction*
G04 #@! TA.AperFunction,SMDPad,CuDef*
G36*
X221805725Y-108444633D02*
G01*
X222194633Y-108055725D01*
X223255293Y-109116385D01*
X222866385Y-109505293D01*
X221805725Y-108444633D01*
G37*
G04 #@! TD.AperFunction*
G04 #@! TA.AperFunction,SMDPad,CuDef*
G36*
X222371410Y-107878947D02*
G01*
X222760318Y-107490039D01*
X223820978Y-108550699D01*
X223432070Y-108939607D01*
X222371410Y-107878947D01*
G37*
G04 #@! TD.AperFunction*
G04 #@! TA.AperFunction,SMDPad,CuDef*
G36*
X222937096Y-107313262D02*
G01*
X223326004Y-106924354D01*
X224386664Y-107985014D01*
X223997756Y-108373922D01*
X222937096Y-107313262D01*
G37*
G04 #@! TD.AperFunction*
G04 #@! TA.AperFunction,SMDPad,CuDef*
G36*
X223502781Y-106747576D02*
G01*
X223891689Y-106358668D01*
X224952349Y-107419328D01*
X224563441Y-107808236D01*
X223502781Y-106747576D01*
G37*
G04 #@! TD.AperFunction*
G04 #@! TA.AperFunction,SMDPad,CuDef*
G36*
X224068466Y-106181891D02*
G01*
X224457374Y-105792983D01*
X225518034Y-106853643D01*
X225129126Y-107242551D01*
X224068466Y-106181891D01*
G37*
G04 #@! TD.AperFunction*
G04 #@! TA.AperFunction,SMDPad,CuDef*
G36*
X224634152Y-105616206D02*
G01*
X225023060Y-105227298D01*
X226083720Y-106287958D01*
X225694812Y-106676866D01*
X224634152Y-105616206D01*
G37*
G04 #@! TD.AperFunction*
G04 #@! TA.AperFunction,SMDPad,CuDef*
G36*
X225023060Y-104272702D02*
G01*
X224634152Y-103883794D01*
X225694812Y-102823134D01*
X226083720Y-103212042D01*
X225023060Y-104272702D01*
G37*
G04 #@! TD.AperFunction*
G04 #@! TA.AperFunction,SMDPad,CuDef*
G36*
X224457374Y-103707017D02*
G01*
X224068466Y-103318109D01*
X225129126Y-102257449D01*
X225518034Y-102646357D01*
X224457374Y-103707017D01*
G37*
G04 #@! TD.AperFunction*
G04 #@! TA.AperFunction,SMDPad,CuDef*
G36*
X223891689Y-103141332D02*
G01*
X223502781Y-102752424D01*
X224563441Y-101691764D01*
X224952349Y-102080672D01*
X223891689Y-103141332D01*
G37*
G04 #@! TD.AperFunction*
G04 #@! TA.AperFunction,SMDPad,CuDef*
G36*
X223326004Y-102575646D02*
G01*
X222937096Y-102186738D01*
X223997756Y-101126078D01*
X224386664Y-101514986D01*
X223326004Y-102575646D01*
G37*
G04 #@! TD.AperFunction*
G04 #@! TA.AperFunction,SMDPad,CuDef*
G36*
X222760318Y-102009961D02*
G01*
X222371410Y-101621053D01*
X223432070Y-100560393D01*
X223820978Y-100949301D01*
X222760318Y-102009961D01*
G37*
G04 #@! TD.AperFunction*
G04 #@! TA.AperFunction,SMDPad,CuDef*
G36*
X222194633Y-101444275D02*
G01*
X221805725Y-101055367D01*
X222866385Y-99994707D01*
X223255293Y-100383615D01*
X222194633Y-101444275D01*
G37*
G04 #@! TD.AperFunction*
G04 #@! TA.AperFunction,SMDPad,CuDef*
G36*
X221628947Y-100878590D02*
G01*
X221240039Y-100489682D01*
X222300699Y-99429022D01*
X222689607Y-99817930D01*
X221628947Y-100878590D01*
G37*
G04 #@! TD.AperFunction*
G04 #@! TA.AperFunction,SMDPad,CuDef*
G36*
X221063262Y-100312904D02*
G01*
X220674354Y-99923996D01*
X221735014Y-98863336D01*
X222123922Y-99252244D01*
X221063262Y-100312904D01*
G37*
G04 #@! TD.AperFunction*
G04 #@! TA.AperFunction,SMDPad,CuDef*
G36*
X220497576Y-99747219D02*
G01*
X220108668Y-99358311D01*
X221169328Y-98297651D01*
X221558236Y-98686559D01*
X220497576Y-99747219D01*
G37*
G04 #@! TD.AperFunction*
G04 #@! TA.AperFunction,SMDPad,CuDef*
G36*
X219931891Y-99181534D02*
G01*
X219542983Y-98792626D01*
X220603643Y-97731966D01*
X220992551Y-98120874D01*
X219931891Y-99181534D01*
G37*
G04 #@! TD.AperFunction*
G04 #@! TA.AperFunction,SMDPad,CuDef*
G36*
X219366206Y-98615848D02*
G01*
X218977298Y-98226940D01*
X220037958Y-97166280D01*
X220426866Y-97555188D01*
X219366206Y-98615848D01*
G37*
G04 #@! TD.AperFunction*
G04 #@! TA.AperFunction,SMDPad,CuDef*
G36*
X216573134Y-97555188D02*
G01*
X216962042Y-97166280D01*
X218022702Y-98226940D01*
X217633794Y-98615848D01*
X216573134Y-97555188D01*
G37*
G04 #@! TD.AperFunction*
G04 #@! TA.AperFunction,SMDPad,CuDef*
G36*
X216007449Y-98120874D02*
G01*
X216396357Y-97731966D01*
X217457017Y-98792626D01*
X217068109Y-99181534D01*
X216007449Y-98120874D01*
G37*
G04 #@! TD.AperFunction*
G04 #@! TA.AperFunction,SMDPad,CuDef*
G36*
X215441764Y-98686559D02*
G01*
X215830672Y-98297651D01*
X216891332Y-99358311D01*
X216502424Y-99747219D01*
X215441764Y-98686559D01*
G37*
G04 #@! TD.AperFunction*
G04 #@! TA.AperFunction,SMDPad,CuDef*
G36*
X214876078Y-99252244D02*
G01*
X215264986Y-98863336D01*
X216325646Y-99923996D01*
X215936738Y-100312904D01*
X214876078Y-99252244D01*
G37*
G04 #@! TD.AperFunction*
G04 #@! TA.AperFunction,SMDPad,CuDef*
G36*
X214310393Y-99817930D02*
G01*
X214699301Y-99429022D01*
X215759961Y-100489682D01*
X215371053Y-100878590D01*
X214310393Y-99817930D01*
G37*
G04 #@! TD.AperFunction*
G04 #@! TA.AperFunction,SMDPad,CuDef*
G36*
X213744707Y-100383615D02*
G01*
X214133615Y-99994707D01*
X215194275Y-101055367D01*
X214805367Y-101444275D01*
X213744707Y-100383615D01*
G37*
G04 #@! TD.AperFunction*
G04 #@! TA.AperFunction,SMDPad,CuDef*
G36*
X213179022Y-100949301D02*
G01*
X213567930Y-100560393D01*
X214628590Y-101621053D01*
X214239682Y-102009961D01*
X213179022Y-100949301D01*
G37*
G04 #@! TD.AperFunction*
G04 #@! TA.AperFunction,SMDPad,CuDef*
G36*
X212613336Y-101514986D02*
G01*
X213002244Y-101126078D01*
X214062904Y-102186738D01*
X213673996Y-102575646D01*
X212613336Y-101514986D01*
G37*
G04 #@! TD.AperFunction*
G04 #@! TA.AperFunction,SMDPad,CuDef*
G36*
X212047651Y-102080672D02*
G01*
X212436559Y-101691764D01*
X213497219Y-102752424D01*
X213108311Y-103141332D01*
X212047651Y-102080672D01*
G37*
G04 #@! TD.AperFunction*
G04 #@! TA.AperFunction,SMDPad,CuDef*
G36*
X211481966Y-102646357D02*
G01*
X211870874Y-102257449D01*
X212931534Y-103318109D01*
X212542626Y-103707017D01*
X211481966Y-102646357D01*
G37*
G04 #@! TD.AperFunction*
G04 #@! TA.AperFunction,SMDPad,CuDef*
G36*
X210916280Y-103212042D02*
G01*
X211305188Y-102823134D01*
X212365848Y-103883794D01*
X211976940Y-104272702D01*
X210916280Y-103212042D01*
G37*
G04 #@! TD.AperFunction*
G04 #@! TA.AperFunction,SMDPad,CuDef*
G36*
X211305188Y-106676866D02*
G01*
X210916280Y-106287958D01*
X211976940Y-105227298D01*
X212365848Y-105616206D01*
X211305188Y-106676866D01*
G37*
G04 #@! TD.AperFunction*
G04 #@! TA.AperFunction,SMDPad,CuDef*
G36*
X211870874Y-107242551D02*
G01*
X211481966Y-106853643D01*
X212542626Y-105792983D01*
X212931534Y-106181891D01*
X211870874Y-107242551D01*
G37*
G04 #@! TD.AperFunction*
G04 #@! TA.AperFunction,SMDPad,CuDef*
G36*
X212436559Y-107808236D02*
G01*
X212047651Y-107419328D01*
X213108311Y-106358668D01*
X213497219Y-106747576D01*
X212436559Y-107808236D01*
G37*
G04 #@! TD.AperFunction*
G04 #@! TA.AperFunction,SMDPad,CuDef*
G36*
X213002244Y-108373922D02*
G01*
X212613336Y-107985014D01*
X213673996Y-106924354D01*
X214062904Y-107313262D01*
X213002244Y-108373922D01*
G37*
G04 #@! TD.AperFunction*
G04 #@! TA.AperFunction,SMDPad,CuDef*
G36*
X213567930Y-108939607D02*
G01*
X213179022Y-108550699D01*
X214239682Y-107490039D01*
X214628590Y-107878947D01*
X213567930Y-108939607D01*
G37*
G04 #@! TD.AperFunction*
G04 #@! TA.AperFunction,SMDPad,CuDef*
G36*
X214133615Y-109505293D02*
G01*
X213744707Y-109116385D01*
X214805367Y-108055725D01*
X215194275Y-108444633D01*
X214133615Y-109505293D01*
G37*
G04 #@! TD.AperFunction*
G04 #@! TA.AperFunction,SMDPad,CuDef*
G36*
X214699301Y-110070978D02*
G01*
X214310393Y-109682070D01*
X215371053Y-108621410D01*
X215759961Y-109010318D01*
X214699301Y-110070978D01*
G37*
G04 #@! TD.AperFunction*
G04 #@! TA.AperFunction,SMDPad,CuDef*
G36*
X215264986Y-110636664D02*
G01*
X214876078Y-110247756D01*
X215936738Y-109187096D01*
X216325646Y-109576004D01*
X215264986Y-110636664D01*
G37*
G04 #@! TD.AperFunction*
G04 #@! TA.AperFunction,SMDPad,CuDef*
G36*
X215830672Y-111202349D02*
G01*
X215441764Y-110813441D01*
X216502424Y-109752781D01*
X216891332Y-110141689D01*
X215830672Y-111202349D01*
G37*
G04 #@! TD.AperFunction*
G04 #@! TA.AperFunction,SMDPad,CuDef*
G36*
X216396357Y-111768034D02*
G01*
X216007449Y-111379126D01*
X217068109Y-110318466D01*
X217457017Y-110707374D01*
X216396357Y-111768034D01*
G37*
G04 #@! TD.AperFunction*
G04 #@! TA.AperFunction,SMDPad,CuDef*
G36*
X216962042Y-112333720D02*
G01*
X216573134Y-111944812D01*
X217633794Y-110884152D01*
X218022702Y-111273060D01*
X216962042Y-112333720D01*
G37*
G04 #@! TD.AperFunction*
D16*
X171650000Y-32450000D03*
X173950000Y-32450000D03*
X171650000Y-30550000D03*
D17*
X173950000Y-30750000D03*
D18*
X185350000Y-108100000D03*
X179150000Y-104400000D03*
X185350000Y-104400000D03*
X179150000Y-108100000D03*
G04 #@! TA.AperFunction,SMDPad,CuDef*
D15*
G36*
X230474505Y-105651204D02*
G01*
X230498773Y-105654804D01*
X230522572Y-105660765D01*
X230545671Y-105669030D01*
X230567850Y-105679520D01*
X230588893Y-105692132D01*
X230608599Y-105706747D01*
X230626777Y-105723223D01*
X230643253Y-105741401D01*
X230657868Y-105761107D01*
X230670480Y-105782150D01*
X230680970Y-105804329D01*
X230689235Y-105827428D01*
X230695196Y-105851227D01*
X230698796Y-105875495D01*
X230700000Y-105899999D01*
X230700000Y-106550001D01*
X230698796Y-106574505D01*
X230695196Y-106598773D01*
X230689235Y-106622572D01*
X230680970Y-106645671D01*
X230670480Y-106667850D01*
X230657868Y-106688893D01*
X230643253Y-106708599D01*
X230626777Y-106726777D01*
X230608599Y-106743253D01*
X230588893Y-106757868D01*
X230567850Y-106770480D01*
X230545671Y-106780970D01*
X230522572Y-106789235D01*
X230498773Y-106795196D01*
X230474505Y-106798796D01*
X230450001Y-106800000D01*
X229549999Y-106800000D01*
X229525495Y-106798796D01*
X229501227Y-106795196D01*
X229477428Y-106789235D01*
X229454329Y-106780970D01*
X229432150Y-106770480D01*
X229411107Y-106757868D01*
X229391401Y-106743253D01*
X229373223Y-106726777D01*
X229356747Y-106708599D01*
X229342132Y-106688893D01*
X229329520Y-106667850D01*
X229319030Y-106645671D01*
X229310765Y-106622572D01*
X229304804Y-106598773D01*
X229301204Y-106574505D01*
X229300000Y-106550001D01*
X229300000Y-105899999D01*
X229301204Y-105875495D01*
X229304804Y-105851227D01*
X229310765Y-105827428D01*
X229319030Y-105804329D01*
X229329520Y-105782150D01*
X229342132Y-105761107D01*
X229356747Y-105741401D01*
X229373223Y-105723223D01*
X229391401Y-105706747D01*
X229411107Y-105692132D01*
X229432150Y-105679520D01*
X229454329Y-105669030D01*
X229477428Y-105660765D01*
X229501227Y-105654804D01*
X229525495Y-105651204D01*
X229549999Y-105650000D01*
X230450001Y-105650000D01*
X230474505Y-105651204D01*
G37*
G04 #@! TD.AperFunction*
G04 #@! TA.AperFunction,SMDPad,CuDef*
G36*
X230474505Y-107701204D02*
G01*
X230498773Y-107704804D01*
X230522572Y-107710765D01*
X230545671Y-107719030D01*
X230567850Y-107729520D01*
X230588893Y-107742132D01*
X230608599Y-107756747D01*
X230626777Y-107773223D01*
X230643253Y-107791401D01*
X230657868Y-107811107D01*
X230670480Y-107832150D01*
X230680970Y-107854329D01*
X230689235Y-107877428D01*
X230695196Y-107901227D01*
X230698796Y-107925495D01*
X230700000Y-107949999D01*
X230700000Y-108600001D01*
X230698796Y-108624505D01*
X230695196Y-108648773D01*
X230689235Y-108672572D01*
X230680970Y-108695671D01*
X230670480Y-108717850D01*
X230657868Y-108738893D01*
X230643253Y-108758599D01*
X230626777Y-108776777D01*
X230608599Y-108793253D01*
X230588893Y-108807868D01*
X230567850Y-108820480D01*
X230545671Y-108830970D01*
X230522572Y-108839235D01*
X230498773Y-108845196D01*
X230474505Y-108848796D01*
X230450001Y-108850000D01*
X229549999Y-108850000D01*
X229525495Y-108848796D01*
X229501227Y-108845196D01*
X229477428Y-108839235D01*
X229454329Y-108830970D01*
X229432150Y-108820480D01*
X229411107Y-108807868D01*
X229391401Y-108793253D01*
X229373223Y-108776777D01*
X229356747Y-108758599D01*
X229342132Y-108738893D01*
X229329520Y-108717850D01*
X229319030Y-108695671D01*
X229310765Y-108672572D01*
X229304804Y-108648773D01*
X229301204Y-108624505D01*
X229300000Y-108600001D01*
X229300000Y-107949999D01*
X229301204Y-107925495D01*
X229304804Y-107901227D01*
X229310765Y-107877428D01*
X229319030Y-107854329D01*
X229329520Y-107832150D01*
X229342132Y-107811107D01*
X229356747Y-107791401D01*
X229373223Y-107773223D01*
X229391401Y-107756747D01*
X229411107Y-107742132D01*
X229432150Y-107729520D01*
X229454329Y-107719030D01*
X229477428Y-107710765D01*
X229501227Y-107704804D01*
X229525495Y-107701204D01*
X229549999Y-107700000D01*
X230450001Y-107700000D01*
X230474505Y-107701204D01*
G37*
G04 #@! TD.AperFunction*
G04 #@! TA.AperFunction,SMDPad,CuDef*
G36*
X171974505Y-35801204D02*
G01*
X171998773Y-35804804D01*
X172022572Y-35810765D01*
X172045671Y-35819030D01*
X172067850Y-35829520D01*
X172088893Y-35842132D01*
X172108599Y-35856747D01*
X172126777Y-35873223D01*
X172143253Y-35891401D01*
X172157868Y-35911107D01*
X172170480Y-35932150D01*
X172180970Y-35954329D01*
X172189235Y-35977428D01*
X172195196Y-36001227D01*
X172198796Y-36025495D01*
X172200000Y-36049999D01*
X172200000Y-36700001D01*
X172198796Y-36724505D01*
X172195196Y-36748773D01*
X172189235Y-36772572D01*
X172180970Y-36795671D01*
X172170480Y-36817850D01*
X172157868Y-36838893D01*
X172143253Y-36858599D01*
X172126777Y-36876777D01*
X172108599Y-36893253D01*
X172088893Y-36907868D01*
X172067850Y-36920480D01*
X172045671Y-36930970D01*
X172022572Y-36939235D01*
X171998773Y-36945196D01*
X171974505Y-36948796D01*
X171950001Y-36950000D01*
X171049999Y-36950000D01*
X171025495Y-36948796D01*
X171001227Y-36945196D01*
X170977428Y-36939235D01*
X170954329Y-36930970D01*
X170932150Y-36920480D01*
X170911107Y-36907868D01*
X170891401Y-36893253D01*
X170873223Y-36876777D01*
X170856747Y-36858599D01*
X170842132Y-36838893D01*
X170829520Y-36817850D01*
X170819030Y-36795671D01*
X170810765Y-36772572D01*
X170804804Y-36748773D01*
X170801204Y-36724505D01*
X170800000Y-36700001D01*
X170800000Y-36049999D01*
X170801204Y-36025495D01*
X170804804Y-36001227D01*
X170810765Y-35977428D01*
X170819030Y-35954329D01*
X170829520Y-35932150D01*
X170842132Y-35911107D01*
X170856747Y-35891401D01*
X170873223Y-35873223D01*
X170891401Y-35856747D01*
X170911107Y-35842132D01*
X170932150Y-35829520D01*
X170954329Y-35819030D01*
X170977428Y-35810765D01*
X171001227Y-35804804D01*
X171025495Y-35801204D01*
X171049999Y-35800000D01*
X171950001Y-35800000D01*
X171974505Y-35801204D01*
G37*
G04 #@! TD.AperFunction*
G04 #@! TA.AperFunction,SMDPad,CuDef*
G36*
X171974505Y-37851204D02*
G01*
X171998773Y-37854804D01*
X172022572Y-37860765D01*
X172045671Y-37869030D01*
X172067850Y-37879520D01*
X172088893Y-37892132D01*
X172108599Y-37906747D01*
X172126777Y-37923223D01*
X172143253Y-37941401D01*
X172157868Y-37961107D01*
X172170480Y-37982150D01*
X172180970Y-38004329D01*
X172189235Y-38027428D01*
X172195196Y-38051227D01*
X172198796Y-38075495D01*
X172200000Y-38099999D01*
X172200000Y-38750001D01*
X172198796Y-38774505D01*
X172195196Y-38798773D01*
X172189235Y-38822572D01*
X172180970Y-38845671D01*
X172170480Y-38867850D01*
X172157868Y-38888893D01*
X172143253Y-38908599D01*
X172126777Y-38926777D01*
X172108599Y-38943253D01*
X172088893Y-38957868D01*
X172067850Y-38970480D01*
X172045671Y-38980970D01*
X172022572Y-38989235D01*
X171998773Y-38995196D01*
X171974505Y-38998796D01*
X171950001Y-39000000D01*
X171049999Y-39000000D01*
X171025495Y-38998796D01*
X171001227Y-38995196D01*
X170977428Y-38989235D01*
X170954329Y-38980970D01*
X170932150Y-38970480D01*
X170911107Y-38957868D01*
X170891401Y-38943253D01*
X170873223Y-38926777D01*
X170856747Y-38908599D01*
X170842132Y-38888893D01*
X170829520Y-38867850D01*
X170819030Y-38845671D01*
X170810765Y-38822572D01*
X170804804Y-38798773D01*
X170801204Y-38774505D01*
X170800000Y-38750001D01*
X170800000Y-38099999D01*
X170801204Y-38075495D01*
X170804804Y-38051227D01*
X170810765Y-38027428D01*
X170819030Y-38004329D01*
X170829520Y-37982150D01*
X170842132Y-37961107D01*
X170856747Y-37941401D01*
X170873223Y-37923223D01*
X170891401Y-37906747D01*
X170911107Y-37892132D01*
X170932150Y-37879520D01*
X170954329Y-37869030D01*
X170977428Y-37860765D01*
X171001227Y-37854804D01*
X171025495Y-37851204D01*
X171049999Y-37850000D01*
X171950001Y-37850000D01*
X171974505Y-37851204D01*
G37*
G04 #@! TD.AperFunction*
G04 #@! TA.AperFunction,SMDPad,CuDef*
G36*
X174874505Y-35801204D02*
G01*
X174898773Y-35804804D01*
X174922572Y-35810765D01*
X174945671Y-35819030D01*
X174967850Y-35829520D01*
X174988893Y-35842132D01*
X175008599Y-35856747D01*
X175026777Y-35873223D01*
X175043253Y-35891401D01*
X175057868Y-35911107D01*
X175070480Y-35932150D01*
X175080970Y-35954329D01*
X175089235Y-35977428D01*
X175095196Y-36001227D01*
X175098796Y-36025495D01*
X175100000Y-36049999D01*
X175100000Y-36700001D01*
X175098796Y-36724505D01*
X175095196Y-36748773D01*
X175089235Y-36772572D01*
X175080970Y-36795671D01*
X175070480Y-36817850D01*
X175057868Y-36838893D01*
X175043253Y-36858599D01*
X175026777Y-36876777D01*
X175008599Y-36893253D01*
X174988893Y-36907868D01*
X174967850Y-36920480D01*
X174945671Y-36930970D01*
X174922572Y-36939235D01*
X174898773Y-36945196D01*
X174874505Y-36948796D01*
X174850001Y-36950000D01*
X173949999Y-36950000D01*
X173925495Y-36948796D01*
X173901227Y-36945196D01*
X173877428Y-36939235D01*
X173854329Y-36930970D01*
X173832150Y-36920480D01*
X173811107Y-36907868D01*
X173791401Y-36893253D01*
X173773223Y-36876777D01*
X173756747Y-36858599D01*
X173742132Y-36838893D01*
X173729520Y-36817850D01*
X173719030Y-36795671D01*
X173710765Y-36772572D01*
X173704804Y-36748773D01*
X173701204Y-36724505D01*
X173700000Y-36700001D01*
X173700000Y-36049999D01*
X173701204Y-36025495D01*
X173704804Y-36001227D01*
X173710765Y-35977428D01*
X173719030Y-35954329D01*
X173729520Y-35932150D01*
X173742132Y-35911107D01*
X173756747Y-35891401D01*
X173773223Y-35873223D01*
X173791401Y-35856747D01*
X173811107Y-35842132D01*
X173832150Y-35829520D01*
X173854329Y-35819030D01*
X173877428Y-35810765D01*
X173901227Y-35804804D01*
X173925495Y-35801204D01*
X173949999Y-35800000D01*
X174850001Y-35800000D01*
X174874505Y-35801204D01*
G37*
G04 #@! TD.AperFunction*
G04 #@! TA.AperFunction,SMDPad,CuDef*
G36*
X174874505Y-37851204D02*
G01*
X174898773Y-37854804D01*
X174922572Y-37860765D01*
X174945671Y-37869030D01*
X174967850Y-37879520D01*
X174988893Y-37892132D01*
X175008599Y-37906747D01*
X175026777Y-37923223D01*
X175043253Y-37941401D01*
X175057868Y-37961107D01*
X175070480Y-37982150D01*
X175080970Y-38004329D01*
X175089235Y-38027428D01*
X175095196Y-38051227D01*
X175098796Y-38075495D01*
X175100000Y-38099999D01*
X175100000Y-38750001D01*
X175098796Y-38774505D01*
X175095196Y-38798773D01*
X175089235Y-38822572D01*
X175080970Y-38845671D01*
X175070480Y-38867850D01*
X175057868Y-38888893D01*
X175043253Y-38908599D01*
X175026777Y-38926777D01*
X175008599Y-38943253D01*
X174988893Y-38957868D01*
X174967850Y-38970480D01*
X174945671Y-38980970D01*
X174922572Y-38989235D01*
X174898773Y-38995196D01*
X174874505Y-38998796D01*
X174850001Y-39000000D01*
X173949999Y-39000000D01*
X173925495Y-38998796D01*
X173901227Y-38995196D01*
X173877428Y-38989235D01*
X173854329Y-38980970D01*
X173832150Y-38970480D01*
X173811107Y-38957868D01*
X173791401Y-38943253D01*
X173773223Y-38926777D01*
X173756747Y-38908599D01*
X173742132Y-38888893D01*
X173729520Y-38867850D01*
X173719030Y-38845671D01*
X173710765Y-38822572D01*
X173704804Y-38798773D01*
X173701204Y-38774505D01*
X173700000Y-38750001D01*
X173700000Y-38099999D01*
X173701204Y-38075495D01*
X173704804Y-38051227D01*
X173710765Y-38027428D01*
X173719030Y-38004329D01*
X173729520Y-37982150D01*
X173742132Y-37961107D01*
X173756747Y-37941401D01*
X173773223Y-37923223D01*
X173791401Y-37906747D01*
X173811107Y-37892132D01*
X173832150Y-37879520D01*
X173854329Y-37869030D01*
X173877428Y-37860765D01*
X173901227Y-37854804D01*
X173925495Y-37851204D01*
X173949999Y-37850000D01*
X174850001Y-37850000D01*
X174874505Y-37851204D01*
G37*
G04 #@! TD.AperFunction*
G04 #@! TA.AperFunction,SMDPad,CuDef*
G36*
X190224505Y-106701204D02*
G01*
X190248773Y-106704804D01*
X190272572Y-106710765D01*
X190295671Y-106719030D01*
X190317850Y-106729520D01*
X190338893Y-106742132D01*
X190358599Y-106756747D01*
X190376777Y-106773223D01*
X190393253Y-106791401D01*
X190407868Y-106811107D01*
X190420480Y-106832150D01*
X190430970Y-106854329D01*
X190439235Y-106877428D01*
X190445196Y-106901227D01*
X190448796Y-106925495D01*
X190450000Y-106949999D01*
X190450000Y-107600001D01*
X190448796Y-107624505D01*
X190445196Y-107648773D01*
X190439235Y-107672572D01*
X190430970Y-107695671D01*
X190420480Y-107717850D01*
X190407868Y-107738893D01*
X190393253Y-107758599D01*
X190376777Y-107776777D01*
X190358599Y-107793253D01*
X190338893Y-107807868D01*
X190317850Y-107820480D01*
X190295671Y-107830970D01*
X190272572Y-107839235D01*
X190248773Y-107845196D01*
X190224505Y-107848796D01*
X190200001Y-107850000D01*
X189299999Y-107850000D01*
X189275495Y-107848796D01*
X189251227Y-107845196D01*
X189227428Y-107839235D01*
X189204329Y-107830970D01*
X189182150Y-107820480D01*
X189161107Y-107807868D01*
X189141401Y-107793253D01*
X189123223Y-107776777D01*
X189106747Y-107758599D01*
X189092132Y-107738893D01*
X189079520Y-107717850D01*
X189069030Y-107695671D01*
X189060765Y-107672572D01*
X189054804Y-107648773D01*
X189051204Y-107624505D01*
X189050000Y-107600001D01*
X189050000Y-106949999D01*
X189051204Y-106925495D01*
X189054804Y-106901227D01*
X189060765Y-106877428D01*
X189069030Y-106854329D01*
X189079520Y-106832150D01*
X189092132Y-106811107D01*
X189106747Y-106791401D01*
X189123223Y-106773223D01*
X189141401Y-106756747D01*
X189161107Y-106742132D01*
X189182150Y-106729520D01*
X189204329Y-106719030D01*
X189227428Y-106710765D01*
X189251227Y-106704804D01*
X189275495Y-106701204D01*
X189299999Y-106700000D01*
X190200001Y-106700000D01*
X190224505Y-106701204D01*
G37*
G04 #@! TD.AperFunction*
G04 #@! TA.AperFunction,SMDPad,CuDef*
G36*
X190224505Y-104651204D02*
G01*
X190248773Y-104654804D01*
X190272572Y-104660765D01*
X190295671Y-104669030D01*
X190317850Y-104679520D01*
X190338893Y-104692132D01*
X190358599Y-104706747D01*
X190376777Y-104723223D01*
X190393253Y-104741401D01*
X190407868Y-104761107D01*
X190420480Y-104782150D01*
X190430970Y-104804329D01*
X190439235Y-104827428D01*
X190445196Y-104851227D01*
X190448796Y-104875495D01*
X190450000Y-104899999D01*
X190450000Y-105550001D01*
X190448796Y-105574505D01*
X190445196Y-105598773D01*
X190439235Y-105622572D01*
X190430970Y-105645671D01*
X190420480Y-105667850D01*
X190407868Y-105688893D01*
X190393253Y-105708599D01*
X190376777Y-105726777D01*
X190358599Y-105743253D01*
X190338893Y-105757868D01*
X190317850Y-105770480D01*
X190295671Y-105780970D01*
X190272572Y-105789235D01*
X190248773Y-105795196D01*
X190224505Y-105798796D01*
X190200001Y-105800000D01*
X189299999Y-105800000D01*
X189275495Y-105798796D01*
X189251227Y-105795196D01*
X189227428Y-105789235D01*
X189204329Y-105780970D01*
X189182150Y-105770480D01*
X189161107Y-105757868D01*
X189141401Y-105743253D01*
X189123223Y-105726777D01*
X189106747Y-105708599D01*
X189092132Y-105688893D01*
X189079520Y-105667850D01*
X189069030Y-105645671D01*
X189060765Y-105622572D01*
X189054804Y-105598773D01*
X189051204Y-105574505D01*
X189050000Y-105550001D01*
X189050000Y-104899999D01*
X189051204Y-104875495D01*
X189054804Y-104851227D01*
X189060765Y-104827428D01*
X189069030Y-104804329D01*
X189079520Y-104782150D01*
X189092132Y-104761107D01*
X189106747Y-104741401D01*
X189123223Y-104723223D01*
X189141401Y-104706747D01*
X189161107Y-104692132D01*
X189182150Y-104679520D01*
X189204329Y-104669030D01*
X189227428Y-104660765D01*
X189251227Y-104654804D01*
X189275495Y-104651204D01*
X189299999Y-104650000D01*
X190200001Y-104650000D01*
X190224505Y-104651204D01*
G37*
G04 #@! TD.AperFunction*
G04 #@! TA.AperFunction,SMDPad,CuDef*
G36*
X168324505Y-26801204D02*
G01*
X168348773Y-26804804D01*
X168372572Y-26810765D01*
X168395671Y-26819030D01*
X168417850Y-26829520D01*
X168438893Y-26842132D01*
X168458599Y-26856747D01*
X168476777Y-26873223D01*
X168493253Y-26891401D01*
X168507868Y-26911107D01*
X168520480Y-26932150D01*
X168530970Y-26954329D01*
X168539235Y-26977428D01*
X168545196Y-27001227D01*
X168548796Y-27025495D01*
X168550000Y-27049999D01*
X168550000Y-27950001D01*
X168548796Y-27974505D01*
X168545196Y-27998773D01*
X168539235Y-28022572D01*
X168530970Y-28045671D01*
X168520480Y-28067850D01*
X168507868Y-28088893D01*
X168493253Y-28108599D01*
X168476777Y-28126777D01*
X168458599Y-28143253D01*
X168438893Y-28157868D01*
X168417850Y-28170480D01*
X168395671Y-28180970D01*
X168372572Y-28189235D01*
X168348773Y-28195196D01*
X168324505Y-28198796D01*
X168300001Y-28200000D01*
X167649999Y-28200000D01*
X167625495Y-28198796D01*
X167601227Y-28195196D01*
X167577428Y-28189235D01*
X167554329Y-28180970D01*
X167532150Y-28170480D01*
X167511107Y-28157868D01*
X167491401Y-28143253D01*
X167473223Y-28126777D01*
X167456747Y-28108599D01*
X167442132Y-28088893D01*
X167429520Y-28067850D01*
X167419030Y-28045671D01*
X167410765Y-28022572D01*
X167404804Y-27998773D01*
X167401204Y-27974505D01*
X167400000Y-27950001D01*
X167400000Y-27049999D01*
X167401204Y-27025495D01*
X167404804Y-27001227D01*
X167410765Y-26977428D01*
X167419030Y-26954329D01*
X167429520Y-26932150D01*
X167442132Y-26911107D01*
X167456747Y-26891401D01*
X167473223Y-26873223D01*
X167491401Y-26856747D01*
X167511107Y-26842132D01*
X167532150Y-26829520D01*
X167554329Y-26819030D01*
X167577428Y-26810765D01*
X167601227Y-26804804D01*
X167625495Y-26801204D01*
X167649999Y-26800000D01*
X168300001Y-26800000D01*
X168324505Y-26801204D01*
G37*
G04 #@! TD.AperFunction*
G04 #@! TA.AperFunction,SMDPad,CuDef*
G36*
X170374505Y-26801204D02*
G01*
X170398773Y-26804804D01*
X170422572Y-26810765D01*
X170445671Y-26819030D01*
X170467850Y-26829520D01*
X170488893Y-26842132D01*
X170508599Y-26856747D01*
X170526777Y-26873223D01*
X170543253Y-26891401D01*
X170557868Y-26911107D01*
X170570480Y-26932150D01*
X170580970Y-26954329D01*
X170589235Y-26977428D01*
X170595196Y-27001227D01*
X170598796Y-27025495D01*
X170600000Y-27049999D01*
X170600000Y-27950001D01*
X170598796Y-27974505D01*
X170595196Y-27998773D01*
X170589235Y-28022572D01*
X170580970Y-28045671D01*
X170570480Y-28067850D01*
X170557868Y-28088893D01*
X170543253Y-28108599D01*
X170526777Y-28126777D01*
X170508599Y-28143253D01*
X170488893Y-28157868D01*
X170467850Y-28170480D01*
X170445671Y-28180970D01*
X170422572Y-28189235D01*
X170398773Y-28195196D01*
X170374505Y-28198796D01*
X170350001Y-28200000D01*
X169699999Y-28200000D01*
X169675495Y-28198796D01*
X169651227Y-28195196D01*
X169627428Y-28189235D01*
X169604329Y-28180970D01*
X169582150Y-28170480D01*
X169561107Y-28157868D01*
X169541401Y-28143253D01*
X169523223Y-28126777D01*
X169506747Y-28108599D01*
X169492132Y-28088893D01*
X169479520Y-28067850D01*
X169469030Y-28045671D01*
X169460765Y-28022572D01*
X169454804Y-27998773D01*
X169451204Y-27974505D01*
X169450000Y-27950001D01*
X169450000Y-27049999D01*
X169451204Y-27025495D01*
X169454804Y-27001227D01*
X169460765Y-26977428D01*
X169469030Y-26954329D01*
X169479520Y-26932150D01*
X169492132Y-26911107D01*
X169506747Y-26891401D01*
X169523223Y-26873223D01*
X169541401Y-26856747D01*
X169561107Y-26842132D01*
X169582150Y-26829520D01*
X169604329Y-26819030D01*
X169627428Y-26810765D01*
X169651227Y-26804804D01*
X169675495Y-26801204D01*
X169699999Y-26800000D01*
X170350001Y-26800000D01*
X170374505Y-26801204D01*
G37*
G04 #@! TD.AperFunction*
G04 #@! TA.AperFunction,SMDPad,CuDef*
G36*
X176324505Y-26801204D02*
G01*
X176348773Y-26804804D01*
X176372572Y-26810765D01*
X176395671Y-26819030D01*
X176417850Y-26829520D01*
X176438893Y-26842132D01*
X176458599Y-26856747D01*
X176476777Y-26873223D01*
X176493253Y-26891401D01*
X176507868Y-26911107D01*
X176520480Y-26932150D01*
X176530970Y-26954329D01*
X176539235Y-26977428D01*
X176545196Y-27001227D01*
X176548796Y-27025495D01*
X176550000Y-27049999D01*
X176550000Y-27950001D01*
X176548796Y-27974505D01*
X176545196Y-27998773D01*
X176539235Y-28022572D01*
X176530970Y-28045671D01*
X176520480Y-28067850D01*
X176507868Y-28088893D01*
X176493253Y-28108599D01*
X176476777Y-28126777D01*
X176458599Y-28143253D01*
X176438893Y-28157868D01*
X176417850Y-28170480D01*
X176395671Y-28180970D01*
X176372572Y-28189235D01*
X176348773Y-28195196D01*
X176324505Y-28198796D01*
X176300001Y-28200000D01*
X175649999Y-28200000D01*
X175625495Y-28198796D01*
X175601227Y-28195196D01*
X175577428Y-28189235D01*
X175554329Y-28180970D01*
X175532150Y-28170480D01*
X175511107Y-28157868D01*
X175491401Y-28143253D01*
X175473223Y-28126777D01*
X175456747Y-28108599D01*
X175442132Y-28088893D01*
X175429520Y-28067850D01*
X175419030Y-28045671D01*
X175410765Y-28022572D01*
X175404804Y-27998773D01*
X175401204Y-27974505D01*
X175400000Y-27950001D01*
X175400000Y-27049999D01*
X175401204Y-27025495D01*
X175404804Y-27001227D01*
X175410765Y-26977428D01*
X175419030Y-26954329D01*
X175429520Y-26932150D01*
X175442132Y-26911107D01*
X175456747Y-26891401D01*
X175473223Y-26873223D01*
X175491401Y-26856747D01*
X175511107Y-26842132D01*
X175532150Y-26829520D01*
X175554329Y-26819030D01*
X175577428Y-26810765D01*
X175601227Y-26804804D01*
X175625495Y-26801204D01*
X175649999Y-26800000D01*
X176300001Y-26800000D01*
X176324505Y-26801204D01*
G37*
G04 #@! TD.AperFunction*
G04 #@! TA.AperFunction,SMDPad,CuDef*
G36*
X178374505Y-26801204D02*
G01*
X178398773Y-26804804D01*
X178422572Y-26810765D01*
X178445671Y-26819030D01*
X178467850Y-26829520D01*
X178488893Y-26842132D01*
X178508599Y-26856747D01*
X178526777Y-26873223D01*
X178543253Y-26891401D01*
X178557868Y-26911107D01*
X178570480Y-26932150D01*
X178580970Y-26954329D01*
X178589235Y-26977428D01*
X178595196Y-27001227D01*
X178598796Y-27025495D01*
X178600000Y-27049999D01*
X178600000Y-27950001D01*
X178598796Y-27974505D01*
X178595196Y-27998773D01*
X178589235Y-28022572D01*
X178580970Y-28045671D01*
X178570480Y-28067850D01*
X178557868Y-28088893D01*
X178543253Y-28108599D01*
X178526777Y-28126777D01*
X178508599Y-28143253D01*
X178488893Y-28157868D01*
X178467850Y-28170480D01*
X178445671Y-28180970D01*
X178422572Y-28189235D01*
X178398773Y-28195196D01*
X178374505Y-28198796D01*
X178350001Y-28200000D01*
X177699999Y-28200000D01*
X177675495Y-28198796D01*
X177651227Y-28195196D01*
X177627428Y-28189235D01*
X177604329Y-28180970D01*
X177582150Y-28170480D01*
X177561107Y-28157868D01*
X177541401Y-28143253D01*
X177523223Y-28126777D01*
X177506747Y-28108599D01*
X177492132Y-28088893D01*
X177479520Y-28067850D01*
X177469030Y-28045671D01*
X177460765Y-28022572D01*
X177454804Y-27998773D01*
X177451204Y-27974505D01*
X177450000Y-27950001D01*
X177450000Y-27049999D01*
X177451204Y-27025495D01*
X177454804Y-27001227D01*
X177460765Y-26977428D01*
X177469030Y-26954329D01*
X177479520Y-26932150D01*
X177492132Y-26911107D01*
X177506747Y-26891401D01*
X177523223Y-26873223D01*
X177541401Y-26856747D01*
X177561107Y-26842132D01*
X177582150Y-26829520D01*
X177604329Y-26819030D01*
X177627428Y-26810765D01*
X177651227Y-26804804D01*
X177675495Y-26801204D01*
X177699999Y-26800000D01*
X178350001Y-26800000D01*
X178374505Y-26801204D01*
G37*
G04 #@! TD.AperFunction*
D10*
X313412500Y-102362500D03*
X318412500Y-101862500D03*
X313412500Y-83312500D03*
X318412500Y-82812500D03*
X313412500Y-64262500D03*
X318412500Y-63762500D03*
X313412500Y-45212500D03*
X318412500Y-44712500D03*
X313412500Y-26162500D03*
X318412500Y-25662500D03*
X294362500Y-102362500D03*
X299362500Y-101862500D03*
X294362500Y-83312500D03*
X299362500Y-82812500D03*
X284837500Y-26162500D03*
X289837500Y-25662500D03*
X275312500Y-102362500D03*
X280312500Y-101862500D03*
X268168750Y-83312500D03*
X273168750Y-82812500D03*
X282456250Y-64262500D03*
X287456250Y-63762500D03*
X265787500Y-45212500D03*
X270787500Y-44712500D03*
X256262500Y-26162500D03*
X261262500Y-25662500D03*
X256262500Y-102362500D03*
X261262500Y-101862500D03*
X251500000Y-64262500D03*
X256500000Y-63762500D03*
X246737500Y-45212500D03*
X251737500Y-44712500D03*
X237212500Y-26162500D03*
X242212500Y-25662500D03*
X234831250Y-102362500D03*
X239831250Y-101862500D03*
X241975000Y-83312500D03*
X246975000Y-82812500D03*
X232450000Y-64262500D03*
X237450000Y-63762500D03*
X227687500Y-45212500D03*
X232687500Y-44712500D03*
X218162500Y-26162500D03*
X223162500Y-25662500D03*
X222925000Y-83312500D03*
X227925000Y-82812500D03*
X213400000Y-64262500D03*
X218400000Y-63762500D03*
X208637500Y-45212500D03*
X213637500Y-44712500D03*
X199112500Y-26162500D03*
X204112500Y-25662500D03*
X203875000Y-83312500D03*
X208875000Y-82812500D03*
X194350000Y-64262500D03*
X199350000Y-63762500D03*
X189587500Y-45212500D03*
X194587500Y-44712500D03*
X180062500Y-26162500D03*
X185062500Y-25662500D03*
X184825000Y-83312500D03*
X189825000Y-82812500D03*
X175300000Y-64262500D03*
X180300000Y-63762500D03*
X170537500Y-45212500D03*
X175537500Y-44712500D03*
X161012500Y-26162500D03*
X166012500Y-25662500D03*
X165775000Y-83312500D03*
X170775000Y-82812500D03*
X156250000Y-64262500D03*
X161250000Y-63762500D03*
X151487500Y-45212500D03*
X156487500Y-44712500D03*
X141962500Y-26162500D03*
X146962500Y-25662500D03*
X146725000Y-83312500D03*
X151725000Y-82812500D03*
X137200000Y-64262500D03*
X142200000Y-63762500D03*
X132437500Y-45212500D03*
X137437500Y-44712500D03*
X122912500Y-26162500D03*
X127912500Y-25662500D03*
X127675000Y-83312500D03*
X132675000Y-82812500D03*
X118150000Y-64262500D03*
X123150000Y-63762500D03*
X113387500Y-45212500D03*
X118387500Y-44712500D03*
X103862500Y-26162500D03*
X108862500Y-25662500D03*
X108625000Y-83312500D03*
X113625000Y-82812500D03*
X99100000Y-64262500D03*
X104100000Y-63762500D03*
X94337500Y-45212500D03*
X99337500Y-44712500D03*
X84812500Y-26162500D03*
X89812500Y-25662500D03*
X84812500Y-102362500D03*
X89812500Y-101862500D03*
X89575000Y-83312500D03*
X94575000Y-82812500D03*
X80050000Y-64262500D03*
X85050000Y-63762500D03*
X75287500Y-45212500D03*
X80287500Y-44712500D03*
X65762500Y-26162500D03*
X70762500Y-25662500D03*
X58618750Y-102362500D03*
X63618750Y-101862500D03*
X70525000Y-83312500D03*
X75525000Y-82812500D03*
X61000000Y-64262500D03*
X66000000Y-63762500D03*
X56237500Y-45212500D03*
X61237500Y-44712500D03*
X46712500Y-26162500D03*
X51712500Y-25662500D03*
X32425000Y-102362500D03*
X37425000Y-101862500D03*
X39568750Y-83312500D03*
X44568750Y-82812500D03*
X34806250Y-64262500D03*
X39806250Y-63762500D03*
X32425000Y-45212500D03*
X37425000Y-44712500D03*
X27662500Y-26162500D03*
X32662500Y-25662500D03*
D19*
X141790000Y-105092500D03*
D20*
X141790000Y-107632500D03*
X139250000Y-105092500D03*
X139250000Y-107632500D03*
X136710000Y-105092500D03*
X136710000Y-107632500D03*
G04 #@! TA.AperFunction,SMDPad,CuDef*
D15*
G36*
X178449504Y-30801204D02*
G01*
X178473773Y-30804804D01*
X178497571Y-30810765D01*
X178520671Y-30819030D01*
X178542849Y-30829520D01*
X178563893Y-30842133D01*
X178583598Y-30856747D01*
X178601777Y-30873223D01*
X178618253Y-30891402D01*
X178632867Y-30911107D01*
X178645480Y-30932151D01*
X178655970Y-30954329D01*
X178664235Y-30977429D01*
X178670196Y-31001227D01*
X178673796Y-31025496D01*
X178675000Y-31050000D01*
X178675000Y-31975000D01*
X178673796Y-31999504D01*
X178670196Y-32023773D01*
X178664235Y-32047571D01*
X178655970Y-32070671D01*
X178645480Y-32092849D01*
X178632867Y-32113893D01*
X178618253Y-32133598D01*
X178601777Y-32151777D01*
X178583598Y-32168253D01*
X178563893Y-32182867D01*
X178542849Y-32195480D01*
X178520671Y-32205970D01*
X178497571Y-32214235D01*
X178473773Y-32220196D01*
X178449504Y-32223796D01*
X178425000Y-32225000D01*
X177175000Y-32225000D01*
X177150496Y-32223796D01*
X177126227Y-32220196D01*
X177102429Y-32214235D01*
X177079329Y-32205970D01*
X177057151Y-32195480D01*
X177036107Y-32182867D01*
X177016402Y-32168253D01*
X176998223Y-32151777D01*
X176981747Y-32133598D01*
X176967133Y-32113893D01*
X176954520Y-32092849D01*
X176944030Y-32070671D01*
X176935765Y-32047571D01*
X176929804Y-32023773D01*
X176926204Y-31999504D01*
X176925000Y-31975000D01*
X176925000Y-31050000D01*
X176926204Y-31025496D01*
X176929804Y-31001227D01*
X176935765Y-30977429D01*
X176944030Y-30954329D01*
X176954520Y-30932151D01*
X176967133Y-30911107D01*
X176981747Y-30891402D01*
X176998223Y-30873223D01*
X177016402Y-30856747D01*
X177036107Y-30842133D01*
X177057151Y-30829520D01*
X177079329Y-30819030D01*
X177102429Y-30810765D01*
X177126227Y-30804804D01*
X177150496Y-30801204D01*
X177175000Y-30800000D01*
X178425000Y-30800000D01*
X178449504Y-30801204D01*
G37*
G04 #@! TD.AperFunction*
G04 #@! TA.AperFunction,SMDPad,CuDef*
G36*
X178449504Y-33776204D02*
G01*
X178473773Y-33779804D01*
X178497571Y-33785765D01*
X178520671Y-33794030D01*
X178542849Y-33804520D01*
X178563893Y-33817133D01*
X178583598Y-33831747D01*
X178601777Y-33848223D01*
X178618253Y-33866402D01*
X178632867Y-33886107D01*
X178645480Y-33907151D01*
X178655970Y-33929329D01*
X178664235Y-33952429D01*
X178670196Y-33976227D01*
X178673796Y-34000496D01*
X178675000Y-34025000D01*
X178675000Y-34950000D01*
X178673796Y-34974504D01*
X178670196Y-34998773D01*
X178664235Y-35022571D01*
X178655970Y-35045671D01*
X178645480Y-35067849D01*
X178632867Y-35088893D01*
X178618253Y-35108598D01*
X178601777Y-35126777D01*
X178583598Y-35143253D01*
X178563893Y-35157867D01*
X178542849Y-35170480D01*
X178520671Y-35180970D01*
X178497571Y-35189235D01*
X178473773Y-35195196D01*
X178449504Y-35198796D01*
X178425000Y-35200000D01*
X177175000Y-35200000D01*
X177150496Y-35198796D01*
X177126227Y-35195196D01*
X177102429Y-35189235D01*
X177079329Y-35180970D01*
X177057151Y-35170480D01*
X177036107Y-35157867D01*
X177016402Y-35143253D01*
X176998223Y-35126777D01*
X176981747Y-35108598D01*
X176967133Y-35088893D01*
X176954520Y-35067849D01*
X176944030Y-35045671D01*
X176935765Y-35022571D01*
X176929804Y-34998773D01*
X176926204Y-34974504D01*
X176925000Y-34950000D01*
X176925000Y-34025000D01*
X176926204Y-34000496D01*
X176929804Y-33976227D01*
X176935765Y-33952429D01*
X176944030Y-33929329D01*
X176954520Y-33907151D01*
X176967133Y-33886107D01*
X176981747Y-33866402D01*
X176998223Y-33848223D01*
X177016402Y-33831747D01*
X177036107Y-33817133D01*
X177057151Y-33804520D01*
X177079329Y-33794030D01*
X177102429Y-33785765D01*
X177126227Y-33779804D01*
X177150496Y-33776204D01*
X177175000Y-33775000D01*
X178425000Y-33775000D01*
X178449504Y-33776204D01*
G37*
G04 #@! TD.AperFunction*
D21*
X322750000Y-104712500D03*
X322750000Y-108012500D03*
X322262500Y-85662500D03*
X322262500Y-88962500D03*
X322262500Y-67406250D03*
X322262500Y-70706250D03*
X322262500Y-49150000D03*
X322262500Y-52450000D03*
X322262500Y-30100000D03*
X322262500Y-33400000D03*
X305593750Y-104712500D03*
X305593750Y-108012500D03*
X305593750Y-84868750D03*
X305593750Y-88168750D03*
X300831250Y-47562500D03*
X300831250Y-50862500D03*
X297656250Y-28512500D03*
X297656250Y-31812500D03*
X286543750Y-104712500D03*
X286543750Y-108012500D03*
X279400000Y-84868750D03*
X279400000Y-88168750D03*
X294481250Y-66612500D03*
X294481250Y-69912500D03*
X277018750Y-47562500D03*
X277018750Y-50862500D03*
X267493750Y-28512500D03*
X267493750Y-31812500D03*
X267493750Y-104712500D03*
X267493750Y-108012500D03*
X263525000Y-66612500D03*
X263525000Y-69912500D03*
X257968750Y-47562500D03*
X257968750Y-50862500D03*
X248443750Y-28512500D03*
X248443750Y-31812500D03*
X246062500Y-104712500D03*
X246062500Y-108012500D03*
X253206250Y-84868750D03*
X253206250Y-88168750D03*
X243500000Y-66612500D03*
X243500000Y-69912500D03*
X238918750Y-47562500D03*
X238918750Y-50862500D03*
X229393750Y-28512500D03*
X229393750Y-31812500D03*
X234156250Y-84868750D03*
X234156250Y-88168750D03*
X224631250Y-66612500D03*
X224631250Y-69912500D03*
X219868750Y-47562500D03*
X219868750Y-50862500D03*
X210343750Y-28512500D03*
X210343750Y-31812500D03*
X215106250Y-83100000D03*
X215106250Y-86400000D03*
X205581250Y-66612500D03*
X205581250Y-69912500D03*
X200818750Y-47562500D03*
X200818750Y-50862500D03*
X191000000Y-28350000D03*
X191000000Y-31650000D03*
X196056250Y-84868750D03*
X196056250Y-88168750D03*
X186531250Y-66612500D03*
X186531250Y-69912500D03*
X181768750Y-47562500D03*
X181768750Y-50862500D03*
X156500000Y-28512500D03*
X156500000Y-31812500D03*
X177006250Y-84868750D03*
X177006250Y-88168750D03*
X167481250Y-66612500D03*
X167481250Y-69912500D03*
X162718750Y-47562500D03*
X162718750Y-50862500D03*
X153193750Y-28512500D03*
X153193750Y-31812500D03*
X172243750Y-104712500D03*
X172243750Y-108012500D03*
X157956250Y-84868750D03*
X157956250Y-88168750D03*
X148431250Y-66612500D03*
X148431250Y-69912500D03*
X143668750Y-47562500D03*
X143668750Y-50862500D03*
X134143750Y-28512500D03*
X134143750Y-31812500D03*
X138906250Y-84868750D03*
X138906250Y-88168750D03*
X129381250Y-66612500D03*
X129381250Y-69912500D03*
X124618750Y-47562500D03*
X124618750Y-50862500D03*
X115093750Y-28512500D03*
X115093750Y-31812500D03*
X119856250Y-84868750D03*
X119856250Y-88168750D03*
X110331250Y-66612500D03*
X110331250Y-69912500D03*
X105568750Y-47562500D03*
X105568750Y-50862500D03*
X96043750Y-28512500D03*
X96043750Y-31812500D03*
X96043750Y-104712500D03*
X96043750Y-108012500D03*
X100806250Y-84868750D03*
X100806250Y-88168750D03*
X91281250Y-66612500D03*
X91281250Y-69912500D03*
X86518750Y-47562500D03*
X86518750Y-50862500D03*
X76993750Y-28512500D03*
X76993750Y-31812500D03*
X69850000Y-104712500D03*
X69850000Y-108012500D03*
X81756250Y-84868750D03*
X81756250Y-88168750D03*
X72231250Y-66612500D03*
X72231250Y-69912500D03*
X67468750Y-47562500D03*
X67468750Y-50862500D03*
X57943750Y-28512500D03*
X57943750Y-31812500D03*
X43656250Y-104712500D03*
X43656250Y-108012500D03*
X50800000Y-84868750D03*
X50800000Y-88168750D03*
X46831250Y-66612500D03*
X46831250Y-69912500D03*
X43656250Y-47562500D03*
X43656250Y-50862500D03*
X38100000Y-28512500D03*
X38100000Y-31812500D03*
X205250000Y-113900000D03*
X205250000Y-110600000D03*
G04 #@! TA.AperFunction,SMDPad,CuDef*
D15*
G36*
X204075736Y-97727208D02*
G01*
X203227208Y-98575736D01*
X202590812Y-97939340D01*
X203439340Y-97090812D01*
X204075736Y-97727208D01*
G37*
G04 #@! TD.AperFunction*
G04 #@! TA.AperFunction,SMDPad,CuDef*
G36*
X206409188Y-100060660D02*
G01*
X205560660Y-100909188D01*
X204924264Y-100272792D01*
X205772792Y-99424264D01*
X206409188Y-100060660D01*
G37*
G04 #@! TD.AperFunction*
G04 #@! TA.AperFunction,SMDPad,CuDef*
G36*
X211575736Y-90477208D02*
G01*
X210727208Y-91325736D01*
X210090812Y-90689340D01*
X210939340Y-89840812D01*
X211575736Y-90477208D01*
G37*
G04 #@! TD.AperFunction*
G04 #@! TA.AperFunction,SMDPad,CuDef*
G36*
X213909188Y-92810660D02*
G01*
X213060660Y-93659188D01*
X212424264Y-93022792D01*
X213272792Y-92174264D01*
X213909188Y-92810660D01*
G37*
G04 #@! TD.AperFunction*
D21*
X201750000Y-113900000D03*
X201750000Y-110600000D03*
X194000000Y-113900000D03*
X194000000Y-110600000D03*
X197750000Y-113900000D03*
X197750000Y-110600000D03*
X190000000Y-113900000D03*
X190000000Y-110600000D03*
D22*
X227250000Y-107454238D03*
X227250000Y-107454238D03*
X227250000Y-107454238D03*
X227250000Y-107454238D03*
X221250000Y-113454238D03*
X221250000Y-113454238D03*
X215250000Y-112500000D03*
X212500000Y-109750000D03*
X210500000Y-100500000D03*
X210500000Y-100500000D03*
X221750000Y-97250000D03*
X204250000Y-109250000D03*
X182069448Y-99680552D03*
X191750000Y-107250000D03*
X209762653Y-110237347D03*
X207000000Y-110500000D03*
X163250000Y-34750000D03*
X188250000Y-34750000D03*
X179500000Y-57500000D03*
X199000000Y-57500000D03*
X185000000Y-76500000D03*
X237000000Y-97750000D03*
X237000000Y-93500000D03*
X179193979Y-76500000D03*
X175750000Y-95750000D03*
X194750000Y-95750000D03*
X170400000Y-25700000D03*
X171700000Y-28900000D03*
X177000000Y-29200000D03*
X200323601Y-106098893D03*
X206234694Y-104375001D03*
X185500000Y-96750000D03*
X179193979Y-96500000D03*
X193738580Y-106374990D03*
X170462948Y-58486510D03*
X197999992Y-99500000D03*
X206500000Y-106073002D03*
X90750000Y-91000000D03*
X87750000Y-91000000D03*
X62500000Y-91000000D03*
X199500000Y-92000000D03*
X198457758Y-90300853D03*
X197746280Y-89598128D03*
X197347536Y-88681053D03*
X223155187Y-95930815D03*
X150500000Y-94250000D03*
X150500000Y-98000000D03*
X223917940Y-96695293D03*
X224720304Y-97476151D03*
X225667939Y-98195294D03*
X226500000Y-99000000D03*
X234316228Y-105551315D03*
X234000000Y-106500000D03*
X229750000Y-113525000D03*
X230057003Y-112573289D03*
X211250000Y-111000000D03*
X210750000Y-113540510D03*
X198000000Y-102500000D03*
X202500000Y-102000000D03*
X90737340Y-89987340D03*
X198683769Y-91274990D03*
D23*
X225747844Y-105952082D02*
X227250000Y-107454238D01*
X225358936Y-105952082D02*
X225747844Y-105952082D01*
X221250000Y-113156854D02*
X219702082Y-111608936D01*
X221250000Y-113454238D02*
X221250000Y-113156854D01*
X216732233Y-111043250D02*
X216706750Y-111043250D01*
X216706750Y-111043250D02*
X215250000Y-112500000D01*
X213903806Y-108346194D02*
X212500000Y-109750000D01*
X213903806Y-108214823D02*
X213903806Y-108346194D01*
X220267767Y-98456750D02*
X220293250Y-98456750D01*
X220293250Y-98456750D02*
X221500000Y-97250000D01*
X210855887Y-100500000D02*
X212772435Y-102416548D01*
X210500000Y-100500000D02*
X210855887Y-100500000D01*
X200769000Y-110600000D02*
X197750000Y-110600000D01*
X201750000Y-110600000D02*
X200769000Y-110600000D01*
X197750000Y-110600000D02*
X194000000Y-110600000D01*
X194000000Y-110600000D02*
X190000000Y-110600000D01*
X190000000Y-107525000D02*
X189750000Y-107275000D01*
X190000000Y-110600000D02*
X190000000Y-107525000D01*
X189050000Y-107275000D02*
X186825000Y-109500000D01*
X189750000Y-107275000D02*
X189050000Y-107275000D01*
X179150000Y-109031000D02*
X179150000Y-108100000D01*
X179619000Y-109500000D02*
X179150000Y-109031000D01*
X186825000Y-109500000D02*
X179619000Y-109500000D01*
X203100000Y-109250000D02*
X201750000Y-110600000D01*
X204250000Y-109250000D02*
X203100000Y-109250000D01*
X136750000Y-110000000D02*
X135469499Y-108719499D01*
X135469499Y-106333001D02*
X135860001Y-105942499D01*
X168503348Y-110000000D02*
X136750000Y-110000000D01*
X171331349Y-107171999D02*
X168503348Y-110000000D01*
X179150000Y-108100000D02*
X174084152Y-108100000D01*
X135469499Y-108719499D02*
X135469499Y-106333001D01*
X173156151Y-107171999D02*
X171331349Y-107171999D01*
X174084152Y-108100000D02*
X173156151Y-107171999D01*
X135860001Y-105942499D02*
X136710000Y-105092500D01*
X177800000Y-34487500D02*
X177800000Y-37715510D01*
X177800000Y-37715510D02*
X173765510Y-41750000D01*
X173765510Y-41750000D02*
X173765510Y-49515510D01*
X173765510Y-49515510D02*
X173765510Y-49765510D01*
X173765510Y-49515510D02*
X172734490Y-50546530D01*
X172734490Y-50546530D02*
X172734490Y-66005450D01*
X172734490Y-66005450D02*
X174864520Y-68135480D01*
X174864520Y-68135480D02*
X181500000Y-74770960D01*
X181500000Y-74770960D02*
X181500000Y-97750000D01*
X181500000Y-97750000D02*
X181500000Y-98250000D01*
X181500000Y-98259305D02*
X181500000Y-97750000D01*
X181500000Y-99111104D02*
X182069448Y-99680552D01*
X181500000Y-98259305D02*
X181500000Y-99111104D01*
X189775000Y-107250000D02*
X189750000Y-107275000D01*
X191750000Y-107250000D02*
X189775000Y-107250000D01*
D24*
X211045584Y-95037868D02*
X210088478Y-95037868D01*
X213166726Y-92916726D02*
X211045584Y-95037868D01*
X210724874Y-95674264D02*
X210724874Y-96974874D01*
X210724874Y-96974874D02*
X214469491Y-100719491D01*
X210088478Y-95037868D02*
X210724874Y-95674264D01*
X205666726Y-99459620D02*
X205666726Y-100166726D01*
X208037868Y-97088478D02*
X205666726Y-99459620D01*
X209707107Y-97088478D02*
X213903806Y-101285177D01*
X208037868Y-97088478D02*
X209707107Y-97088478D01*
X211914345Y-110237347D02*
X209762653Y-110237347D01*
X212151999Y-110475001D02*
X211914345Y-110237347D01*
X212848001Y-110475001D02*
X212151999Y-110475001D01*
X214469491Y-108853511D02*
X212848001Y-110475001D01*
X214469491Y-108780509D02*
X214469491Y-108853511D01*
X205350000Y-110500000D02*
X205250000Y-110600000D01*
X207000000Y-110500000D02*
X205350000Y-110500000D01*
X35512500Y-28512500D02*
X38100000Y-28512500D01*
X32662500Y-25662500D02*
X35512500Y-28512500D01*
X56250000Y-38500000D02*
X74750000Y-38500000D01*
X76143750Y-31812500D02*
X76993750Y-31812500D01*
X74750000Y-33206250D02*
X76143750Y-31812500D01*
X74750000Y-38500000D02*
X94000000Y-38500000D01*
X95193750Y-31812500D02*
X96043750Y-31812500D01*
X94000000Y-33006250D02*
X95193750Y-31812500D01*
X94000000Y-38500000D02*
X112500000Y-38500000D01*
X113437500Y-31812500D02*
X115093750Y-31812500D01*
X112500000Y-32750000D02*
X113437500Y-31812500D01*
X112500000Y-38500000D02*
X131250000Y-38500000D01*
X132937500Y-31812500D02*
X134143750Y-31812500D01*
X131250000Y-33500000D02*
X132937500Y-31812500D01*
X131250000Y-38500000D02*
X150500000Y-38500000D01*
X153193750Y-31812500D02*
X156500000Y-31812500D01*
X156500000Y-31812500D02*
X157812500Y-31812500D01*
X157812500Y-31812500D02*
X158750000Y-32750000D01*
X158750000Y-32750000D02*
X158750000Y-34750000D01*
X158750000Y-34750000D02*
X163250000Y-34750000D01*
X188250000Y-34750000D02*
X188250000Y-34750000D01*
X189350000Y-31650000D02*
X191000000Y-31650000D01*
X188250000Y-32750000D02*
X189350000Y-31650000D01*
X188250000Y-34750000D02*
X207500000Y-34750000D01*
X207500000Y-34750000D02*
X207500000Y-33250000D01*
X208937500Y-31812500D02*
X210343750Y-31812500D01*
X207500000Y-33250000D02*
X208937500Y-31812500D01*
X207500000Y-34750000D02*
X224000000Y-34750000D01*
X224000000Y-34750000D02*
X226000000Y-34750000D01*
X227437500Y-31812500D02*
X229393750Y-31812500D01*
X226000000Y-33250000D02*
X227437500Y-31812500D01*
X226000000Y-34750000D02*
X226000000Y-33250000D01*
X226000000Y-34750000D02*
X242250000Y-34750000D01*
X242250000Y-34750000D02*
X246000000Y-34750000D01*
X246000000Y-34184315D02*
X246000000Y-34750000D01*
X246000000Y-33406250D02*
X246000000Y-34184315D01*
X247593750Y-31812500D02*
X246000000Y-33406250D01*
X248443750Y-31812500D02*
X247593750Y-31812500D01*
X246000000Y-34750000D02*
X265000000Y-34750000D01*
X265000000Y-34750000D02*
X265000000Y-33250000D01*
X266437500Y-31812500D02*
X267493750Y-31812500D01*
X265000000Y-33250000D02*
X266437500Y-31812500D01*
X265000000Y-34750000D02*
X295000000Y-34750000D01*
X295000000Y-34750000D02*
X295000000Y-33250000D01*
X296437500Y-31812500D02*
X297656250Y-31812500D01*
X295000000Y-33250000D02*
X296437500Y-31812500D01*
X295000000Y-34750000D02*
X316000000Y-34750000D01*
X316000000Y-34750000D02*
X317500000Y-33250000D01*
X322112500Y-33250000D02*
X322262500Y-33400000D01*
X317500000Y-33250000D02*
X322112500Y-33250000D01*
X153193750Y-31812500D02*
X153193750Y-36556250D01*
X151250000Y-38500000D02*
X150500000Y-38500000D01*
X153193750Y-36556250D02*
X151250000Y-38500000D01*
X131250000Y-38500000D02*
X131250000Y-34250000D01*
X131250000Y-34250000D02*
X131250000Y-33500000D01*
X131250000Y-34750000D02*
X131250000Y-34250000D01*
X112500000Y-38500000D02*
X112500000Y-33750000D01*
X112500000Y-33750000D02*
X112500000Y-32750000D01*
X112500000Y-34750000D02*
X112500000Y-33750000D01*
X94000000Y-38500000D02*
X94000000Y-33500000D01*
X94000000Y-33500000D02*
X94000000Y-33006250D01*
X94000000Y-34750000D02*
X94000000Y-33500000D01*
X74750000Y-38500000D02*
X74750000Y-33750000D01*
X74750000Y-33750000D02*
X74750000Y-33206250D01*
X74750000Y-34750000D02*
X74750000Y-33750000D01*
X36500000Y-33262500D02*
X36500000Y-37000000D01*
X37950000Y-31812500D02*
X36500000Y-33262500D01*
X38100000Y-31812500D02*
X37950000Y-31812500D01*
X36500000Y-37000000D02*
X38000000Y-38500000D01*
X38000000Y-38500000D02*
X56250000Y-38500000D01*
X56250000Y-32656250D02*
X56250000Y-34750000D01*
X56250000Y-34750000D02*
X56250000Y-38500000D01*
X57093750Y-31812500D02*
X56250000Y-32656250D01*
X57943750Y-31812500D02*
X57093750Y-31812500D01*
X188250000Y-34750000D02*
X188250000Y-32750000D01*
X182015510Y-74557429D02*
X182015510Y-93000000D01*
X182015510Y-74557429D02*
X173250000Y-65791919D01*
X173250000Y-65791919D02*
X173250000Y-57716252D01*
X212378550Y-108608708D02*
X213338120Y-107649138D01*
X206631528Y-108608708D02*
X212378550Y-108608708D01*
X198272819Y-100250000D02*
X206631528Y-108608708D01*
X182015510Y-93000000D02*
X182015510Y-98015510D01*
X183750000Y-100250000D02*
X198272819Y-100250000D01*
X182500001Y-99000001D02*
X183750000Y-100250000D01*
X182015510Y-98553612D02*
X182015510Y-98015510D01*
X182461899Y-99000001D02*
X182015510Y-98553612D01*
X182500001Y-99000001D02*
X182461899Y-99000001D01*
X173250000Y-54750000D02*
X173250000Y-65791920D01*
X178500000Y-49500000D02*
X173250000Y-54750000D01*
X189750000Y-49500000D02*
X178500000Y-49500000D01*
X191500000Y-47750000D02*
X189750000Y-49500000D01*
X191500000Y-38000000D02*
X191500000Y-47750000D01*
X175708080Y-68250000D02*
X182015510Y-74557429D01*
X173250000Y-65791920D02*
X175708080Y-68250000D01*
X188250000Y-34750000D02*
X191500000Y-38000000D01*
X43656250Y-46862500D02*
X43656250Y-47562500D01*
X41506250Y-44712500D02*
X43656250Y-46862500D01*
X37425000Y-44712500D02*
X41506250Y-44712500D01*
X46831250Y-65912500D02*
X46831250Y-66612500D01*
X44681250Y-63762500D02*
X46831250Y-65912500D01*
X39806250Y-63762500D02*
X44681250Y-63762500D01*
X46625000Y-84868750D02*
X50800000Y-84868750D01*
X44568750Y-82812500D02*
X46625000Y-84868750D01*
X43656250Y-104012500D02*
X43656250Y-104712500D01*
X41506250Y-101862500D02*
X43656250Y-104012500D01*
X37425000Y-101862500D02*
X41506250Y-101862500D01*
X57943750Y-27812500D02*
X57943750Y-28512500D01*
X55793750Y-25662500D02*
X57943750Y-27812500D01*
X51712500Y-25662500D02*
X55793750Y-25662500D01*
X65887500Y-50862500D02*
X67468750Y-50862500D01*
X64500000Y-52250000D02*
X65887500Y-50862500D01*
X64500000Y-57500000D02*
X83750000Y-57500000D01*
X84887500Y-50862500D02*
X86518750Y-50862500D01*
X83750000Y-52000000D02*
X84887500Y-50862500D01*
X83750000Y-57500000D02*
X103000000Y-57500000D01*
X104387500Y-50862500D02*
X105568750Y-50862500D01*
X103000000Y-52250000D02*
X104387500Y-50862500D01*
X103000000Y-57500000D02*
X121000000Y-57500000D01*
X122637500Y-50862500D02*
X124618750Y-50862500D01*
X121000000Y-52500000D02*
X122637500Y-50862500D01*
X121000000Y-57500000D02*
X139750000Y-57500000D01*
X141387500Y-50862500D02*
X143668750Y-50862500D01*
X139750000Y-52500000D02*
X141387500Y-50862500D01*
X139750000Y-57500000D02*
X159000000Y-57500000D01*
X160137500Y-50862500D02*
X162718750Y-50862500D01*
X159000000Y-52000000D02*
X160137500Y-50862500D01*
X180918750Y-50862500D02*
X181768750Y-50862500D01*
X179500000Y-52281250D02*
X180918750Y-50862500D01*
X179500000Y-57500000D02*
X199000000Y-57500000D01*
X199637500Y-50862500D02*
X200818750Y-50862500D01*
X199000000Y-51500000D02*
X199637500Y-50862500D01*
X199000000Y-57500000D02*
X218250000Y-57500000D01*
X219868750Y-55881250D02*
X219868750Y-50862500D01*
X218250000Y-57500000D02*
X219868750Y-55881250D01*
X64500000Y-57500000D02*
X64500000Y-53500000D01*
X64500000Y-53500000D02*
X64500000Y-52250000D01*
X64500000Y-53750000D02*
X64500000Y-53500000D01*
X83750000Y-57500000D02*
X83750000Y-53250000D01*
X83750000Y-53250000D02*
X83750000Y-52000000D01*
X83750000Y-53750000D02*
X83750000Y-53250000D01*
X103000000Y-57500000D02*
X103000000Y-53250000D01*
X103000000Y-53250000D02*
X103000000Y-52250000D01*
X103000000Y-53750000D02*
X103000000Y-53250000D01*
X121000000Y-57500000D02*
X121000000Y-53250000D01*
X121000000Y-53250000D02*
X121000000Y-52500000D01*
X121000000Y-53750000D02*
X121000000Y-53250000D01*
X139750000Y-57500000D02*
X139750000Y-53250000D01*
X139750000Y-53250000D02*
X139750000Y-52500000D01*
X139750000Y-53750000D02*
X139750000Y-53250000D01*
X159000000Y-57500000D02*
X159000000Y-52500000D01*
X159000000Y-52500000D02*
X159000000Y-52000000D01*
X159000000Y-53750000D02*
X159000000Y-52500000D01*
X179500000Y-57500000D02*
X179500000Y-52750000D01*
X179500000Y-53750000D02*
X179500000Y-52750000D01*
X199000000Y-57500000D02*
X199000000Y-53250000D01*
X199000000Y-53250000D02*
X199000000Y-51500000D01*
X199000000Y-53750000D02*
X199000000Y-53250000D01*
X218250000Y-57500000D02*
X237500000Y-57500000D01*
X238918750Y-56081250D02*
X238918750Y-50862500D01*
X237500000Y-57500000D02*
X238918750Y-56081250D01*
X237500000Y-57500000D02*
X256750000Y-57500000D01*
X256750000Y-57500000D02*
X258000000Y-56250000D01*
X257968750Y-56218750D02*
X257968750Y-50862500D01*
X258000000Y-56250000D02*
X257968750Y-56218750D01*
X256750000Y-57500000D02*
X275750000Y-57500000D01*
X277018750Y-56231250D02*
X277018750Y-50862500D01*
X275750000Y-57500000D02*
X277018750Y-56231250D01*
X275750000Y-57500000D02*
X300750000Y-57500000D01*
X300750000Y-50943750D02*
X300831250Y-50862500D01*
X300750000Y-57500000D02*
X300750000Y-50943750D01*
X300750000Y-57500000D02*
X320000000Y-57500000D01*
X321412500Y-52450000D02*
X322262500Y-52450000D01*
X320000000Y-53862500D02*
X321412500Y-52450000D01*
X320000000Y-57500000D02*
X320000000Y-53862500D01*
X67468750Y-46862500D02*
X67468750Y-47562500D01*
X65318750Y-44712500D02*
X67468750Y-46862500D01*
X61237500Y-44712500D02*
X65318750Y-44712500D01*
X72231250Y-65912500D02*
X72231250Y-66612500D01*
X70081250Y-63762500D02*
X72231250Y-65912500D01*
X66000000Y-63762500D02*
X70081250Y-63762500D01*
X81756250Y-84168750D02*
X81756250Y-84868750D01*
X80400000Y-82812500D02*
X81756250Y-84168750D01*
X75525000Y-82812500D02*
X80400000Y-82812500D01*
X69850000Y-104012500D02*
X69850000Y-104712500D01*
X67700000Y-101862500D02*
X69850000Y-104012500D01*
X63618750Y-101862500D02*
X67700000Y-101862500D01*
X74843750Y-25662500D02*
X76993750Y-27812500D01*
X76993750Y-27812500D02*
X76993750Y-28512500D01*
X70762500Y-25662500D02*
X74843750Y-25662500D01*
X46831250Y-75581250D02*
X47750000Y-76500000D01*
X46831250Y-69912500D02*
X46831250Y-75581250D01*
X47750000Y-76500000D02*
X71000000Y-76500000D01*
X71000000Y-76500000D02*
X71000000Y-74750000D01*
X72231250Y-73518750D02*
X72231250Y-69912500D01*
X71000000Y-74750000D02*
X72231250Y-73518750D01*
X71000000Y-76500000D02*
X90000000Y-76500000D01*
X91281250Y-75218750D02*
X91281250Y-69912500D01*
X90000000Y-76500000D02*
X91281250Y-75218750D01*
X90000000Y-76500000D02*
X109250000Y-76500000D01*
X110331250Y-75418750D02*
X110331250Y-69912500D01*
X109250000Y-76500000D02*
X110331250Y-75418750D01*
X109250000Y-76500000D02*
X128000000Y-76500000D01*
X129381250Y-75118750D02*
X129381250Y-69912500D01*
X128000000Y-76500000D02*
X129381250Y-75118750D01*
X128000000Y-76500000D02*
X147500000Y-76500000D01*
X148431250Y-75568750D02*
X148431250Y-69912500D01*
X147500000Y-76500000D02*
X148431250Y-75568750D01*
X147500000Y-76500000D02*
X166000000Y-76500000D01*
X167481250Y-75018750D02*
X167481250Y-69912500D01*
X166000000Y-76500000D02*
X167481250Y-75018750D01*
X186531250Y-74968750D02*
X186531250Y-69912500D01*
X185000000Y-76500000D02*
X186531250Y-74968750D01*
X185000000Y-76500000D02*
X204500000Y-76500000D01*
X205581250Y-75418750D02*
X205581250Y-69912500D01*
X204500000Y-76500000D02*
X205581250Y-75418750D01*
X204500000Y-76500000D02*
X223250000Y-76500000D01*
X224631250Y-75118750D02*
X224631250Y-69912500D01*
X223250000Y-76500000D02*
X224631250Y-75118750D01*
X243500000Y-75500000D02*
X243500000Y-69912500D01*
X242500000Y-76500000D02*
X243500000Y-75500000D01*
X242500000Y-76500000D02*
X261500000Y-76500000D01*
X263525000Y-74475000D02*
X263525000Y-69912500D01*
X261500000Y-76500000D02*
X263525000Y-74475000D01*
X261500000Y-76500000D02*
X292000000Y-76500000D01*
X294481250Y-73268750D02*
X294481250Y-69912500D01*
X292000000Y-75750000D02*
X294481250Y-73268750D01*
X292000000Y-76500000D02*
X292000000Y-75750000D01*
X321750000Y-76500000D02*
X322250000Y-76000000D01*
X292000000Y-76500000D02*
X321750000Y-76500000D01*
X322250000Y-70718750D02*
X322262500Y-70706250D01*
X322250000Y-76000000D02*
X322250000Y-70718750D01*
X229131371Y-114250000D02*
X236113590Y-114250000D01*
X223096194Y-108214823D02*
X229131371Y-114250000D01*
X237000000Y-113363590D02*
X237000000Y-97750000D01*
X236113590Y-114250000D02*
X237000000Y-113363590D01*
X237000000Y-93500000D02*
X237000000Y-80750000D01*
X232750000Y-76500000D02*
X242500000Y-76500000D01*
X237000000Y-80750000D02*
X232750000Y-76500000D01*
X223250000Y-76500000D02*
X232750000Y-76500000D01*
X166000000Y-76500000D02*
X179193979Y-76500000D01*
X86518750Y-46862500D02*
X86518750Y-47562500D01*
X84368750Y-44712500D02*
X86518750Y-46862500D01*
X80287500Y-44712500D02*
X84368750Y-44712500D01*
X91281250Y-65912500D02*
X91281250Y-66612500D01*
X89131250Y-63762500D02*
X91281250Y-65912500D01*
X85050000Y-63762500D02*
X89131250Y-63762500D01*
X100806250Y-84168750D02*
X100806250Y-84868750D01*
X99450000Y-82812500D02*
X100806250Y-84168750D01*
X94575000Y-82812500D02*
X99450000Y-82812500D01*
X96043750Y-104012500D02*
X96043750Y-104712500D01*
X93893750Y-101862500D02*
X96043750Y-104012500D01*
X89812500Y-101862500D02*
X93893750Y-101862500D01*
X96043750Y-27812500D02*
X96043750Y-28512500D01*
X93893750Y-25662500D02*
X96043750Y-27812500D01*
X89812500Y-25662500D02*
X93893750Y-25662500D01*
X50800000Y-95050000D02*
X51500000Y-95750000D01*
X50800000Y-88168750D02*
X50800000Y-95050000D01*
X51500000Y-95750000D02*
X80500000Y-95750000D01*
X81756250Y-94493750D02*
X81756250Y-88168750D01*
X80500000Y-95750000D02*
X81756250Y-94493750D01*
X80500000Y-95750000D02*
X99500000Y-95750000D01*
X100806250Y-94443750D02*
X100806250Y-88168750D01*
X99500000Y-95750000D02*
X100806250Y-94443750D01*
X99500000Y-95750000D02*
X118500000Y-95750000D01*
X119856250Y-94393750D02*
X119856250Y-88168750D01*
X118500000Y-95750000D02*
X119856250Y-94393750D01*
X118500000Y-95750000D02*
X137500000Y-95750000D01*
X138906250Y-94343750D02*
X138906250Y-88168750D01*
X137500000Y-95750000D02*
X138906250Y-94343750D01*
X137500000Y-95750000D02*
X156500000Y-95750000D01*
X157956250Y-94293750D02*
X157956250Y-88168750D01*
X156500000Y-95750000D02*
X157956250Y-94293750D01*
X156500000Y-95750000D02*
X175750000Y-95750000D01*
X177006250Y-94493750D02*
X177006250Y-88168750D01*
X175750000Y-95750000D02*
X177006250Y-94493750D01*
X196056250Y-94443750D02*
X196056250Y-88168750D01*
X194750000Y-95750000D02*
X196056250Y-94443750D01*
X234156250Y-94343750D02*
X234156250Y-88168750D01*
X233000000Y-95500000D02*
X234156250Y-94343750D01*
X253206250Y-94043750D02*
X253206250Y-88168750D01*
X251750000Y-95500000D02*
X253206250Y-94043750D01*
X251750000Y-95500000D02*
X278000000Y-95500000D01*
X279400000Y-94100000D02*
X279400000Y-88168750D01*
X278000000Y-95500000D02*
X279400000Y-94100000D01*
X278000000Y-95500000D02*
X304250000Y-95500000D01*
X305593750Y-94156250D02*
X305593750Y-88168750D01*
X304250000Y-95500000D02*
X305593750Y-94156250D01*
X304250000Y-95500000D02*
X321000000Y-95500000D01*
X322262500Y-94237500D02*
X322262500Y-88962500D01*
X321000000Y-95500000D02*
X322262500Y-94237500D01*
X222530509Y-108780509D02*
X228549990Y-114799990D01*
X228549990Y-114799990D02*
X236200010Y-114799990D01*
X237750000Y-113250000D02*
X237750000Y-95500000D01*
X236200010Y-114799990D02*
X237750000Y-113250000D01*
X237750000Y-95500000D02*
X251750000Y-95500000D01*
X233000000Y-95500000D02*
X237750000Y-95500000D01*
X223650000Y-86400000D02*
X215106250Y-86400000D01*
X232750000Y-95500000D02*
X223650000Y-86400000D01*
X233000000Y-95500000D02*
X232750000Y-95500000D01*
X212487500Y-86400000D02*
X212087500Y-86000000D01*
X212087500Y-86000000D02*
X197525000Y-86000000D01*
X197525000Y-86000000D02*
X196056250Y-87468750D01*
X196056250Y-87468750D02*
X196056250Y-88168750D01*
X215106250Y-86400000D02*
X212487500Y-86400000D01*
X105568750Y-46862500D02*
X105568750Y-47562500D01*
X103418750Y-44712500D02*
X105568750Y-46862500D01*
X99337500Y-44712500D02*
X103418750Y-44712500D01*
X110331250Y-65912500D02*
X110331250Y-66612500D01*
X108181250Y-63762500D02*
X110331250Y-65912500D01*
X104100000Y-63762500D02*
X108181250Y-63762500D01*
X119856250Y-84168750D02*
X119856250Y-84868750D01*
X118500000Y-82812500D02*
X119856250Y-84168750D01*
X113625000Y-82812500D02*
X118500000Y-82812500D01*
X112943750Y-25662500D02*
X115093750Y-27812500D01*
X115093750Y-27812500D02*
X115093750Y-28512500D01*
X108862500Y-25662500D02*
X112943750Y-25662500D01*
X43656250Y-108712500D02*
X49193750Y-114250000D01*
X43656250Y-108012500D02*
X43656250Y-108712500D01*
X69850000Y-112650000D02*
X69850000Y-108012500D01*
X68250000Y-114250000D02*
X69850000Y-112650000D01*
X68000000Y-114250000D02*
X95000000Y-114250000D01*
X49193750Y-114250000D02*
X68000000Y-114250000D01*
X68000000Y-114250000D02*
X68250000Y-114250000D01*
X96043750Y-113206250D02*
X96043750Y-108012500D01*
X95000000Y-114250000D02*
X96043750Y-113206250D01*
X95000000Y-114250000D02*
X95000000Y-114250000D01*
X170500000Y-114250000D02*
X172250000Y-112500000D01*
X95000000Y-114250000D02*
X170500000Y-114250000D01*
X172250000Y-108018750D02*
X172243750Y-108012500D01*
X172250000Y-112500000D02*
X172250000Y-108018750D01*
X246062500Y-113187500D02*
X246062500Y-108012500D01*
X267493750Y-113006250D02*
X267493750Y-108012500D01*
X266250000Y-114250000D02*
X267493750Y-113006250D01*
X266250000Y-114250000D02*
X285250000Y-114250000D01*
X286543750Y-112956250D02*
X286543750Y-108012500D01*
X285250000Y-114250000D02*
X286543750Y-112956250D01*
X285250000Y-114250000D02*
X304250000Y-114250000D01*
X305593750Y-112906250D02*
X305593750Y-108012500D01*
X304250000Y-114250000D02*
X305593750Y-112906250D01*
X322750000Y-108012500D02*
X322750000Y-111250000D01*
X322750000Y-111250000D02*
X319750000Y-114250000D01*
X304250000Y-114250000D02*
X319750000Y-114250000D01*
X247125000Y-114250000D02*
X248000000Y-114250000D01*
X246062500Y-113187500D02*
X247125000Y-114250000D01*
X248000000Y-114250000D02*
X266250000Y-114250000D01*
X246125000Y-115250000D02*
X245000000Y-115250000D01*
X245000000Y-115250000D02*
X245218980Y-115250000D01*
X247125000Y-114250000D02*
X246125000Y-115250000D01*
X172250000Y-113000000D02*
X174500000Y-115250000D01*
X172250000Y-112500000D02*
X172250000Y-113000000D01*
X221964823Y-109346194D02*
X223250000Y-110631371D01*
X223250000Y-110631371D02*
X223250000Y-115250000D01*
X223250000Y-115250000D02*
X245000000Y-115250000D01*
X174500000Y-115250000D02*
X223250000Y-115250000D01*
X124618750Y-46862500D02*
X124618750Y-47562500D01*
X122468750Y-44712500D02*
X124618750Y-46862500D01*
X118387500Y-44712500D02*
X122468750Y-44712500D01*
X129381250Y-65912500D02*
X129381250Y-66612500D01*
X127231250Y-63762500D02*
X129381250Y-65912500D01*
X123150000Y-63762500D02*
X127231250Y-63762500D01*
X137550000Y-82812500D02*
X138906250Y-84168750D01*
X138906250Y-84168750D02*
X138906250Y-84868750D01*
X132675000Y-82812500D02*
X137550000Y-82812500D01*
X134143750Y-27812500D02*
X134143750Y-28512500D01*
X131993750Y-25662500D02*
X134143750Y-27812500D01*
X127912500Y-25662500D02*
X131993750Y-25662500D01*
X141518750Y-44712500D02*
X143668750Y-46862500D01*
X143668750Y-46862500D02*
X143668750Y-47562500D01*
X137437500Y-44712500D02*
X141518750Y-44712500D01*
X146281250Y-63762500D02*
X148431250Y-65912500D01*
X148431250Y-65912500D02*
X148431250Y-66612500D01*
X142200000Y-63762500D02*
X146281250Y-63762500D01*
X157956250Y-84168750D02*
X157956250Y-84868750D01*
X156600000Y-82812500D02*
X157956250Y-84168750D01*
X151725000Y-82812500D02*
X156600000Y-82812500D01*
X172243750Y-104012500D02*
X172243750Y-104712500D01*
X170093750Y-101862500D02*
X172243750Y-104012500D01*
X166012500Y-101862500D02*
X170093750Y-101862500D01*
X153193750Y-27812500D02*
X153193750Y-28512500D01*
X151043750Y-25662500D02*
X153193750Y-27812500D01*
X146962500Y-25662500D02*
X151043750Y-25662500D01*
X162718750Y-46862500D02*
X162718750Y-47562500D01*
X160568750Y-44712500D02*
X162718750Y-46862500D01*
X156487500Y-44712500D02*
X160568750Y-44712500D01*
X167481250Y-65912500D02*
X167481250Y-66612500D01*
X165331250Y-63762500D02*
X167481250Y-65912500D01*
X161250000Y-63762500D02*
X165331250Y-63762500D01*
X177006250Y-84168750D02*
X177006250Y-84868750D01*
X175650000Y-82812500D02*
X177006250Y-84168750D01*
X170775000Y-82812500D02*
X175650000Y-82812500D01*
X166012500Y-25662500D02*
X164350000Y-24000000D01*
X164350000Y-24000000D02*
X158000000Y-24000000D01*
X156500000Y-25500000D02*
X156500000Y-28512500D01*
X158000000Y-24000000D02*
X156500000Y-25500000D01*
X181768750Y-46862500D02*
X181768750Y-47562500D01*
X179618750Y-44712500D02*
X181768750Y-46862500D01*
X175537500Y-44712500D02*
X179618750Y-44712500D01*
X186531250Y-65912500D02*
X186531250Y-66612500D01*
X184381250Y-63762500D02*
X186531250Y-65912500D01*
X180300000Y-63762500D02*
X184381250Y-63762500D01*
X196056250Y-84168750D02*
X196056250Y-84868750D01*
X194700000Y-82812500D02*
X196056250Y-84168750D01*
X189825000Y-82812500D02*
X194700000Y-82812500D01*
X191000000Y-27650000D02*
X191000000Y-28350000D01*
X189012500Y-25662500D02*
X191000000Y-27650000D01*
X185062500Y-25662500D02*
X189012500Y-25662500D01*
X198668750Y-44712500D02*
X200818750Y-46862500D01*
X200818750Y-46862500D02*
X200818750Y-47562500D01*
X194587500Y-44712500D02*
X198668750Y-44712500D01*
X205581250Y-65912500D02*
X205581250Y-66612500D01*
X203431250Y-63762500D02*
X205581250Y-65912500D01*
X199350000Y-63762500D02*
X203431250Y-63762500D01*
X210343750Y-27812500D02*
X210343750Y-28512500D01*
X208193750Y-25662500D02*
X210343750Y-27812500D01*
X204112500Y-25662500D02*
X208193750Y-25662500D01*
X219868750Y-46862500D02*
X219868750Y-47562500D01*
X217718750Y-44712500D02*
X219868750Y-46862500D01*
X213637500Y-44712500D02*
X217718750Y-44712500D01*
X224631250Y-65912500D02*
X224631250Y-66612500D01*
X222481250Y-63762500D02*
X224631250Y-65912500D01*
X218400000Y-63762500D02*
X222481250Y-63762500D01*
X234156250Y-84168750D02*
X234156250Y-84868750D01*
X232800000Y-82812500D02*
X234156250Y-84168750D01*
X227925000Y-82812500D02*
X232800000Y-82812500D01*
X229393750Y-27812500D02*
X229393750Y-28512500D01*
X227243750Y-25662500D02*
X229393750Y-27812500D01*
X223162500Y-25662500D02*
X227243750Y-25662500D01*
X238918750Y-46862500D02*
X238918750Y-47562500D01*
X236768750Y-44712500D02*
X238918750Y-46862500D01*
X232687500Y-44712500D02*
X236768750Y-44712500D01*
X237450000Y-63762500D02*
X243118750Y-63762500D01*
X253206250Y-84168750D02*
X253206250Y-84868750D01*
X251850000Y-82812500D02*
X253206250Y-84168750D01*
X246975000Y-82812500D02*
X251850000Y-82812500D01*
X243912500Y-101862500D02*
X246062500Y-104012500D01*
X246062500Y-104012500D02*
X246062500Y-104712500D01*
X239831250Y-101862500D02*
X243912500Y-101862500D01*
X248443750Y-27812500D02*
X248443750Y-28512500D01*
X246293750Y-25662500D02*
X248443750Y-27812500D01*
X242212500Y-25662500D02*
X246293750Y-25662500D01*
X257968750Y-46862500D02*
X257968750Y-47562500D01*
X255818750Y-44712500D02*
X257968750Y-46862500D01*
X251737500Y-44712500D02*
X255818750Y-44712500D01*
X263525000Y-65912500D02*
X263525000Y-66612500D01*
X261375000Y-63762500D02*
X263525000Y-65912500D01*
X256500000Y-63762500D02*
X261375000Y-63762500D01*
X267493750Y-104012500D02*
X267493750Y-104712500D01*
X265343750Y-101862500D02*
X267493750Y-104012500D01*
X261262500Y-101862500D02*
X265343750Y-101862500D01*
X267493750Y-27812500D02*
X267493750Y-28512500D01*
X265343750Y-25662500D02*
X267493750Y-27812500D01*
X261262500Y-25662500D02*
X265343750Y-25662500D01*
X277018750Y-46862500D02*
X277018750Y-47562500D01*
X274868750Y-44712500D02*
X277018750Y-46862500D01*
X270787500Y-44712500D02*
X274868750Y-44712500D01*
X292331250Y-63762500D02*
X294481250Y-65912500D01*
X294481250Y-65912500D02*
X294481250Y-66612500D01*
X287456250Y-63762500D02*
X292331250Y-63762500D01*
X279400000Y-84168750D02*
X279400000Y-84868750D01*
X278043750Y-82812500D02*
X279400000Y-84168750D01*
X273168750Y-82812500D02*
X278043750Y-82812500D01*
X286543750Y-104012500D02*
X286543750Y-104712500D01*
X284393750Y-101862500D02*
X286543750Y-104012500D01*
X280312500Y-101862500D02*
X284393750Y-101862500D01*
X297656250Y-27812500D02*
X297656250Y-28512500D01*
X295506250Y-25662500D02*
X297656250Y-27812500D01*
X289837500Y-25662500D02*
X295506250Y-25662500D01*
X300831250Y-46862500D02*
X300831250Y-47562500D01*
X298681250Y-44712500D02*
X300831250Y-46862500D01*
X294600000Y-44712500D02*
X298681250Y-44712500D01*
X305593750Y-84168750D02*
X305593750Y-84868750D01*
X304237500Y-82812500D02*
X305593750Y-84168750D01*
X299362500Y-82812500D02*
X304237500Y-82812500D01*
X305593750Y-104012500D02*
X305593750Y-104712500D01*
X303443750Y-101862500D02*
X305593750Y-104012500D01*
X299362500Y-101862500D02*
X303443750Y-101862500D01*
X322262500Y-29512500D02*
X322262500Y-30100000D01*
X318412500Y-25662500D02*
X322262500Y-29512500D01*
X322262500Y-48562500D02*
X322262500Y-49150000D01*
X318412500Y-44712500D02*
X322262500Y-48562500D01*
X243500000Y-64143750D02*
X243500000Y-66612500D01*
X243118750Y-63762500D02*
X243500000Y-64143750D01*
X322056250Y-67406250D02*
X322262500Y-67406250D01*
X318412500Y-63762500D02*
X322056250Y-67406250D01*
X214562500Y-82812500D02*
X215106250Y-83356250D01*
X208875000Y-82812500D02*
X214562500Y-82812500D01*
X321262500Y-85662500D02*
X322262500Y-85662500D01*
X318412500Y-82812500D02*
X321262500Y-85662500D01*
X321262500Y-104712500D02*
X322750000Y-104712500D01*
X318412500Y-101862500D02*
X321262500Y-104712500D01*
D23*
X170450000Y-25650000D02*
X170400000Y-25700000D01*
X170450000Y-23295000D02*
X170450000Y-25650000D01*
X171700000Y-30500000D02*
X171650000Y-30550000D01*
X171700000Y-28900000D02*
X171700000Y-30500000D01*
X177000000Y-26844180D02*
X177000000Y-29200000D01*
X175350000Y-25194180D02*
X177000000Y-26844180D01*
X175350000Y-23295000D02*
X175350000Y-25194180D01*
X177000000Y-30712500D02*
X177800000Y-31512500D01*
X177000000Y-29200000D02*
X177000000Y-30712500D01*
D24*
X189750000Y-105225000D02*
X188225000Y-105225000D01*
X187400000Y-104400000D02*
X185350000Y-104400000D01*
X188225000Y-105225000D02*
X187400000Y-104400000D01*
X212206750Y-102982233D02*
X211722641Y-102498124D01*
X193225000Y-105225000D02*
X189750000Y-105225000D01*
X171000000Y-105750000D02*
X168000000Y-108750000D01*
X185350000Y-104400000D02*
X181850000Y-104400000D01*
X172250000Y-105750000D02*
X171000000Y-105750000D01*
X172374999Y-105874999D02*
X172250000Y-105750000D01*
X168000000Y-108750000D02*
X142907500Y-108750000D01*
X180375001Y-105874999D02*
X172374999Y-105874999D01*
X142907500Y-108750000D02*
X141790000Y-107632500D01*
X181850000Y-104400000D02*
X180375001Y-105874999D01*
X193225000Y-105225000D02*
X199725000Y-105225000D01*
X200323601Y-105823601D02*
X200323601Y-106098893D01*
X199725000Y-105225000D02*
X200323601Y-105823601D01*
X211500000Y-102250000D02*
X210250000Y-102250000D01*
X208124999Y-104375001D02*
X206234694Y-104375001D01*
X210250000Y-102250000D02*
X208124999Y-104375001D01*
X212206750Y-102956750D02*
X211500000Y-102250000D01*
X212206750Y-102982233D02*
X212206750Y-102956750D01*
X211641064Y-105952082D02*
X207547918Y-105952082D01*
X207547918Y-105952082D02*
X207500000Y-106000000D01*
X139250000Y-105092500D02*
X147858010Y-96484490D01*
X178612784Y-96484490D02*
X178628294Y-96500000D01*
X147858010Y-96484490D02*
X178612784Y-96484490D01*
X178628294Y-96500000D02*
X179193979Y-96500000D01*
X204676998Y-105250000D02*
X199975001Y-100548003D01*
X199975001Y-98401999D02*
X198323002Y-96750000D01*
X198323002Y-96750000D02*
X186065685Y-96750000D01*
X199975001Y-100548003D02*
X199975001Y-98401999D01*
X207547918Y-105952082D02*
X206845836Y-105250000D01*
X186065685Y-96750000D02*
X185500000Y-96750000D01*
X206845836Y-105250000D02*
X204676998Y-105250000D01*
X43656250Y-55406250D02*
X45750000Y-57500000D01*
X43656250Y-50862500D02*
X43656250Y-55406250D01*
X45750000Y-57500000D02*
X64500000Y-57500000D01*
X139250000Y-107632500D02*
X140867500Y-109250000D01*
X189061820Y-106374990D02*
X193738580Y-106374990D01*
X140867500Y-109250000D02*
X168500000Y-109250000D01*
X168500000Y-109250000D02*
X171250000Y-106500000D01*
X188936810Y-106500000D02*
X189061820Y-106374990D01*
X171250000Y-106500000D02*
X188936810Y-106500000D01*
X193738580Y-106374990D02*
X193738580Y-106374990D01*
X159986510Y-58486510D02*
X169897263Y-58486510D01*
X169897263Y-58486510D02*
X170462948Y-58486510D01*
X159000000Y-57500000D02*
X159986510Y-58486510D01*
X212772435Y-107083452D02*
X211697190Y-108158697D01*
X206908697Y-108158697D02*
X198250000Y-99500000D01*
X211697190Y-108158697D02*
X206908697Y-108158697D01*
X198250000Y-99500000D02*
X197999992Y-99500000D01*
X183636410Y-99500000D02*
X182500000Y-98363590D01*
X197999992Y-99500000D02*
X183636410Y-99500000D01*
X182500000Y-74405509D02*
X173700010Y-65605519D01*
X182500000Y-98363590D02*
X182500000Y-74405509D01*
X173700010Y-65605519D02*
X173750000Y-65555529D01*
X179500000Y-52500000D02*
X179500000Y-52281250D01*
X173750000Y-58250000D02*
X179500000Y-52500000D01*
X173750000Y-65555529D02*
X173750000Y-58250000D01*
X179500000Y-52750000D02*
X179500000Y-52500000D01*
X212206750Y-106517767D02*
X211722641Y-107001876D01*
X212206750Y-106517767D02*
X211224517Y-107500000D01*
X211224517Y-107500000D02*
X211224517Y-107474517D01*
X211224517Y-107474517D02*
X211199034Y-107500000D01*
X207926998Y-107500000D02*
X206500000Y-106073002D01*
X211199034Y-107500000D02*
X207926998Y-107500000D01*
X90750000Y-91000000D02*
X87750000Y-91000000D01*
X62500000Y-91000000D02*
X57250000Y-91000000D01*
X57250000Y-91000000D02*
X53000000Y-86750000D01*
X43006250Y-86750000D02*
X39568750Y-83312500D01*
X53000000Y-86750000D02*
X43006250Y-86750000D01*
X203000004Y-88500000D02*
X199500004Y-92000000D01*
X211250000Y-88500000D02*
X203000004Y-88500000D01*
X215750000Y-93000000D02*
X211250000Y-88500000D01*
X199500004Y-92000000D02*
X199500000Y-92000000D01*
X215035177Y-100153806D02*
X213750000Y-98868629D01*
X215750000Y-93590770D02*
X215750000Y-93000000D01*
X213750000Y-95590770D02*
X215750000Y-93590770D01*
X213750000Y-98868629D02*
X213750000Y-95590770D01*
X214799991Y-95813599D02*
X216750000Y-93863590D01*
X211522820Y-87500000D02*
X201258611Y-87500000D01*
X198857757Y-89900854D02*
X198457758Y-90300853D01*
X214799991Y-97655878D02*
X214799991Y-95813599D01*
X201258611Y-87500000D02*
X198857757Y-89900854D01*
X216166548Y-99022435D02*
X214799991Y-97655878D01*
X216750000Y-93863590D02*
X216750000Y-92727180D01*
X216750000Y-92727180D02*
X211522820Y-87500000D01*
X215250000Y-96000000D02*
X217250000Y-94000000D01*
X216732233Y-98456750D02*
X216456750Y-98456750D01*
X216456750Y-98456750D02*
X215250000Y-97250000D01*
X217250000Y-94000000D02*
X217250000Y-92590770D01*
X215250000Y-97250000D02*
X215250000Y-96000000D01*
X217250000Y-92590770D02*
X211659230Y-87000000D01*
X211659230Y-87000000D02*
X200344408Y-87000000D01*
X200344408Y-87000000D02*
X198146279Y-89198129D01*
X198146279Y-89198129D02*
X197746280Y-89598128D01*
X217297918Y-97891064D02*
X217297918Y-97502156D01*
X217750000Y-92454360D02*
X211795640Y-86500000D01*
X217750000Y-94250000D02*
X217750000Y-92454360D01*
X217297918Y-97502156D02*
X217202718Y-97406956D01*
X197747535Y-88281054D02*
X197347536Y-88681053D01*
X216043366Y-97406956D02*
X215750000Y-97113590D01*
X217202718Y-97406956D02*
X216043366Y-97406956D01*
X199528589Y-86500000D02*
X197747535Y-88281054D01*
X215750000Y-97113590D02*
X215750000Y-96250000D01*
X215750000Y-96250000D02*
X217750000Y-94250000D01*
X211795640Y-86500000D02*
X199528589Y-86500000D01*
X222755188Y-96330814D02*
X223155187Y-95930815D01*
X222755188Y-97317814D02*
X222755188Y-96330814D01*
X221050567Y-99022435D02*
X222755188Y-97317814D01*
X220833452Y-99022435D02*
X221050567Y-99022435D01*
X146725000Y-90475000D02*
X150500000Y-94250000D01*
X146725000Y-83312500D02*
X146725000Y-90475000D01*
X154862500Y-102362500D02*
X150500000Y-98000000D01*
X161012500Y-102362500D02*
X154862500Y-102362500D01*
X223917940Y-97260978D02*
X223917940Y-96695293D01*
X221590798Y-99588120D02*
X223917940Y-97260978D01*
X221399138Y-99588120D02*
X221590798Y-99588120D01*
X222042649Y-100153806D02*
X224320305Y-97876150D01*
X221964823Y-100153806D02*
X222042649Y-100153806D01*
X224320305Y-97876150D02*
X224720304Y-97476151D01*
X188462501Y-44087501D02*
X189587500Y-45212500D01*
X181187499Y-36812499D02*
X188462501Y-44087501D01*
X181187499Y-27287499D02*
X181187499Y-36812499D01*
X180062500Y-26162500D02*
X181187499Y-27287499D01*
X225102254Y-98195294D02*
X225667939Y-98195294D01*
X222530509Y-100719491D02*
X225054706Y-98195294D01*
X225054706Y-98195294D02*
X225102254Y-98195294D01*
X225934315Y-99000000D02*
X226500000Y-99000000D01*
X225381371Y-99000000D02*
X225934315Y-99000000D01*
X223096194Y-101285177D02*
X225381371Y-99000000D01*
X233706251Y-101237501D02*
X234831250Y-102362500D01*
X224275241Y-101237501D02*
X233706251Y-101237501D01*
X223661880Y-101850862D02*
X224275241Y-101237501D01*
X224227565Y-102416548D02*
X224711674Y-101932439D01*
X230068849Y-101932439D02*
X230184525Y-102048115D01*
X224711674Y-101932439D02*
X230068849Y-101932439D01*
X230813028Y-102048115D02*
X234316228Y-105551315D01*
X230184525Y-102048115D02*
X230813028Y-102048115D01*
X225277359Y-102498124D02*
X229998124Y-102498124D01*
X224793250Y-102982233D02*
X225277359Y-102498124D01*
X229998124Y-102498124D02*
X234000000Y-106500000D01*
X223661880Y-107649138D02*
X223661880Y-107661880D01*
X223661880Y-107661880D02*
X229750000Y-113750000D01*
X229750000Y-113750000D02*
X229750000Y-113525000D01*
X224227565Y-107083452D02*
X224227565Y-107227565D01*
X229880292Y-112750000D02*
X230057003Y-112573289D01*
X229750000Y-112750000D02*
X229880292Y-112750000D01*
X229491318Y-112573289D02*
X230057003Y-112573289D01*
X224227565Y-107309536D02*
X229491318Y-112573289D01*
X224227565Y-107083452D02*
X224227565Y-107309536D01*
X198215598Y-100925013D02*
X198040585Y-100750000D01*
X173700000Y-38425000D02*
X174400000Y-38425000D01*
X215600862Y-109911880D02*
X213762743Y-111749999D01*
X172218979Y-50332999D02*
X173250000Y-49301978D01*
X172218979Y-66218979D02*
X172218979Y-50332999D01*
X206445128Y-109058719D02*
X198311422Y-100925013D01*
X213762743Y-111749999D02*
X210249999Y-111749999D01*
X207558720Y-109058719D02*
X206445128Y-109058719D01*
X182113590Y-100750000D02*
X180950010Y-99586420D01*
X198311422Y-100925013D02*
X198215598Y-100925013D01*
X198040585Y-100750000D02*
X182113590Y-100750000D01*
X180950010Y-99586420D02*
X180950010Y-74950010D01*
X210249999Y-111749999D02*
X207558720Y-109058719D01*
X173250000Y-49301978D02*
X173250000Y-38875000D01*
X180950010Y-74950010D02*
X172218979Y-66218979D01*
X173250000Y-38875000D02*
X173700000Y-38425000D01*
X174650000Y-23295000D02*
X174650000Y-25450000D01*
X175975000Y-26775000D02*
X175975000Y-27500000D01*
X174650000Y-25450000D02*
X175975000Y-26775000D01*
X171650000Y-24770000D02*
X171650000Y-23295000D01*
X171650000Y-26450000D02*
X171650000Y-24770000D01*
X170600000Y-27500000D02*
X171650000Y-26450000D01*
X170025000Y-27500000D02*
X170600000Y-27500000D01*
X173650000Y-21820000D02*
X173650000Y-23295000D01*
X172800000Y-21700000D02*
X173530000Y-21700000D01*
X172625001Y-23125001D02*
X172625001Y-21874999D01*
X172650000Y-23150000D02*
X172625001Y-23125001D01*
X173530000Y-21700000D02*
X173650000Y-21820000D01*
X172625001Y-21874999D02*
X172800000Y-21700000D01*
X172650000Y-23295000D02*
X172650000Y-23150000D01*
X173500000Y-32000000D02*
X173950000Y-32450000D01*
X173000000Y-31485002D02*
X173500000Y-31985002D01*
X173674999Y-25925001D02*
X173000000Y-26600000D01*
X173000000Y-26600000D02*
X173000000Y-31485002D01*
X173674999Y-23474999D02*
X173674999Y-25925001D01*
X173650000Y-23450000D02*
X173674999Y-23474999D01*
X173500000Y-31985002D02*
X173500000Y-32000000D01*
X173650000Y-23295000D02*
X173650000Y-23450000D01*
X173200000Y-33900000D02*
X173200000Y-35500000D01*
X173200000Y-35500000D02*
X174075000Y-36375000D01*
X173950000Y-33150000D02*
X173200000Y-33900000D01*
X174075000Y-36375000D02*
X174400000Y-36375000D01*
X173950000Y-32450000D02*
X173950000Y-33150000D01*
X172174999Y-23374999D02*
X172174999Y-25674999D01*
X172150000Y-23350000D02*
X172174999Y-23374999D01*
X172150000Y-23295000D02*
X172150000Y-23350000D01*
X172174999Y-25674999D02*
X172500000Y-26000000D01*
X172500000Y-26000000D02*
X172750000Y-26000000D01*
X173150000Y-25600000D02*
X173150000Y-23295000D01*
X172750000Y-26000000D02*
X173150000Y-25600000D01*
X171800000Y-31935002D02*
X171800000Y-32300000D01*
X171800000Y-32300000D02*
X171650000Y-32450000D01*
X172500000Y-31235002D02*
X171800000Y-31935002D01*
X172500000Y-26000000D02*
X172500000Y-31235002D01*
X171500000Y-36100000D02*
X171500000Y-36375000D01*
X172400000Y-35200000D02*
X171500000Y-36100000D01*
X171650000Y-33150000D02*
X172400000Y-33900000D01*
X172400000Y-33900000D02*
X172400000Y-35200000D01*
X171650000Y-32450000D02*
X171650000Y-33150000D01*
X225747844Y-103547918D02*
X225358936Y-103547918D01*
X227897918Y-103547918D02*
X225747844Y-103547918D01*
X230000000Y-105650000D02*
X227897918Y-103547918D01*
X230000000Y-106225000D02*
X230000000Y-105650000D01*
D23*
X168580000Y-18881000D02*
X168580000Y-21880000D01*
X168580000Y-17700000D02*
X168580000Y-18881000D01*
X177220000Y-21330000D02*
X177220000Y-21880000D01*
X176339000Y-20449000D02*
X177220000Y-21330000D01*
X169461000Y-20449000D02*
X176339000Y-20449000D01*
X168580000Y-21330000D02*
X169461000Y-20449000D01*
X168580000Y-21880000D02*
X168580000Y-21330000D01*
X177220000Y-20449000D02*
X177220000Y-17700000D01*
X177220000Y-21880000D02*
X177220000Y-20449000D01*
X169675000Y-22975000D02*
X168580000Y-21880000D01*
X169675000Y-23295000D02*
X169675000Y-22975000D01*
X176125000Y-22975000D02*
X177220000Y-21880000D01*
X176125000Y-23295000D02*
X176125000Y-22975000D01*
X176339000Y-17700000D02*
X168580000Y-17700000D01*
X177220000Y-17700000D02*
X176339000Y-17700000D01*
X176125000Y-24901000D02*
X176700000Y-25476000D01*
X176125000Y-23295000D02*
X176125000Y-24901000D01*
X176700000Y-25476000D02*
X176700000Y-25500000D01*
X178025000Y-26800000D02*
X178025000Y-27500000D01*
X176725000Y-25500000D02*
X178025000Y-26800000D01*
X176700000Y-25500000D02*
X176725000Y-25500000D01*
X167975000Y-26601000D02*
X167975000Y-27500000D01*
X169675000Y-24901000D02*
X167975000Y-26601000D01*
X169675000Y-23295000D02*
X169675000Y-24901000D01*
X204040380Y-97833274D02*
X206411522Y-95462132D01*
X203333274Y-97833274D02*
X204040380Y-97833274D01*
X206411522Y-95462132D02*
X206411522Y-93088478D01*
X208916726Y-90583274D02*
X210833274Y-90583274D01*
X206411522Y-93088478D02*
X208916726Y-90583274D01*
X203333274Y-100083274D02*
X203333274Y-97833274D01*
X209000000Y-98750000D02*
X205500000Y-102250000D01*
X213338120Y-101850862D02*
X213147923Y-101850862D01*
X210047061Y-98750000D02*
X209000000Y-98750000D01*
X213147923Y-101850862D02*
X210047061Y-98750000D01*
X213338120Y-101850862D02*
X216500000Y-105012742D01*
X216500000Y-107881371D02*
X215035177Y-109346194D01*
X219718159Y-110468159D02*
X216500000Y-107250000D01*
X219718159Y-110493642D02*
X219718159Y-110468159D01*
X220267767Y-111043250D02*
X219718159Y-110493642D01*
X216500000Y-107250000D02*
X216500000Y-107881371D01*
X216500000Y-105012742D02*
X216500000Y-107250000D01*
X224603054Y-106517767D02*
X223098029Y-105012742D01*
X224793250Y-106517767D02*
X224603054Y-106517767D01*
X219152473Y-104152473D02*
X220000000Y-105000000D01*
X219313174Y-97891064D02*
X219152473Y-98051765D01*
X219152473Y-98051765D02*
X219152473Y-104152473D01*
X219702082Y-97891064D02*
X219313174Y-97891064D01*
X220000000Y-105000000D02*
X216500000Y-105012742D01*
X223098029Y-105012742D02*
X220000000Y-105000000D01*
X226550483Y-108275000D02*
X224793250Y-106517767D01*
X230000000Y-108275000D02*
X226550483Y-108275000D01*
X205250000Y-113900000D02*
X201750000Y-113900000D01*
X200769000Y-113900000D02*
X197750000Y-113900000D01*
X201750000Y-113900000D02*
X200769000Y-113900000D01*
X197750000Y-113900000D02*
X194000000Y-113900000D01*
X193019000Y-113900000D02*
X190000000Y-113900000D01*
X194000000Y-113900000D02*
X193019000Y-113900000D01*
X213381371Y-111000000D02*
X211250000Y-111000000D01*
X215035177Y-109346194D02*
X213381371Y-111000000D01*
X210290510Y-114000000D02*
X210250000Y-114000000D01*
X210750000Y-113540510D02*
X210290510Y-114000000D01*
X210250000Y-114000000D02*
X210481371Y-113900000D01*
X205250000Y-113900000D02*
X210250000Y-114000000D01*
X173950000Y-30850000D02*
X173950000Y-30750000D01*
X178690310Y-32615510D02*
X175715510Y-32615510D01*
X179065510Y-32240310D02*
X178690310Y-32615510D01*
X179065510Y-27965510D02*
X179065510Y-32240310D01*
X175715510Y-32615510D02*
X173950000Y-30850000D01*
X178600000Y-27500000D02*
X179065510Y-27965510D01*
X178025000Y-27500000D02*
X178600000Y-27500000D01*
X203484490Y-100234490D02*
X203500000Y-100250000D01*
X203500000Y-100250000D02*
X203333274Y-100083274D01*
X190000000Y-113900000D02*
X189019000Y-113900000D01*
X203750000Y-100750000D02*
X204000000Y-100750000D01*
X204000000Y-100750000D02*
X203500000Y-100250000D01*
X202500000Y-102000000D02*
X203750000Y-100750000D01*
X205500000Y-102250000D02*
X204000000Y-100750000D01*
X180000000Y-100229041D02*
X182270959Y-102500000D01*
X182270959Y-102500000D02*
X197434315Y-102500000D01*
X197434315Y-102500000D02*
X198000000Y-102500000D01*
X148651500Y-97000000D02*
X175750000Y-97000000D01*
X141790000Y-103861500D02*
X148651500Y-97000000D01*
X175750000Y-97000000D02*
X178500000Y-99750000D01*
X141790000Y-105092500D02*
X141790000Y-103861500D01*
X179520959Y-99750000D02*
X180000000Y-100229041D01*
X178500000Y-99750000D02*
X179520959Y-99750000D01*
X167975000Y-53726863D02*
X171253458Y-57005321D01*
X167975000Y-27500000D02*
X167975000Y-53726863D01*
X179984489Y-75349942D02*
X179984490Y-100213532D01*
X171253458Y-66618911D02*
X179984489Y-75349942D01*
X179984490Y-100213532D02*
X180000000Y-100229041D01*
X171253458Y-57005321D02*
X171253458Y-66618911D01*
D24*
X171500000Y-38425000D02*
X172200000Y-38425000D01*
X172200000Y-38425000D02*
X172750000Y-38975000D01*
X180500000Y-100000000D02*
X181750000Y-101250000D01*
X172750000Y-38975000D02*
X172750000Y-49165567D01*
X197904174Y-101250000D02*
X198029198Y-101375024D01*
X198125022Y-101375024D02*
X206258728Y-109508730D01*
X206258728Y-109508730D02*
X207372320Y-109508730D01*
X210063599Y-112200010D02*
X214444103Y-112200010D01*
X172750000Y-49165567D02*
X171768969Y-50146598D01*
X207372320Y-109508730D02*
X210063599Y-112200010D01*
X214444103Y-112200010D02*
X216166548Y-110477565D01*
X171768969Y-50146598D02*
X171768969Y-66405379D01*
X198029198Y-101375024D02*
X198125022Y-101375024D01*
X181750000Y-101250000D02*
X197904174Y-101250000D01*
X180500000Y-75136410D02*
X180500000Y-100000000D01*
X171768969Y-66405379D02*
X180500000Y-75136410D01*
X70525000Y-83312500D02*
X74462500Y-87250000D01*
X88000000Y-87250000D02*
X90337341Y-89587341D01*
X90337341Y-89587341D02*
X90737340Y-89987340D01*
X74462500Y-87250000D02*
X88000000Y-87250000D01*
X214200010Y-98187268D02*
X215600862Y-99588120D01*
X211386410Y-88000000D02*
X216238590Y-92852180D01*
X216238590Y-93738590D02*
X214200010Y-95777170D01*
X216238590Y-92852180D02*
X216238590Y-93738590D01*
X214200010Y-95777170D02*
X214200010Y-98187268D01*
X201958759Y-88000000D02*
X211386410Y-88000000D01*
X198683769Y-91274990D02*
X201958759Y-88000000D01*
D25*
G36*
X176346839Y-16663831D02*
G01*
X176219997Y-16848322D01*
X176131585Y-17054013D01*
X176085000Y-17273000D01*
X176085000Y-17573000D01*
X177093000Y-17573000D01*
X177093000Y-17553000D01*
X177347000Y-17553000D01*
X177347000Y-17573000D01*
X177367000Y-17573000D01*
X177367000Y-17827000D01*
X177347000Y-17827000D01*
X177347000Y-18967954D01*
X177521874Y-19094119D01*
X177742401Y-19015198D01*
X177742401Y-19868685D01*
X177743456Y-19879400D01*
X177745715Y-19932588D01*
X177750190Y-19964307D01*
X177752461Y-19996263D01*
X177753700Y-20003241D01*
X177781835Y-20155578D01*
X177794553Y-20199744D01*
X177806676Y-20244171D01*
X177809247Y-20250775D01*
X177866342Y-20394511D01*
X177744976Y-20315724D01*
X177521874Y-20235881D01*
X177347000Y-20362046D01*
X177347000Y-21753000D01*
X177367000Y-21753000D01*
X177367000Y-22007000D01*
X177347000Y-22007000D01*
X177347000Y-23397954D01*
X177521874Y-23524119D01*
X177744976Y-23444276D01*
X177932764Y-23322369D01*
X177982672Y-23273767D01*
X177974682Y-23873000D01*
X177060956Y-23873000D01*
X177060000Y-23580750D01*
X176967644Y-23488394D01*
X177059668Y-23422002D01*
X177060000Y-23422002D01*
X177060000Y-23421762D01*
X177093000Y-23397954D01*
X177093000Y-22007000D01*
X177073000Y-22007000D01*
X177073000Y-21753000D01*
X177093000Y-21753000D01*
X177093000Y-20362046D01*
X176918126Y-20235881D01*
X176695024Y-20315724D01*
X176507236Y-20437631D01*
X176346839Y-20593831D01*
X176272902Y-20701372D01*
X176172542Y-20634314D01*
X176025568Y-20573435D01*
X175869542Y-20542400D01*
X175710458Y-20542400D01*
X175554432Y-20573435D01*
X175407458Y-20634314D01*
X175275185Y-20722696D01*
X175162696Y-20835185D01*
X175074314Y-20967458D01*
X175013435Y-21114432D01*
X174982400Y-21270458D01*
X174982400Y-21429542D01*
X175013435Y-21585568D01*
X175014668Y-21588545D01*
X174955394Y-21594383D01*
X174925000Y-21603603D01*
X174894606Y-21594383D01*
X174800000Y-21585065D01*
X174500000Y-21585065D01*
X174405394Y-21594383D01*
X174400000Y-21596019D01*
X174394606Y-21594383D01*
X174300000Y-21585065D01*
X174213373Y-21585065D01*
X174157645Y-21480803D01*
X174081716Y-21388284D01*
X174058539Y-21369263D01*
X173980741Y-21291465D01*
X173961716Y-21268284D01*
X173869197Y-21192355D01*
X173763643Y-21135936D01*
X173649110Y-21101192D01*
X173559841Y-21092400D01*
X173559831Y-21092400D01*
X173530000Y-21089462D01*
X173500169Y-21092400D01*
X172829831Y-21092400D01*
X172800000Y-21089462D01*
X172770169Y-21092400D01*
X172770159Y-21092400D01*
X172680890Y-21101192D01*
X172566357Y-21135936D01*
X172460803Y-21192355D01*
X172368284Y-21268284D01*
X172349258Y-21291467D01*
X172216463Y-21424262D01*
X172193286Y-21443283D01*
X172174265Y-21466460D01*
X172174263Y-21466462D01*
X172117357Y-21535802D01*
X172091026Y-21585065D01*
X172000000Y-21585065D01*
X171905394Y-21594383D01*
X171900000Y-21596019D01*
X171894606Y-21594383D01*
X171800000Y-21585065D01*
X171500000Y-21585065D01*
X171405394Y-21594383D01*
X171400000Y-21596019D01*
X171394606Y-21594383D01*
X171300000Y-21585065D01*
X171000000Y-21585065D01*
X170905394Y-21594383D01*
X170875000Y-21603603D01*
X170844606Y-21594383D01*
X170785332Y-21588545D01*
X170786565Y-21585568D01*
X170817600Y-21429542D01*
X170817600Y-21270458D01*
X170786565Y-21114432D01*
X170725686Y-20967458D01*
X170637304Y-20835185D01*
X170524815Y-20722696D01*
X170392542Y-20634314D01*
X170245568Y-20573435D01*
X170089542Y-20542400D01*
X169930458Y-20542400D01*
X169774432Y-20573435D01*
X169627458Y-20634314D01*
X169527098Y-20701372D01*
X169453161Y-20593831D01*
X169292764Y-20437631D01*
X169104976Y-20315724D01*
X168881874Y-20235881D01*
X168707000Y-20362046D01*
X168707000Y-21753000D01*
X168727000Y-21753000D01*
X168727000Y-22007000D01*
X168707000Y-22007000D01*
X168707000Y-23397954D01*
X168740000Y-23421762D01*
X168740000Y-23422002D01*
X168740332Y-23422002D01*
X168832356Y-23488394D01*
X168740000Y-23580750D01*
X168739044Y-23873000D01*
X167430432Y-23873000D01*
X167463239Y-22642738D01*
X167491585Y-22775987D01*
X167579997Y-22981678D01*
X167706839Y-23166169D01*
X167867236Y-23322369D01*
X168055024Y-23444276D01*
X168278126Y-23524119D01*
X168453000Y-23397954D01*
X168453000Y-22007000D01*
X168433000Y-22007000D01*
X168433000Y-21753000D01*
X168453000Y-21753000D01*
X168453000Y-20362046D01*
X168278126Y-20235881D01*
X168055024Y-20315724D01*
X167867236Y-20437631D01*
X167813464Y-20489996D01*
X167869543Y-20384528D01*
X167887073Y-20341997D01*
X167905198Y-20299709D01*
X167907291Y-20292944D01*
X167907294Y-20292937D01*
X167907295Y-20292930D01*
X167952068Y-20144637D01*
X167960994Y-20099556D01*
X167970570Y-20054506D01*
X167971310Y-20047457D01*
X167986324Y-19894338D01*
X167988737Y-19870875D01*
X167992609Y-18973758D01*
X168055024Y-19014276D01*
X168278126Y-19094119D01*
X168453000Y-18967954D01*
X168453000Y-17827000D01*
X168707000Y-17827000D01*
X168707000Y-18967954D01*
X168881874Y-19094119D01*
X169104976Y-19014276D01*
X169292764Y-18892369D01*
X169453161Y-18736169D01*
X169580003Y-18551678D01*
X169668415Y-18345987D01*
X169715000Y-18127000D01*
X169715000Y-17827000D01*
X176085000Y-17827000D01*
X176085000Y-18127000D01*
X176131585Y-18345987D01*
X176219997Y-18551678D01*
X176346839Y-18736169D01*
X176507236Y-18892369D01*
X176695024Y-19014276D01*
X176918126Y-19094119D01*
X177093000Y-18967954D01*
X177093000Y-17827000D01*
X176085000Y-17827000D01*
X169715000Y-17827000D01*
X168707000Y-17827000D01*
X168453000Y-17827000D01*
X168433000Y-17827000D01*
X168433000Y-17573000D01*
X168453000Y-17573000D01*
X168453000Y-17553000D01*
X168707000Y-17553000D01*
X168707000Y-17573000D01*
X169715000Y-17573000D01*
X169715000Y-17273000D01*
X169668415Y-17054013D01*
X169580003Y-16848322D01*
X169453161Y-16663831D01*
X169415340Y-16627000D01*
X176384660Y-16627000D01*
X176346839Y-16663831D01*
G37*
X176346839Y-16663831D02*
X176219997Y-16848322D01*
X176131585Y-17054013D01*
X176085000Y-17273000D01*
X176085000Y-17573000D01*
X177093000Y-17573000D01*
X177093000Y-17553000D01*
X177347000Y-17553000D01*
X177347000Y-17573000D01*
X177367000Y-17573000D01*
X177367000Y-17827000D01*
X177347000Y-17827000D01*
X177347000Y-18967954D01*
X177521874Y-19094119D01*
X177742401Y-19015198D01*
X177742401Y-19868685D01*
X177743456Y-19879400D01*
X177745715Y-19932588D01*
X177750190Y-19964307D01*
X177752461Y-19996263D01*
X177753700Y-20003241D01*
X177781835Y-20155578D01*
X177794553Y-20199744D01*
X177806676Y-20244171D01*
X177809247Y-20250775D01*
X177866342Y-20394511D01*
X177744976Y-20315724D01*
X177521874Y-20235881D01*
X177347000Y-20362046D01*
X177347000Y-21753000D01*
X177367000Y-21753000D01*
X177367000Y-22007000D01*
X177347000Y-22007000D01*
X177347000Y-23397954D01*
X177521874Y-23524119D01*
X177744976Y-23444276D01*
X177932764Y-23322369D01*
X177982672Y-23273767D01*
X177974682Y-23873000D01*
X177060956Y-23873000D01*
X177060000Y-23580750D01*
X176967644Y-23488394D01*
X177059668Y-23422002D01*
X177060000Y-23422002D01*
X177060000Y-23421762D01*
X177093000Y-23397954D01*
X177093000Y-22007000D01*
X177073000Y-22007000D01*
X177073000Y-21753000D01*
X177093000Y-21753000D01*
X177093000Y-20362046D01*
X176918126Y-20235881D01*
X176695024Y-20315724D01*
X176507236Y-20437631D01*
X176346839Y-20593831D01*
X176272902Y-20701372D01*
X176172542Y-20634314D01*
X176025568Y-20573435D01*
X175869542Y-20542400D01*
X175710458Y-20542400D01*
X175554432Y-20573435D01*
X175407458Y-20634314D01*
X175275185Y-20722696D01*
X175162696Y-20835185D01*
X175074314Y-20967458D01*
X175013435Y-21114432D01*
X174982400Y-21270458D01*
X174982400Y-21429542D01*
X175013435Y-21585568D01*
X175014668Y-21588545D01*
X174955394Y-21594383D01*
X174925000Y-21603603D01*
X174894606Y-21594383D01*
X174800000Y-21585065D01*
X174500000Y-21585065D01*
X174405394Y-21594383D01*
X174400000Y-21596019D01*
X174394606Y-21594383D01*
X174300000Y-21585065D01*
X174213373Y-21585065D01*
X174157645Y-21480803D01*
X174081716Y-21388284D01*
X174058539Y-21369263D01*
X173980741Y-21291465D01*
X173961716Y-21268284D01*
X173869197Y-21192355D01*
X173763643Y-21135936D01*
X173649110Y-21101192D01*
X173559841Y-21092400D01*
X173559831Y-21092400D01*
X173530000Y-21089462D01*
X173500169Y-21092400D01*
X172829831Y-21092400D01*
X172800000Y-21089462D01*
X172770169Y-21092400D01*
X172770159Y-21092400D01*
X172680890Y-21101192D01*
X172566357Y-21135936D01*
X172460803Y-21192355D01*
X172368284Y-21268284D01*
X172349258Y-21291467D01*
X172216463Y-21424262D01*
X172193286Y-21443283D01*
X172174265Y-21466460D01*
X172174263Y-21466462D01*
X172117357Y-21535802D01*
X172091026Y-21585065D01*
X172000000Y-21585065D01*
X171905394Y-21594383D01*
X171900000Y-21596019D01*
X171894606Y-21594383D01*
X171800000Y-21585065D01*
X171500000Y-21585065D01*
X171405394Y-21594383D01*
X171400000Y-21596019D01*
X171394606Y-21594383D01*
X171300000Y-21585065D01*
X171000000Y-21585065D01*
X170905394Y-21594383D01*
X170875000Y-21603603D01*
X170844606Y-21594383D01*
X170785332Y-21588545D01*
X170786565Y-21585568D01*
X170817600Y-21429542D01*
X170817600Y-21270458D01*
X170786565Y-21114432D01*
X170725686Y-20967458D01*
X170637304Y-20835185D01*
X170524815Y-20722696D01*
X170392542Y-20634314D01*
X170245568Y-20573435D01*
X170089542Y-20542400D01*
X169930458Y-20542400D01*
X169774432Y-20573435D01*
X169627458Y-20634314D01*
X169527098Y-20701372D01*
X169453161Y-20593831D01*
X169292764Y-20437631D01*
X169104976Y-20315724D01*
X168881874Y-20235881D01*
X168707000Y-20362046D01*
X168707000Y-21753000D01*
X168727000Y-21753000D01*
X168727000Y-22007000D01*
X168707000Y-22007000D01*
X168707000Y-23397954D01*
X168740000Y-23421762D01*
X168740000Y-23422002D01*
X168740332Y-23422002D01*
X168832356Y-23488394D01*
X168740000Y-23580750D01*
X168739044Y-23873000D01*
X167430432Y-23873000D01*
X167463239Y-22642738D01*
X167491585Y-22775987D01*
X167579997Y-22981678D01*
X167706839Y-23166169D01*
X167867236Y-23322369D01*
X168055024Y-23444276D01*
X168278126Y-23524119D01*
X168453000Y-23397954D01*
X168453000Y-22007000D01*
X168433000Y-22007000D01*
X168433000Y-21753000D01*
X168453000Y-21753000D01*
X168453000Y-20362046D01*
X168278126Y-20235881D01*
X168055024Y-20315724D01*
X167867236Y-20437631D01*
X167813464Y-20489996D01*
X167869543Y-20384528D01*
X167887073Y-20341997D01*
X167905198Y-20299709D01*
X167907291Y-20292944D01*
X167907294Y-20292937D01*
X167907295Y-20292930D01*
X167952068Y-20144637D01*
X167960994Y-20099556D01*
X167970570Y-20054506D01*
X167971310Y-20047457D01*
X167986324Y-19894338D01*
X167988737Y-19870875D01*
X167992609Y-18973758D01*
X168055024Y-19014276D01*
X168278126Y-19094119D01*
X168453000Y-18967954D01*
X168453000Y-17827000D01*
X168707000Y-17827000D01*
X168707000Y-18967954D01*
X168881874Y-19094119D01*
X169104976Y-19014276D01*
X169292764Y-18892369D01*
X169453161Y-18736169D01*
X169580003Y-18551678D01*
X169668415Y-18345987D01*
X169715000Y-18127000D01*
X169715000Y-17827000D01*
X176085000Y-17827000D01*
X176085000Y-18127000D01*
X176131585Y-18345987D01*
X176219997Y-18551678D01*
X176346839Y-18736169D01*
X176507236Y-18892369D01*
X176695024Y-19014276D01*
X176918126Y-19094119D01*
X177093000Y-18967954D01*
X177093000Y-17827000D01*
X176085000Y-17827000D01*
X169715000Y-17827000D01*
X168707000Y-17827000D01*
X168453000Y-17827000D01*
X168433000Y-17827000D01*
X168433000Y-17573000D01*
X168453000Y-17573000D01*
X168453000Y-17553000D01*
X168707000Y-17553000D01*
X168707000Y-17573000D01*
X169715000Y-17573000D01*
X169715000Y-17273000D01*
X169668415Y-17054013D01*
X169580003Y-16848322D01*
X169453161Y-16663831D01*
X169415340Y-16627000D01*
X176384660Y-16627000D01*
X176346839Y-16663831D01*
G36*
X176252000Y-23168000D02*
G01*
X176272000Y-23168000D01*
X176272000Y-23422000D01*
X176252000Y-23422000D01*
X176252000Y-23442000D01*
X176134935Y-23442000D01*
X176134935Y-23148000D01*
X176252000Y-23148000D01*
X176252000Y-23168000D01*
G37*
X176252000Y-23168000D02*
X176272000Y-23168000D01*
X176272000Y-23422000D01*
X176252000Y-23422000D01*
X176252000Y-23442000D01*
X176134935Y-23442000D01*
X176134935Y-23148000D01*
X176252000Y-23148000D01*
X176252000Y-23168000D01*
G36*
X169665065Y-23442000D02*
G01*
X169548000Y-23442000D01*
X169548000Y-23422000D01*
X169528000Y-23422000D01*
X169528000Y-23168000D01*
X169548000Y-23168000D01*
X169548000Y-23148000D01*
X169665065Y-23148000D01*
X169665065Y-23442000D01*
G37*
X169665065Y-23442000D02*
X169548000Y-23442000D01*
X169548000Y-23422000D01*
X169528000Y-23422000D01*
X169528000Y-23168000D01*
X169548000Y-23168000D01*
X169548000Y-23148000D01*
X169665065Y-23148000D01*
X169665065Y-23442000D01*
D26*
G36*
X215412301Y-93139881D02*
G01*
X215412300Y-93450890D01*
X213522937Y-95340254D01*
X213510056Y-95350825D01*
X213499486Y-95363705D01*
X213467855Y-95402247D01*
X213445347Y-95444357D01*
X213436498Y-95460913D01*
X213420953Y-95512160D01*
X213417188Y-95524570D01*
X213410667Y-95590770D01*
X213412301Y-95607358D01*
X213412300Y-98852051D01*
X213410667Y-98868629D01*
X213412300Y-98885207D01*
X213412300Y-98885209D01*
X213417187Y-98934829D01*
X213436497Y-98998485D01*
X213436498Y-98998486D01*
X213467855Y-99057152D01*
X213491322Y-99085746D01*
X213510055Y-99108573D01*
X213522937Y-99119145D01*
X214122337Y-99718546D01*
X214112933Y-99736139D01*
X214100771Y-99776234D01*
X214099977Y-99784291D01*
X214091919Y-99785085D01*
X214051824Y-99797247D01*
X214034231Y-99806651D01*
X211062574Y-96834995D01*
X211062574Y-95690842D01*
X211064207Y-95674264D01*
X211062574Y-95657683D01*
X211060883Y-95640513D01*
X211618465Y-95082931D01*
X211645045Y-95050543D01*
X211664796Y-95013593D01*
X211676958Y-94973498D01*
X211681065Y-94931802D01*
X211676958Y-94890106D01*
X211675554Y-94885477D01*
X212830123Y-93730909D01*
X212909531Y-93810317D01*
X212941919Y-93836897D01*
X212978869Y-93856648D01*
X213018964Y-93868810D01*
X213060660Y-93872917D01*
X213102356Y-93868810D01*
X213142451Y-93856648D01*
X213179401Y-93836897D01*
X213211789Y-93810317D01*
X214060317Y-92961789D01*
X214086897Y-92929401D01*
X214106648Y-92892451D01*
X214118810Y-92852356D01*
X214122917Y-92810660D01*
X214118810Y-92768964D01*
X214106648Y-92728869D01*
X214086897Y-92691919D01*
X214060317Y-92659531D01*
X213423921Y-92023135D01*
X213391533Y-91996555D01*
X213354583Y-91976804D01*
X213314488Y-91964642D01*
X213272792Y-91960535D01*
X213231096Y-91964642D01*
X213191001Y-91976804D01*
X213154051Y-91996555D01*
X213121663Y-92023135D01*
X212273135Y-92871663D01*
X212246555Y-92904051D01*
X212226804Y-92941001D01*
X212214642Y-92981096D01*
X212210535Y-93022792D01*
X212214642Y-93064488D01*
X212226804Y-93104583D01*
X212246555Y-93141533D01*
X212273135Y-93173921D01*
X212352543Y-93253329D01*
X211221832Y-94384040D01*
X210345673Y-93507881D01*
X210313285Y-93481301D01*
X210276335Y-93461550D01*
X210236240Y-93449388D01*
X210194544Y-93445281D01*
X210152848Y-93449388D01*
X210112753Y-93461550D01*
X210075803Y-93481301D01*
X210043415Y-93507881D01*
X208558491Y-94992805D01*
X208531911Y-95025193D01*
X208512160Y-95062143D01*
X208499998Y-95102238D01*
X208495891Y-95143934D01*
X208499998Y-95185630D01*
X208512160Y-95225725D01*
X208531911Y-95262675D01*
X208558491Y-95295063D01*
X209831283Y-96567855D01*
X209863671Y-96594435D01*
X209900621Y-96614186D01*
X209940716Y-96626348D01*
X209982412Y-96630455D01*
X210024108Y-96626348D01*
X210064203Y-96614186D01*
X210101153Y-96594435D01*
X210133541Y-96567855D01*
X210387174Y-96314222D01*
X210387175Y-96958286D01*
X210385541Y-96974874D01*
X210390211Y-97022278D01*
X210392062Y-97041075D01*
X210402597Y-97075803D01*
X210411372Y-97104731D01*
X210442729Y-97163397D01*
X210468291Y-97194544D01*
X210484930Y-97214819D01*
X210497811Y-97225390D01*
X213556651Y-100284231D01*
X213547247Y-100301824D01*
X213535085Y-100341919D01*
X213534291Y-100349977D01*
X213526234Y-100350771D01*
X213486139Y-100362933D01*
X213468546Y-100372337D01*
X209957627Y-96861419D01*
X209947052Y-96848533D01*
X209895630Y-96806333D01*
X209836964Y-96774975D01*
X209773308Y-96755665D01*
X209723688Y-96750778D01*
X209723685Y-96750778D01*
X209707107Y-96749145D01*
X209690529Y-96750778D01*
X209487350Y-96750778D01*
X208295063Y-95558491D01*
X208277481Y-95544062D01*
X208303546Y-95458141D01*
X208313600Y-95356066D01*
X208303546Y-95253991D01*
X208273771Y-95155839D01*
X208225421Y-95065381D01*
X208160352Y-94986094D01*
X207784847Y-94614152D01*
X207600752Y-94614152D01*
X206752772Y-95462132D01*
X206766914Y-95476274D01*
X206425664Y-95817524D01*
X206411522Y-95803382D01*
X205563542Y-96651362D01*
X205563542Y-96835457D01*
X205935484Y-97210962D01*
X206014771Y-97276031D01*
X206105229Y-97324381D01*
X206203381Y-97354156D01*
X206305456Y-97364210D01*
X206407531Y-97354156D01*
X206493452Y-97328091D01*
X206507881Y-97345673D01*
X206905487Y-97743279D01*
X205439663Y-99209104D01*
X205426781Y-99219676D01*
X205416212Y-99232555D01*
X205384581Y-99271097D01*
X205367820Y-99302455D01*
X205353223Y-99329764D01*
X205333913Y-99393420D01*
X205329026Y-99443039D01*
X205327393Y-99459620D01*
X205329026Y-99476198D01*
X205329026Y-99565772D01*
X204773135Y-100121663D01*
X204746555Y-100154051D01*
X204726804Y-100191001D01*
X204714642Y-100231096D01*
X204710535Y-100272792D01*
X204714642Y-100314488D01*
X204726804Y-100354583D01*
X204746555Y-100391533D01*
X204773135Y-100423921D01*
X205409531Y-101060317D01*
X205441919Y-101086897D01*
X205478869Y-101106648D01*
X205518964Y-101118810D01*
X205560660Y-101122917D01*
X205602356Y-101118810D01*
X205642451Y-101106648D01*
X205679401Y-101086897D01*
X205711789Y-101060317D01*
X206560317Y-100211789D01*
X206586897Y-100179401D01*
X206606648Y-100142451D01*
X206618810Y-100102356D01*
X206622917Y-100060660D01*
X206618810Y-100018964D01*
X206606648Y-99978869D01*
X206586897Y-99941919D01*
X206560317Y-99909531D01*
X206127356Y-99476570D01*
X207383067Y-98220859D01*
X207780673Y-98618465D01*
X207813061Y-98645045D01*
X207850011Y-98664796D01*
X207890106Y-98676958D01*
X207931802Y-98681065D01*
X207973498Y-98676958D01*
X208013593Y-98664796D01*
X208050543Y-98645045D01*
X208082931Y-98618465D01*
X209275218Y-97426178D01*
X209567228Y-97426178D01*
X212791010Y-100649961D01*
X212732636Y-100677669D01*
X212702272Y-100689669D01*
X212702272Y-100873764D01*
X213338120Y-101509612D01*
X213352262Y-101495470D01*
X213693512Y-101836720D01*
X213679370Y-101850862D01*
X213693512Y-101865004D01*
X213352262Y-102206254D01*
X213338120Y-102192112D01*
X213323978Y-102206254D01*
X212982728Y-101865004D01*
X212996870Y-101850862D01*
X212361022Y-101215014D01*
X212176927Y-101215014D01*
X212166782Y-101240684D01*
X211154994Y-100228897D01*
X211142371Y-100213516D01*
X211080976Y-100163130D01*
X211010931Y-100125690D01*
X210980643Y-100116502D01*
X210975915Y-100109426D01*
X210890574Y-100024085D01*
X210790222Y-99957032D01*
X210678718Y-99910845D01*
X210560346Y-99887300D01*
X210439654Y-99887300D01*
X210321282Y-99910845D01*
X210209778Y-99957032D01*
X210109426Y-100024085D01*
X210024085Y-100109426D01*
X209957032Y-100209778D01*
X209910845Y-100321282D01*
X209887300Y-100439654D01*
X209887300Y-100560346D01*
X209910845Y-100678718D01*
X209957032Y-100790222D01*
X210024085Y-100890574D01*
X210109426Y-100975915D01*
X210209778Y-101042968D01*
X210321282Y-101089155D01*
X210439654Y-101112700D01*
X210560346Y-101112700D01*
X210678718Y-101089155D01*
X210790222Y-101042968D01*
X210813255Y-101027578D01*
X211833116Y-102047439D01*
X211829178Y-102047827D01*
X211789083Y-102059989D01*
X211788096Y-102060517D01*
X211750520Y-102022941D01*
X211739945Y-102010055D01*
X211688523Y-101967855D01*
X211629857Y-101936497D01*
X211566201Y-101917187D01*
X211516581Y-101912300D01*
X211516578Y-101912300D01*
X211500000Y-101910667D01*
X211483422Y-101912300D01*
X210266577Y-101912300D01*
X210249999Y-101910667D01*
X210233421Y-101912300D01*
X210233419Y-101912300D01*
X210183799Y-101917187D01*
X210120143Y-101936497D01*
X210092834Y-101951094D01*
X210061476Y-101967855D01*
X210032882Y-101991322D01*
X210010055Y-102010055D01*
X209999484Y-102022936D01*
X207985120Y-104037301D01*
X206745938Y-104037301D01*
X206710609Y-103984427D01*
X206625268Y-103899086D01*
X206524916Y-103832033D01*
X206413412Y-103785846D01*
X206295040Y-103762301D01*
X206174348Y-103762301D01*
X206055976Y-103785846D01*
X205947459Y-103830796D01*
X200758415Y-99240488D01*
X200757229Y-99239558D01*
X200312701Y-98931808D01*
X200312701Y-98704306D01*
X202803492Y-98704306D01*
X202803492Y-98888401D01*
X202857236Y-98945708D01*
X202936523Y-99010776D01*
X203026981Y-99059127D01*
X203125133Y-99088902D01*
X203227208Y-99098956D01*
X203329283Y-99088902D01*
X203427435Y-99059127D01*
X203517893Y-99010776D01*
X203597180Y-98945708D01*
X203756990Y-98782335D01*
X203756990Y-98598240D01*
X203333274Y-98174524D01*
X202803492Y-98704306D01*
X200312701Y-98704306D01*
X200312701Y-98418576D01*
X200314334Y-98401998D01*
X200311977Y-98378069D01*
X200307814Y-98335798D01*
X200288504Y-98272142D01*
X200265992Y-98230025D01*
X200257146Y-98213475D01*
X200225515Y-98174933D01*
X200214946Y-98162054D01*
X200202065Y-98151483D01*
X199989922Y-97939340D01*
X202067592Y-97939340D01*
X202077646Y-98041415D01*
X202107421Y-98139567D01*
X202155772Y-98230025D01*
X202220840Y-98309312D01*
X202278147Y-98363056D01*
X202462242Y-98363056D01*
X202992024Y-97833274D01*
X203674524Y-97833274D01*
X204098240Y-98256990D01*
X204282335Y-98256990D01*
X204445708Y-98097180D01*
X204510776Y-98017893D01*
X204559127Y-97927435D01*
X204588902Y-97829283D01*
X204598956Y-97727208D01*
X204588902Y-97625133D01*
X204559127Y-97526981D01*
X204510776Y-97436523D01*
X204445708Y-97357236D01*
X204388401Y-97303492D01*
X204204306Y-97303492D01*
X203674524Y-97833274D01*
X202992024Y-97833274D01*
X202568308Y-97409558D01*
X202384213Y-97409558D01*
X202220840Y-97569368D01*
X202155772Y-97648655D01*
X202107421Y-97739113D01*
X202077646Y-97837265D01*
X202067592Y-97939340D01*
X199989922Y-97939340D01*
X198934795Y-96884213D01*
X202909558Y-96884213D01*
X202909558Y-97068308D01*
X203333274Y-97492024D01*
X203863056Y-96962242D01*
X203863056Y-96778147D01*
X203809312Y-96720840D01*
X203730025Y-96655772D01*
X203639567Y-96607421D01*
X203541415Y-96577646D01*
X203439340Y-96567592D01*
X203337265Y-96577646D01*
X203239113Y-96607421D01*
X203148655Y-96655772D01*
X203069368Y-96720840D01*
X202909558Y-96884213D01*
X198934795Y-96884213D01*
X198573522Y-96522941D01*
X198562947Y-96510055D01*
X198511525Y-96467855D01*
X198452859Y-96436497D01*
X198389203Y-96417187D01*
X198339583Y-96412300D01*
X198339580Y-96412300D01*
X198323002Y-96410667D01*
X198306424Y-96412300D01*
X197512700Y-96412300D01*
X197512700Y-95568198D01*
X204509444Y-95568198D01*
X204519498Y-95670273D01*
X204549273Y-95768425D01*
X204597623Y-95858883D01*
X204662692Y-95938170D01*
X205038197Y-96310112D01*
X205222292Y-96310112D01*
X206070272Y-95462132D01*
X205328358Y-94720218D01*
X205144263Y-94720218D01*
X204662692Y-95198226D01*
X204597623Y-95277513D01*
X204549273Y-95367971D01*
X204519498Y-95466123D01*
X204509444Y-95568198D01*
X197512700Y-95568198D01*
X197512700Y-94505703D01*
X197862383Y-94194873D01*
X205669608Y-94194873D01*
X205669608Y-94378968D01*
X206411522Y-95120882D01*
X207259502Y-94272902D01*
X207259502Y-94088807D01*
X206887560Y-93713302D01*
X206808273Y-93648233D01*
X206717815Y-93599883D01*
X206619663Y-93570108D01*
X206517588Y-93560054D01*
X206415513Y-93570108D01*
X206317361Y-93599883D01*
X206226903Y-93648233D01*
X206147616Y-93713302D01*
X205669608Y-94194873D01*
X197862383Y-94194873D01*
X198624328Y-93517588D01*
X206869545Y-93517588D01*
X206873652Y-93559284D01*
X206885814Y-93599379D01*
X206905565Y-93636329D01*
X206932145Y-93668717D01*
X208204937Y-94941509D01*
X208237325Y-94968089D01*
X208274275Y-94987840D01*
X208314370Y-95000002D01*
X208356066Y-95004109D01*
X208397762Y-95000002D01*
X208437857Y-94987840D01*
X208474807Y-94968089D01*
X208507195Y-94941509D01*
X209992119Y-93456585D01*
X210018699Y-93424197D01*
X210038450Y-93387247D01*
X210050612Y-93347152D01*
X210054719Y-93305456D01*
X210050612Y-93263760D01*
X210038450Y-93223665D01*
X210018699Y-93186715D01*
X209992119Y-93154327D01*
X208719327Y-91881535D01*
X208686939Y-91854955D01*
X208649989Y-91835204D01*
X208609894Y-91823042D01*
X208568198Y-91818935D01*
X208526502Y-91823042D01*
X208486407Y-91835204D01*
X208449457Y-91854955D01*
X208417069Y-91881535D01*
X206932145Y-93366459D01*
X206905565Y-93398847D01*
X206885814Y-93435797D01*
X206873652Y-93475892D01*
X206869545Y-93517588D01*
X198624328Y-93517588D01*
X199665962Y-92591692D01*
X199678718Y-92589155D01*
X199790222Y-92542968D01*
X199890574Y-92475915D01*
X199975915Y-92390574D01*
X200042968Y-92290222D01*
X200065027Y-92236968D01*
X200945521Y-91454306D01*
X210303492Y-91454306D01*
X210303492Y-91638401D01*
X210357236Y-91695708D01*
X210436523Y-91760776D01*
X210526981Y-91809127D01*
X210625133Y-91838902D01*
X210727208Y-91848956D01*
X210829283Y-91838902D01*
X210927435Y-91809127D01*
X211017893Y-91760776D01*
X211097180Y-91695708D01*
X211256990Y-91532335D01*
X211256990Y-91348240D01*
X210833274Y-90924524D01*
X210303492Y-91454306D01*
X200945521Y-91454306D01*
X201806108Y-90689340D01*
X209567592Y-90689340D01*
X209577646Y-90791415D01*
X209607421Y-90889567D01*
X209655772Y-90980025D01*
X209720840Y-91059312D01*
X209778147Y-91113056D01*
X209962242Y-91113056D01*
X210492024Y-90583274D01*
X211174524Y-90583274D01*
X211598240Y-91006990D01*
X211782335Y-91006990D01*
X211945708Y-90847180D01*
X212010776Y-90767893D01*
X212059127Y-90677435D01*
X212088902Y-90579283D01*
X212098956Y-90477208D01*
X212088902Y-90375133D01*
X212059127Y-90276981D01*
X212010776Y-90186523D01*
X211945708Y-90107236D01*
X211888401Y-90053492D01*
X211704306Y-90053492D01*
X211174524Y-90583274D01*
X210492024Y-90583274D01*
X210068308Y-90159558D01*
X209884213Y-90159558D01*
X209720840Y-90319368D01*
X209655772Y-90398655D01*
X209607421Y-90489113D01*
X209577646Y-90587265D01*
X209567592Y-90689340D01*
X201806108Y-90689340D01*
X202008437Y-90509492D01*
X202008582Y-90509362D01*
X202963290Y-89634213D01*
X210409558Y-89634213D01*
X210409558Y-89818308D01*
X210833274Y-90242024D01*
X211363056Y-89712242D01*
X211363056Y-89528147D01*
X211309312Y-89470840D01*
X211230025Y-89405772D01*
X211139567Y-89357421D01*
X211041415Y-89327646D01*
X210939340Y-89317592D01*
X210837265Y-89327646D01*
X210739113Y-89357421D01*
X210648655Y-89405772D01*
X210569368Y-89470840D01*
X210409558Y-89634213D01*
X202963290Y-89634213D01*
X203832214Y-88837700D01*
X211110121Y-88837700D01*
X215412301Y-93139881D01*
G37*
X215412301Y-93139881D02*
X215412300Y-93450890D01*
X213522937Y-95340254D01*
X213510056Y-95350825D01*
X213499486Y-95363705D01*
X213467855Y-95402247D01*
X213445347Y-95444357D01*
X213436498Y-95460913D01*
X213420953Y-95512160D01*
X213417188Y-95524570D01*
X213410667Y-95590770D01*
X213412301Y-95607358D01*
X213412300Y-98852051D01*
X213410667Y-98868629D01*
X213412300Y-98885207D01*
X213412300Y-98885209D01*
X213417187Y-98934829D01*
X213436497Y-98998485D01*
X213436498Y-98998486D01*
X213467855Y-99057152D01*
X213491322Y-99085746D01*
X213510055Y-99108573D01*
X213522937Y-99119145D01*
X214122337Y-99718546D01*
X214112933Y-99736139D01*
X214100771Y-99776234D01*
X214099977Y-99784291D01*
X214091919Y-99785085D01*
X214051824Y-99797247D01*
X214034231Y-99806651D01*
X211062574Y-96834995D01*
X211062574Y-95690842D01*
X211064207Y-95674264D01*
X211062574Y-95657683D01*
X211060883Y-95640513D01*
X211618465Y-95082931D01*
X211645045Y-95050543D01*
X211664796Y-95013593D01*
X211676958Y-94973498D01*
X211681065Y-94931802D01*
X211676958Y-94890106D01*
X211675554Y-94885477D01*
X212830123Y-93730909D01*
X212909531Y-93810317D01*
X212941919Y-93836897D01*
X212978869Y-93856648D01*
X213018964Y-93868810D01*
X213060660Y-93872917D01*
X213102356Y-93868810D01*
X213142451Y-93856648D01*
X213179401Y-93836897D01*
X213211789Y-93810317D01*
X214060317Y-92961789D01*
X214086897Y-92929401D01*
X214106648Y-92892451D01*
X214118810Y-92852356D01*
X214122917Y-92810660D01*
X214118810Y-92768964D01*
X214106648Y-92728869D01*
X214086897Y-92691919D01*
X214060317Y-92659531D01*
X213423921Y-92023135D01*
X213391533Y-91996555D01*
X213354583Y-91976804D01*
X213314488Y-91964642D01*
X213272792Y-91960535D01*
X213231096Y-91964642D01*
X213191001Y-91976804D01*
X213154051Y-91996555D01*
X213121663Y-92023135D01*
X212273135Y-92871663D01*
X212246555Y-92904051D01*
X212226804Y-92941001D01*
X212214642Y-92981096D01*
X212210535Y-93022792D01*
X212214642Y-93064488D01*
X212226804Y-93104583D01*
X212246555Y-93141533D01*
X212273135Y-93173921D01*
X212352543Y-93253329D01*
X211221832Y-94384040D01*
X210345673Y-93507881D01*
X210313285Y-93481301D01*
X210276335Y-93461550D01*
X210236240Y-93449388D01*
X210194544Y-93445281D01*
X210152848Y-93449388D01*
X210112753Y-93461550D01*
X210075803Y-93481301D01*
X210043415Y-93507881D01*
X208558491Y-94992805D01*
X208531911Y-95025193D01*
X208512160Y-95062143D01*
X208499998Y-95102238D01*
X208495891Y-95143934D01*
X208499998Y-95185630D01*
X208512160Y-95225725D01*
X208531911Y-95262675D01*
X208558491Y-95295063D01*
X209831283Y-96567855D01*
X209863671Y-96594435D01*
X209900621Y-96614186D01*
X209940716Y-96626348D01*
X209982412Y-96630455D01*
X210024108Y-96626348D01*
X210064203Y-96614186D01*
X210101153Y-96594435D01*
X210133541Y-96567855D01*
X210387174Y-96314222D01*
X210387175Y-96958286D01*
X210385541Y-96974874D01*
X210390211Y-97022278D01*
X210392062Y-97041075D01*
X210402597Y-97075803D01*
X210411372Y-97104731D01*
X210442729Y-97163397D01*
X210468291Y-97194544D01*
X210484930Y-97214819D01*
X210497811Y-97225390D01*
X213556651Y-100284231D01*
X213547247Y-100301824D01*
X213535085Y-100341919D01*
X213534291Y-100349977D01*
X213526234Y-100350771D01*
X213486139Y-100362933D01*
X213468546Y-100372337D01*
X209957627Y-96861419D01*
X209947052Y-96848533D01*
X209895630Y-96806333D01*
X209836964Y-96774975D01*
X209773308Y-96755665D01*
X209723688Y-96750778D01*
X209723685Y-96750778D01*
X209707107Y-96749145D01*
X209690529Y-96750778D01*
X209487350Y-96750778D01*
X208295063Y-95558491D01*
X208277481Y-95544062D01*
X208303546Y-95458141D01*
X208313600Y-95356066D01*
X208303546Y-95253991D01*
X208273771Y-95155839D01*
X208225421Y-95065381D01*
X208160352Y-94986094D01*
X207784847Y-94614152D01*
X207600752Y-94614152D01*
X206752772Y-95462132D01*
X206766914Y-95476274D01*
X206425664Y-95817524D01*
X206411522Y-95803382D01*
X205563542Y-96651362D01*
X205563542Y-96835457D01*
X205935484Y-97210962D01*
X206014771Y-97276031D01*
X206105229Y-97324381D01*
X206203381Y-97354156D01*
X206305456Y-97364210D01*
X206407531Y-97354156D01*
X206493452Y-97328091D01*
X206507881Y-97345673D01*
X206905487Y-97743279D01*
X205439663Y-99209104D01*
X205426781Y-99219676D01*
X205416212Y-99232555D01*
X205384581Y-99271097D01*
X205367820Y-99302455D01*
X205353223Y-99329764D01*
X205333913Y-99393420D01*
X205329026Y-99443039D01*
X205327393Y-99459620D01*
X205329026Y-99476198D01*
X205329026Y-99565772D01*
X204773135Y-100121663D01*
X204746555Y-100154051D01*
X204726804Y-100191001D01*
X204714642Y-100231096D01*
X204710535Y-100272792D01*
X204714642Y-100314488D01*
X204726804Y-100354583D01*
X204746555Y-100391533D01*
X204773135Y-100423921D01*
X205409531Y-101060317D01*
X205441919Y-101086897D01*
X205478869Y-101106648D01*
X205518964Y-101118810D01*
X205560660Y-101122917D01*
X205602356Y-101118810D01*
X205642451Y-101106648D01*
X205679401Y-101086897D01*
X205711789Y-101060317D01*
X206560317Y-100211789D01*
X206586897Y-100179401D01*
X206606648Y-100142451D01*
X206618810Y-100102356D01*
X206622917Y-100060660D01*
X206618810Y-100018964D01*
X206606648Y-99978869D01*
X206586897Y-99941919D01*
X206560317Y-99909531D01*
X206127356Y-99476570D01*
X207383067Y-98220859D01*
X207780673Y-98618465D01*
X207813061Y-98645045D01*
X207850011Y-98664796D01*
X207890106Y-98676958D01*
X207931802Y-98681065D01*
X207973498Y-98676958D01*
X208013593Y-98664796D01*
X208050543Y-98645045D01*
X208082931Y-98618465D01*
X209275218Y-97426178D01*
X209567228Y-97426178D01*
X212791010Y-100649961D01*
X212732636Y-100677669D01*
X212702272Y-100689669D01*
X212702272Y-100873764D01*
X213338120Y-101509612D01*
X213352262Y-101495470D01*
X213693512Y-101836720D01*
X213679370Y-101850862D01*
X213693512Y-101865004D01*
X213352262Y-102206254D01*
X213338120Y-102192112D01*
X213323978Y-102206254D01*
X212982728Y-101865004D01*
X212996870Y-101850862D01*
X212361022Y-101215014D01*
X212176927Y-101215014D01*
X212166782Y-101240684D01*
X211154994Y-100228897D01*
X211142371Y-100213516D01*
X211080976Y-100163130D01*
X211010931Y-100125690D01*
X210980643Y-100116502D01*
X210975915Y-100109426D01*
X210890574Y-100024085D01*
X210790222Y-99957032D01*
X210678718Y-99910845D01*
X210560346Y-99887300D01*
X210439654Y-99887300D01*
X210321282Y-99910845D01*
X210209778Y-99957032D01*
X210109426Y-100024085D01*
X210024085Y-100109426D01*
X209957032Y-100209778D01*
X209910845Y-100321282D01*
X209887300Y-100439654D01*
X209887300Y-100560346D01*
X209910845Y-100678718D01*
X209957032Y-100790222D01*
X210024085Y-100890574D01*
X210109426Y-100975915D01*
X210209778Y-101042968D01*
X210321282Y-101089155D01*
X210439654Y-101112700D01*
X210560346Y-101112700D01*
X210678718Y-101089155D01*
X210790222Y-101042968D01*
X210813255Y-101027578D01*
X211833116Y-102047439D01*
X211829178Y-102047827D01*
X211789083Y-102059989D01*
X211788096Y-102060517D01*
X211750520Y-102022941D01*
X211739945Y-102010055D01*
X211688523Y-101967855D01*
X211629857Y-101936497D01*
X211566201Y-101917187D01*
X211516581Y-101912300D01*
X211516578Y-101912300D01*
X211500000Y-101910667D01*
X211483422Y-101912300D01*
X210266577Y-101912300D01*
X210249999Y-101910667D01*
X210233421Y-101912300D01*
X210233419Y-101912300D01*
X210183799Y-101917187D01*
X210120143Y-101936497D01*
X210092834Y-101951094D01*
X210061476Y-101967855D01*
X210032882Y-101991322D01*
X210010055Y-102010055D01*
X209999484Y-102022936D01*
X207985120Y-104037301D01*
X206745938Y-104037301D01*
X206710609Y-103984427D01*
X206625268Y-103899086D01*
X206524916Y-103832033D01*
X206413412Y-103785846D01*
X206295040Y-103762301D01*
X206174348Y-103762301D01*
X206055976Y-103785846D01*
X205947459Y-103830796D01*
X200758415Y-99240488D01*
X200757229Y-99239558D01*
X200312701Y-98931808D01*
X200312701Y-98704306D01*
X202803492Y-98704306D01*
X202803492Y-98888401D01*
X202857236Y-98945708D01*
X202936523Y-99010776D01*
X203026981Y-99059127D01*
X203125133Y-99088902D01*
X203227208Y-99098956D01*
X203329283Y-99088902D01*
X203427435Y-99059127D01*
X203517893Y-99010776D01*
X203597180Y-98945708D01*
X203756990Y-98782335D01*
X203756990Y-98598240D01*
X203333274Y-98174524D01*
X202803492Y-98704306D01*
X200312701Y-98704306D01*
X200312701Y-98418576D01*
X200314334Y-98401998D01*
X200311977Y-98378069D01*
X200307814Y-98335798D01*
X200288504Y-98272142D01*
X200265992Y-98230025D01*
X200257146Y-98213475D01*
X200225515Y-98174933D01*
X200214946Y-98162054D01*
X200202065Y-98151483D01*
X199989922Y-97939340D01*
X202067592Y-97939340D01*
X202077646Y-98041415D01*
X202107421Y-98139567D01*
X202155772Y-98230025D01*
X202220840Y-98309312D01*
X202278147Y-98363056D01*
X202462242Y-98363056D01*
X202992024Y-97833274D01*
X203674524Y-97833274D01*
X204098240Y-98256990D01*
X204282335Y-98256990D01*
X204445708Y-98097180D01*
X204510776Y-98017893D01*
X204559127Y-97927435D01*
X204588902Y-97829283D01*
X204598956Y-97727208D01*
X204588902Y-97625133D01*
X204559127Y-97526981D01*
X204510776Y-97436523D01*
X204445708Y-97357236D01*
X204388401Y-97303492D01*
X204204306Y-97303492D01*
X203674524Y-97833274D01*
X202992024Y-97833274D01*
X202568308Y-97409558D01*
X202384213Y-97409558D01*
X202220840Y-97569368D01*
X202155772Y-97648655D01*
X202107421Y-97739113D01*
X202077646Y-97837265D01*
X202067592Y-97939340D01*
X199989922Y-97939340D01*
X198934795Y-96884213D01*
X202909558Y-96884213D01*
X202909558Y-97068308D01*
X203333274Y-97492024D01*
X203863056Y-96962242D01*
X203863056Y-96778147D01*
X203809312Y-96720840D01*
X203730025Y-96655772D01*
X203639567Y-96607421D01*
X203541415Y-96577646D01*
X203439340Y-96567592D01*
X203337265Y-96577646D01*
X203239113Y-96607421D01*
X203148655Y-96655772D01*
X203069368Y-96720840D01*
X202909558Y-96884213D01*
X198934795Y-96884213D01*
X198573522Y-96522941D01*
X198562947Y-96510055D01*
X198511525Y-96467855D01*
X198452859Y-96436497D01*
X198389203Y-96417187D01*
X198339583Y-96412300D01*
X198339580Y-96412300D01*
X198323002Y-96410667D01*
X198306424Y-96412300D01*
X197512700Y-96412300D01*
X197512700Y-95568198D01*
X204509444Y-95568198D01*
X204519498Y-95670273D01*
X204549273Y-95768425D01*
X204597623Y-95858883D01*
X204662692Y-95938170D01*
X205038197Y-96310112D01*
X205222292Y-96310112D01*
X206070272Y-95462132D01*
X205328358Y-94720218D01*
X205144263Y-94720218D01*
X204662692Y-95198226D01*
X204597623Y-95277513D01*
X204549273Y-95367971D01*
X204519498Y-95466123D01*
X204509444Y-95568198D01*
X197512700Y-95568198D01*
X197512700Y-94505703D01*
X197862383Y-94194873D01*
X205669608Y-94194873D01*
X205669608Y-94378968D01*
X206411522Y-95120882D01*
X207259502Y-94272902D01*
X207259502Y-94088807D01*
X206887560Y-93713302D01*
X206808273Y-93648233D01*
X206717815Y-93599883D01*
X206619663Y-93570108D01*
X206517588Y-93560054D01*
X206415513Y-93570108D01*
X206317361Y-93599883D01*
X206226903Y-93648233D01*
X206147616Y-93713302D01*
X205669608Y-94194873D01*
X197862383Y-94194873D01*
X198624328Y-93517588D01*
X206869545Y-93517588D01*
X206873652Y-93559284D01*
X206885814Y-93599379D01*
X206905565Y-93636329D01*
X206932145Y-93668717D01*
X208204937Y-94941509D01*
X208237325Y-94968089D01*
X208274275Y-94987840D01*
X208314370Y-95000002D01*
X208356066Y-95004109D01*
X208397762Y-95000002D01*
X208437857Y-94987840D01*
X208474807Y-94968089D01*
X208507195Y-94941509D01*
X209992119Y-93456585D01*
X210018699Y-93424197D01*
X210038450Y-93387247D01*
X210050612Y-93347152D01*
X210054719Y-93305456D01*
X210050612Y-93263760D01*
X210038450Y-93223665D01*
X210018699Y-93186715D01*
X209992119Y-93154327D01*
X208719327Y-91881535D01*
X208686939Y-91854955D01*
X208649989Y-91835204D01*
X208609894Y-91823042D01*
X208568198Y-91818935D01*
X208526502Y-91823042D01*
X208486407Y-91835204D01*
X208449457Y-91854955D01*
X208417069Y-91881535D01*
X206932145Y-93366459D01*
X206905565Y-93398847D01*
X206885814Y-93435797D01*
X206873652Y-93475892D01*
X206869545Y-93517588D01*
X198624328Y-93517588D01*
X199665962Y-92591692D01*
X199678718Y-92589155D01*
X199790222Y-92542968D01*
X199890574Y-92475915D01*
X199975915Y-92390574D01*
X200042968Y-92290222D01*
X200065027Y-92236968D01*
X200945521Y-91454306D01*
X210303492Y-91454306D01*
X210303492Y-91638401D01*
X210357236Y-91695708D01*
X210436523Y-91760776D01*
X210526981Y-91809127D01*
X210625133Y-91838902D01*
X210727208Y-91848956D01*
X210829283Y-91838902D01*
X210927435Y-91809127D01*
X211017893Y-91760776D01*
X211097180Y-91695708D01*
X211256990Y-91532335D01*
X211256990Y-91348240D01*
X210833274Y-90924524D01*
X210303492Y-91454306D01*
X200945521Y-91454306D01*
X201806108Y-90689340D01*
X209567592Y-90689340D01*
X209577646Y-90791415D01*
X209607421Y-90889567D01*
X209655772Y-90980025D01*
X209720840Y-91059312D01*
X209778147Y-91113056D01*
X209962242Y-91113056D01*
X210492024Y-90583274D01*
X211174524Y-90583274D01*
X211598240Y-91006990D01*
X211782335Y-91006990D01*
X211945708Y-90847180D01*
X212010776Y-90767893D01*
X212059127Y-90677435D01*
X212088902Y-90579283D01*
X212098956Y-90477208D01*
X212088902Y-90375133D01*
X212059127Y-90276981D01*
X212010776Y-90186523D01*
X211945708Y-90107236D01*
X211888401Y-90053492D01*
X211704306Y-90053492D01*
X211174524Y-90583274D01*
X210492024Y-90583274D01*
X210068308Y-90159558D01*
X209884213Y-90159558D01*
X209720840Y-90319368D01*
X209655772Y-90398655D01*
X209607421Y-90489113D01*
X209577646Y-90587265D01*
X209567592Y-90689340D01*
X201806108Y-90689340D01*
X202008437Y-90509492D01*
X202008582Y-90509362D01*
X202963290Y-89634213D01*
X210409558Y-89634213D01*
X210409558Y-89818308D01*
X210833274Y-90242024D01*
X211363056Y-89712242D01*
X211363056Y-89528147D01*
X211309312Y-89470840D01*
X211230025Y-89405772D01*
X211139567Y-89357421D01*
X211041415Y-89327646D01*
X210939340Y-89317592D01*
X210837265Y-89327646D01*
X210739113Y-89357421D01*
X210648655Y-89405772D01*
X210569368Y-89470840D01*
X210409558Y-89634213D01*
X202963290Y-89634213D01*
X203832214Y-88837700D01*
X211110121Y-88837700D01*
X215412301Y-93139881D01*
G36*
X217990814Y-91758774D02*
G01*
X220732515Y-94749721D01*
X217823949Y-97725929D01*
X217635618Y-97537598D01*
X217635618Y-97518733D01*
X217637251Y-97502155D01*
X217635618Y-97485575D01*
X217630731Y-97435955D01*
X217611421Y-97372299D01*
X217580063Y-97313633D01*
X217537863Y-97262211D01*
X217524977Y-97251636D01*
X217453238Y-97179897D01*
X217442663Y-97167011D01*
X217391241Y-97124811D01*
X217332575Y-97093453D01*
X217268919Y-97074143D01*
X217219299Y-97069256D01*
X217219296Y-97069256D01*
X217202718Y-97067623D01*
X217186140Y-97069256D01*
X217167276Y-97069256D01*
X217113171Y-97015151D01*
X217080783Y-96988571D01*
X217043833Y-96968820D01*
X217003738Y-96956658D01*
X216962042Y-96952551D01*
X216920346Y-96956658D01*
X216880251Y-96968820D01*
X216843301Y-96988571D01*
X216810913Y-97015151D01*
X216756808Y-97069256D01*
X216183246Y-97069256D01*
X216087700Y-96973711D01*
X216087700Y-96389879D01*
X217977069Y-94500511D01*
X217989944Y-94489945D01*
X218000514Y-94477066D01*
X218032145Y-94438524D01*
X218063502Y-94379858D01*
X218063503Y-94379857D01*
X218082813Y-94316201D01*
X218087700Y-94266581D01*
X218087700Y-94266579D01*
X218089333Y-94250001D01*
X218087700Y-94233423D01*
X218087700Y-92470938D01*
X218089333Y-92454360D01*
X218085326Y-92413677D01*
X218082813Y-92388159D01*
X218063503Y-92324503D01*
X218063503Y-92324502D01*
X218032145Y-92265837D01*
X218010896Y-92239945D01*
X217989945Y-92214415D01*
X217977064Y-92203844D01*
X213535919Y-87762700D01*
X213994740Y-87762700D01*
X217990814Y-91758774D01*
G37*
X217990814Y-91758774D02*
X220732515Y-94749721D01*
X217823949Y-97725929D01*
X217635618Y-97537598D01*
X217635618Y-97518733D01*
X217637251Y-97502155D01*
X217635618Y-97485575D01*
X217630731Y-97435955D01*
X217611421Y-97372299D01*
X217580063Y-97313633D01*
X217537863Y-97262211D01*
X217524977Y-97251636D01*
X217453238Y-97179897D01*
X217442663Y-97167011D01*
X217391241Y-97124811D01*
X217332575Y-97093453D01*
X217268919Y-97074143D01*
X217219299Y-97069256D01*
X217219296Y-97069256D01*
X217202718Y-97067623D01*
X217186140Y-97069256D01*
X217167276Y-97069256D01*
X217113171Y-97015151D01*
X217080783Y-96988571D01*
X217043833Y-96968820D01*
X217003738Y-96956658D01*
X216962042Y-96952551D01*
X216920346Y-96956658D01*
X216880251Y-96968820D01*
X216843301Y-96988571D01*
X216810913Y-97015151D01*
X216756808Y-97069256D01*
X216183246Y-97069256D01*
X216087700Y-96973711D01*
X216087700Y-96389879D01*
X217977069Y-94500511D01*
X217989944Y-94489945D01*
X218000514Y-94477066D01*
X218032145Y-94438524D01*
X218063502Y-94379858D01*
X218063503Y-94379857D01*
X218082813Y-94316201D01*
X218087700Y-94266581D01*
X218087700Y-94266579D01*
X218089333Y-94250001D01*
X218087700Y-94233423D01*
X218087700Y-92470938D01*
X218089333Y-92454360D01*
X218085326Y-92413677D01*
X218082813Y-92388159D01*
X218063503Y-92324503D01*
X218063503Y-92324502D01*
X218032145Y-92265837D01*
X218010896Y-92239945D01*
X217989945Y-92214415D01*
X217977064Y-92203844D01*
X213535919Y-87762700D01*
X213994740Y-87762700D01*
X217990814Y-91758774D01*
G36*
X218974948Y-97492908D02*
G01*
X218968811Y-97499045D01*
X219060858Y-97591092D01*
X218876765Y-97591092D01*
X218625390Y-97839745D01*
X218556615Y-97915839D01*
X218504005Y-98003888D01*
X218469584Y-98100508D01*
X218454674Y-98201988D01*
X218459848Y-98304426D01*
X218484907Y-98403887D01*
X218528889Y-98496548D01*
X218540889Y-98526912D01*
X218724984Y-98526912D01*
X219360832Y-97891064D01*
X219346690Y-97876922D01*
X219352826Y-97870786D01*
X219722360Y-98240320D01*
X219716224Y-98246456D01*
X219702082Y-98232314D01*
X219066234Y-98868162D01*
X219066234Y-99052257D01*
X219096598Y-99064257D01*
X219189259Y-99108239D01*
X219288720Y-99133298D01*
X219391158Y-99138472D01*
X219492638Y-99123562D01*
X219550904Y-99102805D01*
X219780762Y-99332663D01*
X219813150Y-99359243D01*
X219850100Y-99378994D01*
X219890195Y-99391156D01*
X219898252Y-99391950D01*
X219899046Y-99400007D01*
X219911208Y-99440102D01*
X219930959Y-99477052D01*
X219957539Y-99509440D01*
X220346447Y-99898348D01*
X220378835Y-99924928D01*
X220415785Y-99944679D01*
X220455880Y-99956841D01*
X220463938Y-99957635D01*
X220464732Y-99965692D01*
X220476894Y-100005787D01*
X220496645Y-100042737D01*
X220523225Y-100075125D01*
X220912133Y-100464033D01*
X220944521Y-100490613D01*
X220981471Y-100510364D01*
X221021566Y-100522526D01*
X221029623Y-100523320D01*
X221030417Y-100531378D01*
X221042579Y-100571473D01*
X221062330Y-100608423D01*
X221088910Y-100640811D01*
X221477818Y-101029719D01*
X221510206Y-101056299D01*
X221547156Y-101076050D01*
X221587251Y-101088212D01*
X221595309Y-101089006D01*
X221596103Y-101097063D01*
X221608265Y-101137158D01*
X221628016Y-101174108D01*
X221654596Y-101206496D01*
X222043504Y-101595404D01*
X222075892Y-101621984D01*
X222112842Y-101641735D01*
X222152937Y-101653897D01*
X222160994Y-101654691D01*
X222161788Y-101662749D01*
X222173950Y-101702844D01*
X222193701Y-101739794D01*
X222220281Y-101772182D01*
X222609189Y-102161090D01*
X222641577Y-102187670D01*
X222678527Y-102207421D01*
X222718622Y-102219583D01*
X222726680Y-102220377D01*
X222727474Y-102228434D01*
X222739636Y-102268529D01*
X222759387Y-102305479D01*
X222785967Y-102337867D01*
X223174875Y-102726775D01*
X223207263Y-102753355D01*
X223244213Y-102773106D01*
X223284308Y-102785268D01*
X223292365Y-102786062D01*
X223293159Y-102794120D01*
X223305321Y-102834215D01*
X223325072Y-102871165D01*
X223351652Y-102903553D01*
X223740560Y-103292461D01*
X223772948Y-103319041D01*
X223809898Y-103338792D01*
X223849993Y-103350954D01*
X223858050Y-103351748D01*
X223858844Y-103359805D01*
X223871006Y-103399900D01*
X223890757Y-103436850D01*
X223917337Y-103469238D01*
X224306245Y-103858146D01*
X224338633Y-103884726D01*
X224375583Y-103904477D01*
X224415678Y-103916639D01*
X224423736Y-103917433D01*
X224424530Y-103925490D01*
X224436692Y-103965585D01*
X224456443Y-104002535D01*
X224483023Y-104034923D01*
X224871931Y-104423831D01*
X224904319Y-104450411D01*
X224941269Y-104470162D01*
X224981364Y-104482324D01*
X225023060Y-104486431D01*
X225064756Y-104482324D01*
X225104851Y-104470162D01*
X225141801Y-104450411D01*
X225174189Y-104423831D01*
X225540030Y-104057990D01*
X226232316Y-104750276D01*
X225561931Y-105463911D01*
X225174189Y-105076169D01*
X225141801Y-105049589D01*
X225104851Y-105029838D01*
X225064756Y-105017676D01*
X225023060Y-105013569D01*
X224981364Y-105017676D01*
X224941269Y-105029838D01*
X224904319Y-105049589D01*
X224871931Y-105076169D01*
X224642073Y-105306027D01*
X224583806Y-105285269D01*
X224482326Y-105270359D01*
X224379888Y-105275533D01*
X224280427Y-105300592D01*
X224187766Y-105344574D01*
X224157402Y-105356574D01*
X224157402Y-105540669D01*
X224793250Y-106176517D01*
X224807392Y-106162375D01*
X224858133Y-106213116D01*
X224500147Y-106594198D01*
X224437858Y-106531909D01*
X224452000Y-106517767D01*
X223816152Y-105881919D01*
X223632057Y-105881919D01*
X223620057Y-105912283D01*
X223576075Y-106004944D01*
X223551016Y-106104405D01*
X223545842Y-106206843D01*
X223560752Y-106308323D01*
X223581510Y-106366589D01*
X223351652Y-106596447D01*
X223325072Y-106628835D01*
X223305321Y-106665785D01*
X223293159Y-106705880D01*
X223292365Y-106713938D01*
X223284308Y-106714732D01*
X223244213Y-106726894D01*
X223207263Y-106746645D01*
X223174875Y-106773225D01*
X222785967Y-107162133D01*
X222759387Y-107194521D01*
X222739636Y-107231471D01*
X222727474Y-107271566D01*
X222726680Y-107279623D01*
X222718622Y-107280417D01*
X222678527Y-107292579D01*
X222641577Y-107312330D01*
X222609189Y-107338910D01*
X222220281Y-107727818D01*
X222193701Y-107760206D01*
X222173950Y-107797156D01*
X222161788Y-107837251D01*
X222160994Y-107845309D01*
X222152937Y-107846103D01*
X222112842Y-107858265D01*
X222075892Y-107878016D01*
X222043504Y-107904596D01*
X221654596Y-108293504D01*
X221628016Y-108325892D01*
X221608265Y-108362842D01*
X221596103Y-108402937D01*
X221595309Y-108410994D01*
X221587251Y-108411788D01*
X221547156Y-108423950D01*
X221510206Y-108443701D01*
X221477818Y-108470281D01*
X221088910Y-108859189D01*
X221062330Y-108891577D01*
X221042579Y-108928527D01*
X221030417Y-108968622D01*
X221029623Y-108976680D01*
X221021566Y-108977474D01*
X220981471Y-108989636D01*
X220944521Y-109009387D01*
X220912133Y-109035967D01*
X220523225Y-109424875D01*
X220496645Y-109457263D01*
X220476894Y-109494213D01*
X220464732Y-109534308D01*
X220463938Y-109542365D01*
X220455880Y-109543159D01*
X220415785Y-109555321D01*
X220378835Y-109575072D01*
X220346447Y-109601652D01*
X220116589Y-109831510D01*
X220058323Y-109810752D01*
X219956843Y-109795842D01*
X219854405Y-109801016D01*
X219754944Y-109826075D01*
X219662283Y-109870057D01*
X219631919Y-109882057D01*
X219631919Y-110066152D01*
X220267767Y-110702000D01*
X220281909Y-110687858D01*
X220474071Y-110880020D01*
X220116085Y-111261102D01*
X219912375Y-111057392D01*
X219926517Y-111043250D01*
X219290669Y-110407402D01*
X219106574Y-110407402D01*
X219094574Y-110437766D01*
X219050592Y-110530427D01*
X219025533Y-110629888D01*
X219020359Y-110732326D01*
X219035269Y-110833806D01*
X219056027Y-110892073D01*
X218826169Y-111121931D01*
X218799589Y-111154319D01*
X218779838Y-111191269D01*
X218767676Y-111231364D01*
X218763569Y-111273060D01*
X218767676Y-111314756D01*
X218779838Y-111354851D01*
X218799589Y-111391801D01*
X218826169Y-111424189D01*
X219412287Y-112010307D01*
X218499859Y-112981602D01*
X217573087Y-112024933D01*
X218173831Y-111424189D01*
X218200411Y-111391801D01*
X218220162Y-111354851D01*
X218232324Y-111314756D01*
X218236431Y-111273060D01*
X218232324Y-111231364D01*
X218220162Y-111191269D01*
X218200411Y-111154319D01*
X218173831Y-111121931D01*
X217784923Y-110733023D01*
X217752535Y-110706443D01*
X217715585Y-110686692D01*
X217675490Y-110674530D01*
X217667433Y-110673736D01*
X217666639Y-110665678D01*
X217654477Y-110625583D01*
X217634726Y-110588633D01*
X217608146Y-110556245D01*
X217219238Y-110167337D01*
X217186850Y-110140757D01*
X217149900Y-110121006D01*
X217109805Y-110108844D01*
X217101748Y-110108050D01*
X217100954Y-110099993D01*
X217088792Y-110059898D01*
X217069041Y-110022948D01*
X217042461Y-109990560D01*
X216653553Y-109601652D01*
X216621165Y-109575072D01*
X216584215Y-109555321D01*
X216544120Y-109543159D01*
X216536062Y-109542365D01*
X216535268Y-109534308D01*
X216523106Y-109494213D01*
X216503355Y-109457263D01*
X216476775Y-109424875D01*
X216246917Y-109195017D01*
X216267675Y-109136750D01*
X216282585Y-109035270D01*
X216277411Y-108932832D01*
X216252352Y-108833371D01*
X216208370Y-108740710D01*
X216196370Y-108710346D01*
X216012275Y-108710346D01*
X215376427Y-109346194D01*
X215390569Y-109360336D01*
X215187998Y-109562907D01*
X214824330Y-109187507D01*
X215021035Y-108990802D01*
X215035177Y-109004944D01*
X215671025Y-108369096D01*
X215671025Y-108185001D01*
X215640661Y-108173001D01*
X215548000Y-108129019D01*
X215448539Y-108103960D01*
X215346101Y-108098786D01*
X215244621Y-108113696D01*
X215186354Y-108134454D01*
X214956496Y-107904596D01*
X214924108Y-107878016D01*
X214887158Y-107858265D01*
X214847063Y-107846103D01*
X214839006Y-107845309D01*
X214838212Y-107837251D01*
X214826050Y-107797156D01*
X214806299Y-107760206D01*
X214779719Y-107727818D01*
X214390811Y-107338910D01*
X214358423Y-107312330D01*
X214321473Y-107292579D01*
X214281378Y-107280417D01*
X214273320Y-107279623D01*
X214272526Y-107271566D01*
X214260364Y-107231471D01*
X214240613Y-107194521D01*
X214214033Y-107162133D01*
X213825125Y-106773225D01*
X213792737Y-106746645D01*
X213755787Y-106726894D01*
X213715692Y-106714732D01*
X213707635Y-106713938D01*
X213706841Y-106705880D01*
X213694679Y-106665785D01*
X213674928Y-106628835D01*
X213648348Y-106596447D01*
X213259440Y-106207539D01*
X213227052Y-106180959D01*
X213190102Y-106161208D01*
X213150007Y-106149046D01*
X213141950Y-106148252D01*
X213141156Y-106140195D01*
X213128994Y-106100100D01*
X213109243Y-106063150D01*
X213082663Y-106030762D01*
X212693755Y-105641854D01*
X212661367Y-105615274D01*
X212624417Y-105595523D01*
X212584322Y-105583361D01*
X212576264Y-105582567D01*
X212575470Y-105574510D01*
X212563308Y-105534415D01*
X212543557Y-105497465D01*
X212516977Y-105465077D01*
X212128069Y-105076169D01*
X212095681Y-105049589D01*
X212058731Y-105029838D01*
X212018636Y-105017676D01*
X211976940Y-105013569D01*
X211935244Y-105017676D01*
X211895149Y-105029838D01*
X211858199Y-105049589D01*
X211825811Y-105076169D01*
X211325829Y-105576151D01*
X210767683Y-105000000D01*
X211571861Y-104169881D01*
X211825811Y-104423831D01*
X211858199Y-104450411D01*
X211895149Y-104470162D01*
X211935244Y-104482324D01*
X211976940Y-104486431D01*
X212018636Y-104482324D01*
X212058731Y-104470162D01*
X212095681Y-104450411D01*
X212128069Y-104423831D01*
X212516977Y-104034923D01*
X212543557Y-104002535D01*
X212563308Y-103965585D01*
X212575470Y-103925490D01*
X212576264Y-103917433D01*
X212584322Y-103916639D01*
X212624417Y-103904477D01*
X212661367Y-103884726D01*
X212693755Y-103858146D01*
X213082663Y-103469238D01*
X213109243Y-103436850D01*
X213128994Y-103399900D01*
X213141156Y-103359805D01*
X213141950Y-103351748D01*
X213150007Y-103350954D01*
X213190102Y-103338792D01*
X213227052Y-103319041D01*
X213259440Y-103292461D01*
X213489298Y-103062603D01*
X213547564Y-103083360D01*
X213649044Y-103098270D01*
X213751482Y-103093096D01*
X213850943Y-103068037D01*
X213943604Y-103024055D01*
X213973968Y-103012055D01*
X213973968Y-102827960D01*
X213414160Y-102268152D01*
X213749994Y-101921486D01*
X214315218Y-102486710D01*
X214499313Y-102486710D01*
X214511313Y-102456346D01*
X214555295Y-102363685D01*
X214580354Y-102264224D01*
X214585528Y-102161786D01*
X214570618Y-102060306D01*
X214549861Y-102002040D01*
X214779719Y-101772182D01*
X214806299Y-101739794D01*
X214826050Y-101702844D01*
X214838212Y-101662749D01*
X214839006Y-101654691D01*
X214847063Y-101653897D01*
X214887158Y-101641735D01*
X214924108Y-101621984D01*
X214956496Y-101595404D01*
X215345404Y-101206496D01*
X215371984Y-101174108D01*
X215391735Y-101137158D01*
X215403897Y-101097063D01*
X215404691Y-101089006D01*
X215412749Y-101088212D01*
X215452844Y-101076050D01*
X215489794Y-101056299D01*
X215522182Y-101029719D01*
X215911090Y-100640811D01*
X215937670Y-100608423D01*
X215957421Y-100571473D01*
X215969583Y-100531378D01*
X215970377Y-100523320D01*
X215978434Y-100522526D01*
X216018529Y-100510364D01*
X216055479Y-100490613D01*
X216087867Y-100464033D01*
X216476775Y-100075125D01*
X216503355Y-100042737D01*
X216523106Y-100005787D01*
X216535268Y-99965692D01*
X216536062Y-99957635D01*
X216544120Y-99956841D01*
X216584215Y-99944679D01*
X216621165Y-99924928D01*
X216653553Y-99898348D01*
X217042461Y-99509440D01*
X217069041Y-99477052D01*
X217088792Y-99440102D01*
X217100954Y-99400007D01*
X217101748Y-99391950D01*
X217109805Y-99391156D01*
X217149900Y-99378994D01*
X217186850Y-99359243D01*
X217219238Y-99332663D01*
X217608146Y-98943755D01*
X217634726Y-98911367D01*
X217654477Y-98874417D01*
X217666639Y-98834322D01*
X217667433Y-98826264D01*
X217675490Y-98825470D01*
X217715585Y-98813308D01*
X217752535Y-98793557D01*
X217784923Y-98766977D01*
X218173831Y-98378069D01*
X218200411Y-98345681D01*
X218220162Y-98308731D01*
X218232324Y-98268636D01*
X218236431Y-98226940D01*
X218232324Y-98185244D01*
X218220162Y-98145149D01*
X218200411Y-98108199D01*
X218173831Y-98075811D01*
X217819118Y-97721098D01*
X218500144Y-97018104D01*
X218974948Y-97492908D01*
G37*
X218974948Y-97492908D02*
X218968811Y-97499045D01*
X219060858Y-97591092D01*
X218876765Y-97591092D01*
X218625390Y-97839745D01*
X218556615Y-97915839D01*
X218504005Y-98003888D01*
X218469584Y-98100508D01*
X218454674Y-98201988D01*
X218459848Y-98304426D01*
X218484907Y-98403887D01*
X218528889Y-98496548D01*
X218540889Y-98526912D01*
X218724984Y-98526912D01*
X219360832Y-97891064D01*
X219346690Y-97876922D01*
X219352826Y-97870786D01*
X219722360Y-98240320D01*
X219716224Y-98246456D01*
X219702082Y-98232314D01*
X219066234Y-98868162D01*
X219066234Y-99052257D01*
X219096598Y-99064257D01*
X219189259Y-99108239D01*
X219288720Y-99133298D01*
X219391158Y-99138472D01*
X219492638Y-99123562D01*
X219550904Y-99102805D01*
X219780762Y-99332663D01*
X219813150Y-99359243D01*
X219850100Y-99378994D01*
X219890195Y-99391156D01*
X219898252Y-99391950D01*
X219899046Y-99400007D01*
X219911208Y-99440102D01*
X219930959Y-99477052D01*
X219957539Y-99509440D01*
X220346447Y-99898348D01*
X220378835Y-99924928D01*
X220415785Y-99944679D01*
X220455880Y-99956841D01*
X220463938Y-99957635D01*
X220464732Y-99965692D01*
X220476894Y-100005787D01*
X220496645Y-100042737D01*
X220523225Y-100075125D01*
X220912133Y-100464033D01*
X220944521Y-100490613D01*
X220981471Y-100510364D01*
X221021566Y-100522526D01*
X221029623Y-100523320D01*
X221030417Y-100531378D01*
X221042579Y-100571473D01*
X221062330Y-100608423D01*
X221088910Y-100640811D01*
X221477818Y-101029719D01*
X221510206Y-101056299D01*
X221547156Y-101076050D01*
X221587251Y-101088212D01*
X221595309Y-101089006D01*
X221596103Y-101097063D01*
X221608265Y-101137158D01*
X221628016Y-101174108D01*
X221654596Y-101206496D01*
X222043504Y-101595404D01*
X222075892Y-101621984D01*
X222112842Y-101641735D01*
X222152937Y-101653897D01*
X222160994Y-101654691D01*
X222161788Y-101662749D01*
X222173950Y-101702844D01*
X222193701Y-101739794D01*
X222220281Y-101772182D01*
X222609189Y-102161090D01*
X222641577Y-102187670D01*
X222678527Y-102207421D01*
X222718622Y-102219583D01*
X222726680Y-102220377D01*
X222727474Y-102228434D01*
X222739636Y-102268529D01*
X222759387Y-102305479D01*
X222785967Y-102337867D01*
X223174875Y-102726775D01*
X223207263Y-102753355D01*
X223244213Y-102773106D01*
X223284308Y-102785268D01*
X223292365Y-102786062D01*
X223293159Y-102794120D01*
X223305321Y-102834215D01*
X223325072Y-102871165D01*
X223351652Y-102903553D01*
X223740560Y-103292461D01*
X223772948Y-103319041D01*
X223809898Y-103338792D01*
X223849993Y-103350954D01*
X223858050Y-103351748D01*
X223858844Y-103359805D01*
X223871006Y-103399900D01*
X223890757Y-103436850D01*
X223917337Y-103469238D01*
X224306245Y-103858146D01*
X224338633Y-103884726D01*
X224375583Y-103904477D01*
X224415678Y-103916639D01*
X224423736Y-103917433D01*
X224424530Y-103925490D01*
X224436692Y-103965585D01*
X224456443Y-104002535D01*
X224483023Y-104034923D01*
X224871931Y-104423831D01*
X224904319Y-104450411D01*
X224941269Y-104470162D01*
X224981364Y-104482324D01*
X225023060Y-104486431D01*
X225064756Y-104482324D01*
X225104851Y-104470162D01*
X225141801Y-104450411D01*
X225174189Y-104423831D01*
X225540030Y-104057990D01*
X226232316Y-104750276D01*
X225561931Y-105463911D01*
X225174189Y-105076169D01*
X225141801Y-105049589D01*
X225104851Y-105029838D01*
X225064756Y-105017676D01*
X225023060Y-105013569D01*
X224981364Y-105017676D01*
X224941269Y-105029838D01*
X224904319Y-105049589D01*
X224871931Y-105076169D01*
X224642073Y-105306027D01*
X224583806Y-105285269D01*
X224482326Y-105270359D01*
X224379888Y-105275533D01*
X224280427Y-105300592D01*
X224187766Y-105344574D01*
X224157402Y-105356574D01*
X224157402Y-105540669D01*
X224793250Y-106176517D01*
X224807392Y-106162375D01*
X224858133Y-106213116D01*
X224500147Y-106594198D01*
X224437858Y-106531909D01*
X224452000Y-106517767D01*
X223816152Y-105881919D01*
X223632057Y-105881919D01*
X223620057Y-105912283D01*
X223576075Y-106004944D01*
X223551016Y-106104405D01*
X223545842Y-106206843D01*
X223560752Y-106308323D01*
X223581510Y-106366589D01*
X223351652Y-106596447D01*
X223325072Y-106628835D01*
X223305321Y-106665785D01*
X223293159Y-106705880D01*
X223292365Y-106713938D01*
X223284308Y-106714732D01*
X223244213Y-106726894D01*
X223207263Y-106746645D01*
X223174875Y-106773225D01*
X222785967Y-107162133D01*
X222759387Y-107194521D01*
X222739636Y-107231471D01*
X222727474Y-107271566D01*
X222726680Y-107279623D01*
X222718622Y-107280417D01*
X222678527Y-107292579D01*
X222641577Y-107312330D01*
X222609189Y-107338910D01*
X222220281Y-107727818D01*
X222193701Y-107760206D01*
X222173950Y-107797156D01*
X222161788Y-107837251D01*
X222160994Y-107845309D01*
X222152937Y-107846103D01*
X222112842Y-107858265D01*
X222075892Y-107878016D01*
X222043504Y-107904596D01*
X221654596Y-108293504D01*
X221628016Y-108325892D01*
X221608265Y-108362842D01*
X221596103Y-108402937D01*
X221595309Y-108410994D01*
X221587251Y-108411788D01*
X221547156Y-108423950D01*
X221510206Y-108443701D01*
X221477818Y-108470281D01*
X221088910Y-108859189D01*
X221062330Y-108891577D01*
X221042579Y-108928527D01*
X221030417Y-108968622D01*
X221029623Y-108976680D01*
X221021566Y-108977474D01*
X220981471Y-108989636D01*
X220944521Y-109009387D01*
X220912133Y-109035967D01*
X220523225Y-109424875D01*
X220496645Y-109457263D01*
X220476894Y-109494213D01*
X220464732Y-109534308D01*
X220463938Y-109542365D01*
X220455880Y-109543159D01*
X220415785Y-109555321D01*
X220378835Y-109575072D01*
X220346447Y-109601652D01*
X220116589Y-109831510D01*
X220058323Y-109810752D01*
X219956843Y-109795842D01*
X219854405Y-109801016D01*
X219754944Y-109826075D01*
X219662283Y-109870057D01*
X219631919Y-109882057D01*
X219631919Y-110066152D01*
X220267767Y-110702000D01*
X220281909Y-110687858D01*
X220474071Y-110880020D01*
X220116085Y-111261102D01*
X219912375Y-111057392D01*
X219926517Y-111043250D01*
X219290669Y-110407402D01*
X219106574Y-110407402D01*
X219094574Y-110437766D01*
X219050592Y-110530427D01*
X219025533Y-110629888D01*
X219020359Y-110732326D01*
X219035269Y-110833806D01*
X219056027Y-110892073D01*
X218826169Y-111121931D01*
X218799589Y-111154319D01*
X218779838Y-111191269D01*
X218767676Y-111231364D01*
X218763569Y-111273060D01*
X218767676Y-111314756D01*
X218779838Y-111354851D01*
X218799589Y-111391801D01*
X218826169Y-111424189D01*
X219412287Y-112010307D01*
X218499859Y-112981602D01*
X217573087Y-112024933D01*
X218173831Y-111424189D01*
X218200411Y-111391801D01*
X218220162Y-111354851D01*
X218232324Y-111314756D01*
X218236431Y-111273060D01*
X218232324Y-111231364D01*
X218220162Y-111191269D01*
X218200411Y-111154319D01*
X218173831Y-111121931D01*
X217784923Y-110733023D01*
X217752535Y-110706443D01*
X217715585Y-110686692D01*
X217675490Y-110674530D01*
X217667433Y-110673736D01*
X217666639Y-110665678D01*
X217654477Y-110625583D01*
X217634726Y-110588633D01*
X217608146Y-110556245D01*
X217219238Y-110167337D01*
X217186850Y-110140757D01*
X217149900Y-110121006D01*
X217109805Y-110108844D01*
X217101748Y-110108050D01*
X217100954Y-110099993D01*
X217088792Y-110059898D01*
X217069041Y-110022948D01*
X217042461Y-109990560D01*
X216653553Y-109601652D01*
X216621165Y-109575072D01*
X216584215Y-109555321D01*
X216544120Y-109543159D01*
X216536062Y-109542365D01*
X216535268Y-109534308D01*
X216523106Y-109494213D01*
X216503355Y-109457263D01*
X216476775Y-109424875D01*
X216246917Y-109195017D01*
X216267675Y-109136750D01*
X216282585Y-109035270D01*
X216277411Y-108932832D01*
X216252352Y-108833371D01*
X216208370Y-108740710D01*
X216196370Y-108710346D01*
X216012275Y-108710346D01*
X215376427Y-109346194D01*
X215390569Y-109360336D01*
X215187998Y-109562907D01*
X214824330Y-109187507D01*
X215021035Y-108990802D01*
X215035177Y-109004944D01*
X215671025Y-108369096D01*
X215671025Y-108185001D01*
X215640661Y-108173001D01*
X215548000Y-108129019D01*
X215448539Y-108103960D01*
X215346101Y-108098786D01*
X215244621Y-108113696D01*
X215186354Y-108134454D01*
X214956496Y-107904596D01*
X214924108Y-107878016D01*
X214887158Y-107858265D01*
X214847063Y-107846103D01*
X214839006Y-107845309D01*
X214838212Y-107837251D01*
X214826050Y-107797156D01*
X214806299Y-107760206D01*
X214779719Y-107727818D01*
X214390811Y-107338910D01*
X214358423Y-107312330D01*
X214321473Y-107292579D01*
X214281378Y-107280417D01*
X214273320Y-107279623D01*
X214272526Y-107271566D01*
X214260364Y-107231471D01*
X214240613Y-107194521D01*
X214214033Y-107162133D01*
X213825125Y-106773225D01*
X213792737Y-106746645D01*
X213755787Y-106726894D01*
X213715692Y-106714732D01*
X213707635Y-106713938D01*
X213706841Y-106705880D01*
X213694679Y-106665785D01*
X213674928Y-106628835D01*
X213648348Y-106596447D01*
X213259440Y-106207539D01*
X213227052Y-106180959D01*
X213190102Y-106161208D01*
X213150007Y-106149046D01*
X213141950Y-106148252D01*
X213141156Y-106140195D01*
X213128994Y-106100100D01*
X213109243Y-106063150D01*
X213082663Y-106030762D01*
X212693755Y-105641854D01*
X212661367Y-105615274D01*
X212624417Y-105595523D01*
X212584322Y-105583361D01*
X212576264Y-105582567D01*
X212575470Y-105574510D01*
X212563308Y-105534415D01*
X212543557Y-105497465D01*
X212516977Y-105465077D01*
X212128069Y-105076169D01*
X212095681Y-105049589D01*
X212058731Y-105029838D01*
X212018636Y-105017676D01*
X211976940Y-105013569D01*
X211935244Y-105017676D01*
X211895149Y-105029838D01*
X211858199Y-105049589D01*
X211825811Y-105076169D01*
X211325829Y-105576151D01*
X210767683Y-105000000D01*
X211571861Y-104169881D01*
X211825811Y-104423831D01*
X211858199Y-104450411D01*
X211895149Y-104470162D01*
X211935244Y-104482324D01*
X211976940Y-104486431D01*
X212018636Y-104482324D01*
X212058731Y-104470162D01*
X212095681Y-104450411D01*
X212128069Y-104423831D01*
X212516977Y-104034923D01*
X212543557Y-104002535D01*
X212563308Y-103965585D01*
X212575470Y-103925490D01*
X212576264Y-103917433D01*
X212584322Y-103916639D01*
X212624417Y-103904477D01*
X212661367Y-103884726D01*
X212693755Y-103858146D01*
X213082663Y-103469238D01*
X213109243Y-103436850D01*
X213128994Y-103399900D01*
X213141156Y-103359805D01*
X213141950Y-103351748D01*
X213150007Y-103350954D01*
X213190102Y-103338792D01*
X213227052Y-103319041D01*
X213259440Y-103292461D01*
X213489298Y-103062603D01*
X213547564Y-103083360D01*
X213649044Y-103098270D01*
X213751482Y-103093096D01*
X213850943Y-103068037D01*
X213943604Y-103024055D01*
X213973968Y-103012055D01*
X213973968Y-102827960D01*
X213414160Y-102268152D01*
X213749994Y-101921486D01*
X214315218Y-102486710D01*
X214499313Y-102486710D01*
X214511313Y-102456346D01*
X214555295Y-102363685D01*
X214580354Y-102264224D01*
X214585528Y-102161786D01*
X214570618Y-102060306D01*
X214549861Y-102002040D01*
X214779719Y-101772182D01*
X214806299Y-101739794D01*
X214826050Y-101702844D01*
X214838212Y-101662749D01*
X214839006Y-101654691D01*
X214847063Y-101653897D01*
X214887158Y-101641735D01*
X214924108Y-101621984D01*
X214956496Y-101595404D01*
X215345404Y-101206496D01*
X215371984Y-101174108D01*
X215391735Y-101137158D01*
X215403897Y-101097063D01*
X215404691Y-101089006D01*
X215412749Y-101088212D01*
X215452844Y-101076050D01*
X215489794Y-101056299D01*
X215522182Y-101029719D01*
X215911090Y-100640811D01*
X215937670Y-100608423D01*
X215957421Y-100571473D01*
X215969583Y-100531378D01*
X215970377Y-100523320D01*
X215978434Y-100522526D01*
X216018529Y-100510364D01*
X216055479Y-100490613D01*
X216087867Y-100464033D01*
X216476775Y-100075125D01*
X216503355Y-100042737D01*
X216523106Y-100005787D01*
X216535268Y-99965692D01*
X216536062Y-99957635D01*
X216544120Y-99956841D01*
X216584215Y-99944679D01*
X216621165Y-99924928D01*
X216653553Y-99898348D01*
X217042461Y-99509440D01*
X217069041Y-99477052D01*
X217088792Y-99440102D01*
X217100954Y-99400007D01*
X217101748Y-99391950D01*
X217109805Y-99391156D01*
X217149900Y-99378994D01*
X217186850Y-99359243D01*
X217219238Y-99332663D01*
X217608146Y-98943755D01*
X217634726Y-98911367D01*
X217654477Y-98874417D01*
X217666639Y-98834322D01*
X217667433Y-98826264D01*
X217675490Y-98825470D01*
X217715585Y-98813308D01*
X217752535Y-98793557D01*
X217784923Y-98766977D01*
X218173831Y-98378069D01*
X218200411Y-98345681D01*
X218220162Y-98308731D01*
X218232324Y-98268636D01*
X218236431Y-98226940D01*
X218232324Y-98185244D01*
X218220162Y-98145149D01*
X218200411Y-98108199D01*
X218173831Y-98075811D01*
X217819118Y-97721098D01*
X218500144Y-97018104D01*
X218974948Y-97492908D01*
M02*
