  0
SECTION
  2
HEADER
  9
$ACADVER
  1
AC1009
  9
$EXTMIN
 10
0.0
 20
0.0
 30
0.0
  9
$EXTMAX
 10
1000.0
 20
1000.0
 30
0.0
  9
$FILLMODE
 70
 0
  9
$SPLFRAME
 70
 1
  0
ENDSEC
  0
SECTION
  2
TABLES
  0
TABLE
  2
LAYER
 70
1
  0
LAYER
  2
0
 70
     0
 62
     7
  6
CONTINUOUS
  0
ENDTAB
  0
ENDSEC
  0
SECTION
  2
ENTITIES
  0
LINE
  8
0
 62
     0
 10
318.896
 20
115.342
 30
0.0
 11
319.052
 21
115.336
 31
0.0
  0
LINE
  8
0
 62
     0
 10
319.052
 20
115.336
 30
0.0
 11
319.207
 21
115.318
 31
0.0
  0
LINE
  8
0
 62
     0
 10
319.207
 20
115.318
 30
0.0
 11
319.362
 21
115.287
 31
0.0
  0
LINE
  8
0
 62
     0
 10
319.362
 20
115.287
 30
0.0
 11
319.513
 21
115.245
 31
0.0
  0
LINE
  8
0
 62
     0
 10
319.513
 20
115.245
 30
0.0
 11
319.661
 21
115.19
 31
0.0
  0
LINE
  8
0
 62
     0
 10
319.661
 20
115.19
 30
0.0
 11
319.803
 21
115.125
 31
0.0
  0
LINE
  8
0
 62
     0
 10
319.803
 20
115.125
 30
0.0
 11
319.939
 21
115.048
 31
0.0
  0
LINE
  8
0
 62
     0
 10
319.939
 20
115.048
 30
0.0
 11
320.071
 21
114.961
 31
0.0
  0
LINE
  8
0
 62
     0
 10
320.071
 20
114.961
 30
0.0
 11
320.194
 21
114.864
 31
0.0
  0
LINE
  8
0
 62
     0
 10
320.194
 20
114.864
 30
0.0
 11
320.31
 21
114.758
 31
0.0
  0
LINE
  8
0
 62
     0
 10
320.31
 20
114.758
 30
0.0
 11
320.416
 21
114.642
 31
0.0
  0
LINE
  8
0
 62
     0
 10
320.416
 20
114.642
 30
0.0
 11
320.514
 21
114.519
 31
0.0
  0
LINE
  8
0
 62
     0
 10
320.514
 20
114.519
 30
0.0
 11
320.601
 21
114.387
 31
0.0
  0
LINE
  8
0
 62
     0
 10
320.601
 20
114.387
 30
0.0
 11
320.678
 21
114.252
 31
0.0
  0
LINE
  8
0
 62
     0
 10
320.678
 20
114.252
 30
0.0
 11
320.742
 21
114.108
 31
0.0
  0
LINE
  8
0
 62
     0
 10
320.742
 20
114.108
 30
0.0
 11
320.798
 21
113.961
 31
0.0
  0
LINE
  8
0
 62
     0
 10
320.798
 20
113.961
 30
0.0
 11
320.84
 21
113.811
 31
0.0
  0
LINE
  8
0
 62
     0
 10
320.84
 20
113.811
 30
0.0
 11
320.871
 21
113.655
 31
0.0
  0
LINE
  8
0
 62
     0
 10
320.871
 20
113.655
 30
0.0
 11
320.888
 21
113.499
 31
0.0
  0
LINE
  8
0
 62
     0
 10
320.888
 20
113.499
 30
0.0
 11
320.895
 21
113.342
 31
0.0
  0
LINE
  8
0
 62
     0
 10
320.895
 20
113.342
 30
0.0
 11
320.895
 21
2.09186
 31
0.0
  0
LINE
  8
0
 62
     0
 10
320.895
 20
2.09186
 30
0.0
 11
320.888
 21
1.93614
 31
0.0
  0
LINE
  8
0
 62
     0
 10
320.888
 20
1.93614
 30
0.0
 11
320.871
 21
1.77905
 31
0.0
  0
LINE
  8
0
 62
     0
 10
320.871
 20
1.77905
 30
0.0
 11
320.84
 21
1.62471
 31
0.0
  0
LINE
  8
0
 62
     0
 10
320.84
 20
1.62471
 30
0.0
 11
320.798
 21
1.47312
 31
0.0
  0
LINE
  8
0
 62
     0
 10
320.798
 20
1.47312
 30
0.0
 11
320.742
 21
1.32567
 31
0.0
  0
LINE
  8
0
 62
     0
 10
320.742
 20
1.32567
 30
0.0
 11
320.678
 21
1.18374
 31
0.0
  0
LINE
  8
0
 62
     0
 10
320.678
 20
1.18374
 30
0.0
 11
320.601
 21
1.04731
 31
0.0
  0
LINE
  8
0
 62
     0
 10
320.601
 20
1.04731
 30
0.0
 11
320.514
 21
0.916397
 31
0.0
  0
LINE
  8
0
 62
     0
 10
320.514
 20
0.916397
 30
0.0
 11
320.416
 21
0.79375
 31
0.0
  0
LINE
  8
0
 62
     0
 10
320.416
 20
0.79375
 30
0.0
 11
320.31
 21
0.676617
 31
0.0
  0
LINE
  8
0
 62
     0
 10
320.31
 20
0.676617
 30
0.0
 11
320.194
 21
0.571885
 31
0.0
  0
LINE
  8
0
 62
     0
 10
320.194
 20
0.571885
 30
0.0
 11
320.071
 21
0.472666
 31
0.0
  0
LINE
  8
0
 62
     0
 10
320.071
 20
0.472666
 30
0.0
 11
319.939
 21
0.385851
 31
0.0
  0
LINE
  8
0
 62
     0
 10
319.939
 20
0.385851
 30
0.0
 11
319.803
 21
0.308681
 31
0.0
  0
LINE
  8
0
 62
     0
 10
319.803
 20
0.308681
 30
0.0
 11
319.661
 21
0.243913
 31
0.0
  0
LINE
  8
0
 62
     0
 10
319.661
 20
0.243913
 30
0.0
 11
319.513
 21
0.188791
 31
0.0
  0
LINE
  8
0
 62
     0
 10
319.513
 20
0.188791
 30
0.0
 11
319.362
 21
0.14745
 31
0.0
  0
LINE
  8
0
 62
     0
 10
319.362
 20
0.14745
 30
0.0
 11
319.207
 21
0.115755
 31
0.0
  0
LINE
  8
0
 62
     0
 10
319.207
 20
0.115755
 30
0.0
 11
319.052
 21
0.0992188
 31
0.0
  0
LINE
  8
0
 62
     0
 10
319.052
 20
0.0992188
 30
0.0
 11
318.896
 21
0.0923286
 31
0.0
  0
LINE
  8
0
 62
     0
 10
318.896
 20
0.0923286
 30
0.0
 11
2.09462
 21
0.0923286
 31
0.0
  0
LINE
  8
0
 62
     0
 10
2.09462
 20
0.0923286
 30
0.0
 11
1.93752
 21
0.0992188
 31
0.0
  0
LINE
  8
0
 62
     0
 10
1.93752
 20
0.0992188
 30
0.0
 11
1.7818
 21
0.115755
 31
0.0
  0
LINE
  8
0
 62
     0
 10
1.7818
 20
0.115755
 30
0.0
 11
1.62746
 21
0.14745
 31
0.0
  0
LINE
  8
0
 62
     0
 10
1.62746
 20
0.14745
 30
0.0
 11
1.47588
 21
0.188791
 31
0.0
  0
LINE
  8
0
 62
     0
 10
1.47588
 20
0.188791
 30
0.0
 11
1.32843
 21
0.243913
 31
0.0
  0
LINE
  8
0
 62
     0
 10
1.32843
 20
0.243913
 30
0.0
 11
1.18649
 21
0.308681
 31
0.0
  0
LINE
  8
0
 62
     0
 10
1.18649
 20
0.308681
 30
0.0
 11
1.05006
 21
0.385851
 31
0.0
  0
LINE
  8
0
 62
     0
 10
1.05006
 20
0.385851
 30
0.0
 11
0.919152
 21
0.472666
 31
0.0
  0
LINE
  8
0
 62
     0
 10
0.919152
 20
0.472666
 30
0.0
 11
0.795129
 21
0.571885
 31
0.0
  0
LINE
  8
0
 62
     0
 10
0.795129
 20
0.571885
 30
0.0
 11
0.679372
 21
0.676617
 31
0.0
  0
LINE
  8
0
 62
     0
 10
0.679372
 20
0.676617
 30
0.0
 11
0.573264
 21
0.79375
 31
0.0
  0
LINE
  8
0
 62
     0
 10
0.573264
 20
0.79375
 30
0.0
 11
0.475424
 21
0.916397
 31
0.0
  0
LINE
  8
0
 62
     0
 10
0.475424
 20
0.916397
 30
0.0
 11
0.388606
 21
1.04731
 31
0.0
  0
LINE
  8
0
 62
     0
 10
0.388606
 20
1.04731
 30
0.0
 11
0.311437
 21
1.18374
 31
0.0
  0
LINE
  8
0
 62
     0
 10
0.311437
 20
1.18374
 30
0.0
 11
0.246669
 21
1.32567
 31
0.0
  0
LINE
  8
0
 62
     0
 10
0.246669
 20
1.32567
 30
0.0
 11
0.191547
 21
1.47312
 31
0.0
  0
LINE
  8
0
 62
     0
 10
0.191547
 20
1.47312
 30
0.0
 11
0.150206
 21
1.62471
 31
0.0
  0
LINE
  8
0
 62
     0
 10
0.150206
 20
1.62471
 30
0.0
 11
0.118511
 21
1.77905
 31
0.0
  0
LINE
  8
0
 62
     0
 10
0.118511
 20
1.77905
 30
0.0
 11
0.100597
 21
1.93614
 31
0.0
  0
LINE
  8
0
 62
     0
 10
0.100597
 20
1.93614
 30
0.0
 11
0.0937066
 21
2.09048
 31
0.0
  0
LINE
  8
0
 62
     0
 10
0.0937066
 20
2.09048
 30
0.0
 11
0.0950846
 21
113.342
 31
0.0
  0
LINE
  8
0
 62
     0
 10
0.0950846
 20
113.342
 30
0.0
 11
0.100597
 21
113.499
 31
0.0
  0
LINE
  8
0
 62
     0
 10
0.100597
 20
113.499
 30
0.0
 11
0.118511
 21
113.655
 31
0.0
  0
LINE
  8
0
 62
     0
 10
0.118511
 20
113.655
 30
0.0
 11
0.150206
 21
113.811
 31
0.0
  0
LINE
  8
0
 62
     0
 10
0.150206
 20
113.811
 30
0.0
 11
0.191547
 21
113.961
 31
0.0
  0
LINE
  8
0
 62
     0
 10
0.191547
 20
113.961
 30
0.0
 11
0.246669
 21
114.108
 31
0.0
  0
LINE
  8
0
 62
     0
 10
0.246669
 20
114.108
 30
0.0
 11
0.311437
 21
114.252
 31
0.0
  0
LINE
  8
0
 62
     0
 10
0.311437
 20
114.252
 30
0.0
 11
0.388606
 21
114.387
 31
0.0
  0
LINE
  8
0
 62
     0
 10
0.388606
 20
114.387
 30
0.0
 11
0.475424
 21
114.519
 31
0.0
  0
LINE
  8
0
 62
     0
 10
0.475424
 20
114.519
 30
0.0
 11
0.573264
 21
114.642
 31
0.0
  0
LINE
  8
0
 62
     0
 10
0.573264
 20
114.642
 30
0.0
 11
0.679372
 21
114.758
 31
0.0
  0
LINE
  8
0
 62
     0
 10
0.679372
 20
114.758
 30
0.0
 11
0.795129
 21
114.864
 31
0.0
  0
LINE
  8
0
 62
     0
 10
0.795129
 20
114.864
 30
0.0
 11
0.919152
 21
114.961
 31
0.0
  0
LINE
  8
0
 62
     0
 10
0.919152
 20
114.961
 30
0.0
 11
1.05006
 21
115.048
 31
0.0
  0
LINE
  8
0
 62
     0
 10
1.05006
 20
115.048
 30
0.0
 11
1.18649
 21
115.125
 31
0.0
  0
LINE
  8
0
 62
     0
 10
1.18649
 20
115.125
 30
0.0
 11
1.32843
 21
115.19
 31
0.0
  0
LINE
  8
0
 62
     0
 10
1.32843
 20
115.19
 30
0.0
 11
1.47588
 21
115.245
 31
0.0
  0
LINE
  8
0
 62
     0
 10
1.47588
 20
115.245
 30
0.0
 11
1.62746
 21
115.287
 31
0.0
  0
LINE
  8
0
 62
     0
 10
1.62746
 20
115.287
 30
0.0
 11
1.7818
 21
115.318
 31
0.0
  0
LINE
  8
0
 62
     0
 10
1.7818
 20
115.318
 30
0.0
 11
1.93752
 21
115.336
 31
0.0
  0
LINE
  8
0
 62
     0
 10
1.93752
 20
115.336
 30
0.0
 11
2.09462
 21
115.343
 31
0.0
  0
LINE
  8
0
 62
     0
 10
2.09462
 20
115.343
 30
0.0
 11
318.896
 21
115.342
 31
0.0
  0
LINE
  8
0
 62
     0
 10
4.63021
 20
6.51813
 30
0.0
 11
4.21266
 21
6.30453
 31
0.0
  0
LINE
  8
0
 62
     0
 10
4.21266
 20
6.30453
 30
0.0
 11
3.88056
 21
5.9738
 31
0.0
  0
LINE
  8
0
 62
     0
 10
3.88056
 20
5.9738
 30
0.0
 11
3.66832
 21
5.55487
 31
0.0
  0
LINE
  8
0
 62
     0
 10
3.66832
 20
5.55487
 30
0.0
 11
3.5953
 21
5.09185
 31
0.0
  0
LINE
  8
0
 62
     0
 10
3.5953
 20
5.09185
 30
0.0
 11
3.66832
 21
4.62883
 31
0.0
  0
LINE
  8
0
 62
     0
 10
3.66832
 20
4.62883
 30
0.0
 11
3.88056
 21
4.20991
 31
0.0
  0
LINE
  8
0
 62
     0
 10
3.88056
 20
4.20991
 30
0.0
 11
4.21266
 21
3.87918
 31
0.0
  0
LINE
  8
0
 62
     0
 10
4.21266
 20
3.87918
 30
0.0
 11
4.63021
 21
3.66557
 31
0.0
  0
LINE
  8
0
 62
     0
 10
4.63021
 20
3.66557
 30
0.0
 11
5.0946
 21
3.59255
 31
0.0
  0
LINE
  8
0
 62
     0
 10
5.0946
 20
3.59255
 30
0.0
 11
5.55763
 21
3.66557
 31
0.0
  0
LINE
  8
0
 62
     0
 10
5.55763
 20
3.66557
 30
0.0
 11
5.97517
 21
3.87918
 31
0.0
  0
LINE
  8
0
 62
     0
 10
5.97517
 20
3.87918
 30
0.0
 11
6.30728
 21
4.20991
 31
0.0
  0
LINE
  8
0
 62
     0
 10
6.30728
 20
4.20991
 30
0.0
 11
6.52089
 21
4.62883
 31
0.0
  0
LINE
  8
0
 62
     0
 10
6.52089
 20
4.62883
 30
0.0
 11
6.59529
 21
5.09185
 31
0.0
  0
LINE
  8
0
 62
     0
 10
6.59529
 20
5.09185
 30
0.0
 11
6.52089
 21
5.55487
 31
0.0
  0
LINE
  8
0
 62
     0
 10
6.52089
 20
5.55487
 30
0.0
 11
6.30728
 21
5.9738
 31
0.0
  0
LINE
  8
0
 62
     0
 10
6.30728
 20
5.9738
 30
0.0
 11
5.97517
 21
6.30453
 31
0.0
  0
LINE
  8
0
 62
     0
 10
5.97517
 20
6.30453
 30
0.0
 11
5.55763
 21
6.51813
 31
0.0
  0
LINE
  8
0
 62
     0
 10
5.55763
 20
6.51813
 30
0.0
 11
5.0946
 21
6.59253
 31
0.0
  0
LINE
  8
0
 62
     0
 10
5.0946
 20
6.59253
 30
0.0
 11
4.63021
 21
6.51813
 31
0.0
  0
LINE
  8
0
 62
     0
 10
160.03
 20
6.51813
 30
0.0
 11
159.613
 21
6.30453
 31
0.0
  0
LINE
  8
0
 62
     0
 10
159.613
 20
6.30453
 30
0.0
 11
159.281
 21
5.9738
 31
0.0
  0
LINE
  8
0
 62
     0
 10
159.281
 20
5.9738
 30
0.0
 11
159.068
 21
5.55487
 31
0.0
  0
LINE
  8
0
 62
     0
 10
159.068
 20
5.55487
 30
0.0
 11
158.995
 21
5.09185
 31
0.0
  0
LINE
  8
0
 62
     0
 10
158.995
 20
5.09185
 30
0.0
 11
159.068
 21
4.62883
 31
0.0
  0
LINE
  8
0
 62
     0
 10
159.068
 20
4.62883
 30
0.0
 11
159.281
 21
4.20991
 31
0.0
  0
LINE
  8
0
 62
     0
 10
159.281
 20
4.20991
 30
0.0
 11
159.613
 21
3.87918
 31
0.0
  0
LINE
  8
0
 62
     0
 10
159.613
 20
3.87918
 30
0.0
 11
160.03
 21
3.66557
 31
0.0
  0
LINE
  8
0
 62
     0
 10
160.03
 20
3.66557
 30
0.0
 11
160.494
 21
3.59255
 31
0.0
  0
LINE
  8
0
 62
     0
 10
160.494
 20
3.59255
 30
0.0
 11
160.959
 21
3.66557
 31
0.0
  0
LINE
  8
0
 62
     0
 10
160.959
 20
3.66557
 30
0.0
 11
161.376
 21
3.87918
 31
0.0
  0
LINE
  8
0
 62
     0
 10
161.376
 20
3.87918
 30
0.0
 11
161.709
 21
4.20991
 31
0.0
  0
LINE
  8
0
 62
     0
 10
161.709
 20
4.20991
 30
0.0
 11
161.922
 21
4.62883
 31
0.0
  0
LINE
  8
0
 62
     0
 10
161.922
 20
4.62883
 30
0.0
 11
161.995
 21
5.09185
 31
0.0
  0
LINE
  8
0
 62
     0
 10
161.995
 20
5.09185
 30
0.0
 11
161.922
 21
5.55487
 31
0.0
  0
LINE
  8
0
 62
     0
 10
161.922
 20
5.55487
 30
0.0
 11
161.709
 21
5.9738
 31
0.0
  0
LINE
  8
0
 62
     0
 10
161.709
 20
5.9738
 30
0.0
 11
161.376
 21
6.30453
 31
0.0
  0
LINE
  8
0
 62
     0
 10
161.376
 20
6.30453
 30
0.0
 11
160.959
 21
6.51813
 31
0.0
  0
LINE
  8
0
 62
     0
 10
160.959
 20
6.51813
 30
0.0
 11
160.494
 21
6.59253
 31
0.0
  0
LINE
  8
0
 62
     0
 10
160.494
 20
6.59253
 30
0.0
 11
160.03
 21
6.51813
 31
0.0
  0
LINE
  8
0
 62
     0
 10
315.432
 20
6.51813
 30
0.0
 11
315.014
 21
6.30453
 31
0.0
  0
LINE
  8
0
 62
     0
 10
315.014
 20
6.30453
 30
0.0
 11
314.682
 21
5.9738
 31
0.0
  0
LINE
  8
0
 62
     0
 10
314.682
 20
5.9738
 30
0.0
 11
314.468
 21
5.55487
 31
0.0
  0
LINE
  8
0
 62
     0
 10
314.468
 20
5.55487
 30
0.0
 11
314.395
 21
5.09185
 31
0.0
  0
LINE
  8
0
 62
     0
 10
314.395
 20
5.09185
 30
0.0
 11
314.468
 21
4.62883
 31
0.0
  0
LINE
  8
0
 62
     0
 10
314.468
 20
4.62883
 30
0.0
 11
314.682
 21
4.20991
 31
0.0
  0
LINE
  8
0
 62
     0
 10
314.682
 20
4.20991
 30
0.0
 11
315.014
 21
3.87918
 31
0.0
  0
LINE
  8
0
 62
     0
 10
315.014
 20
3.87918
 30
0.0
 11
315.432
 21
3.66557
 31
0.0
  0
LINE
  8
0
 62
     0
 10
315.432
 20
3.66557
 30
0.0
 11
315.896
 21
3.59255
 31
0.0
  0
LINE
  8
0
 62
     0
 10
315.896
 20
3.59255
 30
0.0
 11
316.359
 21
3.66557
 31
0.0
  0
LINE
  8
0
 62
     0
 10
316.359
 20
3.66557
 30
0.0
 11
316.776
 21
3.87918
 31
0.0
  0
LINE
  8
0
 62
     0
 10
316.776
 20
3.87918
 30
0.0
 11
317.109
 21
4.20991
 31
0.0
  0
LINE
  8
0
 62
     0
 10
317.109
 20
4.20991
 30
0.0
 11
317.322
 21
4.62883
 31
0.0
  0
LINE
  8
0
 62
     0
 10
317.322
 20
4.62883
 30
0.0
 11
317.395
 21
5.09185
 31
0.0
  0
LINE
  8
0
 62
     0
 10
317.395
 20
5.09185
 30
0.0
 11
317.322
 21
5.55487
 31
0.0
  0
LINE
  8
0
 62
     0
 10
317.322
 20
5.55487
 30
0.0
 11
317.109
 21
5.9738
 31
0.0
  0
LINE
  8
0
 62
     0
 10
317.109
 20
5.9738
 30
0.0
 11
316.776
 21
6.30453
 31
0.0
  0
LINE
  8
0
 62
     0
 10
316.776
 20
6.30453
 30
0.0
 11
316.359
 21
6.51813
 31
0.0
  0
LINE
  8
0
 62
     0
 10
316.359
 20
6.51813
 30
0.0
 11
315.896
 21
6.59253
 31
0.0
  0
LINE
  8
0
 62
     0
 10
315.896
 20
6.59253
 30
0.0
 11
315.432
 21
6.51813
 31
0.0
  0
LINE
  8
0
 62
     0
 10
4.63021
 20
111.77
 30
0.0
 11
4.21266
 21
111.556
 31
0.0
  0
LINE
  8
0
 62
     0
 10
4.21266
 20
111.556
 30
0.0
 11
3.88056
 21
111.226
 31
0.0
  0
LINE
  8
0
 62
     0
 10
3.88056
 20
111.226
 30
0.0
 11
3.66832
 21
110.807
 31
0.0
  0
LINE
  8
0
 62
     0
 10
3.66832
 20
110.807
 30
0.0
 11
3.5953
 21
110.344
 31
0.0
  0
LINE
  8
0
 62
     0
 10
3.5953
 20
110.344
 30
0.0
 11
3.66832
 21
109.879
 31
0.0
  0
LINE
  8
0
 62
     0
 10
3.66832
 20
109.879
 30
0.0
 11
3.88056
 21
109.462
 31
0.0
  0
LINE
  8
0
 62
     0
 10
3.88056
 20
109.462
 30
0.0
 11
4.21266
 21
109.13
 31
0.0
  0
LINE
  8
0
 62
     0
 10
4.21266
 20
109.13
 30
0.0
 11
4.63021
 21
108.917
 31
0.0
  0
LINE
  8
0
 62
     0
 10
4.63021
 20
108.917
 30
0.0
 11
5.0946
 21
108.843
 31
0.0
  0
LINE
  8
0
 62
     0
 10
5.0946
 20
108.843
 30
0.0
 11
5.55763
 21
108.917
 31
0.0
  0
LINE
  8
0
 62
     0
 10
5.55763
 20
108.917
 30
0.0
 11
5.97517
 21
109.13
 31
0.0
  0
LINE
  8
0
 62
     0
 10
5.97517
 20
109.13
 30
0.0
 11
6.30728
 21
109.462
 31
0.0
  0
LINE
  8
0
 62
     0
 10
6.30728
 20
109.462
 30
0.0
 11
6.52089
 21
109.879
 31
0.0
  0
LINE
  8
0
 62
     0
 10
6.52089
 20
109.879
 30
0.0
 11
6.59529
 21
110.344
 31
0.0
  0
LINE
  8
0
 62
     0
 10
6.59529
 20
110.344
 30
0.0
 11
6.52089
 21
110.807
 31
0.0
  0
LINE
  8
0
 62
     0
 10
6.52089
 20
110.807
 30
0.0
 11
6.30728
 21
111.226
 31
0.0
  0
LINE
  8
0
 62
     0
 10
6.30728
 20
111.226
 30
0.0
 11
5.97517
 21
111.556
 31
0.0
  0
LINE
  8
0
 62
     0
 10
5.97517
 20
111.556
 30
0.0
 11
5.55763
 21
111.77
 31
0.0
  0
LINE
  8
0
 62
     0
 10
5.55763
 20
111.77
 30
0.0
 11
5.0946
 21
111.843
 31
0.0
  0
LINE
  8
0
 62
     0
 10
5.0946
 20
111.843
 30
0.0
 11
4.63021
 21
111.77
 31
0.0
  0
LINE
  8
0
 62
     0
 10
160.03
 20
111.77
 30
0.0
 11
159.613
 21
111.556
 31
0.0
  0
LINE
  8
0
 62
     0
 10
159.613
 20
111.556
 30
0.0
 11
159.281
 21
111.226
 31
0.0
  0
LINE
  8
0
 62
     0
 10
159.281
 20
111.226
 30
0.0
 11
159.068
 21
110.807
 31
0.0
  0
LINE
  8
0
 62
     0
 10
159.068
 20
110.807
 30
0.0
 11
158.995
 21
110.344
 31
0.0
  0
LINE
  8
0
 62
     0
 10
158.995
 20
110.344
 30
0.0
 11
159.068
 21
109.879
 31
0.0
  0
LINE
  8
0
 62
     0
 10
159.068
 20
109.879
 30
0.0
 11
159.281
 21
109.462
 31
0.0
  0
LINE
  8
0
 62
     0
 10
159.281
 20
109.462
 30
0.0
 11
159.613
 21
109.13
 31
0.0
  0
LINE
  8
0
 62
     0
 10
159.613
 20
109.13
 30
0.0
 11
160.03
 21
108.917
 31
0.0
  0
LINE
  8
0
 62
     0
 10
160.03
 20
108.917
 30
0.0
 11
160.494
 21
108.843
 31
0.0
  0
LINE
  8
0
 62
     0
 10
160.494
 20
108.843
 30
0.0
 11
160.959
 21
108.917
 31
0.0
  0
LINE
  8
0
 62
     0
 10
160.959
 20
108.917
 30
0.0
 11
161.376
 21
109.13
 31
0.0
  0
LINE
  8
0
 62
     0
 10
161.376
 20
109.13
 30
0.0
 11
161.709
 21
109.462
 31
0.0
  0
LINE
  8
0
 62
     0
 10
161.709
 20
109.462
 30
0.0
 11
161.922
 21
109.879
 31
0.0
  0
LINE
  8
0
 62
     0
 10
161.922
 20
109.879
 30
0.0
 11
161.995
 21
110.344
 31
0.0
  0
LINE
  8
0
 62
     0
 10
161.995
 20
110.344
 30
0.0
 11
161.922
 21
110.807
 31
0.0
  0
LINE
  8
0
 62
     0
 10
161.922
 20
110.807
 30
0.0
 11
161.709
 21
111.226
 31
0.0
  0
LINE
  8
0
 62
     0
 10
161.709
 20
111.226
 30
0.0
 11
161.376
 21
111.556
 31
0.0
  0
LINE
  8
0
 62
     0
 10
161.376
 20
111.556
 30
0.0
 11
160.959
 21
111.77
 31
0.0
  0
LINE
  8
0
 62
     0
 10
160.959
 20
111.77
 30
0.0
 11
160.494
 21
111.843
 31
0.0
  0
LINE
  8
0
 62
     0
 10
160.494
 20
111.843
 30
0.0
 11
160.03
 21
111.77
 31
0.0
  0
LINE
  8
0
 62
     0
 10
315.432
 20
111.77
 30
0.0
 11
315.014
 21
111.556
 31
0.0
  0
LINE
  8
0
 62
     0
 10
315.014
 20
111.556
 30
0.0
 11
314.682
 21
111.226
 31
0.0
  0
LINE
  8
0
 62
     0
 10
314.682
 20
111.226
 30
0.0
 11
314.468
 21
110.807
 31
0.0
  0
LINE
  8
0
 62
     0
 10
314.468
 20
110.807
 30
0.0
 11
314.395
 21
110.344
 31
0.0
  0
LINE
  8
0
 62
     0
 10
314.395
 20
110.344
 30
0.0
 11
314.468
 21
109.879
 31
0.0
  0
LINE
  8
0
 62
     0
 10
314.468
 20
109.879
 30
0.0
 11
314.682
 21
109.462
 31
0.0
  0
LINE
  8
0
 62
     0
 10
314.682
 20
109.462
 30
0.0
 11
315.014
 21
109.13
 31
0.0
  0
LINE
  8
0
 62
     0
 10
315.014
 20
109.13
 30
0.0
 11
315.432
 21
108.917
 31
0.0
  0
LINE
  8
0
 62
     0
 10
315.432
 20
108.917
 30
0.0
 11
315.896
 21
108.843
 31
0.0
  0
LINE
  8
0
 62
     0
 10
315.896
 20
108.843
 30
0.0
 11
316.359
 21
108.917
 31
0.0
  0
LINE
  8
0
 62
     0
 10
316.359
 20
108.917
 30
0.0
 11
316.776
 21
109.13
 31
0.0
  0
LINE
  8
0
 62
     0
 10
316.776
 20
109.13
 30
0.0
 11
317.109
 21
109.462
 31
0.0
  0
LINE
  8
0
 62
     0
 10
317.109
 20
109.462
 30
0.0
 11
317.322
 21
109.879
 31
0.0
  0
LINE
  8
0
 62
     0
 10
317.322
 20
109.879
 30
0.0
 11
317.395
 21
110.344
 31
0.0
  0
LINE
  8
0
 62
     0
 10
317.395
 20
110.344
 30
0.0
 11
317.322
 21
110.807
 31
0.0
  0
LINE
  8
0
 62
     0
 10
317.322
 20
110.807
 30
0.0
 11
317.109
 21
111.226
 31
0.0
  0
LINE
  8
0
 62
     0
 10
317.109
 20
111.226
 30
0.0
 11
316.776
 21
111.556
 31
0.0
  0
LINE
  8
0
 62
     0
 10
316.776
 20
111.556
 30
0.0
 11
316.359
 21
111.77
 31
0.0
  0
LINE
  8
0
 62
     0
 10
316.359
 20
111.77
 30
0.0
 11
315.896
 21
111.843
 31
0.0
  0
LINE
  8
0
 62
     0
 10
315.896
 20
111.843
 30
0.0
 11
315.432
 21
111.77
 31
0.0
  0
ENDSEC
  0
EOF
