<?xml version="1.0"?>
<!-- Generated by SVGo -->
<svg width="330.802mm" height="125.251mm"
     viewBox="0.000 0.000 330.802 125.251"
     xmlns="http://www.w3.org/2000/svg" 
     xmlns:xlink="http://www.w3.org/1999/xlink">
<polygon points="160.401,5.000 160.401,15.001 13.001,15.001 13.001,110.251 317.802,110.251 317.802,15.001 170.401,15.001 170.401,5.001 323.802,5.001 323.958,5.007 324.114,5.025 324.268,5.056 324.420,5.098 324.567,5.153 324.709,5.218 324.846,5.295 324.977,5.382 325.100,5.480 325.216,5.586 325.322,5.702 325.420,5.825 325.507,5.956 325.584,6.093 325.649,6.235 325.704,6.382 325.746,6.534 325.777,6.688 325.795,6.844 325.802,7.001 325.802,118.251 325.795,118.408 325.777,118.564 325.746,118.718 325.704,118.870 325.649,119.017 325.584,119.159 325.507,119.296 325.420,119.427 325.322,119.550 325.216,119.666 325.100,119.772 324.977,119.870 324.846,119.957 324.709,120.034 324.567,120.099 324.420,120.154 324.268,120.196 324.114,120.227 323.958,120.245 323.802,120.251 7.001,120.251 6.844,120.245 6.688,120.227 6.534,120.196 6.382,120.154 6.235,120.099 6.093,120.034 5.956,119.957 5.825,119.870 5.702,119.772 5.586,119.666 5.480,119.550 5.382,119.427 5.295,119.296 5.218,119.159 5.153,119.017 5.098,118.870 5.056,118.718 5.025,118.564 5.007,118.408 5.000,118.252 5.001,7.001 5.007,6.844 5.025,6.688 5.056,6.534 5.098,6.382 5.153,6.235 5.218,6.093 5.295,5.956 5.382,5.825 5.480,5.702 5.586,5.586 5.702,5.480 5.825,5.382 5.956,5.295 6.093,5.218 6.235,5.153 6.382,5.098 6.534,5.056 6.688,5.025 6.844,5.007 7.001,5.000" style="fill:none;stroke-width:0.050000mm;stroke:black"/>
<polygon points="9.537,113.825 9.119,114.038 8.787,114.370 8.574,114.788 8.501,115.251 8.574,115.715 8.787,116.133 9.119,116.465 9.537,116.678 10.001,116.751 10.464,116.678 10.882,116.465 11.214,116.133 11.427,115.715 11.501,115.251 11.427,114.788 11.214,114.370 10.882,114.038 10.464,113.825 10.001,113.751" style="fill:none;stroke-width:0.050000mm;stroke:black"/>
<polygon points="164.937,113.825 164.519,114.038 164.187,114.370 163.974,114.788 163.901,115.251 163.974,115.715 164.187,116.133 164.519,116.465 164.937,116.678 165.401,116.751 165.865,116.678 166.283,116.465 166.615,116.133 166.828,115.715 166.901,115.251 166.828,114.788 166.615,114.370 166.283,114.038 165.865,113.825 165.401,113.751" style="fill:none;stroke-width:0.050000mm;stroke:black"/>
<polygon points="320.338,113.825 319.920,114.038 319.588,114.370 319.375,114.788 319.302,115.251 319.375,115.715 319.588,116.133 319.920,116.465 320.338,116.678 320.802,116.751 321.265,116.678 321.683,116.465 322.015,116.133 322.228,115.715 322.302,115.251 322.228,114.788 322.015,114.370 321.683,114.038 321.265,113.825 320.802,113.751" style="fill:none;stroke-width:0.050000mm;stroke:black"/>
<polygon points="9.537,8.574 9.119,8.787 8.787,9.119 8.574,9.537 8.501,10.001 8.574,10.464 8.787,10.882 9.119,11.214 9.537,11.427 10.001,11.501 10.464,11.427 10.882,11.214 11.214,10.882 11.427,10.464 11.501,10.001 11.427,9.537 11.214,9.119 10.882,8.787 10.464,8.574 10.001,8.501" style="fill:none;stroke-width:0.050000mm;stroke:black"/>
<polygon points="320.338,8.574 319.920,8.787 319.588,9.119 319.375,9.537 319.302,10.001 319.375,10.464 319.588,10.882 319.920,11.214 320.338,11.427 320.802,11.501 321.265,11.427 321.683,11.214 322.015,10.882 322.228,10.464 322.302,10.001 322.228,9.537 322.015,9.119 321.683,8.787 321.265,8.574 320.802,8.501" style="fill:none;stroke-width:0.050000mm;stroke:black"/>
</svg>
