  0
SECTION
  2
HEADER
  9
$ACADVER
  1
AC1009
  9
$EXTMIN
 10
0.0
 20
0.0
 30
0.0
  9
$EXTMAX
 10
1000.0
 20
1000.0
 30
0.0
  9
$FILLMODE
 70
 0
  9
$SPLFRAME
 70
 1
  0
ENDSEC
  0
SECTION
  2
TABLES
  0
TABLE
  2
LAYER
 70
1
  0
LAYER
  2
0
 70
     0
 62
     7
  6
CONTINUOUS
  0
ENDTAB
  0
ENDSEC
  0
SECTION
  2
ENTITIES
  0
LINE
  8
0
 62
     0
 10
318.896
 20
115.342
 30
0.0
 11
319.052
 21
115.336
 31
0.0
  0
LINE
  8
0
 62
     0
 10
319.052
 20
115.336
 30
0.0
 11
319.207
 21
115.318
 31
0.0
  0
LINE
  8
0
 62
     0
 10
319.207
 20
115.318
 30
0.0
 11
319.362
 21
115.287
 31
0.0
  0
LINE
  8
0
 62
     0
 10
319.362
 20
115.287
 30
0.0
 11
319.513
 21
115.245
 31
0.0
  0
LINE
  8
0
 62
     0
 10
319.513
 20
115.245
 30
0.0
 11
319.661
 21
115.19
 31
0.0
  0
LINE
  8
0
 62
     0
 10
319.661
 20
115.19
 30
0.0
 11
319.803
 21
115.125
 31
0.0
  0
LINE
  8
0
 62
     0
 10
319.803
 20
115.125
 30
0.0
 11
319.939
 21
115.048
 31
0.0
  0
LINE
  8
0
 62
     0
 10
319.939
 20
115.048
 30
0.0
 11
320.071
 21
114.961
 31
0.0
  0
LINE
  8
0
 62
     0
 10
320.071
 20
114.961
 30
0.0
 11
320.194
 21
114.864
 31
0.0
  0
LINE
  8
0
 62
     0
 10
320.194
 20
114.864
 30
0.0
 11
320.31
 21
114.758
 31
0.0
  0
LINE
  8
0
 62
     0
 10
320.31
 20
114.758
 30
0.0
 11
320.416
 21
114.642
 31
0.0
  0
LINE
  8
0
 62
     0
 10
320.416
 20
114.642
 30
0.0
 11
320.514
 21
114.519
 31
0.0
  0
LINE
  8
0
 62
     0
 10
320.514
 20
114.519
 30
0.0
 11
320.601
 21
114.387
 31
0.0
  0
LINE
  8
0
 62
     0
 10
320.601
 20
114.387
 30
0.0
 11
320.678
 21
114.252
 31
0.0
  0
LINE
  8
0
 62
     0
 10
320.678
 20
114.252
 30
0.0
 11
320.742
 21
114.108
 31
0.0
  0
LINE
  8
0
 62
     0
 10
320.742
 20
114.108
 30
0.0
 11
320.798
 21
113.961
 31
0.0
  0
LINE
  8
0
 62
     0
 10
320.798
 20
113.961
 30
0.0
 11
320.84
 21
113.811
 31
0.0
  0
LINE
  8
0
 62
     0
 10
320.84
 20
113.811
 30
0.0
 11
320.871
 21
113.655
 31
0.0
  0
LINE
  8
0
 62
     0
 10
320.871
 20
113.655
 30
0.0
 11
320.888
 21
113.499
 31
0.0
  0
LINE
  8
0
 62
     0
 10
320.888
 20
113.499
 30
0.0
 11
320.895
 21
113.342
 31
0.0
  0
LINE
  8
0
 62
     0
 10
320.895
 20
113.342
 30
0.0
 11
320.895
 21
2.09186
 31
0.0
  0
LINE
  8
0
 62
     0
 10
320.895
 20
2.09186
 30
0.0
 11
320.888
 21
1.93614
 31
0.0
  0
LINE
  8
0
 62
     0
 10
320.888
 20
1.93614
 30
0.0
 11
320.871
 21
1.77905
 31
0.0
  0
LINE
  8
0
 62
     0
 10
320.871
 20
1.77905
 30
0.0
 11
320.84
 21
1.62471
 31
0.0
  0
LINE
  8
0
 62
     0
 10
320.84
 20
1.62471
 30
0.0
 11
320.798
 21
1.47312
 31
0.0
  0
LINE
  8
0
 62
     0
 10
320.798
 20
1.47312
 30
0.0
 11
320.742
 21
1.32567
 31
0.0
  0
LINE
  8
0
 62
     0
 10
320.742
 20
1.32567
 30
0.0
 11
320.678
 21
1.18374
 31
0.0
  0
LINE
  8
0
 62
     0
 10
320.678
 20
1.18374
 30
0.0
 11
320.601
 21
1.04731
 31
0.0
  0
LINE
  8
0
 62
     0
 10
320.601
 20
1.04731
 30
0.0
 11
320.514
 21
0.916397
 31
0.0
  0
LINE
  8
0
 62
     0
 10
320.514
 20
0.916397
 30
0.0
 11
320.416
 21
0.79375
 31
0.0
  0
LINE
  8
0
 62
     0
 10
320.416
 20
0.79375
 30
0.0
 11
320.31
 21
0.676617
 31
0.0
  0
LINE
  8
0
 62
     0
 10
320.31
 20
0.676617
 30
0.0
 11
320.194
 21
0.571885
 31
0.0
  0
LINE
  8
0
 62
     0
 10
320.194
 20
0.571885
 30
0.0
 11
320.071
 21
0.472666
 31
0.0
  0
LINE
  8
0
 62
     0
 10
320.071
 20
0.472666
 30
0.0
 11
319.939
 21
0.385851
 31
0.0
  0
LINE
  8
0
 62
     0
 10
319.939
 20
0.385851
 30
0.0
 11
319.803
 21
0.308681
 31
0.0
  0
LINE
  8
0
 62
     0
 10
319.803
 20
0.308681
 30
0.0
 11
319.661
 21
0.243913
 31
0.0
  0
LINE
  8
0
 62
     0
 10
319.661
 20
0.243913
 30
0.0
 11
319.513
 21
0.188791
 31
0.0
  0
LINE
  8
0
 62
     0
 10
319.513
 20
0.188791
 30
0.0
 11
319.362
 21
0.14745
 31
0.0
  0
LINE
  8
0
 62
     0
 10
319.362
 20
0.14745
 30
0.0
 11
319.207
 21
0.115755
 31
0.0
  0
LINE
  8
0
 62
     0
 10
319.207
 20
0.115755
 30
0.0
 11
319.052
 21
0.0992188
 31
0.0
  0
LINE
  8
0
 62
     0
 10
319.052
 20
0.0992188
 30
0.0
 11
318.896
 21
0.0923286
 31
0.0
  0
LINE
  8
0
 62
     0
 10
318.896
 20
0.0923286
 30
0.0
 11
2.09462
 21
0.0923286
 31
0.0
  0
LINE
  8
0
 62
     0
 10
2.09462
 20
0.0923286
 30
0.0
 11
1.93752
 21
0.0992188
 31
0.0
  0
LINE
  8
0
 62
     0
 10
1.93752
 20
0.0992188
 30
0.0
 11
1.7818
 21
0.115755
 31
0.0
  0
LINE
  8
0
 62
     0
 10
1.7818
 20
0.115755
 30
0.0
 11
1.62746
 21
0.14745
 31
0.0
  0
LINE
  8
0
 62
     0
 10
1.62746
 20
0.14745
 30
0.0
 11
1.47588
 21
0.188791
 31
0.0
  0
LINE
  8
0
 62
     0
 10
1.47588
 20
0.188791
 30
0.0
 11
1.32843
 21
0.243913
 31
0.0
  0
LINE
  8
0
 62
     0
 10
1.32843
 20
0.243913
 30
0.0
 11
1.18649
 21
0.308681
 31
0.0
  0
LINE
  8
0
 62
     0
 10
1.18649
 20
0.308681
 30
0.0
 11
1.05006
 21
0.385851
 31
0.0
  0
LINE
  8
0
 62
     0
 10
1.05006
 20
0.385851
 30
0.0
 11
0.919152
 21
0.472666
 31
0.0
  0
LINE
  8
0
 62
     0
 10
0.919152
 20
0.472666
 30
0.0
 11
0.795129
 21
0.571885
 31
0.0
  0
LINE
  8
0
 62
     0
 10
0.795129
 20
0.571885
 30
0.0
 11
0.679372
 21
0.676617
 31
0.0
  0
LINE
  8
0
 62
     0
 10
0.679372
 20
0.676617
 30
0.0
 11
0.573264
 21
0.79375
 31
0.0
  0
LINE
  8
0
 62
     0
 10
0.573264
 20
0.79375
 30
0.0
 11
0.475424
 21
0.916397
 31
0.0
  0
LINE
  8
0
 62
     0
 10
0.475424
 20
0.916397
 30
0.0
 11
0.388606
 21
1.04731
 31
0.0
  0
LINE
  8
0
 62
     0
 10
0.388606
 20
1.04731
 30
0.0
 11
0.311437
 21
1.18374
 31
0.0
  0
LINE
  8
0
 62
     0
 10
0.311437
 20
1.18374
 30
0.0
 11
0.246669
 21
1.32567
 31
0.0
  0
LINE
  8
0
 62
     0
 10
0.246669
 20
1.32567
 30
0.0
 11
0.191547
 21
1.47312
 31
0.0
  0
LINE
  8
0
 62
     0
 10
0.191547
 20
1.47312
 30
0.0
 11
0.150206
 21
1.62471
 31
0.0
  0
LINE
  8
0
 62
     0
 10
0.150206
 20
1.62471
 30
0.0
 11
0.118511
 21
1.77905
 31
0.0
  0
LINE
  8
0
 62
     0
 10
0.118511
 20
1.77905
 30
0.0
 11
0.100597
 21
1.93614
 31
0.0
  0
LINE
  8
0
 62
     0
 10
0.100597
 20
1.93614
 30
0.0
 11
0.0937066
 21
2.09048
 31
0.0
  0
LINE
  8
0
 62
     0
 10
0.0937066
 20
2.09048
 30
0.0
 11
0.0950846
 21
113.342
 31
0.0
  0
LINE
  8
0
 62
     0
 10
0.0950846
 20
113.342
 30
0.0
 11
0.100597
 21
113.499
 31
0.0
  0
LINE
  8
0
 62
     0
 10
0.100597
 20
113.499
 30
0.0
 11
0.118511
 21
113.655
 31
0.0
  0
LINE
  8
0
 62
     0
 10
0.118511
 20
113.655
 30
0.0
 11
0.150206
 21
113.811
 31
0.0
  0
LINE
  8
0
 62
     0
 10
0.150206
 20
113.811
 30
0.0
 11
0.191547
 21
113.961
 31
0.0
  0
LINE
  8
0
 62
     0
 10
0.191547
 20
113.961
 30
0.0
 11
0.246669
 21
114.108
 31
0.0
  0
LINE
  8
0
 62
     0
 10
0.246669
 20
114.108
 30
0.0
 11
0.311437
 21
114.252
 31
0.0
  0
LINE
  8
0
 62
     0
 10
0.311437
 20
114.252
 30
0.0
 11
0.388606
 21
114.387
 31
0.0
  0
LINE
  8
0
 62
     0
 10
0.388606
 20
114.387
 30
0.0
 11
0.475424
 21
114.519
 31
0.0
  0
LINE
  8
0
 62
     0
 10
0.475424
 20
114.519
 30
0.0
 11
0.573264
 21
114.642
 31
0.0
  0
LINE
  8
0
 62
     0
 10
0.573264
 20
114.642
 30
0.0
 11
0.679372
 21
114.758
 31
0.0
  0
LINE
  8
0
 62
     0
 10
0.679372
 20
114.758
 30
0.0
 11
0.795129
 21
114.864
 31
0.0
  0
LINE
  8
0
 62
     0
 10
0.795129
 20
114.864
 30
0.0
 11
0.919152
 21
114.961
 31
0.0
  0
LINE
  8
0
 62
     0
 10
0.919152
 20
114.961
 30
0.0
 11
1.05006
 21
115.048
 31
0.0
  0
LINE
  8
0
 62
     0
 10
1.05006
 20
115.048
 30
0.0
 11
1.18649
 21
115.125
 31
0.0
  0
LINE
  8
0
 62
     0
 10
1.18649
 20
115.125
 30
0.0
 11
1.32843
 21
115.19
 31
0.0
  0
LINE
  8
0
 62
     0
 10
1.32843
 20
115.19
 30
0.0
 11
1.47588
 21
115.245
 31
0.0
  0
LINE
  8
0
 62
     0
 10
1.47588
 20
115.245
 30
0.0
 11
1.62746
 21
115.287
 31
0.0
  0
LINE
  8
0
 62
     0
 10
1.62746
 20
115.287
 30
0.0
 11
1.7818
 21
115.318
 31
0.0
  0
LINE
  8
0
 62
     0
 10
1.7818
 20
115.318
 30
0.0
 11
1.93752
 21
115.336
 31
0.0
  0
LINE
  8
0
 62
     0
 10
1.93752
 20
115.336
 30
0.0
 11
2.09462
 21
115.343
 31
0.0
  0
LINE
  8
0
 62
     0
 10
2.09462
 20
115.343
 30
0.0
 11
318.896
 21
115.342
 31
0.0
  0
LINE
  8
0
 62
     0
 10
4.63021
 20
6.51813
 30
0.0
 11
4.21266
 21
6.30453
 31
0.0
  0
LINE
  8
0
 62
     0
 10
4.21266
 20
6.30453
 30
0.0
 11
3.88056
 21
5.9738
 31
0.0
  0
LINE
  8
0
 62
     0
 10
3.88056
 20
5.9738
 30
0.0
 11
3.66832
 21
5.55487
 31
0.0
  0
LINE
  8
0
 62
     0
 10
3.66832
 20
5.55487
 30
0.0
 11
3.5953
 21
5.09185
 31
0.0
  0
LINE
  8
0
 62
     0
 10
3.5953
 20
5.09185
 30
0.0
 11
3.66832
 21
4.62883
 31
0.0
  0
LINE
  8
0
 62
     0
 10
3.66832
 20
4.62883
 30
0.0
 11
3.88056
 21
4.20991
 31
0.0
  0
LINE
  8
0
 62
     0
 10
3.88056
 20
4.20991
 30
0.0
 11
4.21266
 21
3.87918
 31
0.0
  0
LINE
  8
0
 62
     0
 10
4.21266
 20
3.87918
 30
0.0
 11
4.63021
 21
3.66557
 31
0.0
  0
LINE
  8
0
 62
     0
 10
4.63021
 20
3.66557
 30
0.0
 11
5.0946
 21
3.59255
 31
0.0
  0
LINE
  8
0
 62
     0
 10
5.0946
 20
3.59255
 30
0.0
 11
5.55763
 21
3.66557
 31
0.0
  0
LINE
  8
0
 62
     0
 10
5.55763
 20
3.66557
 30
0.0
 11
5.97517
 21
3.87918
 31
0.0
  0
LINE
  8
0
 62
     0
 10
5.97517
 20
3.87918
 30
0.0
 11
6.30728
 21
4.20991
 31
0.0
  0
LINE
  8
0
 62
     0
 10
6.30728
 20
4.20991
 30
0.0
 11
6.52089
 21
4.62883
 31
0.0
  0
LINE
  8
0
 62
     0
 10
6.52089
 20
4.62883
 30
0.0
 11
6.59529
 21
5.09185
 31
0.0
  0
LINE
  8
0
 62
     0
 10
6.59529
 20
5.09185
 30
0.0
 11
6.52089
 21
5.55487
 31
0.0
  0
LINE
  8
0
 62
     0
 10
6.52089
 20
5.55487
 30
0.0
 11
6.30728
 21
5.9738
 31
0.0
  0
LINE
  8
0
 62
     0
 10
6.30728
 20
5.9738
 30
0.0
 11
5.97517
 21
6.30453
 31
0.0
  0
LINE
  8
0
 62
     0
 10
5.97517
 20
6.30453
 30
0.0
 11
5.55763
 21
6.51813
 31
0.0
  0
LINE
  8
0
 62
     0
 10
5.55763
 20
6.51813
 30
0.0
 11
5.0946
 21
6.59253
 31
0.0
  0
LINE
  8
0
 62
     0
 10
5.0946
 20
6.59253
 30
0.0
 11
4.63021
 21
6.51813
 31
0.0
  0
LINE
  8
0
 62
     0
 10
160.03
 20
6.51813
 30
0.0
 11
159.613
 21
6.30453
 31
0.0
  0
LINE
  8
0
 62
     0
 10
159.613
 20
6.30453
 30
0.0
 11
159.281
 21
5.9738
 31
0.0
  0
LINE
  8
0
 62
     0
 10
159.281
 20
5.9738
 30
0.0
 11
159.068
 21
5.55487
 31
0.0
  0
LINE
  8
0
 62
     0
 10
159.068
 20
5.55487
 30
0.0
 11
158.995
 21
5.09185
 31
0.0
  0
LINE
  8
0
 62
     0
 10
158.995
 20
5.09185
 30
0.0
 11
159.068
 21
4.62883
 31
0.0
  0
LINE
  8
0
 62
     0
 10
159.068
 20
4.62883
 30
0.0
 11
159.281
 21
4.20991
 31
0.0
  0
LINE
  8
0
 62
     0
 10
159.281
 20
4.20991
 30
0.0
 11
159.613
 21
3.87918
 31
0.0
  0
LINE
  8
0
 62
     0
 10
159.613
 20
3.87918
 30
0.0
 11
160.03
 21
3.66557
 31
0.0
  0
LINE
  8
0
 62
     0
 10
160.03
 20
3.66557
 30
0.0
 11
160.494
 21
3.59255
 31
0.0
  0
LINE
  8
0
 62
     0
 10
160.494
 20
3.59255
 30
0.0
 11
160.959
 21
3.66557
 31
0.0
  0
LINE
  8
0
 62
     0
 10
160.959
 20
3.66557
 30
0.0
 11
161.376
 21
3.87918
 31
0.0
  0
LINE
  8
0
 62
     0
 10
161.376
 20
3.87918
 30
0.0
 11
161.709
 21
4.20991
 31
0.0
  0
LINE
  8
0
 62
     0
 10
161.709
 20
4.20991
 30
0.0
 11
161.922
 21
4.62883
 31
0.0
  0
LINE
  8
0
 62
     0
 10
161.922
 20
4.62883
 30
0.0
 11
161.995
 21
5.09185
 31
0.0
  0
LINE
  8
0
 62
     0
 10
161.995
 20
5.09185
 30
0.0
 11
161.922
 21
5.55487
 31
0.0
  0
LINE
  8
0
 62
     0
 10
161.922
 20
5.55487
 30
0.0
 11
161.709
 21
5.9738
 31
0.0
  0
LINE
  8
0
 62
     0
 10
161.709
 20
5.9738
 30
0.0
 11
161.376
 21
6.30453
 31
0.0
  0
LINE
  8
0
 62
     0
 10
161.376
 20
6.30453
 30
0.0
 11
160.959
 21
6.51813
 31
0.0
  0
LINE
  8
0
 62
     0
 10
160.959
 20
6.51813
 30
0.0
 11
160.494
 21
6.59253
 31
0.0
  0
LINE
  8
0
 62
     0
 10
160.494
 20
6.59253
 30
0.0
 11
160.03
 21
6.51813
 31
0.0
  0
LINE
  8
0
 62
     0
 10
315.432
 20
6.51813
 30
0.0
 11
315.014
 21
6.30453
 31
0.0
  0
LINE
  8
0
 62
     0
 10
315.014
 20
6.30453
 30
0.0
 11
314.682
 21
5.9738
 31
0.0
  0
LINE
  8
0
 62
     0
 10
314.682
 20
5.9738
 30
0.0
 11
314.468
 21
5.55487
 31
0.0
  0
LINE
  8
0
 62
     0
 10
314.468
 20
5.55487
 30
0.0
 11
314.395
 21
5.09185
 31
0.0
  0
LINE
  8
0
 62
     0
 10
314.395
 20
5.09185
 30
0.0
 11
314.468
 21
4.62883
 31
0.0
  0
LINE
  8
0
 62
     0
 10
314.468
 20
4.62883
 30
0.0
 11
314.682
 21
4.20991
 31
0.0
  0
LINE
  8
0
 62
     0
 10
314.682
 20
4.20991
 30
0.0
 11
315.014
 21
3.87918
 31
0.0
  0
LINE
  8
0
 62
     0
 10
315.014
 20
3.87918
 30
0.0
 11
315.432
 21
3.66557
 31
0.0
  0
LINE
  8
0
 62
     0
 10
315.432
 20
3.66557
 30
0.0
 11
315.896
 21
3.59255
 31
0.0
  0
LINE
  8
0
 62
     0
 10
315.896
 20
3.59255
 30
0.0
 11
316.359
 21
3.66557
 31
0.0
  0
LINE
  8
0
 62
     0
 10
316.359
 20
3.66557
 30
0.0
 11
316.776
 21
3.87918
 31
0.0
  0
LINE
  8
0
 62
     0
 10
316.776
 20
3.87918
 30
0.0
 11
317.109
 21
4.20991
 31
0.0
  0
LINE
  8
0
 62
     0
 10
317.109
 20
4.20991
 30
0.0
 11
317.322
 21
4.62883
 31
0.0
  0
LINE
  8
0
 62
     0
 10
317.322
 20
4.62883
 30
0.0
 11
317.395
 21
5.09185
 31
0.0
  0
LINE
  8
0
 62
     0
 10
317.395
 20
5.09185
 30
0.0
 11
317.322
 21
5.55487
 31
0.0
  0
LINE
  8
0
 62
     0
 10
317.322
 20
5.55487
 30
0.0
 11
317.109
 21
5.9738
 31
0.0
  0
LINE
  8
0
 62
     0
 10
317.109
 20
5.9738
 30
0.0
 11
316.776
 21
6.30453
 31
0.0
  0
LINE
  8
0
 62
     0
 10
316.776
 20
6.30453
 30
0.0
 11
316.359
 21
6.51813
 31
0.0
  0
LINE
  8
0
 62
     0
 10
316.359
 20
6.51813
 30
0.0
 11
315.896
 21
6.59253
 31
0.0
  0
LINE
  8
0
 62
     0
 10
315.896
 20
6.59253
 30
0.0
 11
315.432
 21
6.51813
 31
0.0
  0
LINE
  8
0
 62
     0
 10
104.337
 20
15.7441
 30
0.0
 11
107.003
 21
15.7441
 31
0.0
  0
LINE
  8
0
 62
     0
 10
107.003
 20
15.7441
 30
0.0
 11
107.003
 21
10.5379
 31
0.0
  0
LINE
  8
0
 62
     0
 10
107.003
 20
10.5379
 30
0.0
 11
104.337
 21
10.5379
 31
0.0
  0
LINE
  8
0
 62
     0
 10
104.337
 20
10.5379
 30
0.0
 11
104.337
 21
15.7441
 31
0.0
  0
LINE
  8
0
 62
     0
 10
194.936
 20
15.7441
 30
0.0
 11
197.602
 21
15.7441
 31
0.0
  0
LINE
  8
0
 62
     0
 10
197.602
 20
15.7441
 30
0.0
 11
197.602
 21
10.5379
 31
0.0
  0
LINE
  8
0
 62
     0
 10
197.602
 20
10.5379
 30
0.0
 11
194.936
 21
10.5379
 31
0.0
  0
LINE
  8
0
 62
     0
 10
194.936
 20
10.5379
 30
0.0
 11
194.936
 21
15.7441
 31
0.0
  0
LINE
  8
0
 62
     0
 10
14.5824
 20
26.0187
 30
0.0
 11
30.1818
 21
26.0187
 31
0.0
  0
LINE
  8
0
 62
     0
 10
30.1818
 20
26.0187
 30
0.0
 11
30.1818
 21
13.2167
 31
0.0
  0
LINE
  8
0
 62
     0
 10
30.1818
 20
13.2167
 30
0.0
 11
14.5824
 21
13.2167
 31
0.0
  0
LINE
  8
0
 62
     0
 10
14.5824
 20
13.2167
 30
0.0
 11
14.5824
 21
26.0187
 31
0.0
  0
LINE
  8
0
 62
     0
 10
40.7762
 20
26.0187
 30
0.0
 11
56.3757
 21
26.0187
 31
0.0
  0
LINE
  8
0
 62
     0
 10
56.3757
 20
26.0187
 30
0.0
 11
56.3757
 21
13.2167
 31
0.0
  0
LINE
  8
0
 62
     0
 10
56.3757
 20
13.2167
 30
0.0
 11
40.7762
 21
13.2167
 31
0.0
  0
LINE
  8
0
 62
     0
 10
40.7762
 20
13.2167
 30
0.0
 11
40.7762
 21
26.0187
 31
0.0
  0
LINE
  8
0
 62
     0
 10
66.9699
 20
26.0187
 30
0.0
 11
82.5694
 21
26.0187
 31
0.0
  0
LINE
  8
0
 62
     0
 10
82.5694
 20
26.0187
 30
0.0
 11
82.5694
 21
13.2167
 31
0.0
  0
LINE
  8
0
 62
     0
 10
82.5694
 20
13.2167
 30
0.0
 11
66.9699
 21
13.2167
 31
0.0
  0
LINE
  8
0
 62
     0
 10
66.9699
 20
13.2167
 30
0.0
 11
66.9699
 21
26.0187
 31
0.0
  0
LINE
  8
0
 62
     0
 10
143.17
 20
26.0187
 30
0.0
 11
158.769
 21
26.0187
 31
0.0
  0
LINE
  8
0
 62
     0
 10
158.769
 20
26.0187
 30
0.0
 11
158.769
 21
13.2167
 31
0.0
  0
LINE
  8
0
 62
     0
 10
158.769
 20
13.2167
 30
0.0
 11
143.17
 21
13.2167
 31
0.0
  0
LINE
  8
0
 62
     0
 10
143.17
 20
13.2167
 30
0.0
 11
143.17
 21
26.0187
 31
0.0
  0
LINE
  8
0
 62
     0
 10
216.987
 20
26.0187
 30
0.0
 11
232.588
 21
26.0187
 31
0.0
  0
LINE
  8
0
 62
     0
 10
232.588
 20
26.0187
 30
0.0
 11
232.588
 21
13.2167
 31
0.0
  0
LINE
  8
0
 62
     0
 10
232.588
 20
13.2167
 30
0.0
 11
216.987
 21
13.2167
 31
0.0
  0
LINE
  8
0
 62
     0
 10
216.987
 20
13.2167
 30
0.0
 11
216.987
 21
26.0187
 31
0.0
  0
LINE
  8
0
 62
     0
 10
238.42
 20
26.0187
 30
0.0
 11
254.019
 21
26.0187
 31
0.0
  0
LINE
  8
0
 62
     0
 10
254.019
 20
26.0187
 30
0.0
 11
254.019
 21
13.2167
 31
0.0
  0
LINE
  8
0
 62
     0
 10
254.019
 20
13.2167
 30
0.0
 11
238.42
 21
13.2167
 31
0.0
  0
LINE
  8
0
 62
     0
 10
238.42
 20
13.2167
 30
0.0
 11
238.42
 21
26.0187
 31
0.0
  0
LINE
  8
0
 62
     0
 10
257.47
 20
26.0187
 30
0.0
 11
273.069
 21
26.0187
 31
0.0
  0
LINE
  8
0
 62
     0
 10
273.069
 20
26.0187
 30
0.0
 11
273.069
 21
13.2167
 31
0.0
  0
LINE
  8
0
 62
     0
 10
273.069
 20
13.2167
 30
0.0
 11
257.47
 21
13.2167
 31
0.0
  0
LINE
  8
0
 62
     0
 10
257.47
 20
13.2167
 30
0.0
 11
257.47
 21
26.0187
 31
0.0
  0
LINE
  8
0
 62
     0
 10
276.52
 20
26.0187
 30
0.0
 11
292.119
 21
26.0187
 31
0.0
  0
LINE
  8
0
 62
     0
 10
292.119
 20
26.0187
 30
0.0
 11
292.119
 21
13.2167
 31
0.0
  0
LINE
  8
0
 62
     0
 10
292.119
 20
13.2167
 30
0.0
 11
276.52
 21
13.2167
 31
0.0
  0
LINE
  8
0
 62
     0
 10
276.52
 20
13.2167
 30
0.0
 11
276.52
 21
26.0187
 31
0.0
  0
LINE
  8
0
 62
     0
 10
295.57
 20
26.0187
 30
0.0
 11
311.169
 21
26.0187
 31
0.0
  0
LINE
  8
0
 62
     0
 10
311.169
 20
26.0187
 30
0.0
 11
311.169
 21
13.2167
 31
0.0
  0
LINE
  8
0
 62
     0
 10
311.169
 20
13.2167
 30
0.0
 11
295.57
 21
13.2167
 31
0.0
  0
LINE
  8
0
 62
     0
 10
295.57
 20
13.2167
 30
0.0
 11
295.57
 21
26.0187
 31
0.0
  0
LINE
  8
0
 62
     0
 10
14.0973
 20
34.7941
 30
0.0
 11
16.7624
 21
34.7941
 31
0.0
  0
LINE
  8
0
 62
     0
 10
16.7624
 20
34.7941
 30
0.0
 11
16.7624
 21
29.5865
 31
0.0
  0
LINE
  8
0
 62
     0
 10
16.7624
 20
29.5865
 30
0.0
 11
14.0973
 21
29.5865
 31
0.0
  0
LINE
  8
0
 62
     0
 10
14.0973
 20
29.5865
 30
0.0
 11
14.0973
 21
34.7941
 31
0.0
  0
LINE
  8
0
 62
     0
 10
42.2892
 20
34.7941
 30
0.0
 11
44.9545
 21
34.7941
 31
0.0
  0
LINE
  8
0
 62
     0
 10
44.9545
 20
34.7941
 30
0.0
 11
44.9545
 21
29.5865
 31
0.0
  0
LINE
  8
0
 62
     0
 10
44.9545
 20
29.5865
 30
0.0
 11
42.2892
 21
29.5865
 31
0.0
  0
LINE
  8
0
 62
     0
 10
42.2892
 20
29.5865
 30
0.0
 11
42.2892
 21
34.7941
 31
0.0
  0
LINE
  8
0
 62
     0
 10
244.855
 20
34.7941
 30
0.0
 11
247.521
 21
34.7941
 31
0.0
  0
LINE
  8
0
 62
     0
 10
247.521
 20
34.7941
 30
0.0
 11
247.521
 21
29.5865
 31
0.0
  0
LINE
  8
0
 62
     0
 10
247.521
 20
29.5865
 30
0.0
 11
244.855
 21
29.5865
 31
0.0
  0
LINE
  8
0
 62
     0
 10
244.855
 20
29.5865
 30
0.0
 11
244.855
 21
34.7941
 31
0.0
  0
LINE
  8
0
 62
     0
 10
268.731
 20
34.7941
 30
0.0
 11
271.397
 21
34.7941
 31
0.0
  0
LINE
  8
0
 62
     0
 10
271.397
 20
34.7941
 30
0.0
 11
271.397
 21
29.5865
 31
0.0
  0
LINE
  8
0
 62
     0
 10
271.397
 20
29.5865
 30
0.0
 11
268.731
 21
29.5865
 31
0.0
  0
LINE
  8
0
 62
     0
 10
268.731
 20
29.5865
 30
0.0
 11
268.731
 21
34.7941
 31
0.0
  0
LINE
  8
0
 62
     0
 10
21.7261
 20
45.0688
 30
0.0
 11
37.3257
 21
45.0688
 31
0.0
  0
LINE
  8
0
 62
     0
 10
37.3257
 20
45.0688
 30
0.0
 11
37.3257
 21
32.2667
 31
0.0
  0
LINE
  8
0
 62
     0
 10
37.3257
 20
32.2667
 30
0.0
 11
21.7261
 21
32.2667
 31
0.0
  0
LINE
  8
0
 62
     0
 10
21.7261
 20
32.2667
 30
0.0
 11
21.7261
 21
45.0688
 31
0.0
  0
LINE
  8
0
 62
     0
 10
52.6824
 20
45.0688
 30
0.0
 11
68.2819
 21
45.0688
 31
0.0
  0
LINE
  8
0
 62
     0
 10
68.2819
 20
45.0688
 30
0.0
 11
68.2819
 21
32.2667
 31
0.0
  0
LINE
  8
0
 62
     0
 10
68.2819
 20
32.2667
 30
0.0
 11
52.6824
 21
32.2667
 31
0.0
  0
LINE
  8
0
 62
     0
 10
52.6824
 20
32.2667
 30
0.0
 11
52.6824
 21
45.0688
 31
0.0
  0
LINE
  8
0
 62
     0
 10
71.7324
 20
45.0688
 30
0.0
 11
87.3319
 21
45.0688
 31
0.0
  0
LINE
  8
0
 62
     0
 10
87.3319
 20
45.0688
 30
0.0
 11
87.3319
 21
32.2667
 31
0.0
  0
LINE
  8
0
 62
     0
 10
87.3319
 20
32.2667
 30
0.0
 11
71.7324
 21
32.2667
 31
0.0
  0
LINE
  8
0
 62
     0
 10
71.7324
 20
32.2667
 30
0.0
 11
71.7324
 21
45.0688
 31
0.0
  0
LINE
  8
0
 62
     0
 10
90.7824
 20
45.0688
 30
0.0
 11
106.382
 21
45.0688
 31
0.0
  0
LINE
  8
0
 62
     0
 10
106.382
 20
45.0688
 30
0.0
 11
106.382
 21
32.2667
 31
0.0
  0
LINE
  8
0
 62
     0
 10
106.382
 20
32.2667
 30
0.0
 11
90.7824
 21
32.2667
 31
0.0
  0
LINE
  8
0
 62
     0
 10
90.7824
 20
32.2667
 30
0.0
 11
90.7824
 21
45.0688
 31
0.0
  0
LINE
  8
0
 62
     0
 10
109.832
 20
45.0688
 30
0.0
 11
125.43
 21
45.0688
 31
0.0
  0
LINE
  8
0
 62
     0
 10
125.43
 20
45.0688
 30
0.0
 11
125.43
 21
32.2667
 31
0.0
  0
LINE
  8
0
 62
     0
 10
125.43
 20
32.2667
 30
0.0
 11
109.832
 21
32.2667
 31
0.0
  0
LINE
  8
0
 62
     0
 10
109.832
 20
32.2667
 30
0.0
 11
109.832
 21
45.0688
 31
0.0
  0
LINE
  8
0
 62
     0
 10
128.882
 20
45.0688
 30
0.0
 11
144.482
 21
45.0688
 31
0.0
  0
LINE
  8
0
 62
     0
 10
144.482
 20
45.0688
 30
0.0
 11
144.482
 21
32.2667
 31
0.0
  0
LINE
  8
0
 62
     0
 10
144.482
 20
32.2667
 30
0.0
 11
128.882
 21
32.2667
 31
0.0
  0
LINE
  8
0
 62
     0
 10
128.882
 20
32.2667
 30
0.0
 11
128.882
 21
45.0688
 31
0.0
  0
LINE
  8
0
 62
     0
 10
147.932
 20
45.0688
 30
0.0
 11
163.532
 21
45.0688
 31
0.0
  0
LINE
  8
0
 62
     0
 10
163.532
 20
45.0688
 30
0.0
 11
163.532
 21
32.2667
 31
0.0
  0
LINE
  8
0
 62
     0
 10
163.532
 20
32.2667
 30
0.0
 11
147.932
 21
32.2667
 31
0.0
  0
LINE
  8
0
 62
     0
 10
147.932
 20
32.2667
 30
0.0
 11
147.932
 21
45.0688
 31
0.0
  0
LINE
  8
0
 62
     0
 10
166.982
 20
45.0688
 30
0.0
 11
182.582
 21
45.0688
 31
0.0
  0
LINE
  8
0
 62
     0
 10
182.582
 20
45.0688
 30
0.0
 11
182.582
 21
32.2667
 31
0.0
  0
LINE
  8
0
 62
     0
 10
182.582
 20
32.2667
 30
0.0
 11
166.982
 21
32.2667
 31
0.0
  0
LINE
  8
0
 62
     0
 10
166.982
 20
32.2667
 30
0.0
 11
166.982
 21
45.0688
 31
0.0
  0
LINE
  8
0
 62
     0
 10
186.032
 20
45.0688
 30
0.0
 11
201.632
 21
45.0688
 31
0.0
  0
LINE
  8
0
 62
     0
 10
201.632
 20
45.0688
 30
0.0
 11
201.632
 21
32.2667
 31
0.0
  0
LINE
  8
0
 62
     0
 10
201.632
 20
32.2667
 30
0.0
 11
186.032
 21
32.2667
 31
0.0
  0
LINE
  8
0
 62
     0
 10
186.032
 20
32.2667
 30
0.0
 11
186.032
 21
45.0688
 31
0.0
  0
LINE
  8
0
 62
     0
 10
205.082
 20
45.0688
 30
0.0
 11
220.682
 21
45.0688
 31
0.0
  0
LINE
  8
0
 62
     0
 10
220.682
 20
45.0688
 30
0.0
 11
220.682
 21
32.2667
 31
0.0
  0
LINE
  8
0
 62
     0
 10
220.682
 20
32.2667
 30
0.0
 11
205.082
 21
32.2667
 31
0.0
  0
LINE
  8
0
 62
     0
 10
205.082
 20
32.2667
 30
0.0
 11
205.082
 21
45.0688
 31
0.0
  0
LINE
  8
0
 62
     0
 10
224.132
 20
45.0688
 30
0.0
 11
239.732
 21
45.0688
 31
0.0
  0
LINE
  8
0
 62
     0
 10
239.732
 20
45.0688
 30
0.0
 11
239.732
 21
32.2667
 31
0.0
  0
LINE
  8
0
 62
     0
 10
239.732
 20
32.2667
 30
0.0
 11
224.132
 21
32.2667
 31
0.0
  0
LINE
  8
0
 62
     0
 10
224.132
 20
32.2667
 30
0.0
 11
224.132
 21
45.0688
 31
0.0
  0
LINE
  8
0
 62
     0
 10
250.326
 20
45.0688
 30
0.0
 11
265.926
 21
45.0688
 31
0.0
  0
LINE
  8
0
 62
     0
 10
265.926
 20
45.0688
 30
0.0
 11
265.926
 21
32.2667
 31
0.0
  0
LINE
  8
0
 62
     0
 10
265.926
 20
32.2667
 30
0.0
 11
250.326
 21
32.2667
 31
0.0
  0
LINE
  8
0
 62
     0
 10
250.326
 20
32.2667
 30
0.0
 11
250.326
 21
45.0688
 31
0.0
  0
LINE
  8
0
 62
     0
 10
276.52
 20
45.0688
 30
0.0
 11
292.119
 21
45.0688
 31
0.0
  0
LINE
  8
0
 62
     0
 10
292.119
 20
45.0688
 30
0.0
 11
292.119
 21
32.2667
 31
0.0
  0
LINE
  8
0
 62
     0
 10
292.119
 20
32.2667
 30
0.0
 11
276.52
 21
32.2667
 31
0.0
  0
LINE
  8
0
 62
     0
 10
276.52
 20
32.2667
 30
0.0
 11
276.52
 21
45.0688
 31
0.0
  0
LINE
  8
0
 62
     0
 10
295.57
 20
45.0688
 30
0.0
 11
311.169
 21
45.0688
 31
0.0
  0
LINE
  8
0
 62
     0
 10
311.169
 20
45.0688
 30
0.0
 11
311.169
 21
32.2667
 31
0.0
  0
LINE
  8
0
 62
     0
 10
311.169
 20
32.2667
 30
0.0
 11
295.57
 21
32.2667
 31
0.0
  0
LINE
  8
0
 62
     0
 10
295.57
 20
32.2667
 30
0.0
 11
295.57
 21
45.0688
 31
0.0
  0
LINE
  8
0
 62
     0
 10
11.4915
 20
53.8441
 30
0.0
 11
14.158
 21
53.8441
 31
0.0
  0
LINE
  8
0
 62
     0
 10
14.158
 20
53.8441
 30
0.0
 11
14.158
 21
48.6364
 31
0.0
  0
LINE
  8
0
 62
     0
 10
14.158
 20
48.6364
 30
0.0
 11
11.4915
 21
48.6364
 31
0.0
  0
LINE
  8
0
 62
     0
 10
11.4915
 20
48.6364
 30
0.0
 11
11.4915
 21
53.8441
 31
0.0
  0
LINE
  8
0
 62
     0
 10
35.3674
 20
53.8441
 30
0.0
 11
38.034
 21
53.8441
 31
0.0
  0
LINE
  8
0
 62
     0
 10
38.034
 20
53.8441
 30
0.0
 11
38.034
 21
48.6364
 31
0.0
  0
LINE
  8
0
 62
     0
 10
38.034
 20
48.6364
 30
0.0
 11
35.3674
 21
48.6364
 31
0.0
  0
LINE
  8
0
 62
     0
 10
35.3674
 20
48.6364
 30
0.0
 11
35.3674
 21
53.8441
 31
0.0
  0
LINE
  8
0
 62
     0
 10
256.983
 20
53.8441
 30
0.0
 11
259.65
 21
53.8441
 31
0.0
  0
LINE
  8
0
 62
     0
 10
259.65
 20
53.8441
 30
0.0
 11
259.65
 21
48.6364
 31
0.0
  0
LINE
  8
0
 62
     0
 10
259.65
 20
48.6364
 30
0.0
 11
256.983
 21
48.6364
 31
0.0
  0
LINE
  8
0
 62
     0
 10
256.983
 20
48.6364
 30
0.0
 11
256.983
 21
53.8441
 31
0.0
  0
LINE
  8
0
 62
     0
 10
285.175
 20
53.8441
 30
0.0
 11
287.842
 21
53.8441
 31
0.0
  0
LINE
  8
0
 62
     0
 10
287.842
 20
53.8441
 30
0.0
 11
287.842
 21
48.6364
 31
0.0
  0
LINE
  8
0
 62
     0
 10
287.842
 20
48.6364
 30
0.0
 11
285.175
 21
48.6364
 31
0.0
  0
LINE
  8
0
 62
     0
 10
285.175
 20
48.6364
 30
0.0
 11
285.175
 21
53.8441
 31
0.0
  0
LINE
  8
0
 62
     0
 10
16.9623
 20
64.1174
 30
0.0
 11
32.563
 21
64.1174
 31
0.0
  0
LINE
  8
0
 62
     0
 10
32.563
 20
64.1174
 30
0.0
 11
32.563
 21
51.3168
 31
0.0
  0
LINE
  8
0
 62
     0
 10
32.563
 20
51.3168
 30
0.0
 11
16.9623
 21
51.3168
 31
0.0
  0
LINE
  8
0
 62
     0
 10
16.9623
 20
51.3168
 30
0.0
 11
16.9623
 21
64.1174
 31
0.0
  0
LINE
  8
0
 62
     0
 10
43.1574
 20
64.1174
 30
0.0
 11
58.7569
 21
64.1174
 31
0.0
  0
LINE
  8
0
 62
     0
 10
58.7569
 20
64.1174
 30
0.0
 11
58.7569
 21
51.3168
 31
0.0
  0
LINE
  8
0
 62
     0
 10
58.7569
 20
51.3168
 30
0.0
 11
43.1574
 21
51.3168
 31
0.0
  0
LINE
  8
0
 62
     0
 10
43.1574
 20
51.3168
 30
0.0
 11
43.1574
 21
64.1174
 31
0.0
  0
LINE
  8
0
 62
     0
 10
62.2074
 20
64.1174
 30
0.0
 11
77.8069
 21
64.1174
 31
0.0
  0
LINE
  8
0
 62
     0
 10
77.8069
 20
64.1174
 30
0.0
 11
77.8069
 21
51.3168
 31
0.0
  0
LINE
  8
0
 62
     0
 10
77.8069
 20
51.3168
 30
0.0
 11
62.2074
 21
51.3168
 31
0.0
  0
LINE
  8
0
 62
     0
 10
62.2074
 20
51.3168
 30
0.0
 11
62.2074
 21
64.1174
 31
0.0
  0
LINE
  8
0
 62
     0
 10
81.2574
 20
64.1174
 30
0.0
 11
96.8569
 21
64.1174
 31
0.0
  0
LINE
  8
0
 62
     0
 10
96.8569
 20
64.1174
 30
0.0
 11
96.8569
 21
51.3168
 31
0.0
  0
LINE
  8
0
 62
     0
 10
96.8569
 20
51.3168
 30
0.0
 11
81.2574
 21
51.3168
 31
0.0
  0
LINE
  8
0
 62
     0
 10
81.2574
 20
51.3168
 30
0.0
 11
81.2574
 21
64.1174
 31
0.0
  0
LINE
  8
0
 62
     0
 10
100.307
 20
64.1174
 30
0.0
 11
115.907
 21
64.1174
 31
0.0
  0
LINE
  8
0
 62
     0
 10
115.907
 20
64.1174
 30
0.0
 11
115.907
 21
51.3168
 31
0.0
  0
LINE
  8
0
 62
     0
 10
115.907
 20
51.3168
 30
0.0
 11
100.307
 21
51.3168
 31
0.0
  0
LINE
  8
0
 62
     0
 10
100.307
 20
51.3168
 30
0.0
 11
100.307
 21
64.1174
 31
0.0
  0
LINE
  8
0
 62
     0
 10
119.357
 20
64.1174
 30
0.0
 11
134.957
 21
64.1174
 31
0.0
  0
LINE
  8
0
 62
     0
 10
134.957
 20
64.1174
 30
0.0
 11
134.957
 21
51.3168
 31
0.0
  0
LINE
  8
0
 62
     0
 10
134.957
 20
51.3168
 30
0.0
 11
119.357
 21
51.3168
 31
0.0
  0
LINE
  8
0
 62
     0
 10
119.357
 20
51.3168
 30
0.0
 11
119.357
 21
64.1174
 31
0.0
  0
LINE
  8
0
 62
     0
 10
138.407
 20
64.1174
 30
0.0
 11
154.007
 21
64.1174
 31
0.0
  0
LINE
  8
0
 62
     0
 10
154.007
 20
64.1174
 30
0.0
 11
154.007
 21
51.3168
 31
0.0
  0
LINE
  8
0
 62
     0
 10
154.007
 20
51.3168
 30
0.0
 11
138.407
 21
51.3168
 31
0.0
  0
LINE
  8
0
 62
     0
 10
138.407
 20
51.3168
 30
0.0
 11
138.407
 21
64.1174
 31
0.0
  0
LINE
  8
0
 62
     0
 10
157.457
 20
64.1174
 30
0.0
 11
173.057
 21
64.1174
 31
0.0
  0
LINE
  8
0
 62
     0
 10
173.057
 20
64.1174
 30
0.0
 11
173.057
 21
51.3168
 31
0.0
  0
LINE
  8
0
 62
     0
 10
173.057
 20
51.3168
 30
0.0
 11
157.457
 21
51.3168
 31
0.0
  0
LINE
  8
0
 62
     0
 10
157.457
 20
51.3168
 30
0.0
 11
157.457
 21
64.1174
 31
0.0
  0
LINE
  8
0
 62
     0
 10
176.507
 20
64.1174
 30
0.0
 11
192.107
 21
64.1174
 31
0.0
  0
LINE
  8
0
 62
     0
 10
192.107
 20
64.1174
 30
0.0
 11
192.107
 21
51.3168
 31
0.0
  0
LINE
  8
0
 62
     0
 10
192.107
 20
51.3168
 30
0.0
 11
176.507
 21
51.3168
 31
0.0
  0
LINE
  8
0
 62
     0
 10
176.507
 20
51.3168
 30
0.0
 11
176.507
 21
64.1174
 31
0.0
  0
LINE
  8
0
 62
     0
 10
195.557
 20
64.1174
 30
0.0
 11
211.157
 21
64.1174
 31
0.0
  0
LINE
  8
0
 62
     0
 10
211.157
 20
64.1174
 30
0.0
 11
211.157
 21
51.3168
 31
0.0
  0
LINE
  8
0
 62
     0
 10
211.157
 20
51.3168
 30
0.0
 11
195.557
 21
51.3168
 31
0.0
  0
LINE
  8
0
 62
     0
 10
195.557
 20
51.3168
 30
0.0
 11
195.557
 21
64.1174
 31
0.0
  0
LINE
  8
0
 62
     0
 10
214.607
 20
64.1174
 30
0.0
 11
230.207
 21
64.1174
 31
0.0
  0
LINE
  8
0
 62
     0
 10
230.207
 20
64.1174
 30
0.0
 11
230.207
 21
51.3168
 31
0.0
  0
LINE
  8
0
 62
     0
 10
230.207
 20
51.3168
 30
0.0
 11
214.607
 21
51.3168
 31
0.0
  0
LINE
  8
0
 62
     0
 10
214.607
 20
51.3168
 30
0.0
 11
214.607
 21
64.1174
 31
0.0
  0
LINE
  8
0
 62
     0
 10
233.657
 20
64.1174
 30
0.0
 11
249.257
 21
64.1174
 31
0.0
  0
LINE
  8
0
 62
     0
 10
249.257
 20
64.1174
 30
0.0
 11
249.257
 21
51.3168
 31
0.0
  0
LINE
  8
0
 62
     0
 10
249.257
 20
51.3168
 30
0.0
 11
233.657
 21
51.3168
 31
0.0
  0
LINE
  8
0
 62
     0
 10
233.657
 20
51.3168
 30
0.0
 11
233.657
 21
64.1174
 31
0.0
  0
LINE
  8
0
 62
     0
 10
264.612
 20
64.1174
 30
0.0
 11
280.213
 21
64.1174
 31
0.0
  0
LINE
  8
0
 62
     0
 10
280.213
 20
64.1174
 30
0.0
 11
280.213
 21
51.3168
 31
0.0
  0
LINE
  8
0
 62
     0
 10
280.213
 20
51.3168
 30
0.0
 11
264.612
 21
51.3168
 31
0.0
  0
LINE
  8
0
 62
     0
 10
264.612
 20
51.3168
 30
0.0
 11
264.612
 21
64.1174
 31
0.0
  0
LINE
  8
0
 62
     0
 10
295.57
 20
64.1174
 30
0.0
 11
311.169
 21
64.1174
 31
0.0
  0
LINE
  8
0
 62
     0
 10
311.169
 20
64.1174
 30
0.0
 11
311.169
 21
51.3168
 31
0.0
  0
LINE
  8
0
 62
     0
 10
311.169
 20
51.3168
 30
0.0
 11
295.57
 21
51.3168
 31
0.0
  0
LINE
  8
0
 62
     0
 10
295.57
 20
51.3168
 30
0.0
 11
295.57
 21
64.1174
 31
0.0
  0
LINE
  8
0
 62
     0
 10
14.5824
 20
83.1674
 30
0.0
 11
30.1818
 21
83.1674
 31
0.0
  0
LINE
  8
0
 62
     0
 10
30.1818
 20
83.1674
 30
0.0
 11
30.1818
 21
70.3668
 31
0.0
  0
LINE
  8
0
 62
     0
 10
30.1818
 20
70.3668
 30
0.0
 11
14.5824
 21
70.3668
 31
0.0
  0
LINE
  8
0
 62
     0
 10
14.5824
 20
70.3668
 30
0.0
 11
14.5824
 21
83.1674
 31
0.0
  0
LINE
  8
0
 62
     0
 10
38.3949
 20
83.1674
 30
0.0
 11
53.9944
 21
83.1674
 31
0.0
  0
LINE
  8
0
 62
     0
 10
53.9944
 20
83.1674
 30
0.0
 11
53.9944
 21
70.3668
 31
0.0
  0
LINE
  8
0
 62
     0
 10
53.9944
 20
70.3668
 30
0.0
 11
38.3949
 21
70.3668
 31
0.0
  0
LINE
  8
0
 62
     0
 10
38.3949
 20
70.3668
 30
0.0
 11
38.3949
 21
83.1674
 31
0.0
  0
LINE
  8
0
 62
     0
 10
57.4449
 20
83.1674
 30
0.0
 11
73.0444
 21
83.1674
 31
0.0
  0
LINE
  8
0
 62
     0
 10
73.0444
 20
83.1674
 30
0.0
 11
73.0444
 21
70.3668
 31
0.0
  0
LINE
  8
0
 62
     0
 10
73.0444
 20
70.3668
 30
0.0
 11
57.4449
 21
70.3668
 31
0.0
  0
LINE
  8
0
 62
     0
 10
57.4449
 20
70.3668
 30
0.0
 11
57.4449
 21
83.1674
 31
0.0
  0
LINE
  8
0
 62
     0
 10
76.4949
 20
83.1674
 30
0.0
 11
92.0944
 21
83.1674
 31
0.0
  0
LINE
  8
0
 62
     0
 10
92.0944
 20
83.1674
 30
0.0
 11
92.0944
 21
70.3668
 31
0.0
  0
LINE
  8
0
 62
     0
 10
92.0944
 20
70.3668
 30
0.0
 11
76.4949
 21
70.3668
 31
0.0
  0
LINE
  8
0
 62
     0
 10
76.4949
 20
70.3668
 30
0.0
 11
76.4949
 21
83.1674
 31
0.0
  0
LINE
  8
0
 62
     0
 10
95.5449
 20
83.1674
 30
0.0
 11
111.144
 21
83.1674
 31
0.0
  0
LINE
  8
0
 62
     0
 10
111.144
 20
83.1674
 30
0.0
 11
111.144
 21
70.3668
 31
0.0
  0
LINE
  8
0
 62
     0
 10
111.144
 20
70.3668
 30
0.0
 11
95.5449
 21
70.3668
 31
0.0
  0
LINE
  8
0
 62
     0
 10
95.5449
 20
70.3668
 30
0.0
 11
95.5449
 21
83.1674
 31
0.0
  0
LINE
  8
0
 62
     0
 10
114.595
 20
83.1674
 30
0.0
 11
130.194
 21
83.1674
 31
0.0
  0
LINE
  8
0
 62
     0
 10
130.194
 20
83.1674
 30
0.0
 11
130.194
 21
70.3668
 31
0.0
  0
LINE
  8
0
 62
     0
 10
130.194
 20
70.3668
 30
0.0
 11
114.595
 21
70.3668
 31
0.0
  0
LINE
  8
0
 62
     0
 10
114.595
 20
70.3668
 30
0.0
 11
114.595
 21
83.1674
 31
0.0
  0
LINE
  8
0
 62
     0
 10
133.644
 20
83.1674
 30
0.0
 11
149.244
 21
83.1674
 31
0.0
  0
LINE
  8
0
 62
     0
 10
149.244
 20
83.1674
 30
0.0
 11
149.244
 21
70.3668
 31
0.0
  0
LINE
  8
0
 62
     0
 10
149.244
 20
70.3668
 30
0.0
 11
133.644
 21
70.3668
 31
0.0
  0
LINE
  8
0
 62
     0
 10
133.644
 20
70.3668
 30
0.0
 11
133.644
 21
83.1674
 31
0.0
  0
LINE
  8
0
 62
     0
 10
152.695
 20
83.1674
 30
0.0
 11
168.294
 21
83.1674
 31
0.0
  0
LINE
  8
0
 62
     0
 10
168.294
 20
83.1674
 30
0.0
 11
168.294
 21
70.3668
 31
0.0
  0
LINE
  8
0
 62
     0
 10
168.294
 20
70.3668
 30
0.0
 11
152.695
 21
70.3668
 31
0.0
  0
LINE
  8
0
 62
     0
 10
152.695
 20
70.3668
 30
0.0
 11
152.695
 21
83.1674
 31
0.0
  0
LINE
  8
0
 62
     0
 10
171.745
 20
83.1674
 30
0.0
 11
187.344
 21
83.1674
 31
0.0
  0
LINE
  8
0
 62
     0
 10
187.344
 20
83.1674
 30
0.0
 11
187.344
 21
70.3668
 31
0.0
  0
LINE
  8
0
 62
     0
 10
187.344
 20
70.3668
 30
0.0
 11
171.745
 21
70.3668
 31
0.0
  0
LINE
  8
0
 62
     0
 10
171.745
 20
70.3668
 30
0.0
 11
171.745
 21
83.1674
 31
0.0
  0
LINE
  8
0
 62
     0
 10
190.795
 20
83.1674
 30
0.0
 11
206.394
 21
83.1674
 31
0.0
  0
LINE
  8
0
 62
     0
 10
206.394
 20
83.1674
 30
0.0
 11
206.394
 21
70.3668
 31
0.0
  0
LINE
  8
0
 62
     0
 10
206.394
 20
70.3668
 30
0.0
 11
190.795
 21
70.3668
 31
0.0
  0
LINE
  8
0
 62
     0
 10
190.795
 20
70.3668
 30
0.0
 11
190.795
 21
83.1674
 31
0.0
  0
LINE
  8
0
 62
     0
 10
209.845
 20
83.1674
 30
0.0
 11
225.444
 21
83.1674
 31
0.0
  0
LINE
  8
0
 62
     0
 10
225.444
 20
83.1674
 30
0.0
 11
225.444
 21
70.3668
 31
0.0
  0
LINE
  8
0
 62
     0
 10
225.444
 20
70.3668
 30
0.0
 11
209.845
 21
70.3668
 31
0.0
  0
LINE
  8
0
 62
     0
 10
209.845
 20
70.3668
 30
0.0
 11
209.845
 21
83.1674
 31
0.0
  0
LINE
  8
0
 62
     0
 10
228.895
 20
83.1674
 30
0.0
 11
244.494
 21
83.1674
 31
0.0
  0
LINE
  8
0
 62
     0
 10
244.494
 20
83.1674
 30
0.0
 11
244.494
 21
70.3668
 31
0.0
  0
LINE
  8
0
 62
     0
 10
244.494
 20
70.3668
 30
0.0
 11
228.895
 21
70.3668
 31
0.0
  0
LINE
  8
0
 62
     0
 10
228.895
 20
70.3668
 30
0.0
 11
228.895
 21
83.1674
 31
0.0
  0
LINE
  8
0
 62
     0
 10
247.945
 20
83.1674
 30
0.0
 11
263.544
 21
83.1674
 31
0.0
  0
LINE
  8
0
 62
     0
 10
263.544
 20
83.1674
 30
0.0
 11
263.544
 21
70.3668
 31
0.0
  0
LINE
  8
0
 62
     0
 10
263.544
 20
70.3668
 30
0.0
 11
247.945
 21
70.3668
 31
0.0
  0
LINE
  8
0
 62
     0
 10
247.945
 20
70.3668
 30
0.0
 11
247.945
 21
83.1674
 31
0.0
  0
LINE
  8
0
 62
     0
 10
271.757
 20
83.1674
 30
0.0
 11
287.357
 21
83.1674
 31
0.0
  0
LINE
  8
0
 62
     0
 10
287.357
 20
83.1674
 30
0.0
 11
287.357
 21
70.3668
 31
0.0
  0
LINE
  8
0
 62
     0
 10
287.357
 20
70.3668
 30
0.0
 11
271.757
 21
70.3668
 31
0.0
  0
LINE
  8
0
 62
     0
 10
271.757
 20
70.3668
 30
0.0
 11
271.757
 21
83.1674
 31
0.0
  0
LINE
  8
0
 62
     0
 10
295.57
 20
83.1674
 30
0.0
 11
311.169
 21
83.1674
 31
0.0
  0
LINE
  8
0
 62
     0
 10
311.169
 20
83.1674
 30
0.0
 11
311.169
 21
70.3668
 31
0.0
  0
LINE
  8
0
 62
     0
 10
311.169
 20
70.3668
 30
0.0
 11
295.57
 21
70.3668
 31
0.0
  0
LINE
  8
0
 62
     0
 10
295.57
 20
70.3668
 30
0.0
 11
295.57
 21
83.1674
 31
0.0
  0
LINE
  8
0
 62
     0
 10
259.366
 20
91.9441
 30
0.0
 11
262.031
 21
91.9441
 31
0.0
  0
LINE
  8
0
 62
     0
 10
262.031
 20
91.9441
 30
0.0
 11
262.031
 21
86.7364
 31
0.0
  0
LINE
  8
0
 62
     0
 10
262.031
 20
86.7364
 30
0.0
 11
259.366
 21
86.7364
 31
0.0
  0
LINE
  8
0
 62
     0
 10
259.366
 20
86.7364
 30
0.0
 11
259.366
 21
91.9441
 31
0.0
  0
LINE
  8
0
 62
     0
 10
287.558
 20
91.9441
 30
0.0
 11
290.223
 21
91.9441
 31
0.0
  0
LINE
  8
0
 62
     0
 10
290.223
 20
91.9441
 30
0.0
 11
290.223
 21
86.7364
 31
0.0
  0
LINE
  8
0
 62
     0
 10
290.223
 20
86.7364
 30
0.0
 11
287.558
 21
86.7364
 31
0.0
  0
LINE
  8
0
 62
     0
 10
287.558
 20
86.7364
 30
0.0
 11
287.558
 21
91.9441
 31
0.0
  0
LINE
  8
0
 62
     0
 10
9.81851
 20
102.217
 30
0.0
 11
25.4193
 21
102.217
 31
0.0
  0
LINE
  8
0
 62
     0
 10
25.4193
 20
102.217
 30
0.0
 11
25.4193
 21
89.4182
 31
0.0
  0
LINE
  8
0
 62
     0
 10
25.4193
 20
89.4182
 30
0.0
 11
9.81851
 21
89.4182
 31
0.0
  0
LINE
  8
0
 62
     0
 10
9.81851
 20
89.4182
 30
0.0
 11
9.81851
 21
102.217
 31
0.0
  0
LINE
  8
0
 62
     0
 10
28.8699
 20
102.217
 30
0.0
 11
44.4694
 21
102.217
 31
0.0
  0
LINE
  8
0
 62
     0
 10
44.4694
 20
102.217
 30
0.0
 11
44.4694
 21
89.4182
 31
0.0
  0
LINE
  8
0
 62
     0
 10
44.4694
 20
89.4182
 30
0.0
 11
28.8699
 21
89.4182
 31
0.0
  0
LINE
  8
0
 62
     0
 10
28.8699
 20
89.4182
 30
0.0
 11
28.8699
 21
102.217
 31
0.0
  0
LINE
  8
0
 62
     0
 10
47.9199
 20
102.217
 30
0.0
 11
63.5194
 21
102.217
 31
0.0
  0
LINE
  8
0
 62
     0
 10
63.5194
 20
102.217
 30
0.0
 11
63.5194
 21
89.4182
 31
0.0
  0
LINE
  8
0
 62
     0
 10
63.5194
 20
89.4182
 30
0.0
 11
47.9199
 21
89.4182
 31
0.0
  0
LINE
  8
0
 62
     0
 10
47.9199
 20
89.4182
 30
0.0
 11
47.9199
 21
102.217
 31
0.0
  0
LINE
  8
0
 62
     0
 10
66.9699
 20
102.217
 30
0.0
 11
82.5694
 21
102.217
 31
0.0
  0
LINE
  8
0
 62
     0
 10
82.5694
 20
102.217
 30
0.0
 11
82.5694
 21
89.4182
 31
0.0
  0
LINE
  8
0
 62
     0
 10
82.5694
 20
89.4182
 30
0.0
 11
66.9699
 21
89.4182
 31
0.0
  0
LINE
  8
0
 62
     0
 10
66.9699
 20
89.4182
 30
0.0
 11
66.9699
 21
102.217
 31
0.0
  0
LINE
  8
0
 62
     0
 10
86.0199
 20
102.217
 30
0.0
 11
101.619
 21
102.217
 31
0.0
  0
LINE
  8
0
 62
     0
 10
101.619
 20
102.217
 30
0.0
 11
101.619
 21
89.4182
 31
0.0
  0
LINE
  8
0
 62
     0
 10
101.619
 20
89.4182
 30
0.0
 11
86.0199
 21
89.4182
 31
0.0
  0
LINE
  8
0
 62
     0
 10
86.0199
 20
89.4182
 30
0.0
 11
86.0199
 21
102.217
 31
0.0
  0
LINE
  8
0
 62
     0
 10
105.07
 20
102.217
 30
0.0
 11
120.669
 21
102.217
 31
0.0
  0
LINE
  8
0
 62
     0
 10
120.669
 20
102.217
 30
0.0
 11
120.669
 21
89.4182
 31
0.0
  0
LINE
  8
0
 62
     0
 10
120.669
 20
89.4182
 30
0.0
 11
105.07
 21
89.4182
 31
0.0
  0
LINE
  8
0
 62
     0
 10
105.07
 20
89.4182
 30
0.0
 11
105.07
 21
102.217
 31
0.0
  0
LINE
  8
0
 62
     0
 10
124.119
 20
102.217
 30
0.0
 11
139.719
 21
102.217
 31
0.0
  0
LINE
  8
0
 62
     0
 10
139.719
 20
102.217
 30
0.0
 11
139.719
 21
89.4182
 31
0.0
  0
LINE
  8
0
 62
     0
 10
139.719
 20
89.4182
 30
0.0
 11
124.119
 21
89.4182
 31
0.0
  0
LINE
  8
0
 62
     0
 10
124.119
 20
89.4182
 30
0.0
 11
124.119
 21
102.217
 31
0.0
  0
LINE
  8
0
 62
     0
 10
143.17
 20
102.217
 30
0.0
 11
158.769
 21
102.217
 31
0.0
  0
LINE
  8
0
 62
     0
 10
158.769
 20
102.217
 30
0.0
 11
158.769
 21
89.4182
 31
0.0
  0
LINE
  8
0
 62
     0
 10
158.769
 20
89.4182
 30
0.0
 11
143.17
 21
89.4182
 31
0.0
  0
LINE
  8
0
 62
     0
 10
143.17
 20
89.4182
 30
0.0
 11
143.17
 21
102.217
 31
0.0
  0
LINE
  8
0
 62
     0
 10
162.22
 20
102.217
 30
0.0
 11
177.819
 21
102.217
 31
0.0
  0
LINE
  8
0
 62
     0
 10
177.819
 20
102.217
 30
0.0
 11
177.819
 21
89.4182
 31
0.0
  0
LINE
  8
0
 62
     0
 10
177.819
 20
89.4182
 30
0.0
 11
162.22
 21
89.4182
 31
0.0
  0
LINE
  8
0
 62
     0
 10
162.22
 20
89.4182
 30
0.0
 11
162.22
 21
102.217
 31
0.0
  0
LINE
  8
0
 62
     0
 10
181.27
 20
102.217
 30
0.0
 11
196.869
 21
102.217
 31
0.0
  0
LINE
  8
0
 62
     0
 10
196.869
 20
102.217
 30
0.0
 11
196.869
 21
89.4182
 31
0.0
  0
LINE
  8
0
 62
     0
 10
196.869
 20
89.4182
 30
0.0
 11
181.27
 21
89.4182
 31
0.0
  0
LINE
  8
0
 62
     0
 10
181.27
 20
89.4182
 30
0.0
 11
181.27
 21
102.217
 31
0.0
  0
LINE
  8
0
 62
     0
 10
200.32
 20
102.217
 30
0.0
 11
215.919
 21
102.217
 31
0.0
  0
LINE
  8
0
 62
     0
 10
215.919
 20
102.217
 30
0.0
 11
215.919
 21
89.4182
 31
0.0
  0
LINE
  8
0
 62
     0
 10
215.919
 20
89.4182
 30
0.0
 11
200.32
 21
89.4182
 31
0.0
  0
LINE
  8
0
 62
     0
 10
200.32
 20
89.4182
 30
0.0
 11
200.32
 21
102.217
 31
0.0
  0
LINE
  8
0
 62
     0
 10
219.37
 20
102.217
 30
0.0
 11
234.969
 21
102.217
 31
0.0
  0
LINE
  8
0
 62
     0
 10
234.969
 20
102.217
 30
0.0
 11
234.969
 21
89.4182
 31
0.0
  0
LINE
  8
0
 62
     0
 10
234.969
 20
89.4182
 30
0.0
 11
219.37
 21
89.4182
 31
0.0
  0
LINE
  8
0
 62
     0
 10
219.37
 20
89.4182
 30
0.0
 11
219.37
 21
102.217
 31
0.0
  0
LINE
  8
0
 62
     0
 10
238.42
 20
102.217
 30
0.0
 11
254.019
 21
102.217
 31
0.0
  0
LINE
  8
0
 62
     0
 10
254.019
 20
102.217
 30
0.0
 11
254.019
 21
89.4182
 31
0.0
  0
LINE
  8
0
 62
     0
 10
254.019
 20
89.4182
 30
0.0
 11
238.42
 21
89.4182
 31
0.0
  0
LINE
  8
0
 62
     0
 10
238.42
 20
89.4182
 30
0.0
 11
238.42
 21
102.217
 31
0.0
  0
LINE
  8
0
 62
     0
 10
266.995
 20
102.217
 30
0.0
 11
282.594
 21
102.217
 31
0.0
  0
LINE
  8
0
 62
     0
 10
282.594
 20
102.217
 30
0.0
 11
282.594
 21
89.4182
 31
0.0
  0
LINE
  8
0
 62
     0
 10
282.594
 20
89.4182
 30
0.0
 11
266.995
 21
89.4182
 31
0.0
  0
LINE
  8
0
 62
     0
 10
266.995
 20
89.4182
 30
0.0
 11
266.995
 21
102.217
 31
0.0
  0
LINE
  8
0
 62
     0
 10
295.57
 20
102.217
 30
0.0
 11
311.169
 21
102.217
 31
0.0
  0
LINE
  8
0
 62
     0
 10
311.169
 20
102.217
 30
0.0
 11
311.169
 21
89.4182
 31
0.0
  0
LINE
  8
0
 62
     0
 10
311.169
 20
89.4182
 30
0.0
 11
295.57
 21
89.4182
 31
0.0
  0
LINE
  8
0
 62
     0
 10
295.57
 20
89.4182
 30
0.0
 11
295.57
 21
102.217
 31
0.0
  0
LINE
  8
0
 62
     0
 10
4.63021
 20
111.77
 30
0.0
 11
4.21266
 21
111.556
 31
0.0
  0
LINE
  8
0
 62
     0
 10
4.21266
 20
111.556
 30
0.0
 11
3.88056
 21
111.226
 31
0.0
  0
LINE
  8
0
 62
     0
 10
3.88056
 20
111.226
 30
0.0
 11
3.66832
 21
110.807
 31
0.0
  0
LINE
  8
0
 62
     0
 10
3.66832
 20
110.807
 30
0.0
 11
3.5953
 21
110.344
 31
0.0
  0
LINE
  8
0
 62
     0
 10
3.5953
 20
110.344
 30
0.0
 11
3.66832
 21
109.879
 31
0.0
  0
LINE
  8
0
 62
     0
 10
3.66832
 20
109.879
 30
0.0
 11
3.88056
 21
109.462
 31
0.0
  0
LINE
  8
0
 62
     0
 10
3.88056
 20
109.462
 30
0.0
 11
4.21266
 21
109.13
 31
0.0
  0
LINE
  8
0
 62
     0
 10
4.21266
 20
109.13
 30
0.0
 11
4.63021
 21
108.917
 31
0.0
  0
LINE
  8
0
 62
     0
 10
4.63021
 20
108.917
 30
0.0
 11
5.0946
 21
108.843
 31
0.0
  0
LINE
  8
0
 62
     0
 10
5.0946
 20
108.843
 30
0.0
 11
5.55763
 21
108.917
 31
0.0
  0
LINE
  8
0
 62
     0
 10
5.55763
 20
108.917
 30
0.0
 11
5.97517
 21
109.13
 31
0.0
  0
LINE
  8
0
 62
     0
 10
5.97517
 20
109.13
 30
0.0
 11
6.30728
 21
109.462
 31
0.0
  0
LINE
  8
0
 62
     0
 10
6.30728
 20
109.462
 30
0.0
 11
6.52089
 21
109.879
 31
0.0
  0
LINE
  8
0
 62
     0
 10
6.52089
 20
109.879
 30
0.0
 11
6.59529
 21
110.344
 31
0.0
  0
LINE
  8
0
 62
     0
 10
6.59529
 20
110.344
 30
0.0
 11
6.52089
 21
110.807
 31
0.0
  0
LINE
  8
0
 62
     0
 10
6.52089
 20
110.807
 30
0.0
 11
6.30728
 21
111.226
 31
0.0
  0
LINE
  8
0
 62
     0
 10
6.30728
 20
111.226
 30
0.0
 11
5.97517
 21
111.556
 31
0.0
  0
LINE
  8
0
 62
     0
 10
5.97517
 20
111.556
 30
0.0
 11
5.55763
 21
111.77
 31
0.0
  0
LINE
  8
0
 62
     0
 10
5.55763
 20
111.77
 30
0.0
 11
5.0946
 21
111.843
 31
0.0
  0
LINE
  8
0
 62
     0
 10
5.0946
 20
111.843
 30
0.0
 11
4.63021
 21
111.77
 31
0.0
  0
LINE
  8
0
 62
     0
 10
160.03
 20
111.77
 30
0.0
 11
159.613
 21
111.556
 31
0.0
  0
LINE
  8
0
 62
     0
 10
159.613
 20
111.556
 30
0.0
 11
159.281
 21
111.226
 31
0.0
  0
LINE
  8
0
 62
     0
 10
159.281
 20
111.226
 30
0.0
 11
159.068
 21
110.807
 31
0.0
  0
LINE
  8
0
 62
     0
 10
159.068
 20
110.807
 30
0.0
 11
158.995
 21
110.344
 31
0.0
  0
LINE
  8
0
 62
     0
 10
158.995
 20
110.344
 30
0.0
 11
159.068
 21
109.879
 31
0.0
  0
LINE
  8
0
 62
     0
 10
159.068
 20
109.879
 30
0.0
 11
159.281
 21
109.462
 31
0.0
  0
LINE
  8
0
 62
     0
 10
159.281
 20
109.462
 30
0.0
 11
159.613
 21
109.13
 31
0.0
  0
LINE
  8
0
 62
     0
 10
159.613
 20
109.13
 30
0.0
 11
160.03
 21
108.917
 31
0.0
  0
LINE
  8
0
 62
     0
 10
160.03
 20
108.917
 30
0.0
 11
160.494
 21
108.843
 31
0.0
  0
LINE
  8
0
 62
     0
 10
160.494
 20
108.843
 30
0.0
 11
160.959
 21
108.917
 31
0.0
  0
LINE
  8
0
 62
     0
 10
160.959
 20
108.917
 30
0.0
 11
161.376
 21
109.13
 31
0.0
  0
LINE
  8
0
 62
     0
 10
161.376
 20
109.13
 30
0.0
 11
161.709
 21
109.462
 31
0.0
  0
LINE
  8
0
 62
     0
 10
161.709
 20
109.462
 30
0.0
 11
161.922
 21
109.879
 31
0.0
  0
LINE
  8
0
 62
     0
 10
161.922
 20
109.879
 30
0.0
 11
161.995
 21
110.344
 31
0.0
  0
LINE
  8
0
 62
     0
 10
161.995
 20
110.344
 30
0.0
 11
161.922
 21
110.807
 31
0.0
  0
LINE
  8
0
 62
     0
 10
161.922
 20
110.807
 30
0.0
 11
161.709
 21
111.226
 31
0.0
  0
LINE
  8
0
 62
     0
 10
161.709
 20
111.226
 30
0.0
 11
161.376
 21
111.556
 31
0.0
  0
LINE
  8
0
 62
     0
 10
161.376
 20
111.556
 30
0.0
 11
160.959
 21
111.77
 31
0.0
  0
LINE
  8
0
 62
     0
 10
160.959
 20
111.77
 30
0.0
 11
160.494
 21
111.843
 31
0.0
  0
LINE
  8
0
 62
     0
 10
160.494
 20
111.843
 30
0.0
 11
160.03
 21
111.77
 31
0.0
  0
LINE
  8
0
 62
     0
 10
315.432
 20
111.77
 30
0.0
 11
315.014
 21
111.556
 31
0.0
  0
LINE
  8
0
 62
     0
 10
315.014
 20
111.556
 30
0.0
 11
314.682
 21
111.226
 31
0.0
  0
LINE
  8
0
 62
     0
 10
314.682
 20
111.226
 30
0.0
 11
314.468
 21
110.807
 31
0.0
  0
LINE
  8
0
 62
     0
 10
314.468
 20
110.807
 30
0.0
 11
314.395
 21
110.344
 31
0.0
  0
LINE
  8
0
 62
     0
 10
314.395
 20
110.344
 30
0.0
 11
314.468
 21
109.879
 31
0.0
  0
LINE
  8
0
 62
     0
 10
314.468
 20
109.879
 30
0.0
 11
314.682
 21
109.462
 31
0.0
  0
LINE
  8
0
 62
     0
 10
314.682
 20
109.462
 30
0.0
 11
315.014
 21
109.13
 31
0.0
  0
LINE
  8
0
 62
     0
 10
315.014
 20
109.13
 30
0.0
 11
315.432
 21
108.917
 31
0.0
  0
LINE
  8
0
 62
     0
 10
315.432
 20
108.917
 30
0.0
 11
315.896
 21
108.843
 31
0.0
  0
LINE
  8
0
 62
     0
 10
315.896
 20
108.843
 30
0.0
 11
316.359
 21
108.917
 31
0.0
  0
LINE
  8
0
 62
     0
 10
316.359
 20
108.917
 30
0.0
 11
316.776
 21
109.13
 31
0.0
  0
LINE
  8
0
 62
     0
 10
316.776
 20
109.13
 30
0.0
 11
317.109
 21
109.462
 31
0.0
  0
LINE
  8
0
 62
     0
 10
317.109
 20
109.462
 30
0.0
 11
317.322
 21
109.879
 31
0.0
  0
LINE
  8
0
 62
     0
 10
317.322
 20
109.879
 30
0.0
 11
317.395
 21
110.344
 31
0.0
  0
LINE
  8
0
 62
     0
 10
317.395
 20
110.344
 30
0.0
 11
317.322
 21
110.807
 31
0.0
  0
LINE
  8
0
 62
     0
 10
317.322
 20
110.807
 30
0.0
 11
317.109
 21
111.226
 31
0.0
  0
LINE
  8
0
 62
     0
 10
317.109
 20
111.226
 30
0.0
 11
316.776
 21
111.556
 31
0.0
  0
LINE
  8
0
 62
     0
 10
316.776
 20
111.556
 30
0.0
 11
316.359
 21
111.77
 31
0.0
  0
LINE
  8
0
 62
     0
 10
316.359
 20
111.77
 30
0.0
 11
315.896
 21
111.843
 31
0.0
  0
LINE
  8
0
 62
     0
 10
315.896
 20
111.843
 30
0.0
 11
315.432
 21
111.77
 31
0.0
  0
ENDSEC
  0
EOF
