<?xml version="1.0" encoding="UTF-8"?>
<!-- Generated by SVGo -->
<svg width="330.802mm" height="125.251mm" viewBox="0.000 0.000 330.802 125.251" xmlns="http://www.w3.org/2000/svg" xmlns:xlink="http://www.w3.org/1999/xlink">
<polygon points="323.802,5.001 323.958,5.007 324.114,5.025 324.268,5.056 324.420,5.098 324.567,5.153 324.709,5.218 324.846,5.295 324.977,5.382 325.100,5.480 325.216,5.586 325.322,5.702 325.420,5.825 325.507,5.956 325.584,6.093 325.649,6.235 325.704,6.382 325.746,6.534 325.777,6.688 325.795,6.844 325.802,7.001 325.802,118.251 325.795,118.408 325.777,118.564 325.746,118.718 325.704,118.870 325.649,119.017 325.584,119.159 325.507,119.296 325.420,119.427 325.322,119.550 325.216,119.666 325.100,119.772 324.977,119.870 324.846,119.957 324.709,120.034 324.567,120.099 324.420,120.154 324.268,120.196 324.114,120.227 323.958,120.245 323.802,120.251 7.001,120.251 6.844,120.245 6.688,120.227 6.534,120.196 6.382,120.154 6.235,120.099 6.093,120.034 5.956,119.957 5.825,119.870 5.702,119.772 5.586,119.666 5.480,119.550 5.382,119.427 5.295,119.296 5.218,119.159 5.153,119.017 5.098,118.870 5.056,118.718 5.025,118.564 5.007,118.408 5.000,118.252 5.001,7.001 5.007,6.844 5.025,6.688 5.056,6.534 5.098,6.382 5.153,6.235 5.218,6.093 5.295,5.956 5.382,5.825 5.480,5.702 5.586,5.586 5.702,5.480 5.825,5.382 5.956,5.295 6.093,5.218 6.235,5.153 6.382,5.098 6.534,5.056 6.688,5.025 6.844,5.007 7.001,5.000" style="fill:none;stroke-width:0.050000mm;stroke:black"/>
<polygon points="9.537,113.825 9.119,114.038 8.787,114.370 8.574,114.788 8.501,115.251 8.574,115.715 8.787,116.133 9.119,116.465 9.537,116.678 10.001,116.751 10.464,116.678 10.882,116.465 11.214,116.133 11.427,115.715 11.501,115.251 11.427,114.788 11.214,114.370 10.882,114.038 10.464,113.825 10.001,113.751" style="fill:none;stroke-width:0.050000mm;stroke:black"/>
<polygon points="164.937,113.825 164.519,114.038 164.187,114.370 163.974,114.788 163.901,115.251 163.974,115.715 164.187,116.133 164.519,116.465 164.937,116.678 165.401,116.751 165.865,116.678 166.283,116.465 166.615,116.133 166.828,115.715 166.901,115.251 166.828,114.788 166.615,114.370 166.283,114.038 165.865,113.825 165.401,113.751" style="fill:none;stroke-width:0.050000mm;stroke:black"/>
<polygon points="320.338,113.825 319.920,114.038 319.588,114.370 319.375,114.788 319.302,115.251 319.375,115.715 319.588,116.133 319.920,116.465 320.338,116.678 320.802,116.751 321.265,116.678 321.683,116.465 322.015,116.133 322.228,115.715 322.302,115.251 322.228,114.788 322.015,114.370 321.683,114.038 321.265,113.825 320.802,113.751" style="fill:none;stroke-width:0.050000mm;stroke:black"/>
<polygon points="109.243,104.599 109.243,109.805 111.909,109.805 111.909,104.599" style="fill:none;stroke-width:0.050000mm;stroke:black"/>
<polygon points="199.842,104.599 199.842,109.805 202.508,109.805 202.508,104.599" style="fill:none;stroke-width:0.050000mm;stroke:black"/>
<polygon points="19.488,94.325 19.488,107.126 35.088,107.126 35.088,94.325" style="fill:none;stroke-width:0.050000mm;stroke:black"/>
<polygon points="45.682,94.325 45.682,107.126 61.282,107.126 61.282,94.325" style="fill:none;stroke-width:0.050000mm;stroke:black"/>
<polygon points="71.876,94.325 71.876,107.126 87.476,107.126 87.476,94.325" style="fill:none;stroke-width:0.050000mm;stroke:black"/>
<polygon points="148.076,94.325 148.076,107.126 163.676,107.126 163.676,94.325" style="fill:none;stroke-width:0.050000mm;stroke:black"/>
<polygon points="221.894,94.325 221.894,107.126 237.494,107.126 237.494,94.325" style="fill:none;stroke-width:0.050000mm;stroke:black"/>
<polygon points="243.326,94.325 243.326,107.126 258.926,107.126 258.926,94.325" style="fill:none;stroke-width:0.050000mm;stroke:black"/>
<polygon points="262.376,94.325 262.376,107.126 277.976,107.126 277.976,94.325" style="fill:none;stroke-width:0.050000mm;stroke:black"/>
<polygon points="281.426,94.325 281.426,107.126 297.026,107.126 297.026,94.325" style="fill:none;stroke-width:0.050000mm;stroke:black"/>
<polygon points="300.476,94.325 300.476,107.126 316.076,107.126 316.076,94.325" style="fill:none;stroke-width:0.050000mm;stroke:black"/>
<polygon points="19.003,85.549 19.003,90.756 21.669,90.756 21.669,85.549" style="fill:none;stroke-width:0.050000mm;stroke:black"/>
<polygon points="47.195,85.549 47.195,90.756 49.861,90.756 49.861,85.549" style="fill:none;stroke-width:0.050000mm;stroke:black"/>
<polygon points="249.761,85.549 249.761,90.756 252.427,90.756 252.427,85.549" style="fill:none;stroke-width:0.050000mm;stroke:black"/>
<polygon points="273.637,85.549 273.637,90.756 276.303,90.756 276.303,85.549" style="fill:none;stroke-width:0.050000mm;stroke:black"/>
<polygon points="26.632,75.275 26.632,88.076 42.232,88.076 42.232,75.275" style="fill:none;stroke-width:0.050000mm;stroke:black"/>
<polygon points="57.588,75.275 57.588,88.076 73.188,88.076 73.188,75.275" style="fill:none;stroke-width:0.050000mm;stroke:black"/>
<polygon points="76.638,75.275 76.638,88.076 92.238,88.076 92.238,75.275" style="fill:none;stroke-width:0.050000mm;stroke:black"/>
<polygon points="95.688,75.275 95.688,88.076 111.288,88.076 111.288,75.275" style="fill:none;stroke-width:0.050000mm;stroke:black"/>
<polygon points="114.738,75.275 114.738,88.076 130.337,88.076 130.337,75.275" style="fill:none;stroke-width:0.050000mm;stroke:black"/>
<polygon points="133.788,75.275 133.788,88.076 149.388,88.076 149.388,75.275" style="fill:none;stroke-width:0.050000mm;stroke:black"/>
<polygon points="152.838,75.275 152.838,88.076 168.438,88.076 168.438,75.275" style="fill:none;stroke-width:0.050000mm;stroke:black"/>
<polygon points="171.888,75.275 171.888,88.076 187.488,88.076 187.488,75.275" style="fill:none;stroke-width:0.050000mm;stroke:black"/>
<polygon points="190.938,75.275 190.938,88.076 206.538,88.076 206.538,75.275" style="fill:none;stroke-width:0.050000mm;stroke:black"/>
<polygon points="209.988,75.275 209.988,88.076 225.588,88.076 225.588,75.275" style="fill:none;stroke-width:0.050000mm;stroke:black"/>
<polygon points="229.038,75.275 229.038,88.076 244.638,88.076 244.638,75.275" style="fill:none;stroke-width:0.050000mm;stroke:black"/>
<polygon points="255.232,75.275 255.232,88.076 270.832,88.076 270.832,75.275" style="fill:none;stroke-width:0.050000mm;stroke:black"/>
<polygon points="281.426,75.275 281.426,88.076 297.026,88.076 297.026,75.275" style="fill:none;stroke-width:0.050000mm;stroke:black"/>
<polygon points="300.476,75.275 300.476,88.076 316.076,88.076 316.076,75.275" style="fill:none;stroke-width:0.050000mm;stroke:black"/>
<polygon points="16.398,66.499 16.398,71.706 19.064,71.706 19.064,66.499" style="fill:none;stroke-width:0.050000mm;stroke:black"/>
<polygon points="40.274,66.499 40.274,71.706 42.940,71.706 42.940,66.499" style="fill:none;stroke-width:0.050000mm;stroke:black"/>
<polygon points="261.890,66.499 261.890,71.706 264.556,71.706 264.556,66.499" style="fill:none;stroke-width:0.050000mm;stroke:black"/>
<polygon points="290.082,66.499 290.082,71.706 292.748,71.706 292.748,66.499" style="fill:none;stroke-width:0.050000mm;stroke:black"/>
<polygon points="21.869,56.226 21.869,69.026 37.469,69.026 37.469,56.226" style="fill:none;stroke-width:0.050000mm;stroke:black"/>
<polygon points="48.063,56.226 48.063,69.026 63.663,69.026 63.663,56.226" style="fill:none;stroke-width:0.050000mm;stroke:black"/>
<polygon points="67.113,56.226 67.113,69.026 82.713,69.026 82.713,56.226" style="fill:none;stroke-width:0.050000mm;stroke:black"/>
<polygon points="86.163,56.226 86.163,69.026 101.763,69.026 101.763,56.226" style="fill:none;stroke-width:0.050000mm;stroke:black"/>
<polygon points="105.213,56.226 105.213,69.026 120.813,69.026 120.813,56.226" style="fill:none;stroke-width:0.050000mm;stroke:black"/>
<polygon points="124.263,56.226 124.263,69.026 139.863,69.026 139.863,56.226" style="fill:none;stroke-width:0.050000mm;stroke:black"/>
<polygon points="143.313,56.226 143.313,69.026 158.913,69.026 158.913,56.226" style="fill:none;stroke-width:0.050000mm;stroke:black"/>
<polygon points="162.363,56.226 162.363,69.026 177.963,69.026 177.963,56.226" style="fill:none;stroke-width:0.050000mm;stroke:black"/>
<polygon points="181.413,56.226 181.413,69.026 197.013,69.026 197.013,56.226" style="fill:none;stroke-width:0.050000mm;stroke:black"/>
<polygon points="200.463,56.226 200.463,69.026 216.063,69.026 216.063,56.226" style="fill:none;stroke-width:0.050000mm;stroke:black"/>
<polygon points="219.513,56.226 219.513,69.026 235.113,69.026 235.113,56.226" style="fill:none;stroke-width:0.050000mm;stroke:black"/>
<polygon points="238.563,56.226 238.563,69.026 254.163,69.026 254.163,56.226" style="fill:none;stroke-width:0.050000mm;stroke:black"/>
<polygon points="269.519,56.226 269.519,69.026 285.119,69.026 285.119,56.226" style="fill:none;stroke-width:0.050000mm;stroke:black"/>
<polygon points="300.476,56.226 300.476,69.026 316.076,69.026 316.076,56.226" style="fill:none;stroke-width:0.050000mm;stroke:black"/>
<polygon points="19.488,37.176 19.488,49.976 35.088,49.976 35.088,37.176" style="fill:none;stroke-width:0.050000mm;stroke:black"/>
<polygon points="43.301,37.176 43.301,49.976 58.901,49.976 58.901,37.176" style="fill:none;stroke-width:0.050000mm;stroke:black"/>
<polygon points="62.351,37.176 62.351,49.976 77.951,49.976 77.951,37.176" style="fill:none;stroke-width:0.050000mm;stroke:black"/>
<polygon points="81.401,37.176 81.401,49.976 97.001,49.976 97.001,37.176" style="fill:none;stroke-width:0.050000mm;stroke:black"/>
<polygon points="100.451,37.176 100.451,49.976 116.051,49.976 116.051,37.176" style="fill:none;stroke-width:0.050000mm;stroke:black"/>
<polygon points="119.501,37.176 119.501,49.976 135.101,49.976 135.101,37.176" style="fill:none;stroke-width:0.050000mm;stroke:black"/>
<polygon points="138.550,37.176 138.550,49.976 154.151,49.976 154.151,37.176" style="fill:none;stroke-width:0.050000mm;stroke:black"/>
<polygon points="157.601,37.176 157.601,49.976 173.201,49.976 173.201,37.176" style="fill:none;stroke-width:0.050000mm;stroke:black"/>
<polygon points="176.651,37.176 176.651,49.976 192.251,49.976 192.251,37.176" style="fill:none;stroke-width:0.050000mm;stroke:black"/>
<polygon points="195.701,37.176 195.701,49.976 211.301,49.976 211.301,37.176" style="fill:none;stroke-width:0.050000mm;stroke:black"/>
<polygon points="214.751,37.176 214.751,49.976 230.351,49.976 230.351,37.176" style="fill:none;stroke-width:0.050000mm;stroke:black"/>
<polygon points="233.801,37.176 233.801,49.976 249.401,49.976 249.401,37.176" style="fill:none;stroke-width:0.050000mm;stroke:black"/>
<polygon points="252.851,37.176 252.851,49.976 268.451,49.976 268.451,37.176" style="fill:none;stroke-width:0.050000mm;stroke:black"/>
<polygon points="276.663,37.176 276.663,49.976 292.263,49.976 292.263,37.176" style="fill:none;stroke-width:0.050000mm;stroke:black"/>
<polygon points="300.476,37.176 300.476,49.976 316.076,49.976 316.076,37.176" style="fill:none;stroke-width:0.050000mm;stroke:black"/>
<polygon points="264.272,28.399 264.272,33.606 266.938,33.606 266.938,28.399" style="fill:none;stroke-width:0.050000mm;stroke:black"/>
<polygon points="292.464,28.399 292.464,33.606 295.130,33.606 295.130,28.399" style="fill:none;stroke-width:0.050000mm;stroke:black"/>
<polygon points="14.725,18.126 14.725,30.925 30.326,30.925 30.326,18.126" style="fill:none;stroke-width:0.050000mm;stroke:black"/>
<polygon points="33.776,18.126 33.776,30.925 49.376,30.925 49.376,18.126" style="fill:none;stroke-width:0.050000mm;stroke:black"/>
<polygon points="52.826,18.126 52.826,30.925 68.426,30.925 68.426,18.126" style="fill:none;stroke-width:0.050000mm;stroke:black"/>
<polygon points="71.876,18.126 71.876,30.925 87.476,30.925 87.476,18.126" style="fill:none;stroke-width:0.050000mm;stroke:black"/>
<polygon points="90.926,18.126 90.926,30.925 106.525,30.925 106.525,18.126" style="fill:none;stroke-width:0.050000mm;stroke:black"/>
<polygon points="109.976,18.126 109.976,30.925 125.575,30.925 125.575,18.126" style="fill:none;stroke-width:0.050000mm;stroke:black"/>
<polygon points="129.025,18.126 129.025,30.925 144.626,30.925 144.626,18.126" style="fill:none;stroke-width:0.050000mm;stroke:black"/>
<polygon points="148.076,18.126 148.076,30.925 163.676,30.925 163.676,18.126" style="fill:none;stroke-width:0.050000mm;stroke:black"/>
<polygon points="167.126,18.126 167.126,30.925 182.726,30.925 182.726,18.126" style="fill:none;stroke-width:0.050000mm;stroke:black"/>
<polygon points="186.176,18.126 186.176,30.925 201.776,30.925 201.776,18.126" style="fill:none;stroke-width:0.050000mm;stroke:black"/>
<polygon points="205.226,18.126 205.226,30.925 220.826,30.925 220.826,18.126" style="fill:none;stroke-width:0.050000mm;stroke:black"/>
<polygon points="224.276,18.126 224.276,30.925 239.876,30.925 239.876,18.126" style="fill:none;stroke-width:0.050000mm;stroke:black"/>
<polygon points="243.326,18.126 243.326,30.925 258.926,30.925 258.926,18.126" style="fill:none;stroke-width:0.050000mm;stroke:black"/>
<polygon points="271.901,18.126 271.901,30.925 287.501,30.925 287.501,18.126" style="fill:none;stroke-width:0.050000mm;stroke:black"/>
<polygon points="300.476,18.126 300.476,30.925 316.076,30.925 316.076,18.126" style="fill:none;stroke-width:0.050000mm;stroke:black"/>
<polygon points="9.537,8.574 9.119,8.787 8.787,9.119 8.574,9.537 8.501,10.001 8.574,10.464 8.787,10.882 9.119,11.214 9.537,11.427 10.001,11.501 10.464,11.427 10.882,11.214 11.214,10.882 11.427,10.464 11.501,10.001 11.427,9.537 11.214,9.119 10.882,8.787 10.464,8.574 10.001,8.501" style="fill:none;stroke-width:0.050000mm;stroke:black"/>
<polygon points="164.937,8.574 164.519,8.787 164.187,9.119 163.974,9.537 163.901,10.001 163.974,10.464 164.187,10.882 164.519,11.214 164.937,11.427 165.401,11.501 165.865,11.427 166.283,11.214 166.615,10.882 166.828,10.464 166.901,10.001 166.828,9.537 166.615,9.119 166.283,8.787 165.865,8.574 165.401,8.501" style="fill:none;stroke-width:0.050000mm;stroke:black"/>
<polygon points="320.338,8.574 319.920,8.787 319.588,9.119 319.375,9.537 319.302,10.001 319.375,10.464 319.588,10.882 319.920,11.214 320.338,11.427 320.802,11.501 321.265,11.427 321.683,11.214 322.015,10.882 322.228,10.464 322.302,10.001 322.228,9.537 322.015,9.119 321.683,8.787 321.265,8.574 320.802,8.501" style="fill:none;stroke-width:0.050000mm;stroke:black"/>
</svg>